<?xml version="1.0" encoding="UTF-8"?>
<!DOCTYPE svg PUBLIC "-//W3C//DTD SVG 1.1//EN" "http://www.w3.org/Graphics/SVG/1.1/DTD/svg11.dtd">
<!-- Creator: CorelDRAW 2023 -->
<svg xmlns="http://www.w3.org/2000/svg" xml:space="preserve" width="431px" height="400px" version="1.1" style="shape-rendering:geometricPrecision; text-rendering:geometricPrecision; image-rendering:optimizeQuality; fill-rule:evenodd; clip-rule:evenodd"
viewBox="0 0 22.87 21.24"
 xmlns:xlink="http://www.w3.org/1999/xlink"
 xmlns:xodm="http://www.corel.com/coreldraw/odm/2003">
 <defs>
  <style type="text/css">
   <![CDATA[
    .str0 {stroke:#FF6200;stroke-width:0.22;stroke-miterlimit:22.9256}
    .fil15 {fill:#F5874F;fill-rule:nonzero}
    .fil11 {fill:#263138;fill-rule:nonzero}
    .fil12 {fill:#26DDBF;fill-rule:nonzero}
    .fil21 {fill:#340060;fill-rule:nonzero}
    .fil10 {fill:#36464F;fill-rule:nonzero}
    .fil9 {fill:#445964;fill-rule:nonzero}
    .fil23 {fill:#6A00BD;fill-rule:nonzero}
    .fil2 {fill:#9617FF;fill-rule:nonzero}
    .fil6 {fill:#C17BFF;fill-rule:nonzero}
    .fil18 {fill:#DC5400;fill-rule:nonzero}
    .fil7 {fill:#DFDFDF;fill-rule:nonzero}
    .fil5 {fill:#E4C9FF;fill-rule:nonzero}
    .fil1 {fill:#EBEBEB;fill-rule:nonzero}
    .fil8 {fill:#EFEFEF;fill-rule:nonzero}
    .fil22 {fill:#F28E8E;fill-rule:nonzero}
    .fil0 {fill:#F4F4F4;fill-rule:nonzero}
    .fil13 {fill:#FF6200;fill-rule:nonzero}
    .fil14 {fill:#FFA26A;fill-rule:nonzero}
    .fil20 {fill:#FFA8A7;fill-rule:nonzero}
    .fil4 {fill:white;fill-rule:nonzero}
    .fil16 {fill:#F5874F;fill-rule:nonzero;fill-opacity:0.101961}
    .fil24 {fill:#6A00BD;fill-rule:nonzero;fill-opacity:0.200000}
    .fil3 {fill:#9617FF;fill-rule:nonzero;fill-opacity:0.200000}
    .fil19 {fill:#DC5400;fill-rule:nonzero;fill-opacity:0.200000}
    .fil17 {fill:#FF6200;fill-rule:nonzero;fill-opacity:0.200000}
    .fil25 {fill:#340060;fill-rule:nonzero;fill-opacity:0.301961}
    .fil26 {fill:#E4C9FF;fill-rule:nonzero;fill-opacity:0.701961}
   ]]>
  </style>
 </defs>
 <g id="Camada_x0020_1">
  <metadata id="CorelCorpID_0Corel-Layer"/>
  <g id="_1762709956480">
   <path class="fil0" d="M3.35 19.65c4.47,2.12 11.71,2.12 16.17,0 4.47,-2.13 4.47,-5.58 0,-7.71 -4.46,-2.13 -11.7,-2.13 -16.17,0 -4.47,2.13 -4.47,5.58 0,7.71z"/>
   <path class="fil1" d="M18.45 17.86c0.58,0.28 1.53,0.28 2.11,0 0.58,-0.27 0.58,-0.72 0,-1 -0.58,-0.28 -1.53,-0.28 -2.11,0 -0.58,0.28 -0.58,0.73 0,1z"/>
   <g>
    <g>
     <g>
      <g>
       <path class="fil2" d="M3.01 17.46l0.52 -0.3c0,0 0.44,-0.32 0.65,-0.91 0.17,-0.45 0.14,-0.79 0.03,-0.96 -0.15,-0.21 -0.52,-0.18 -0.53,0.27 -0.03,0.87 -0.29,1.48 -0.67,1.9z"/>
       <path class="fil3" d="M3.01 17.46l0.52 -0.3c0,0 0.44,-0.32 0.65,-0.91 0.17,-0.45 0.14,-0.79 0.03,-0.96 -0.15,-0.21 -0.52,-0.18 -0.53,0.27 -0.03,0.87 -0.29,1.48 -0.67,1.9z"/>
      </g>
      <path class="fil4" d="M3.01 17.5c-0.01,0 -0.02,-0.01 -0.03,-0.02 -0.01,-0.01 -0.01,-0.03 0.01,-0.04 1.22,-0.85 0.98,-2.02 0.98,-2.03 -0.01,-0.02 0.01,-0.04 0.02,-0.04 0.02,0 0.04,0.01 0.04,0.02 0,0.02 0.25,1.23 -1,2.1 -0.01,0 -0.02,0.01 -0.02,0.01z"/>
     </g>
     <g>
      <path class="fil5" d="M1.95 18.07c0,0 -0.18,-0.15 -0.13,-0.35 0.04,-0.2 0.16,-0.35 -0.05,-0.61 -0.2,-0.26 -0.25,-0.6 -0.01,-0.79 0.18,-0.15 0.47,0.06 0.58,-0.33 0.07,-0.28 0.05,-0.9 0.4,-1.11 0.36,-0.21 0.59,0.11 0.53,0.53 -0.05,0.38 -0.12,0.74 -0.06,0.84 0.1,0.19 0.28,0.17 0.27,0.52 -0.01,0.33 -0.32,0.61 -0.32,0.61l-1.21 0.69z"/>
      <path class="fil4" d="M2.56 17.76c-0.02,0 -0.03,-0.02 -0.04,-0.03 -0.09,-0.77 0.13,-2.1 0.32,-2.49 0,-0.02 0.02,-0.02 0.04,-0.02 0.01,0.01 0.02,0.03 0.01,0.05 -0.18,0.39 -0.39,1.72 -0.3,2.45 0,0.02 -0.01,0.03 -0.03,0.04 0,0 0,0 0,0z"/>
      <path class="fil4" d="M2.54 17.16c-0.01,0 -0.01,0 -0.02,0 -0.22,-0.11 -0.36,-0.5 -0.37,-0.52 0,-0.02 0,-0.04 0.02,-0.04 0.02,-0.01 0.04,0 0.04,0.02 0,0 0.14,0.38 0.34,0.48 0.02,0.01 0.03,0.02 0.02,0.04 -0.01,0.01 -0.02,0.02 -0.03,0.02z"/>
      <path class="fil4" d="M2.54 17.42c-0.02,0 -0.03,-0.01 -0.03,-0.02 -0.01,-0.02 0,-0.04 0.01,-0.04 0.38,-0.16 0.62,-0.61 0.62,-0.61 0.01,-0.02 0.03,-0.02 0.04,-0.02 0.02,0.01 0.03,0.03 0.02,0.05 -0.01,0.02 -0.25,0.48 -0.65,0.64 -0.01,0 -0.01,0 -0.01,0z"/>
     </g>
    </g>
    <g>
     <g>
      <path class="fil6" d="M15.76 13.93c0,0 -0.28,-0.46 -0.31,-0.96 -0.02,-0.49 0.09,-0.7 0.24,-0.76 0.15,-0.06 0.16,0.12 0.24,0.23 0.07,0.11 0.23,0.05 0.29,-0.29 0.06,-0.34 0.27,-0.91 0.71,-1.02 0.49,-0.12 0.22,0.45 0.1,0.67 -0.12,0.23 -0.21,0.53 -0.13,0.61 0.08,0.08 0.2,-0.07 0.32,0.07 0.15,0.17 -0.3,0.79 -0.56,0.94l-0.9 0.51z"/>
      <path class="fil4" d="M16.15 13.74c0,0 0,0 0,0 -0.02,0 -0.03,-0.02 -0.03,-0.04 0.07,-1.32 0.72,-2.24 0.73,-2.25 0.01,-0.02 0.03,-0.02 0.04,-0.01 0.02,0.01 0.02,0.03 0.01,0.05 -0.01,0.01 -0.64,0.91 -0.71,2.22 -0.01,0.02 -0.02,0.03 -0.04,0.03z"/>
      <path class="fil4" d="M16.19 13.36c-0.01,0 -0.01,-0.01 -0.02,-0.01 -0.18,-0.1 -0.28,-0.4 -0.28,-0.41 -0.01,-0.02 0,-0.03 0.02,-0.04 0.02,-0.01 0.03,0 0.04,0.02 0,0 0.1,0.29 0.26,0.38 0.01,0 0.02,0.02 0.01,0.04 -0.01,0.01 -0.02,0.02 -0.03,0.02z"/>
      <path class="fil4" d="M16.22 13.16c-0.01,0 -0.03,-0.01 -0.03,-0.02 0,-0.02 0.01,-0.04 0.02,-0.04 0.47,-0.12 0.63,-0.37 0.64,-0.37 0.01,-0.02 0.03,-0.02 0.04,-0.01 0.02,0.01 0.02,0.03 0.01,0.04 -0.01,0.02 -0.18,0.27 -0.67,0.4 0,0 -0.01,0 -0.01,0z"/>
     </g>
     <g>
      <g>
       <path class="fil2" d="M8.71 12.92c0,0 -0.62,-0.15 -0.65,-1.31 -0.03,-1.26 0.15,-2.72 -0.58,-2.84 -0.73,-0.12 -1.14,0.78 -1.13,1.82 0,0.92 0.37,2.91 2.36,3.3l0 -0.97z"/>
       <path class="fil3" d="M8.71 12.92c0,0 -0.62,-0.15 -0.65,-1.31 -0.03,-1.26 0.15,-2.72 -0.58,-2.84 -0.73,-0.12 -1.14,0.78 -1.13,1.82 0,0.92 0.37,2.91 2.36,3.3l0 -0.97z"/>
      </g>
      <path class="fil4" d="M8.71 13.77c0,0 0,0 0,0 -0.45,-0.08 -0.81,-0.33 -1.09,-0.73 -0.8,-1.21 -0.55,-3.45 -0.46,-3.84 0,-0.02 0.02,-0.03 0.04,-0.02 0.01,0 0.02,0.02 0.02,0.03 -0.08,0.39 -0.33,2.61 0.46,3.79 0.26,0.39 0.61,0.63 1.04,0.7 0.02,0.01 0.03,0.02 0.03,0.04 -0.01,0.02 -0.02,0.03 -0.04,0.03z"/>
      <g>
       <path class="fil6" d="M8.71 16.76c-0.64,0.08 -1.68,0.08 -2.28,-0.39 -0.6,-0.48 -0.48,-0.88 -0.25,-1.06 0.23,-0.17 0.43,-0.36 0.04,-0.74 -0.4,-0.38 -1.04,-0.99 -1.25,-1.9 -0.2,-0.91 -0.1,-1.48 0.3,-1.67 0.4,-0.18 0.5,0.11 0.75,0.71 0.24,0.61 0.78,0.09 1.25,0.28 0.46,0.19 0.44,0.56 0.47,0.88 0.03,0.32 0.19,0.41 0.45,0.41 0.26,0 0.52,0.15 0.52,0.46l0 3.02z"/>
       <path class="fil4" d="M8.71 15.7c0,0 0,0 0,0 -0.03,-0.01 -0.7,-0.2 -1.66,-1.09 -1.03,-0.95 -1.52,-2.37 -1.52,-2.38 -0.01,-0.02 0,-0.04 0.02,-0.04 0.01,-0.01 0.03,0 0.04,0.02 0,0.01 0.48,1.41 1.5,2.35 0.95,0.88 1.63,1.07 1.63,1.07 0.02,0.01 0.03,0.03 0.03,0.04 -0.01,0.02 -0.02,0.03 -0.04,0.03z"/>
       <path class="fil4" d="M7.32 14.83c-0.02,0 -0.03,0 -0.03,-0.02 -0.21,-0.53 -0.26,-1.67 -0.26,-1.72 0,-0.02 0.01,-0.04 0.03,-0.04 0.02,0 0.03,0.02 0.03,0.03 0,0.02 0.05,1.18 0.26,1.71 0,0.02 -0.01,0.03 -0.02,0.04 -0.01,0 -0.01,0 -0.01,0z"/>
       <path class="fil4" d="M7.31 15.6c-0.1,0 -0.17,-0.01 -0.18,-0.01 -0.02,0 -0.03,-0.02 -0.03,-0.03 0.01,-0.02 0.02,-0.03 0.04,-0.03 0.01,0 0.61,0.07 0.89,-0.22 0.01,-0.01 0.03,-0.01 0.04,0 0.01,0.02 0.01,0.04 0,0.05 -0.2,0.21 -0.55,0.24 -0.76,0.24z"/>
      </g>
     </g>
    </g>
   </g>
   <g>
    <g>
     <path class="fil7" d="M6.84 3.33l-0.07 -0.4 -0.36 0.23c-0.03,-0.07 -0.08,-0.12 -0.13,-0.16l0.17 -0.47 -0.32 -0.07 -0.24 0.45c-0.08,0.01 -0.16,0.04 -0.25,0.08l-0.1 -0.34 -0.38 0.3 0.02 0.4c-0.08,0.09 -0.15,0.19 -0.21,0.28l-0.32 -0.01 -0.22 0.5 0.27 0.12c-0.03,0.1 -0.05,0.21 -0.05,0.31l-0.35 0.32 0.07 0.4 0.36 -0.23c0.04,0.07 0.08,0.12 0.14,0.16l-0.18 0.47 0.33 0.07 0.34 -0.33c0.07,-0.01 0.05,-0.16 0.14,-0.2l0.1 0.34 0.39 -0.3 -0.01 -0.16c0.08,-0.09 0.37,-0.28 0.43,-0.38l0.08 -0.13 0.23 -0.5 -0.11 -0.19 -0.11 -0.24 0.34 -0.32zm-1.17 1.33l0 0c-0.3,0.23 -0.39,0.28 -0.44,-0.03 -0.05,-0.31 0.12,-0.78 0.41,-1.01 0.3,-0.23 0.41,-0.25 0.47,0.06 0.05,0.31 -0.15,0.75 -0.44,0.98z"/>
     <polygon class="fil0" points="6.13,2.46 6.55,2.7 6.31,3.15 5.89,2.91 "/>
     <polygon class="fil0" points="7.19,3.17 6.83,3.4 6.41,3.16 6.77,2.93 "/>
     <polygon class="fil7" points="7.14,4.32 6.86,4.21 6.44,3.96 6.72,4.08 "/>
     <polygon class="fil7" points="4.69,5.67 5.11,5.91 5.29,5.45 4.87,5.2 "/>
     <polygon class="fil7" points="6.02,5.79 5.6,5.55 5.5,5.21 5.92,5.45 "/>
     <path class="fil1" d="M7.26 3.57l-0.07 -0.4 -0.36 0.23c-0.03,-0.06 -0.08,-0.12 -0.13,-0.16l0.17 -0.47 -0.32 -0.07 -0.24 0.45c-0.08,0.01 -0.16,0.04 -0.25,0.08l-0.1 -0.34 -0.38 0.3 0.02 0.41c-0.08,0.08 -0.15,0.18 -0.21,0.28l-0.32 -0.02 -0.22 0.5 0.27 0.12c-0.03,0.1 -0.05,0.21 -0.05,0.31l-0.35 0.32 0.07 0.41 0.36 -0.24c0.04,0.07 0.08,0.12 0.14,0.17l-0.18 0.46 0.33 0.07 0.23 -0.45c0.08,-0.01 0.17,-0.04 0.25,-0.08l0.1 0.34 0.39 -0.3 -0.03 -0.4c0.08,-0.09 0.15,-0.18 0.22,-0.28l0.31 0.01 0.23 -0.5 -0.28 -0.11c0.03,-0.11 0.05,-0.22 0.06,-0.32l0.34 -0.32zm-1.17 1.33l0 0c-0.3,0.24 -0.58,0.17 -0.63,-0.14 -0.06,-0.31 0.14,-0.75 0.44,-0.98 0.29,-0.23 0.57,-0.17 0.63,0.14 0.05,0.31 -0.15,0.75 -0.44,0.98z"/>
     <polygon class="fil0" points="5.96,2.89 5.54,2.65 5.16,2.95 5.58,3.19 "/>
     <polygon class="fil7" points="5.16,2.95 5.18,3.35 5.6,3.6 5.58,3.19 "/>
     <polygon class="fil0" points="5.39,3.88 4.97,3.63 4.65,3.62 5.07,3.86 "/>
     <polygon class="fil7" points="4.65,3.62 4.43,4.12 4.85,4.36 5.07,3.86 "/>
     <polygon class="fil0" points="5.07,4.79 4.65,4.55 4.3,4.87 4.72,5.11 "/>
     <polygon class="fil7" points="4.79,5.52 4.37,5.27 4.3,4.87 4.72,5.11 "/>
     <polygon class="fil0" points="6.55,2.7 6.13,2.46 6.45,2.53 6.87,2.77 "/>
    </g>
    <g>
     <path class="fil7" d="M4.96 1.5l0 -0.61 -0.48 0.22c-0.03,-0.11 -0.07,-0.21 -0.13,-0.29l0.3 -0.61 -0.37 -0.21 -0.37 0.57c-0.1,-0.01 -0.21,0 -0.32,0.03l-0.05 -0.53 -0.52 0.31 -0.05 0.58c-0.12,0.1 -0.22,0.21 -0.32,0.33l-0.37 -0.13 -0.37 0.64 0.3 0.26c-0.06,0.14 -0.1,0.29 -0.13,0.44l-0.48 0.33 0 0.61 0.48 -0.22c0.03,0.11 0.07,0.21 0.13,0.29l-0.3 0.61 0.37 0.21 0.37 -0.57c0.1,0.01 0.2,0 0.32,-0.03l0.05 0.53 0.52 -0.31 0.05 -0.58c0.16,-0.05 0.33,-0.17 0.42,-0.29l0.27 0.09 0.37 -0.64 -0.22 -0.19c0.05,-0.15 0.06,-0.38 0.05,-0.51l0.48 -0.33zm-1.68 1.5l0 0c-0.4,0.23 -0.65,0.07 -0.65,-0.39 0,-0.47 0.33,-1.03 0.73,-1.26 0.4,-0.24 0.65,-0.07 0.65,0.4 0,0.46 -0.33,1.02 -0.73,1.25z"/>
     <polygon class="fil0" points="4.7,0.24 4.28,0 3.91,0.57 4.33,0.81 "/>
     <polygon class="fil0" points="5.38,1.14 4.96,0.89 4.48,1.11 4.9,1.35 "/>
     <polygon class="fil7" points="3.44,4.5 3.02,4.26 2.97,3.73 3.39,3.97 "/>
     <polygon class="fil7" points="1.91,4.12 2.33,4.36 2.63,3.75 2.21,3.51 "/>
     <path class="fil1" d="M5.38 1.74l0 -0.6 -0.48 0.21c-0.03,-0.11 -0.07,-0.21 -0.13,-0.28l0.3 -0.61 -0.37 -0.22 -0.37 0.57c-0.1,-0.01 -0.2,0 -0.32,0.03l-0.05 -0.52 -0.52 0.3 -0.05 0.58c-0.11,0.1 -0.22,0.21 -0.32,0.33l-0.37 -0.13 -0.37 0.64 0.3 0.26c-0.06,0.15 -0.1,0.29 -0.13,0.44l-0.48 0.34 0 0.6 0.48 -0.22c0.03,0.11 0.07,0.21 0.13,0.29l-0.3 0.61 0.37 0.21 0.37 -0.56c0.1,0 0.21,0 0.32,-0.04l0.05 0.53 0.52 -0.3 0.05 -0.59c0.12,-0.1 0.22,-0.21 0.32,-0.33l0.37 0.13 0.37 -0.64 -0.3 -0.26c0.06,-0.14 0.1,-0.29 0.13,-0.43l0.48 -0.34zm-1.68 1.51l0 0c-0.4,0.23 -0.73,0.04 -0.73,-0.42 0,-0.47 0.33,-1.03 0.73,-1.26 0.4,-0.23 0.73,-0.04 0.73,0.42 0,0.46 -0.33,1.02 -0.73,1.26z"/>
     <polygon class="fil8" points="2.65,1.29 3.07,1.53 2.7,1.4 2.28,1.16 "/>
     <polygon class="fil0" points="2.33,2.04 1.91,1.8 2.28,1.16 2.7,1.4 "/>
     <polygon class="fil7" points="1.91,1.8 2.33,2.04 2.63,2.3 2.21,2.06 "/>
     <polygon class="fil0" points="2.08,2.5 2.5,2.74 2.02,3.08 1.6,2.83 "/>
     <polygon class="fil7" points="1.6,2.83 2.02,3.08 2.02,3.68 1.6,3.44 "/>
     <polygon class="fil0" points="3.96,0.32 3.54,0.07 3.02,0.38 3.44,0.62 "/>
    </g>
   </g>
   <g>
    <path class="fil7" d="M9.35 17.62l6.1 -3.51c0.06,-0.04 0.06,-0.1 0,-0.13l-0.57 -0.33c-0.06,-0.04 -0.16,-0.04 -0.22,0l-6.1 3.52c-0.06,0.03 -0.06,0.09 0,0.13l0.57 0.32c0.06,0.04 0.16,0.04 0.22,0z"/>
    <path class="fil9" d="M15.28 0.52l-5.49 3.17c-0.16,0.09 -0.29,0.31 -0.29,0.49l0 13.03c0,0.18 0.13,0.25 0.29,0.16l5.49 -3.17c0.15,-0.09 0.28,-0.3 0.28,-0.48l0 -13.03c0,-0.18 -0.13,-0.26 -0.28,-0.17z"/>
    <path class="fil10" d="M9.79 3.69l5.49 -3.17c0.14,-0.08 0.25,-0.03 0.28,0.11 -0.03,-0.16 -0.14,-0.35 -0.28,-0.43l-0.23 -0.13c-0.15,-0.09 -0.41,-0.09 -0.56,0l-5.49 3.17c-0.08,0.04 -0.15,0.12 -0.2,0.21l0.79 0.45c0.05,-0.08 0.12,-0.16 0.2,-0.21z"/>
    <path class="fil11" d="M8.71 16.76c0,0.18 0.13,0.39 0.29,0.48l0.22 0.13c0.14,0.09 0.36,0.09 0.52,0.03 -0.13,0.05 -0.24,-0.03 -0.24,-0.19l0 -13.03c0,-0.09 0.04,-0.19 0.09,-0.28l-0.79 -0.45c-0.05,0.09 -0.09,0.19 -0.09,0.28l0 13.03z"/>
    <path class="fil4" d="M9.94 5.43l5.19 -3c0.09,-0.05 0.17,-0.01 0.17,0.1l0 9.64c0,0.11 -0.08,0.24 -0.17,0.3l-5.19 2.99c-0.1,0.06 -0.17,0.01 -0.17,-0.09l0 -9.65c0,-0.1 0.07,-0.23 0.17,-0.29z"/>
    <path class="fil10" d="M12.53 2.6c-0.05,0.03 -0.1,0.11 -0.1,0.17 0,0.07 0.05,0.09 0.1,0.06 0.06,-0.03 0.1,-0.11 0.1,-0.17 0,-0.06 -0.04,-0.09 -0.1,-0.06z"/>
    <path class="fil10" d="M12.53 14.43c-0.21,0.12 -0.39,0.42 -0.39,0.67 0,0.25 0.18,0.35 0.39,0.23 0.22,-0.13 0.39,-0.43 0.39,-0.68 0,-0.25 -0.17,-0.35 -0.39,-0.22z"/>
    <g>
     <path class="fil10" d="M11.6 3.61c-0.11,0.06 -0.2,0.21 -0.2,0.34 0,0.12 0.09,0.18 0.2,0.11 0.11,-0.06 0.2,-0.21 0.2,-0.34 0,-0.13 -0.09,-0.18 -0.2,-0.11z"/>
     <path class="fil10" d="M12.08 3.56c0,0.09 0.07,0.12 0.14,0.07l1.3 -0.75c0.08,-0.04 0.14,-0.14 0.14,-0.23 0,-0.08 -0.06,-0.11 -0.14,-0.07l-1.3 0.75c-0.07,0.05 -0.14,0.15 -0.14,0.23z"/>
    </g>
    <path class="fil10" d="M9.15 5.85c0.09,0.05 0.16,0.17 0.16,0.27 0,0.1 -0.07,0.14 -0.16,0.09 -0.09,-0.05 -0.16,-0.17 -0.16,-0.27 0,-0.1 0.07,-0.14 0.16,-0.09z"/>
    <path class="fil10" d="M9.15 7.07c0.09,0.05 0.16,0.17 0.16,0.27 0,0.1 -0.07,0.14 -0.16,0.09 -0.09,-0.05 -0.16,-0.17 -0.16,-0.27 0,-0.1 0.07,-0.14 0.16,-0.09z"/>
    <path class="fil9" d="M9.1 5.87c0.09,0.05 0.16,0.18 0.16,0.28 0,0.1 -0.07,0.14 -0.16,0.09 -0.08,-0.05 -0.15,-0.17 -0.15,-0.28 0,-0.1 0.07,-0.14 0.15,-0.09z"/>
    <path class="fil9" d="M9.1 7.09c0.09,0.05 0.16,0.17 0.16,0.27 0,0.1 -0.07,0.15 -0.16,0.1 -0.08,-0.06 -0.15,-0.18 -0.15,-0.28 0,-0.1 0.07,-0.14 0.15,-0.09z"/>
    <g>
     <path class="fil4 str0" d="M16.35 2.84c0,-0.11 -0.08,-0.15 -0.17,-0.1l-0.62 0.36 -4.57 2.64c-0.09,0.05 -0.17,0.18 -0.17,0.29l0 9.64c0,0.11 0.08,0.15 0.17,0.1l4.57 -2.64 0.62 -0.36c0.09,-0.05 0.17,-0.18 0.17,-0.29l0 -9.64z"/>
     <path class="fil12 str0" d="M10.91 15.82c-0.02,0 -0.04,0 -0.06,-0.01 -0.04,-0.03 -0.06,-0.07 -0.06,-0.14l0 -9.64c0,-0.12 0.08,-0.26 0.18,-0.32l4.57 -2.64 0.04 0.06 -4.57 2.63c-0.09,0.05 -0.16,0.17 -0.16,0.27l0 9.64c0,0.04 0.02,0.07 0.04,0.08 0.02,0.01 0.05,0.01 0.08,-0.01l4.58 -2.64 0.03 0.06 -4.57 2.64c-0.04,0.01 -0.07,0.02 -0.1,0.02z"/>
     <path class="fil13 str0" d="M15.58 13.16l-0.03 -0.06 0.61 -0.36c0.09,-0.04 0.16,-0.17 0.16,-0.26l0 -9.64c0,-0.04 -0.01,-0.07 -0.04,-0.08 -0.02,-0.02 -0.05,-0.01 -0.08,0.01l-0.62 0.36 -0.04 -0.06 0.62 -0.36c0.06,-0.03 0.11,-0.04 0.16,-0.01 0.04,0.02 0.06,0.07 0.06,0.14l0 9.64c0,0.12 -0.08,0.26 -0.18,0.32l-0.62 0.36z"/>
    </g>
    <g>
     <path class="fil13" d="M13.59 5.08c0.58,-0.34 1.05,-0.07 1.05,0.61 0,0.67 -0.47,1.48 -1.05,1.82 -0.59,0.33 -1.06,0.06 -1.06,-0.61 0,-0.67 0.47,-1.49 1.06,-1.82z"/>
     <path class="fil14" d="M13.59 5.61c0.18,-0.11 0.34,-0.02 0.34,0.19 0,0.22 -0.16,0.49 -0.34,0.59 -0.19,0.11 -0.35,0.03 -0.35,-0.19 0,-0.22 0.16,-0.49 0.35,-0.59z"/>
    </g>
    <path class="fil14" d="M14.25 6.77c0,-0.36 -0.25,-0.51 -0.56,-0.33l-0.19 0.12c-0.31,0.17 -0.57,0.61 -0.57,0.97l0 0.09c0.18,0.06 0.41,0.03 0.66,-0.11 0.25,-0.15 0.48,-0.38 0.66,-0.66l0 -0.08z"/>
    <g>
     <path class="fil15" d="M11.55 8.99l1.35 -0.78c0.06,-0.04 0.12,-0.01 0.12,0.06l0 0.05c0,0.07 -0.06,0.16 -0.12,0.19l-1.35 0.78c-0.06,0.04 -0.11,0.01 -0.11,-0.06l0 -0.05c0,-0.07 0.05,-0.15 0.11,-0.19z"/>
     <path class="fil16" d="M11.55 8.99l1.35 -0.78c0.06,-0.04 0.12,-0.01 0.12,0.06l0 0.05c0,0.07 -0.06,0.16 -0.12,0.19l-1.35 0.78c-0.06,0.04 -0.11,0.01 -0.11,-0.06l0 -0.05c0,-0.07 0.05,-0.15 0.11,-0.19z"/>
    </g>
    <g>
     <path class="fil13" d="M11.49 9.93l4.1 -2.36c0.03,-0.02 0.06,-0.01 0.06,0.03l0 0.48c0,0.03 -0.03,0.08 -0.06,0.1l-4.1 2.36c-0.03,0.02 -0.05,0.01 -0.05,-0.03l0 -0.48c0,-0.03 0.02,-0.08 0.05,-0.1z"/>
     <path class="fil17" d="M11.49 9.93l4.1 -2.36c0.03,-0.02 0.06,-0.01 0.06,0.03l0 0.48c0,0.03 -0.03,0.08 -0.06,0.1l-4.1 2.36c-0.03,0.02 -0.05,0.01 -0.05,-0.03l0 -0.48c0,-0.03 0.02,-0.08 0.05,-0.1z"/>
    </g>
    <g>
     <path class="fil15" d="M11.55 11.12l1.35 -0.78c0.06,-0.04 0.12,-0.01 0.12,0.06l0 0.05c0,0.07 -0.06,0.15 -0.12,0.19l-1.35 0.78c-0.06,0.04 -0.11,0.01 -0.11,-0.06l0 -0.05c0,-0.07 0.05,-0.16 0.11,-0.19z"/>
     <path class="fil16" d="M11.55 11.12l1.35 -0.78c0.06,-0.04 0.12,-0.01 0.12,0.06l0 0.05c0,0.07 -0.06,0.15 -0.12,0.19l-1.35 0.78c-0.06,0.04 -0.11,0.01 -0.11,-0.06l0 -0.05c0,-0.07 0.05,-0.16 0.11,-0.19z"/>
    </g>
    <g>
     <path class="fil18" d="M11.49 12.06l4.1 -2.36c0.03,-0.02 0.06,-0.01 0.06,0.03l0 0.48c0,0.03 -0.03,0.08 -0.06,0.09l-4.1 2.37c-0.03,0.02 -0.05,0 -0.05,-0.03l0 -0.48c0,-0.04 0.02,-0.08 0.05,-0.1z"/>
     <path class="fil19" d="M11.49 12.06l4.1 -2.36c0.03,-0.02 0.06,-0.01 0.06,0.03l0 0.48c0,0.03 -0.03,0.08 -0.06,0.09l-4.1 2.37c-0.03,0.02 -0.05,0 -0.05,-0.03l0 -0.48c0,-0.04 0.02,-0.08 0.05,-0.1z"/>
    </g>
    <g>
     <path class="fil15" d="M13.13 12.33l1.62 -0.93c0.06,-0.04 0.11,-0.01 0.11,0.06l0 0.51c0,0.07 -0.05,0.15 -0.11,0.19l-1.62 0.93c-0.06,0.04 -0.11,0.01 -0.11,-0.06l0 -0.5c0,-0.07 0.05,-0.16 0.11,-0.2z"/>
     <path class="fil16" d="M13.13 12.33l1.62 -0.93c0.06,-0.04 0.11,-0.01 0.11,0.06l0 0.51c0,0.07 -0.05,0.15 -0.11,0.19l-1.62 0.93c-0.06,0.04 -0.11,0.01 -0.11,-0.06l0 -0.5c0,-0.07 0.05,-0.16 0.11,-0.2z"/>
    </g>
   </g>
   <g>
    <path class="fil20" d="M16.96 10.22c0,0 -0.79,-1.1 -0.84,-1.23 -0.04,-0.09 0,-0.24 0.01,-0.31 0.01,-0.07 0.02,-0.22 0.03,-0.26 0.02,-0.08 -0.07,-0.06 -0.12,0.01 -0.06,0.07 -0.08,0.2 -0.1,0.22 -0.03,0.02 -0.24,-0.29 -0.36,-0.43 -0.11,-0.14 -0.18,-0.23 -0.24,-0.17 -0.05,0.03 -0.02,0.12 0.06,0.24 0.09,0.12 0.12,0.18 0.13,0.2 0.02,0.03 -0.05,0.03 -0.09,0.09 -0.02,0.04 0,0.11 -0.04,0.14 -0.03,0.03 -0.07,0.09 -0.03,0.16 0.06,0.09 0.16,0.21 0.28,0.29 0.12,0.08 0.16,0.11 0.24,0.23 0.07,0.11 0.7,1.25 0.74,1.32 0.04,0.07 0.13,0.21 0.25,0.21 0.13,0.01 1.15,-0.87 1.2,-0.92 0.17,-0.14 0.23,-0.16 0.26,-0.03 0,0.04 0.01,0.08 0.02,0.13 0.02,0.16 0.13,0.74 0.13,0.74 0,0 0.51,0.25 0.94,0.13 0.43,-0.13 0.57,-0.31 0.57,-0.31l-0.21 -0.34c0.05,-0.15 0.32,-0.73 0.41,-1.13l-1.34 -0.22c-0.03,-0.01 -0.07,-0.02 -0.12,-0.03 -0.08,-0.02 -0.26,-0.09 -0.4,0.04 -0.46,0.4 -1.38,1.23 -1.38,1.23z"/>
    <path class="fil21" d="M19.61 16.96l-0.24 0.33c0,0 0.11,0.07 0.35,0.08 0.21,0 0.27,-0.07 0.28,-0.08 0.04,-0.08 -0.02,-0.22 -0.04,-0.34l-0.35 0.01z"/>
    <path class="fil21" d="M19.39 17.13c0,0 -0.29,-0.02 -0.5,-0.04 -0.2,-0.03 -0.35,0.07 -0.31,0.15 0.05,0.09 0.16,0.15 0.33,0.21 0.15,0.05 0.33,0.09 0.48,0.13 0.16,0.05 0.26,0.1 0.35,0.07 0.1,-0.03 0.14,-0.07 0.13,-0.14 -0.01,-0.07 -0.08,-0.31 -0.08,-0.31l-0.4 -0.07z"/>
    <path class="fil22" d="M20 16.62c0,0 -0.04,0.31 -0.04,0.37 0,0.07 -0.29,0.09 -0.35,-0.03l-0.01 -0.37 0.4 0.03z"/>
    <path class="fil20" d="M19.71 16.81l0.1 0.46c0,0 0.01,0.05 -0.23,0.09 -0.24,0.04 -0.61,-0.12 -0.68,-0.16 -0.06,-0.03 -0.07,-0.09 0.17,-0.08 0.23,0.01 0.32,0.01 0.32,0.01l-0.08 -0.2 0.4 -0.12z"/>
    <path class="fil22" d="M20.2 9.2l0.16 -0.05c0,0 0.35,1.09 0.39,1.2 0.03,0.1 0.08,0.22 0,0.35 -0.09,0.15 -0.55,0.78 -0.55,0.78l-0.3 -0.29 0.34 -0.62 -0.3 -0.6 0.26 -0.77z"/>
    <path class="fil10" d="M18.5 7.78c0,0 -0.13,-0.22 0.01,-0.48 0.16,-0.3 0.53,-0.45 0.96,-0.39 0.21,0.02 0.44,0.19 0.57,0.44 0.15,0.28 0.16,0.84 0.2,1.05l-1.74 -0.62z"/>
    <path class="fil20" d="M18.49 7.89c0,0 -0.11,0.2 -0.09,0.22 0.02,0.02 0.09,0.03 0.09,0.03l0 -0.25z"/>
    <path class="fil20" d="M18.8 7.27c-0.11,0.07 -0.3,0.21 -0.31,0.65 -0.01,0.46 0.05,0.61 0.12,0.66 0.05,0.03 0.31,0.02 0.43,-0.01 0.11,-0.03 0.44,-0.19 0.56,-0.44 0.14,-0.29 0.11,-0.71 -0.1,-0.84 -0.29,-0.17 -0.6,-0.08 -0.7,-0.02z"/>
    <g>
     <path class="fil23" d="M20 10.67c0.2,0.32 0.39,0.59 0.43,0.94 0.09,0.74 -0.19,1.58 -0.25,2.13 0,0 0.18,0.24 0.18,0.53 0,0.23 -0.36,2.35 -0.36,2.35 0,0 -0.26,0.09 -0.4,-0.03l-0.25 -3.92 0.13 -0.47 0.52 -1.53z"/>
     <path class="fil24" d="M20 10.67c0.2,0.32 0.39,0.59 0.43,0.94 0.09,0.74 -0.19,1.58 -0.25,2.13 0,0 0.18,0.24 0.18,0.53 0,0.23 -0.36,2.35 -0.36,2.35 0,0 -0.26,0.09 -0.4,-0.03l-0.25 -3.92 0.13 -0.47 0.52 -1.53z"/>
    </g>
    <g>
     <path class="fil21" d="M19.35 12.67l0.13 -0.47c0,0 0.37,-0.09 0.72,-0.29 0,0 -0.14,0.25 -0.52,0.38l-0.21 0.62 -0.01 1.4 -0.11 -1.64z"/>
     <path class="fil25" d="M19.35 12.67l0.13 -0.47c0,0 0.37,-0.09 0.72,-0.29 0,0 -0.14,0.25 -0.52,0.38l-0.21 0.62 -0.01 1.4 -0.11 -1.64z"/>
    </g>
    <g>
     <path class="fil23" d="M20 10.67c0.11,0.18 0.36,0.48 0.31,0.76 -0.07,0.35 -0.25,0.6 -0.83,0.77l-0.53 1.94c0,0 0.28,0.26 0.36,0.51 0.09,0.25 0.4,2.16 0.4,2.16 0,0 -0.1,0.16 -0.4,0.12 0,0 -1.05,-2.4 -1.13,-2.56 -0.07,-0.15 -0.12,-0.27 -0.08,-0.52 0.03,-0.25 0.39,-3 0.39,-3l1.51 -0.18z"/>
     <path class="fil24" d="M20 10.67c0.11,0.18 0.36,0.48 0.31,0.76 -0.07,0.35 -0.25,0.6 -0.83,0.77l-0.53 1.94c0,0 0.28,0.26 0.36,0.51 0.09,0.25 0.4,2.16 0.4,2.16 0,0 -0.1,0.16 -0.4,0.12 0,0 -1.05,-2.4 -1.13,-2.56 -0.07,-0.15 -0.12,-0.27 -0.08,-0.52 0.03,-0.25 0.39,-3 0.39,-3l1.51 -0.18z"/>
    </g>
    <g>
     <path class="fil5" d="M20.2 9.2l-1.34 -0.22c-0.03,-0.01 -0.07,-0.02 -0.12,-0.03l-0.01 0c0,0 -0.05,0.84 -0.39,1.03l0 0c0,0.04 0.01,0.08 0.02,0.13 0.02,0.16 0.13,0.74 0.13,0.74 0,0 0.51,0.25 0.94,0.13 0.43,-0.13 0.57,-0.31 0.57,-0.31l-0.21 -0.34c0.05,-0.15 0.32,-0.73 0.41,-1.13z"/>
     <path class="fil26" d="M20.2 9.2l-1.34 -0.22c-0.03,-0.01 -0.07,-0.02 -0.12,-0.03l-0.01 0c0,0 -0.05,0.84 -0.39,1.03l0 0c0,0.04 0.01,0.08 0.02,0.13 0.02,0.16 0.13,0.74 0.13,0.74 0,0 0.51,0.25 0.94,0.13 0.43,-0.13 0.57,-0.31 0.57,-0.31l-0.21 -0.34c0.05,-0.15 0.32,-0.73 0.41,-1.13z"/>
    </g>
    <path class="fil6" d="M19.85 10.19c-0.01,0.01 -0.43,0.24 -0.56,0.27 0.2,-0.01 0.36,-0.05 0.5,-0.13l0.06 -0.14z"/>
    <path class="fil10" d="M18.77 7.29c0,0 -0.06,0.42 0.09,0.67 0,0 0.06,-0.17 0.2,-0.13 0.14,0.03 0.15,0.21 0.05,0.32 -0.1,0.11 -0.21,0.07 -0.21,0.07 0,0 -0.03,0.3 -0.04,0.56 -0.01,0.24 -0.08,0.81 0.21,1.04 0.29,0.22 1.01,0.3 1.34,-0.17 0.19,-0.26 -0.06,-0.73 -0.17,-1.25 -0.11,-0.48 -0.17,-1.19 -0.68,-1.3 -0.51,-0.11 -0.79,0.19 -0.79,0.19z"/>
   </g>
   <path class="fil1" d="M20.63 1.54l-0.1 0.06c0,-0.04 0.01,-0.08 0.01,-0.12 0,-0.22 -0.15,-0.3 -0.34,-0.19 -0.05,0.03 -0.11,0.07 -0.15,0.13 0,-0.01 0,-0.01 0,-0.01 0,-0.29 -0.21,-0.41 -0.46,-0.26 -0.25,0.15 -0.46,0.5 -0.46,0.79 0,0.02 0,0.03 0.01,0.05 -0.06,-0.01 -0.12,0 -0.19,0.04 -0.19,0.11 -0.34,0.37 -0.34,0.59 0,0.03 0,0.05 0.01,0.08l-0.06 0.03c-0.15,0.09 -0.28,0.27 -0.28,0.39 0,0.13 0.13,0.16 0.28,0.07l2.07 -1.2c0.16,-0.09 0.28,-0.26 0.28,-0.39 0,-0.12 -0.12,-0.15 -0.28,-0.06z"/>
  </g>
 </g>
</svg>
