<?xml version="1.0" encoding="UTF-8"?>
<!DOCTYPE svg PUBLIC "-//W3C//DTD SVG 1.1//EN" "http://www.w3.org/Graphics/SVG/1.1/DTD/svg11.dtd">
<!-- Creator: CorelDRAW 2023 -->
<svg xmlns="http://www.w3.org/2000/svg" xml:space="preserve" width="521px" height="370px" version="1.1" style="shape-rendering:geometricPrecision; text-rendering:geometricPrecision; image-rendering:optimizeQuality; fill-rule:evenodd; clip-rule:evenodd"
viewBox="0 0 81.13 57.55"
 xmlns:xlink="http://www.w3.org/1999/xlink"
 xmlns:xodm="http://www.corel.com/coreldraw/odm/2003">
 <defs>
  <style type="text/css">
   <![CDATA[
    .fil3 {fill:#340060;fill-rule:nonzero}
    .fil19 {fill:#46343B;fill-rule:nonzero}
    .fil18 {fill:#4F3F45;fill-rule:nonzero}
    .fil7 {fill:#510092;fill-rule:nonzero}
    .fil17 {fill:#594750;fill-rule:nonzero}
    .fil6 {fill:#6A00BD;fill-rule:nonzero}
    .fil2 {fill:#A186DF;fill-rule:nonzero}
    .fil1 {fill:#A77EDF;fill-rule:nonzero}
    .fil0 {fill:#D0D5F7;fill-rule:nonzero}
    .fil16 {fill:#D17F52;fill-rule:nonzero}
    .fil9 {fill:#DBEDFD;fill-rule:nonzero}
    .fil12 {fill:#DC5400;fill-rule:nonzero}
    .fil14 {fill:#E0D4D4;fill-rule:nonzero}
    .fil15 {fill:#E99463;fill-rule:nonzero}
    .fil20 {fill:#E9E5E6;fill-rule:nonzero}
    .fil5 {fill:#EFF2F9;fill-rule:nonzero}
    .fil10 {fill:#F3A373;fill-rule:nonzero}
    .fil8 {fill:#FDC164;fill-rule:nonzero}
    .fil11 {fill:#FF6200;fill-rule:nonzero}
    .fil13 {fill:#FFEFE6;fill-rule:nonzero}
    .fil4 {fill:white;fill-rule:nonzero}
   ]]>
  </style>
 </defs>
 <g id="Camada_x0020_1">
  <metadata id="CorelCorpID_0Corel-Layer"/>
  <g id="_1761867682144">
   <g>
    <g>
     <g>
      <path class="fil0" d="M17.68 32.41c0,0 0,0 0,-0.01 0,0 0.01,0 0.01,0 0.02,-0.06 2.03,-5.22 -0.08,-10.9 -0.01,-0.03 -0.04,-0.05 -0.07,-0.05 -0.03,0.01 -0.05,0.03 -0.06,0.06 -0.01,0.05 -1.2,5.54 0.01,10.62 -0.26,-0.41 -0.6,-0.79 -0.93,-1.15 -0.24,-0.25 -0.47,-0.51 -0.71,-0.76 0,0 0,0 0,-0.01 -0.28,-1.27 0.1,-4.11 0.37,-6.18 0.07,-0.5 0.13,-0.97 0.18,-1.37 0.24,-2.06 -0.26,-3.26 -0.28,-3.31 -0.01,-0.03 -0.03,-0.04 -0.05,-0.04 -0.03,-0.01 -0.05,0 -0.07,0.02 -0.04,0.05 -1.01,1.29 -1.29,4.39 -0.23,2.61 0.63,5.42 0.92,6.27 -0.92,-0.95 -1.86,-1.88 -2.83,-2.78 0,0 0,-0.01 0,-0.01 0.02,-0.05 2.04,-5.22 -0.07,-10.89 -0.02,-0.03 -0.04,-0.05 -0.07,-0.05 -0.03,0 -0.06,0.02 -0.07,0.05 -0.01,0.06 -1.21,5.64 0.05,10.75 -0.58,-0.54 -1.16,-1.06 -1.75,-1.57 -0.12,-0.11 -0.25,-0.22 -0.38,-0.33 -0.21,-1.3 0.27,-4.09 0.62,-6.13 0.09,-0.5 0.17,-0.97 0.23,-1.37 0.32,-2.04 -0.13,-3.27 -0.15,-3.32 -0.01,-0.02 -0.03,-0.04 -0.05,-0.04 -0.02,0 -0.05,0 -0.06,0.02 -0.05,0.05 -1.07,1.25 -1.46,4.34 -0.34,2.62 0.43,5.5 0.67,6.33 -0.1,-0.09 -0.2,-0.17 -0.3,-0.26 -0.58,-0.49 -1.16,-0.99 -1.72,-1.5 0.06,-0.49 0.59,-5.75 -2.5,-10.59 -0.02,-0.03 -0.05,-0.04 -0.08,-0.03 -0.03,0.01 -0.05,0.04 -0.04,0.07 0,0.05 0.11,5.62 2.33,10.29 -0.84,-0.78 -1.64,-1.6 -2.33,-2.49 -0.15,-0.36 -2.36,-5.72 -5.56,-7.77 -0.03,-0.02 -0.06,-0.02 -0.09,0 -0.02,0.02 -0.03,0.06 -0.01,0.08 0.12,0.26 3.15,6.37 5.56,7.79 0.65,0.83 1.38,1.6 2.16,2.32 -0.75,-0.4 -2.23,-1.12 -3.85,-1.42 -2.3,-0.43 -3.78,-0.85 -3.79,-0.86 -0.03,0 -0.06,0.01 -0.08,0.03 -0.01,0.02 -0.01,0.05 0,0.07 0.01,0.02 0.94,1.68 2.81,2.19 1.39,0.38 3.73,0.42 4.81,0.42 0.3,0 0.5,0 0.56,0 0.57,0.51 1.15,1.01 1.73,1.5 0.13,0.11 0.26,0.22 0.38,0.33 -0.39,0.09 -1.73,0.28 -3.61,-0.37 -2.28,-0.8 -5.22,0.08 -5.25,0.09 -0.03,0.01 -0.05,0.04 -0.05,0.07 0.01,0.03 0.03,0.06 0.07,0.06 0.92,0.07 1.84,0.41 2.72,0.74 0.98,0.37 1.99,0.75 3.03,0.75 0.07,0 0.13,0 0.2,-0.01 1.83,-0.08 2.83,-0.98 3.04,-1.2 0.12,0.1 0.24,0.2 0.35,0.3 0.58,0.5 1.15,1.01 1.71,1.53 -0.66,-0.09 -2.58,-0.31 -4.47,0.05 -2.29,0.44 -3.82,0.6 -3.84,0.6 -0.02,0.01 -0.05,0.03 -0.06,0.05 0,0.03 0,0.06 0.03,0.07 0.01,0.02 1.26,1.02 2.95,1.02 0.15,0 0.31,0 0.47,-0.02 1.78,-0.2 4.71,-1.41 5.12,-1.58 1,0.93 1.98,1.9 2.92,2.89 -0.4,0.09 -1.73,0.33 -3.62,-0.24 -2.31,-0.7 -5.21,0.29 -5.24,0.3 -0.03,0.01 -0.05,0.04 -0.05,0.07 0.01,0.04 0.04,0.06 0.07,0.06 0.93,0.03 1.85,0.34 2.75,0.63 0.94,0.31 1.9,0.63 2.88,0.63 0.13,0 0.25,0 0.37,-0.01 1.77,-0.16 2.73,-1.04 2.98,-1.3 0.23,0.24 0.46,0.49 0.69,0.73 0.36,0.4 0.72,0.81 1,1.25 -0.59,-0.08 -2.58,-0.33 -4.53,0.04 -2.3,0.45 -3.83,0.61 -3.84,0.61 -0.03,0 -0.05,0.02 -0.06,0.04 -0.01,0.03 0,0.06 0.02,0.08 0.02,0.01 1.26,1.02 2.95,1.02 0.16,0 0.31,-0.01 0.47,-0.03 1.75,-0.2 4.6,-1.36 5.1,-1.57 0.17,0.33 0.3,0.67 0.34,1.04 0.01,0.04 0.04,0.06 0.07,0.06 0,0 0.01,0 0.01,0 0.04,0 0.06,-0.04 0.06,-0.07 -0.05,-0.4 -0.18,-0.76 -0.37,-1.1 0,-0.01 0,-0.02 0,-0.03z"/>
      <path class="fil0" d="M51.26 10.28c0.49,-0.04 5.75,-0.61 9.84,-4.64 0.02,-0.02 0.03,-0.05 0.01,-0.08 -0.01,-0.03 -0.04,-0.04 -0.07,-0.04 -0.06,0.02 -5.48,1.29 -9.58,4.42 0.58,-0.98 1.22,-1.93 1.95,-2.79 0.3,-0.21 5.1,-3.49 6.44,-7.06 0.02,-0.03 0.01,-0.06 -0.02,-0.08 -0.02,-0.01 -0.06,-0.01 -0.08,0 -0.23,0.18 -5.57,4.41 -6.46,7.06 -0.68,0.81 -1.28,1.69 -1.83,2.6 0.24,-0.82 0.63,-2.42 0.6,-4.06 -0.06,-2.34 0.04,-3.88 0.05,-3.89 0,-0.03 -0.02,-0.05 -0.04,-0.07 -0.03,-0.01 -0.06,-0.01 -0.08,0.01 -0.01,0.02 -1.44,1.28 -1.55,3.21 -0.08,1.44 0.36,3.73 0.58,4.79 0.06,0.29 0.11,0.48 0.12,0.55 -0.38,0.66 -0.75,1.33 -1.11,2 -0.08,0.15 -0.16,0.3 -0.24,0.45 -0.17,-0.37 -0.63,-1.64 -0.38,-3.61 0.3,-2.41 -1.17,-5.1 -1.18,-5.12 -0.02,-0.03 -0.05,-0.05 -0.09,-0.04 -0.03,0.02 -0.05,0.05 -0.04,0.08 0.13,0.92 -0.02,1.88 -0.16,2.82 -0.16,1.03 -0.32,2.1 -0.1,3.12 0.01,0.06 0.03,0.13 0.04,0.19 0.47,1.77 1.56,2.57 1.81,2.73 -0.07,0.13 -0.14,0.27 -0.22,0.4 -0.37,0.67 -0.75,1.33 -1.14,1.99 -0.04,-0.66 -0.23,-2.59 -0.98,-4.36 -0.91,-2.15 -1.38,-3.62 -1.38,-3.63 -0.01,-0.03 -0.04,-0.05 -0.06,-0.05 -0.03,0 -0.06,0.01 -0.07,0.04 -0.01,0.01 -0.73,1.45 -0.38,3.1 0.03,0.15 0.07,0.3 0.12,0.45 0.57,1.7 2.36,4.32 2.61,4.69 -0.71,1.17 -1.45,2.32 -2.22,3.45 -0.18,-0.36 -0.69,-1.61 -0.52,-3.59 0.21,-2.41 -1.36,-5.04 -1.38,-5.06 -0.02,-0.03 -0.05,-0.04 -0.08,-0.03 -0.03,0.01 -0.05,0.04 -0.05,0.07 0.17,0.92 0.06,1.89 -0.04,2.82 -0.11,0.99 -0.23,2 -0.02,2.96 0.02,0.12 0.05,0.24 0.09,0.36 0.52,1.69 1.59,2.45 1.89,2.64 -0.19,0.27 -0.38,0.55 -0.58,0.82 -0.31,0.44 -0.63,0.88 -1.01,1.24 -0.04,-0.59 -0.21,-2.59 -0.98,-4.42 -0.91,-2.15 -1.38,-3.62 -1.39,-3.63 -0.01,-0.03 -0.03,-0.05 -0.06,-0.05 -0.03,0 -0.05,0.01 -0.06,0.04 -0.01,0.01 -0.74,1.44 -0.39,3.1 0.03,0.14 0.07,0.3 0.12,0.45 0.56,1.66 2.29,4.21 2.59,4.66 -0.28,0.24 -0.59,0.43 -0.94,0.55 -0.03,0.01 -0.05,0.05 -0.04,0.08 0,0 0,0 0,0.01 0.01,0.03 0.05,0.05 0.09,0.04 0.37,-0.13 0.7,-0.33 1,-0.59 0,0 0.01,0 0.02,0 0,0 0,0 0.01,0 0,0 0,0 0.01,0 0.05,0.01 5.52,0.91 10.64,-2.34 0.03,-0.01 0.04,-0.04 0.03,-0.07 -0.01,-0.03 -0.04,-0.05 -0.07,-0.05 -0.05,0 -5.67,-0.03 -10.38,2.22 0.34,-0.35 0.64,-0.75 0.93,-1.16 0.2,-0.28 0.39,-0.57 0.59,-0.85 0,0 0.01,0 0.01,0 1.19,-0.54 4.04,-0.76 6.12,-0.92 0.51,-0.04 0.98,-0.08 1.39,-0.11 2.06,-0.2 3.13,-0.93 3.17,-0.96 0.02,-0.02 0.04,-0.04 0.03,-0.06 0,-0.03 -0.01,-0.05 -0.03,-0.06 -0.06,-0.03 -1.48,-0.73 -4.57,-0.35 -2.59,0.32 -5.17,1.74 -5.94,2.2 0.74,-1.1 1.45,-2.21 2.14,-3.35 0,0 0,0 0,0 0.06,0.01 5.53,0.91 10.64,-2.33 0.03,-0.02 0.04,-0.05 0.03,-0.08 0,-0.03 -0.03,-0.05 -0.06,-0.05 -0.06,0 -5.76,-0.02 -10.5,2.27 0.4,-0.67 0.79,-1.35 1.17,-2.03 0.08,-0.15 0.16,-0.3 0.24,-0.44 1.23,-0.48 4.06,-0.59 6.13,-0.67 0.5,-0.02 0.98,-0.04 1.39,-0.06 2.06,-0.11 3.16,-0.8 3.21,-0.83 0.02,-0.02 0.03,-0.04 0.03,-0.06 0,-0.03 -0.01,-0.05 -0.03,-0.06 -0.06,-0.03 -1.45,-0.78 -4.55,-0.53 -2.63,0.22 -5.29,1.57 -6.05,1.98 0.06,-0.12 0.13,-0.24 0.19,-0.35 0.36,-0.67 0.73,-1.34 1.11,-2z"/>
      <path class="fil0" d="M81.12 36.24c-0.02,-0.02 -0.05,-0.03 -0.07,-0.02 -0.02,0 -1.5,0.42 -3.8,0.86 -1.61,0.3 -3.09,1.01 -3.85,1.42 0.78,-0.73 1.52,-1.49 2.16,-2.33 2.42,-1.41 5.44,-7.52 5.57,-7.78 0.01,-0.03 0,-0.06 -0.02,-0.08 -0.02,-0.02 -0.06,-0.02 -0.08,-0.01 -3.2,2.06 -5.42,7.42 -5.56,7.78 -0.7,0.89 -1.49,1.71 -2.33,2.48 2.21,-4.66 2.33,-10.23 2.33,-10.29 0,-0.03 -0.02,-0.06 -0.05,-0.06 -0.03,-0.01 -0.06,0 -0.08,0.02 -3.09,4.85 -2.55,10.11 -2.5,10.6 -0.56,0.51 -1.14,1 -1.71,1.5 -0.11,0.08 -0.21,0.17 -0.31,0.26 0.25,-0.83 1.01,-3.71 0.68,-6.33 -0.4,-3.09 -1.42,-4.29 -1.46,-4.34 -0.02,-0.02 -0.04,-0.03 -0.07,-0.02 -0.02,0 -0.04,0.02 -0.05,0.04 -0.02,0.05 -0.47,1.27 -0.15,3.32 0.06,0.39 0.15,0.87 0.23,1.37 0.36,2.04 0.84,4.83 0.62,6.13 -0.12,0.11 -0.25,0.22 -0.38,0.33 -0.59,0.51 -1.17,1.03 -1.75,1.56 1.27,-5.11 0.06,-10.68 0.05,-10.74 -0.01,-0.03 -0.03,-0.05 -0.06,-0.05 -0.03,-0.01 -0.06,0.01 -0.07,0.04 -2.11,5.68 -0.1,10.85 -0.08,10.9 0,0 0,0 0,0 -0.96,0.91 -1.91,1.84 -2.82,2.79 0.28,-0.85 1.14,-3.67 0.91,-6.27 -0.27,-3.1 -1.25,-4.34 -1.29,-4.39 -0.02,-0.02 -0.04,-0.03 -0.06,-0.03 -0.03,0.01 -0.05,0.02 -0.06,0.04 -0.02,0.05 -0.51,1.26 -0.27,3.31 0.04,0.4 0.11,0.88 0.17,1.38 0.28,2.07 0.65,4.9 0.38,6.18 0,0 0,0 0,0.01 -0.24,0.25 -0.48,0.5 -0.71,0.76 -0.34,0.36 -0.67,0.74 -0.94,1.14 1.21,-5.07 0.03,-10.56 0.01,-10.62 0,-0.03 -0.03,-0.05 -0.06,-0.05 -0.03,0 -0.06,0.02 -0.07,0.04 -2.11,5.68 -0.1,10.85 -0.07,10.9 0,0 0,0.01 0,0.01 0,0 0,0 0,0.01 0,0.01 0,0.01 0,0.02 -0.18,0.34 -0.32,0.71 -0.36,1.1 -0.01,0.04 0.02,0.07 0.06,0.08 0,0 0,0 0,0 0.04,0 0.07,-0.03 0.07,-0.06 0.04,-0.37 0.17,-0.71 0.35,-1.04 0.49,0.21 3.35,1.37 5.09,1.57 0.16,0.01 0.32,0.02 0.47,0.02 1.69,0 2.94,-1.01 2.95,-1.02 0.02,-0.01 0.03,-0.04 0.02,-0.07 0,-0.03 -0.03,-0.04 -0.05,-0.05 -0.02,0 -1.55,-0.16 -3.85,-0.6 -1.95,-0.38 -3.94,-0.13 -4.52,-0.04 0.27,-0.45 0.63,-0.86 1,-1.25 0.22,-0.25 0.45,-0.49 0.68,-0.74 0.25,0.26 1.21,1.15 2.98,1.3 0.12,0.01 0.25,0.02 0.37,0.02 0.98,0 1.95,-0.32 2.88,-0.63 0.9,-0.3 1.82,-0.6 2.75,-0.63 0.04,0 0.07,-0.03 0.07,-0.06 0,-0.03 -0.01,-0.07 -0.05,-0.08 -0.02,-0.01 -2.92,-1 -5.24,-0.29 -1.89,0.57 -3.22,0.33 -3.62,0.23 0.95,-0.99 1.92,-1.95 2.92,-2.88 0.41,0.17 3.35,1.37 5.13,1.57 0.16,0.02 0.31,0.03 0.47,0.03 1.69,0 2.93,-1.01 2.95,-1.02 0.02,-0.02 0.03,-0.05 0.02,-0.07 -0.01,-0.03 -0.03,-0.05 -0.06,-0.05 -0.01,0 -1.54,-0.16 -3.84,-0.6 -1.89,-0.37 -3.81,-0.15 -4.46,-0.05 0.56,-0.52 1.12,-1.03 1.7,-1.53 0.12,-0.1 0.23,-0.2 0.35,-0.3 0.21,0.21 1.21,1.11 3.04,1.2 0.07,0 0.14,0.01 0.2,0.01 1.04,0 2.05,-0.38 3.03,-0.75 0.89,-0.33 1.8,-0.68 2.73,-0.74 0.03,0 0.06,-0.03 0.06,-0.06 0,-0.04 -0.02,-0.07 -0.05,-0.08 -0.03,0 -2.96,-0.88 -5.25,-0.09 -1.87,0.65 -3.21,0.46 -3.61,0.38 0.13,-0.11 0.25,-0.22 0.38,-0.33 0.58,-0.49 1.16,-0.99 1.73,-1.51 0.07,0.01 0.27,0.01 0.56,0.01 1.09,0 3.42,-0.05 4.81,-0.43 1.87,-0.5 2.81,-2.16 2.81,-2.18 0.02,-0.03 0.02,-0.06 0,-0.08z"/>
      <g>
       <g>
        <g>
         <path class="fil1" d="M12.41 38.05c-1.21,-0.71 -2.73,-1.48 -4.47,-2.11l-3.25 1.67 0.33 -2.55c-1.22,-0.28 -2.52,-0.48 -3.87,-0.54 0,0 -0.51,2.24 -0.2,5.15 0.61,-0.25 1.54,-0.57 2.36,-0.5 0,0 -1.28,1.46 -1.92,2.93 0.43,1.61 1.16,3.3 2.38,4.86 0.22,-0.85 0.68,-2.28 1.44,-3.03 0,0 -0.28,2.57 -0.07,4.51 1.03,0.96 2.29,1.82 3.85,2.53 0.05,-0.96 0.19,-2.65 0.53,-3.06 0,0 0.27,2.11 0.97,3.67 1.47,0.52 3.16,0.92 5.09,1.16l0 -12.53c0,0 -0.54,-0.46 -1.5,-1.11 -2.5,0.54 -4.04,1.85 -4.04,1.85 0.49,-1.28 1.74,-2.39 2.37,-2.9z"/>
        </g>
       </g>
       <g>
        <g>
         <path class="fil1" d="M15.15 48.78c-2.12,-1.28 -4.11,-2.76 -5.94,-4.45 -3.1,-2.86 -5.67,-6.22 -8.09,-9.66 -0.1,0.54 -0.43,2.53 -0.17,5 0.61,-0.25 1.54,-0.57 2.36,-0.5 0,0 -1.28,1.46 -1.92,2.93 0.43,1.61 1.16,3.3 2.38,4.86 0.22,-0.85 0.68,-2.28 1.44,-3.03 0,0 -0.28,2.57 -0.07,4.51 1.03,0.96 2.29,1.82 3.85,2.53 0.05,-0.96 0.19,-2.65 0.53,-3.06 0,0 0.27,2.11 0.97,3.67 1.47,0.52 3.16,0.92 5.09,1.16l0 -3.71c-0.14,-0.08 -0.28,-0.16 -0.43,-0.25z"/>
        </g>
       </g>
      </g>
      <path class="fil1" d="M36.24 20.03c-0.29,-2.25 -0.77,-4.21 -1.38,-5.91 -1.82,-0.81 -4.28,-1.11 -4.28,-1.11 0.49,-0.4 2.44,-0.57 3.56,-0.63 -0.83,-1.81 -1.84,-3.28 -2.96,-4.48 -2.25,-0.22 -5.25,0.11 -5.25,0.11 0.87,-0.88 2.53,-1.43 3.51,-1.69 -1.81,-1.41 -3.78,-2.25 -5.66,-2.74 -1.71,0.75 -3.4,2.25 -3.4,2.25 -0.09,-0.95 0.29,-2.04 0.58,-2.75 -0.1,-0.01 -0.2,-0.02 -0.3,-0.03 -0.03,0 -0.06,0 -0.1,0 -0.06,-0.01 -0.13,-0.01 -0.19,-0.02 -0.04,0 -0.07,0 -0.11,-0.01 -0.06,0 -0.12,0 -0.18,-0.01 -0.04,0 -0.07,0 -0.11,0 -0.06,-0.01 -0.12,-0.01 -0.18,-0.01 -0.03,0 -0.07,-0.01 -0.1,-0.01 -0.07,0 -0.14,0 -0.21,0 -0.02,0 -0.04,-0.01 -0.06,-0.01 -0.09,0 -0.18,0 -0.27,0 -0.02,0 -0.03,0 -0.04,0 -0.08,0 -0.15,0 -0.23,0 -0.03,0 -0.05,0 -0.08,0 -0.06,0 -0.12,0 -0.18,0 -0.03,0 -0.05,0 -0.08,0 -0.06,0 -0.12,0 -0.18,0 -0.02,0 -0.05,0 -0.08,0 -0.06,0.01 -0.12,0.01 -0.17,0.01 -0.03,0 -0.05,0 -0.07,0 -0.08,0 -0.15,0.01 -0.23,0.01 0,0 0,0 0,0 -0.08,0 -0.16,0.01 -0.24,0.01 -0.01,0 -0.02,0.01 -0.04,0.01 -0.06,0 -0.12,0 -0.18,0.01 -0.02,0 -0.04,0 -0.06,0 -0.05,0.01 -0.1,0.01 -0.16,0.01 -0.02,0.01 -0.04,0.01 -0.06,0.01 -0.05,0 -0.1,0.01 -0.15,0.01 -0.01,0 -0.03,0 -0.05,0.01 -0.05,0 -0.11,0.01 -0.16,0.01 -0.01,0 -0.02,0 -0.03,0 -0.13,0.02 -0.26,0.03 -0.37,0.05 -0.01,0 -0.02,0 -0.03,0 -0.05,0.01 -0.09,0.01 -0.14,0.02 -0.01,0 -0.03,0 -0.04,0 -0.04,0.01 -0.08,0.01 -0.11,0.02 -0.02,0 -0.04,0 -0.05,0 -0.04,0.01 -0.07,0.01 -0.1,0.02 -0.02,0 -0.03,0 -0.05,0 -0.03,0.01 -0.07,0.02 -0.1,0.02 -0.01,0 -0.02,0 -0.03,0 -0.04,0.01 -0.08,0.02 -0.12,0.02 -0.01,0.01 -0.02,0.01 -0.03,0.01 -0.03,0 -0.06,0.01 -0.08,0.01 -0.01,0.01 -0.03,0.01 -0.04,0.01 -0.02,0 -0.04,0.01 -0.06,0.01 -0.01,0 -0.03,0.01 -0.04,0.01 -0.02,0 -0.03,0 -0.04,0.01 -0.02,0 -0.03,0 -0.05,0 -0.01,0.01 -0.01,0.01 -0.02,0.01 -0.14,0.03 -0.22,0.04 -0.22,0.04 0.08,1.57 0.31,3.08 0.65,4.5l2.96 -0.4 -1.93 3.79c0.76,2.02 1.66,3.79 2.48,5.19 0.59,-0.74 1.89,-2.19 3.37,-2.77 0,0 -1.52,1.8 -2.14,4.71 0.77,1.12 1.31,1.74 1.31,1.74l10.27 -0.05 4.31 -0.02z"/>
      <g>
       <g>
        <path class="fil1" d="M72.16 10.8c0.08,0.56 0.15,1.37 0.04,2.23 0,0 -0.86,-0.79 -2.19,-1.02 -1.34,0.86 -2.44,1.81 -3.36,2.79 0.53,0.12 1.11,0.33 1.56,0.68 0,0 -1.5,0.24 -2.62,0.57 -2.88,3.75 -3.22,7.44 -3.22,7.44l2.69 7.03c1.19,-0.73 2.26,-1.47 3.23,-2.21 0.06,-1.08 -0.15,-2.54 -0.15,-2.54 0.43,0.47 0.86,1.29 1.09,1.79 1.6,-1.34 2.87,-2.68 3.86,-4 -0.12,-1.43 -0.83,-2.66 -0.83,-2.66 1.03,0.32 1.53,0.83 1.79,1.26 1.32,-2.12 1.97,-4.15 2.25,-5.94 -0.55,-1.53 -1.38,-2.15 -1.38,-2.15 0.61,-0.38 1.14,-0.57 1.53,-0.66 -0.11,-2.41 -0.81,-3.94 -0.81,-3.94 -1.28,0.38 -2.43,0.83 -3.48,1.33z"/>
       </g>
       <g>
        <path class="fil2" d="M74.92 14.07c0.61,-0.38 1.14,-0.57 1.53,-0.66 -0.11,-2.41 -0.81,-3.94 -0.81,-3.94 -0.04,0.02 -0.09,0.03 -0.14,0.05 -1.02,3.81 -3.14,7.37 -5.58,10.41 -1.93,2.41 -4.14,4.56 -6.34,6.71l1.48 3.88c1.19,-0.73 2.26,-1.47 3.23,-2.21 0.06,-1.08 -0.15,-2.54 -0.15,-2.54 0.43,0.47 0.86,1.29 1.09,1.79 1.6,-1.34 2.87,-2.68 3.86,-4 -0.12,-1.43 -0.83,-2.66 -0.83,-2.66 1.03,0.32 1.53,0.83 1.79,1.26 1.32,-2.12 1.97,-4.15 2.25,-5.94 -0.55,-1.53 -1.38,-2.15 -1.38,-2.15z"/>
       </g>
      </g>
     </g>
     <g>
      <g>
       <path class="fil3" d="M66.74 52.91l-52.82 0 0 -34.25c0,-0.75 0.62,-1.37 1.37,-1.37l50.07 0c0.76,0 1.38,0.62 1.38,1.37l0 34.25z"/>
      </g>
      <g>
       <path class="fil3" d="M23.09 17.29l-7.8 0c-0.75,0 -1.37,0.62 -1.37,1.37l0 34.25 44.79 0 -35.62 -35.62z"/>
      </g>
      <g>
       <path class="fil4" d="M64.11 50.86l-47.56 0 0 -30.01c0,-0.68 0.56,-1.24 1.24,-1.24l45.08 0c0.68,0 1.24,0.56 1.24,1.24l0 30.01z"/>
      </g>
      <g>
       <path class="fil5" d="M29.18 19.61l-11.39 0c-0.68,0 -1.24,0.56 -1.24,1.24l0 30.01 43.88 0 -31.25 -31.25z"/>
      </g>
      <g>
       <path class="fil6" d="M65.17 57.55l-49.68 0c-2.52,0 -4.57,-2.05 -4.57,-4.57 0,-0.19 0.15,-0.34 0.34,-0.34l58.14 0c0.19,0 0.34,0.15 0.34,0.34 0,2.52 -2.05,4.57 -4.57,4.57z"/>
      </g>
      <g>
       <path class="fil7" d="M69.4 52.64l-26.69 0 4.91 4.91 17.55 0c2.52,0 4.57,-2.05 4.57,-4.57 0,-0.19 -0.15,-0.34 -0.34,-0.34z"/>
      </g>
     </g>
     <g>
      <g>
       <path class="fil8" d="M26.82 32.34l-1.05 -1.09 0 -1.29c0,-0.36 -0.29,-0.65 -0.66,-0.65l-6.35 0c-0.36,0 -0.66,0.29 -0.66,0.65l0 2.14c0,0.37 0.3,0.66 0.66,0.66l5.54 0 0.81 0 1.54 0c0.22,0 0.33,-0.26 0.17,-0.42z"/>
      </g>
      <g>
       <path class="fil4" d="M20.54 31.04c0,0.35 -0.27,0.62 -0.61,0.62 -0.34,0 -0.62,-0.27 -0.62,-0.62 0,-0.34 0.28,-0.61 0.62,-0.61 0.34,0 0.61,0.27 0.61,0.61z"/>
       <path class="fil4" d="M22.55 31.02c0,0.34 -0.27,0.62 -0.61,0.62 -0.34,0 -0.62,-0.28 -0.62,-0.62 0,-0.34 0.28,-0.61 0.62,-0.61 0.34,0 0.61,0.27 0.61,0.61z"/>
       <path class="fil4" d="M24.56 31.02c0,0.34 -0.27,0.62 -0.61,0.62 -0.34,0 -0.62,-0.28 -0.62,-0.62 0,-0.34 0.28,-0.61 0.62,-0.61 0.34,0 0.61,0.27 0.61,0.61z"/>
      </g>
     </g>
     <g>
      <g>
       <g>
        <path class="fil8" d="M58.87 12.56c-0.04,0 -0.08,-0.02 -0.12,-0.04l-5.28 -3.78c-0.01,0.04 -0.01,0.08 -0.01,0.12l0 5.52c0,0.3 0.24,0.54 0.54,0.54l9.74 0c0.3,0 0.54,-0.24 0.54,-0.54l0 -5.52c0,-0.08 -0.02,-0.16 -0.05,-0.23l-5.24 3.89c-0.03,0.02 -0.08,0.04 -0.12,0.04z"/>
       </g>
       <g>
        <path class="fil8" d="M63.92 8.35c-0.05,-0.02 -0.12,-0.04 -0.18,-0.04l-9.74 0c-0.11,0 -0.21,0.04 -0.29,0.09l5.16 3.7 5.05 -3.75z"/>
       </g>
      </g>
      <g>
       <path class="fil9" d="M66.07 8.43c0,1.18 -0.97,2.15 -2.15,2.15 -1.19,0 -2.15,-0.97 -2.15,-2.15 0,-1.19 0.96,-2.15 2.15,-2.15 1.18,0 2.15,0.96 2.15,2.15z"/>
       <g>
        <g>
         <path class="fil6" d="M64.32 9.7c0,0.23 -0.18,0.41 -0.4,0.41 -0.23,0 -0.41,-0.18 -0.41,-0.41 0,-0.22 0.18,-0.4 0.41,-0.4 0.22,0 0.4,0.18 0.4,0.4z"/>
        </g>
        <path class="fil6" d="M63.73 8.92l-0.19 -1.76c-0.02,-0.21 0.13,-0.39 0.34,-0.42 0.2,-0.02 0.39,0.13 0.41,0.34 0,0.02 0,0.05 0,0.08l-0.18 1.76c-0.02,0.11 -0.11,0.18 -0.21,0.17 -0.09,-0.01 -0.16,-0.08 -0.17,-0.17z"/>
       </g>
      </g>
     </g>
     <g>
      <g>
       <path class="fil8" d="M31.02 20.5l-2.31 -2.39 0 -6.83c0,-0.6 -0.48,-1.08 -1.08,-1.08l-8.44 0c-0.6,0 -1.09,0.48 -1.09,1.08l0 8.88c0,0.59 0.49,1.08 1.09,1.08l7.32 0 -0.01 0.02 4.2 0c0.39,0 0.59,-0.47 0.32,-0.76z"/>
      </g>
      <path class="fil4" d="M22.87 15.08l-0.35 -0.66 0.84 -0.45c0.2,-0.1 0.28,-0.36 0.17,-0.57l-0.73 -1.39c-0.11,-0.21 -0.37,-0.29 -0.58,-0.18l-0.46 0.24c-1.04,0.56 -1.44,1.86 -0.89,2.9l0.48 0.91 0.49 0.93 0.82 1.51c0.55,1.05 1.85,1.45 2.9,0.9l0.46 -0.25c0.2,-0.11 0.28,-0.36 0.17,-0.57l-0.73 -1.39c-0.11,-0.21 -0.37,-0.29 -0.58,-0.18l-0.84 0.44 -0.68 -1.26 -0.49 -0.93z"/>
     </g>
     <g>
      <g>
       <path class="fil10" d="M62.13 37.47c0.97,-1.52 2.08,-2.96 3.31,-4.29 0.09,-0.09 0.18,-0.19 0.23,-0.32 0.04,-0.12 0.03,-0.27 -0.07,-0.36 -0.15,-0.14 -0.4,-0.03 -0.57,0.09 -0.41,0.27 -0.77,0.53 -1.14,0.86 0.43,-0.65 0.85,-1.3 1.28,-1.94 0.06,-0.1 0.13,-0.2 0.16,-0.31 0.02,-0.12 0.01,-0.25 -0.08,-0.33 -0.08,-0.08 -0.21,-0.1 -0.32,-0.07 -0.11,0.03 -0.21,0.1 -0.3,0.17 -0.58,0.44 -1.05,1.02 -1.5,1.59 0.5,-0.82 0.95,-1.68 1.33,-2.57 0.08,-0.19 0.15,-0.41 0.03,-0.57 -0.09,-0.12 -0.27,-0.15 -0.41,-0.11 -0.14,0.04 -0.26,0.14 -0.36,0.24 -0.68,0.66 -1.03,1.58 -1.36,2.46 0.19,-0.77 0.37,-1.49 0.42,-2.28 0.01,-0.19 0,-0.42 -0.17,-0.5 -0.12,-0.06 -0.27,-0.01 -0.37,0.09 -0.09,0.09 -0.15,0.22 -0.19,0.34 -0.3,0.77 -0.57,1.53 -0.83,2.31 -0.05,0.14 -0.46,1.67 -0.85,1.15 -0.05,-0.08 -0.07,-0.18 -0.09,-0.27 -0.06,-0.3 -0.12,-0.61 -0.18,-0.91 -0.03,-0.15 -0.06,-0.32 -0.16,-0.44 -0.2,-0.26 -0.51,-0.16 -0.57,0.15 -0.25,1.39 0.49,2.78 0.42,4.19 0.91,0.27 1.77,0.88 2.34,1.63z"/>
      </g>
      <g>
       <path class="fil11" d="M24.47 50.86c0,0 2.62,-10.93 3.8,-13.8 1.19,-2.87 1.99,-4.36 6.07,-5.56 4.08,-1.2 11.69,-0.91 14.1,1.16 2.41,2.07 6.04,10.99 6.04,10.99l5.25 -8.07c0,0 1.9,0.76 2.66,1.82 0,0 -5.29,12.85 -7.91,13.02 -2.62,0.17 -6.34,-8.08 -6.34,-8.08l1.4 8.52 -25.07 0z"/>
      </g>
      <g>
       <path class="fil12" d="M29.18 36.57c0.24,-0.95 0.54,-1.91 0.94,-2.81 -0.8,0.86 -1.28,1.92 -1.85,3.3 -1.18,2.87 -3.8,13.8 -3.8,13.8l1.05 0c0.01,-0.02 3.34,-13.07 3.66,-14.29z"/>
      </g>
      <g>
       <path class="fil12" d="M62.2 37.66c-0.9,1.13 -1.8,2.29 -2.64,3.46 -0.93,1.3 -1.64,2.75 -2.74,3.93 -1.22,1.31 -3.05,1.93 -4.51,0.59 -0.85,-0.77 -1.32,-1.91 -1.87,-2.88 -0.63,-1.12 -1.27,-2.23 -1.85,-3.38 -0.32,-0.63 -0.61,-1.27 -0.88,-1.91 0,0.3 0,0.59 0.01,0.89 0.06,1.52 0.36,3.05 0.69,4.54 0.89,1.86 3.87,7.66 6.07,7.52 2.51,-0.16 7.46,-11.94 7.88,-12.95 -0.05,0.06 -0.11,0.12 -0.16,0.19z"/>
      </g>
      <g>
       <path class="fil12" d="M45.89 31.09c-0.72,-0.34 -1.44,-0.64 -2.18,-0.9 -0.58,-0.21 -1.12,-0.52 -1.73,-0.59 -1.47,-0.16 -2.99,0 -4.4,0.41 -1.57,0.46 -3.03,1.07 -4.55,1.71 -0.41,0.18 -0.85,0.38 -1.06,0.78 -0.29,0.55 0.01,1.23 0.4,1.73 0.37,0.49 0.83,0.91 1.18,1.42 0.34,0.51 0.57,1.15 0.4,1.75 -0.2,0.73 -0.93,1.22 -1.1,1.96 -0.13,0.54 0.07,1.09 0.27,1.6 0.39,1.04 0.79,2.09 1.19,3.13 0.7,1.83 1.48,3.77 3.07,4.91 0.69,0.5 1.59,0.81 2.4,0.55 0.7,-0.22 1.19,-0.83 1.62,-1.42 1.21,-1.69 2.15,-3.54 3,-5.43 0.36,-0.8 0.75,-1.57 1.13,-2.35 0.34,-0.68 0.23,-1.59 -0.34,-2.12 -0.27,-0.25 -0.63,-0.43 -0.77,-0.76 -0.2,-0.46 0.08,-0.97 0.33,-1.4 0.68,-1.14 1.25,-2.33 1.71,-3.57 0.11,-0.27 0.21,-0.58 0.1,-0.86 -0.12,-0.27 -0.41,-0.43 -0.67,-0.55z"/>
      </g>
      <path class="fil13" d="M37 29.79c0,0 -2.25,10.49 -1.31,21.07 0,0 7.65,0 7.69,0 0.04,0 -0.91,-16.92 -0.29,-20.44l-6.09 -0.63z"/>
      <path class="fil14" d="M37.37 50.86l0.08 0c-0.01,-0.14 -0.02,-0.28 -0.02,-0.42 -0.02,0.14 -0.04,0.28 -0.06,0.42z"/>
      <path class="fil14" d="M43.09 30.42l-1.02 -0.1c-0.54,3.42 -0.5,6.93 -0.37,10.39 0.08,2.3 0.21,4.61 0.26,6.92 0.03,1.07 0.03,2.13 0.22,3.19 0,0.01 0.01,0.03 0.01,0.04l1.19 0c0.04,0 -0.91,-16.92 -0.29,-20.44z"/>
      <g>
       <g>
        <path class="fil15" d="M42.78 24.86c0.04,-0.02 0.07,-0.04 0.1,-0.07 0.13,0.39 0.1,0.8 0.07,1.2 -0.05,0.72 -0.11,1.43 -0.13,2.14 -0.02,0.67 0.1,1.26 0.24,1.91 0.02,0.13 0.05,0.26 0.03,0.38 -0.02,0.15 -0.1,0.28 -0.2,0.39 -0.67,0.84 -1.87,1.01 -2.94,0.97 -0.9,-0.02 -1.87,-0.16 -2.63,-0.67 -0.45,-0.31 -0.3,-0.45 -0.29,-0.93 0.01,-0.36 0.01,-0.65 0.08,-1.01 0.05,-0.26 0.46,-2.45 0.11,-2.44 0.99,-0.02 1.97,-0.2 2.91,-0.51 0.46,-0.15 0.92,-0.33 1.36,-0.52 0.46,-0.19 0.88,-0.54 1.29,-0.84z"/>
       </g>
       <g>
        <path class="fil16" d="M43.06 30.04c-0.14,-0.65 -0.26,-1.24 -0.24,-1.91 0.02,-0.71 0.08,-1.42 0.13,-2.14 0.03,-0.4 0.06,-0.81 -0.07,-1.2 -0.03,0.03 -0.06,0.05 -0.1,0.07 -0.41,0.3 -0.83,0.65 -1.29,0.84 -0.44,0.19 -0.9,0.37 -1.36,0.52 -0.94,0.31 -1.92,0.49 -2.91,0.51 0.22,-0.01 0.13,0.89 0.03,1.6 1.17,0.56 2.68,0.02 3.69,1.01 0.57,0.56 0.84,1.36 1,2.16 0.37,-0.15 0.7,-0.38 0.95,-0.69 0.1,-0.11 0.18,-0.24 0.2,-0.39 0.02,-0.12 -0.01,-0.25 -0.03,-0.38z"/>
       </g>
       <path class="fil17" d="M45.17 14.84c0.37,0.57 0.59,1.3 0.78,1.95 0.18,0.6 0.27,1.24 0.28,1.87 0,0.66 0.04,1.31 -0.07,1.97 -0.15,0.97 -0.53,1.91 -1.09,2.71 -0.58,0.82 -1.36,1.41 -2.02,2.17 -0.18,0.2 -0.46,0.52 -0.77,0.33 -0.23,-0.13 -0.2,-0.46 -0.16,-0.73 0.23,-1.33 0.2,-2.71 -0.09,-4.03 -0.28,-1.28 -0.68,-2.49 -0.83,-3.8 -0.1,-0.81 -0.7,-0.47 -1.22,-0.29 -0.69,0.23 -1.43,0.39 -2.14,0.15 -0.23,-0.08 -0.45,-0.2 -0.69,-0.25 -0.25,-0.06 -0.52,-0.05 -0.77,-0.04 -1.43,0.08 -2.68,0.4 -4.06,-0.21 -0.86,-0.38 -1.4,-1.22 -1.2,-2.19 0.21,-0.99 1.22,-1.7 2.21,-1.58 0.3,0.03 0.59,0.13 0.89,0.1 0.38,-0.04 0.49,-0.33 0.72,-0.58 0.24,-0.28 0.58,-0.51 0.9,-0.69 0.66,-0.38 1.41,-0.6 2.17,-0.67 1.75,-0.14 3.92,0.35 4.94,1.89 0.14,0.21 0.26,0.43 0.46,0.59 0.17,0.13 0.39,0.19 0.59,0.28 0.49,0.22 0.88,0.61 1.17,1.05z"/>
       <g>
        <path class="fil18" d="M44.85 23.63c0.44,-1.02 0.73,-2.07 0.21,-3.08 -0.34,-0.67 -0.84,-1.01 -0.87,-1.79 -0.03,-0.9 0.08,-1.8 -0.12,-2.68 -0.21,-0.89 -0.86,-2.03 -1.56,-2.63 -0.7,-0.58 -1.7,-0.96 -2.57,-1.18 -0.96,-0.24 -1.94,-0.24 -2.91,-0.17 -0.7,0.04 -1.39,0.18 -2.08,0.27 0,0.01 -0.01,0.01 -0.01,0.02 -0.23,0.25 -0.34,0.54 -0.72,0.58 -0.3,0.03 -0.59,-0.07 -0.89,-0.1 -0.1,-0.02 -0.21,-0.02 -0.31,-0.01 -0.19,0.43 -0.16,0.97 0.33,1.13 0.3,0.1 0.67,0.08 0.97,0.07 1.04,-0.01 2.15,-0.67 3.19,-0.66 1.53,0 3.25,0.07 4.47,1.11 1.29,1.1 1.21,3.89 1.13,5.41 -0.06,1.07 -0.35,2.05 -0.85,2.94 0.03,0.76 -0.01,1.51 -0.14,2.25 -0.04,0.27 -0.07,0.6 0.16,0.73 0.31,0.19 0.59,-0.13 0.77,-0.33 0.58,-0.66 1.25,-1.2 1.8,-1.88z"/>
       </g>
       <g>
        <path class="fil10" d="M37.33 15.72c-1.07,0.16 -1.88,0.93 -2.94,1.15 -0.02,0 -0.04,0.01 -0.05,0.02 0,0.02 0,0.03 0,0.05 0.12,0.45 0.25,0.87 0.3,1.33 0.07,0.89 0.07,1.8 -0.07,2.69 -0.14,0.88 -0.35,1.76 -0.27,2.65 0.1,1.08 0.65,2.1 1.49,2.78 1.16,0.94 2.79,1.08 4.21,0.76 2.38,-0.53 3.8,-2.96 3.66,-5.3 -0.01,-0.06 -0.01,-0.13 0.04,-0.17 0.02,-0.03 0.05,-0.04 0.08,-0.05 0.53,-0.17 0.99,-0.41 1.16,-0.99 0.07,-0.23 0.08,-0.5 -0.04,-0.71 -0.38,-0.68 -1.31,-0.18 -1.58,0.31 -0.1,0.17 -0.08,0.29 -0.29,0.35 -0.36,0.11 -0.51,0.08 -0.65,-0.28 -0.16,-0.44 -0.01,-0.82 -0.01,-1.26 0,-0.47 0.06,-0.84 -0.19,-1.24 -0.12,-0.2 -0.3,-0.37 -0.4,-0.58 -0.1,-0.22 -0.11,-0.47 -0.11,-0.71 0.01,-0.43 0.09,-0.85 0.22,-1.25 -0.3,0.25 -0.63,0.5 -1,0.63 -0.57,0.19 -1.19,0.11 -1.78,-0.01 -0.59,-0.11 -1.19,-0.25 -1.78,-0.17z"/>
       </g>
       <g>
        <path class="fil15" d="M44.9 19.93c-0.38,-0.68 -1.31,-0.18 -1.58,0.31 -0.1,0.17 -0.08,0.29 -0.29,0.35 -0.36,0.11 -0.51,0.08 -0.65,-0.28 -0.16,-0.44 -0.01,-0.82 -0.01,-1.26 0,-0.47 0.06,-0.84 -0.19,-1.24 -0.12,-0.2 -0.3,-0.37 -0.4,-0.58 -0.1,-0.22 -0.11,-0.47 -0.11,-0.71 0.01,-0.43 0.09,-0.85 0.22,-1.25 -0.3,0.25 -0.63,0.5 -1,0.63 -0.57,0.19 -1.19,0.11 -1.78,-0.01 -0.59,-0.11 -1.19,-0.25 -1.78,-0.17 -1.07,0.16 -1.88,0.93 -2.94,1.15 -0.02,0 -0.04,0.01 -0.05,0.02 0,0.02 0,0.03 0,0.05 0.02,0.07 0.04,0.14 0.06,0.22 0.47,-0.05 0.94,-0.12 1.4,-0.24 0.45,-0.13 0.88,-0.33 1.33,-0.47 0.38,-0.12 0.77,-0.21 1.16,-0.2 0.42,0.01 0.81,0.15 1.21,0.25 0.44,0.11 1.05,0 1.25,0.51 0.18,0.48 0.1,1.03 0.13,1.53 0.05,0.81 0.32,1.6 0.46,2.4 0.13,0.75 0.17,1.5 0.08,2.25 -0.17,1.31 -0.67,2.66 -1.71,3.52 -0.28,0.23 -0.59,0.42 -0.91,0.57 0.4,-0.01 0.81,-0.04 1.2,-0.13 2.38,-0.53 3.8,-2.96 3.66,-5.3 -0.01,-0.06 -0.01,-0.13 0.04,-0.17 0.02,-0.03 0.05,-0.04 0.08,-0.05 0.53,-0.17 0.99,-0.41 1.16,-0.99 0.07,-0.23 0.08,-0.5 -0.04,-0.71z"/>
       </g>
       <g>
        <path class="fil17" d="M36.41 17.38c-0.14,-0.22 -0.55,-0.21 -0.75,-0.12 -0.48,0.2 -1.17,0.76 -1.32,1.27 -0.03,0.09 -0.02,0.19 0.05,0.25 0.06,0.06 0.17,0.06 0.25,0.03 0.09,-0.03 0.16,-0.09 0.23,-0.14 0.31,-0.26 0.66,-0.46 1.03,-0.62 0.15,-0.07 0.3,-0.12 0.42,-0.23 0.11,-0.12 0.17,-0.3 0.09,-0.44z"/>
       </g>
       <g>
        <path class="fil17" d="M39.37 17.29c0.13,-0.22 0.54,-0.21 0.75,-0.12 0.47,0.2 1.16,0.76 1.32,1.27 0.03,0.09 0.01,0.19 -0.05,0.25 -0.07,0.06 -0.17,0.06 -0.26,0.03 -0.08,-0.03 -0.15,-0.09 -0.22,-0.14 -0.32,-0.26 -0.67,-0.47 -1.04,-0.62 -0.14,-0.07 -0.3,-0.12 -0.41,-0.23 -0.11,-0.12 -0.17,-0.3 -0.09,-0.44z"/>
       </g>
       <g>
        <path class="fil19" d="M36.53 19.58c0,0.23 -0.19,0.42 -0.41,0.42 -0.23,0 -0.42,-0.19 -0.42,-0.42 0,-0.22 0.19,-0.41 0.42,-0.41 0.22,0 0.41,0.19 0.41,0.41z"/>
       </g>
       <g>
        <path class="fil19" d="M39.77 19.58c0,0.23 -0.19,0.42 -0.42,0.42 -0.22,0 -0.41,-0.19 -0.41,-0.42 0,-0.22 0.19,-0.41 0.41,-0.41 0.23,0 0.42,0.19 0.42,0.41z"/>
       </g>
      </g>
      <path class="fil16" d="M37.75 18.83c0.03,0.48 0.08,0.95 0.1,1.43 0.01,0.24 0.02,0.48 0,0.73 -0.03,0.25 -0.11,0.5 -0.23,0.72 -0.07,0.11 -0.15,0.22 -0.24,0.31 -0.09,0.09 -0.2,0.16 -0.3,0.23 -0.09,0.06 -0.16,0.13 -0.19,0.21 -0.03,0.06 -0.03,0.16 0.01,0.24 0.04,0.08 0.11,0.15 0.19,0.19 0.08,0.05 0.18,0.07 0.28,0.06 0.2,-0.01 0.41,-0.12 0.59,-0.25l0 0c0.04,-0.03 0.08,-0.02 0.1,0.01 0.02,0.03 0.02,0.06 0,0.09 -0.17,0.18 -0.39,0.33 -0.67,0.37 -0.27,0.05 -0.59,-0.09 -0.72,-0.36 -0.06,-0.14 -0.08,-0.3 -0.01,-0.45 0.06,-0.15 0.18,-0.24 0.28,-0.31 0.1,-0.07 0.2,-0.13 0.27,-0.21 0.08,-0.07 0.14,-0.16 0.2,-0.25 0.11,-0.19 0.18,-0.41 0.21,-0.63 0.03,-0.22 0.02,-0.46 0.02,-0.69 0,-0.48 -0.02,-0.95 -0.02,-1.43 0,-0.04 0.03,-0.07 0.06,-0.07 0.04,0 0.07,0.03 0.07,0.06z"/>
      <g>
       <path class="fil13" d="M37.56 24.03c-0.28,0.07 -0.55,0.14 -0.8,0.24 -0.19,0.07 -0.23,0.02 -0.24,0.22 0,0.11 0.1,0.27 0.15,0.36 0.13,0.21 0.33,0.39 0.55,0.49 0.41,0.19 0.91,0.15 1.28,-0.11 0.26,-0.18 0.44,-0.45 0.51,-0.75 0.05,-0.22 0.11,-0.84 -0.24,-0.74 -0.39,0.1 -0.81,0.19 -1.21,0.29z"/>
      </g>
      <g>
       <g>
        <g>
         <path class="fil20" d="M45.77 20.45c0,0.89 -0.72,1.61 -1.61,1.61 -0.9,0 -1.62,-0.72 -1.62,-1.61 0,-0.89 0.72,-1.61 1.62,-1.61 0.89,0 1.61,0.72 1.61,1.61z"/>
        </g>
        <g>
         <path class="fil3" d="M44.99 20.45c0,0.46 -0.37,0.84 -0.83,0.84 -0.47,0 -0.84,-0.38 -0.84,-0.84 0,-0.46 0.37,-0.84 0.84,-0.84 0.46,0 0.83,0.38 0.83,0.84z"/>
        </g>
       </g>
       <path class="fil20" d="M44.07 19.56c-0.18,-0.01 -0.33,-0.16 -0.33,-0.34 0,-0.93 -0.01,-1.9 -0.18,-2.82 -0.18,-1.01 -0.54,-1.84 -1.06,-2.46 -0.47,-0.55 -1.07,-0.99 -1.74,-1.27 -0.77,-0.32 -1.6,-0.44 -2.43,-0.45 -1.26,-0.01 -2.53,0.25 -3.72,0.65 -0.13,0.04 -0.26,0.09 -0.39,0.14 -0.03,0.01 -0.06,0.01 -0.09,0 -0.03,-0.01 -0.05,-0.05 -0.05,-0.09 0.01,-0.15 0.18,-0.32 0.28,-0.43 0.39,-0.42 0.99,-0.55 1.53,-0.68 0.74,-0.17 1.5,-0.26 2.25,-0.27 0.88,-0.01 1.76,0.09 2.59,0.39 0.89,0.31 1.68,0.85 2.29,1.57 0.6,0.71 1.01,1.65 1.21,2.78 0.18,0.98 0.19,1.97 0.19,2.94 0.01,0.18 -0.15,0.34 -0.33,0.34 -0.01,0 -0.02,0 -0.02,0z"/>
       <g>
        <path class="fil20" d="M40.06 25.85c-0.08,0 -0.16,-0.05 -0.19,-0.14 -0.04,-0.11 0.02,-0.22 0.13,-0.26 0.91,-0.3 2.05,-0.67 2.73,-1.49 0.59,-0.7 0.79,-1.66 0.98,-2.51 0.02,-0.11 0.13,-0.18 0.24,-0.16 0.11,0.03 0.18,0.13 0.16,0.25 -0.2,0.89 -0.41,1.91 -1.06,2.69 -0.76,0.9 -1.96,1.3 -2.93,1.61 -0.02,0.01 -0.04,0.01 -0.06,0.01z"/>
        <g>
         <path class="fil3" d="M39.88 26.32l-0.35 0.1c-0.33,0.09 -0.67,-0.1 -0.76,-0.43 -0.09,-0.32 0.11,-0.66 0.43,-0.75l0.35 -0.09c0.33,-0.09 0.66,0.1 0.75,0.42 0.09,0.33 -0.1,0.66 -0.42,0.75z"/>
        </g>
       </g>
      </g>
      <g>
       <polygon class="fil12" points="29.88,50.86 31.14,42.77 30.89,50.86 "/>
      </g>
     </g>
    </g>
   </g>
  </g>
 </g>
</svg>
