<?xml version="1.0" encoding="UTF-8"?>
<!DOCTYPE svg PUBLIC "-//W3C//DTD SVG 1.1//EN" "http://www.w3.org/Graphics/SVG/1.1/DTD/svg11.dtd">
<!-- Creator: CorelDRAW 2023 -->
<svg xmlns="http://www.w3.org/2000/svg" xml:space="preserve" width="851px" height="307px" version="1.1" style="shape-rendering:geometricPrecision; text-rendering:geometricPrecision; image-rendering:optimizeQuality; fill-rule:evenodd; clip-rule:evenodd"
viewBox="0 0 850.1 306.55"
 xmlns:xlink="http://www.w3.org/1999/xlink"
 xmlns:xodm="http://www.corel.com/coreldraw/odm/2003">
 <defs>
  <style type="text/css">
   <![CDATA[
    .fil1 {fill:#340060}
    .fil2 {fill:#FEFEFE;fill-rule:nonzero}
    .fil0 {fill:#DC5800;fill-rule:nonzero}
    .fil3 {fill:#FF6200;fill-rule:nonzero}
   ]]>
  </style>
 </defs>
 <g id="Camada_x0020_1">
  <metadata id="CorelCorpID_0Corel-Layer"/>
  <g id="_1761697170704">
   <path class="fil0" d="M50.51 214.87c-0.02,14.61 -0.02,30.56 -0.03,47.82 3.6,0 7.59,0 11.97,0 2.85,0 6.17,0 9.94,-0.01 -0.88,8.26 -0.94,16.91 -0.51,26.63 0.22,5.06 2.14,9.3 4.66,12.15l-39.74 0c-2.29,0 -4.89,-0.37 -7.7,-1.17 -2.81,-0.8 -5.55,-2.04 -8.33,-3.77 -2.86,-1.8 -5.4,-4.02 -7.72,-6.8 -2.39,-2.79 -4.21,-6.25 -5.51,-10.33 -0.69,-2.17 -1.24,-4.52 -1.64,-6.99 -0.39,-2.47 -0.61,-5.01 -0.5,-7.54 0.42,-5.88 0.71,-12.56 0.92,-19.92 0.21,-7.36 0.41,-15.76 0.56,-25.16 0.04,-2.53 0.07,-5.16 0.1,-7.87 6.77,4.14 14.33,2.86 23.95,2.86 6.48,0.01 13.03,0.06 19.58,0.1z"/>
   <path class="fil0" d="M54.95 23.19c1.36,4.27 1.7,8.41 1.1,12.49 -0.64,4.14 -1.33,7.73 -2.09,10.88 -0.65,6.81 -1.2,13.92 -1.61,21.46 -0.41,7.55 -0.74,15.96 -1.03,25.11 -0.28,9.21 -0.45,19.36 -0.59,30.42 -0.04,9.49 -0.12,19.92 -0.14,31.33 -8.84,0.06 -16.87,0.13 -21.04,0.09 -8.2,-0.08 -16.8,-1.5 -22.17,2.33 0.01,-3.27 0.01,-6.62 0.02,-10.06 0.06,-15.21 0.03,-32.16 -0.02,-51.02 -0.05,-18.86 -0.07,-39.88 -0.07,-63.07 -0.95,-3.84 -1.67,-7.73 -2.08,-11.69 -0.39,-3.9 -0.16,-7.48 0.87,-10.64 0.93,-3.21 2.79,-5.81 5.56,-7.79 2.68,-2.04 6.68,-3.03 11.92,-3.03 2.68,0 5.65,0.5 8.84,1.48 3.17,0.93 6.17,2.35 9.05,4.21 2.97,1.92 5.54,4.27 7.97,7.17 2.37,2.91 4.25,6.37 5.51,10.33z"/>
   <g>
    <path class="fil1" d="M152.3 257.29c-0.01,-11.02 -0.77,-23.68 1.28,-33.73 3.53,-17.42 7.57,-22.47 16.29,-34.19 4.83,-6.5 10.64,-11.42 16.38,-16.83 2.53,-2.39 1.41,-2.58 5.93,-2.5l75.17 -0.05c3.34,0.05 5.34,0.2 5.79,3.6l0.18 19.63c-0.05,3.72 0.37,6.16 -2.52,7.15 -1.62,0.55 -27.32,0.17 -33.24,0.16 -11.63,-0.03 -39.33,-0.55 -49.76,0.14 -4.73,0.31 -4.11,0.17 -7.14,2.85 -3.44,3.03 -6.95,6.18 -10,9.41l3.99 2.64c1.14,0.79 2.63,1.92 3.7,2.9 6.2,5.65 11.65,16.93 14.64,25.62 4.55,13.23 6.71,35.31 5.14,49.15 -18.96,0.35 -27.21,0.52 -45.87,0.03l0.04 -35.98zm-139.96 -85.65c3.4,-2.78 7.93,-1.53 13.09,-1.5l64.14 -0.03c9.12,-0.16 9.54,-1.07 12.72,2.52 4.06,4.59 9.43,8.21 16.05,15.75 4.49,5.11 8.32,12.91 11.38,20.75 1.47,3.78 4.02,14.72 4.77,19.51 0.26,1.7 0.28,2.02 1.07,2.81l1.92 1.2 -0.12 60.6 -53.37 0.06 -0.09 -15.33c-0.06,-21.74 7.63,-38.36 18.46,-53.79 1.45,-2.07 3.7,-4.26 5.42,-5.96 5.28,-5.22 3.86,-2.63 6.76,-4.31 -1.02,-2.21 -10.15,-12.14 -12.14,-13.35l-84.3 0.03c-3.13,0.01 -5,0.28 -5.66,-2.63 -0.51,-2.27 -0.3,-24.14 -0.1,-26.33zm131.25 41.43c-1.46,-3.38 -2.67,-8.57 -4.01,-12.49 -8.3,-24.38 -25.38,-31.78 -35.82,-45.27 -13.75,-17.77 -20.84,-38 -9.04,-60.55 2.31,-4.42 3.48,-5.85 6.33,-9.42 8.7,-10.91 21.83,-20.71 42.12,-21.37 8.33,-0.27 19.5,2.15 25.81,5.91 7.8,4.64 11.68,6.75 17.77,14.37 9.85,12.33 15.47,31.29 8.33,50.99 -6.4,17.69 -17.09,25.27 -28.33,36.01 -10.93,10.42 -19.06,20.35 -23.16,41.82zm-57.82 -126.77c0.13,-7.87 4.19,-17.28 7.06,-22.16 6.67,-11.37 16.59,-22.92 27.88,-29.1 28.24,-15.46 59.32,-1.22 72.67,26.28 2.6,5.38 7.38,14.36 7.54,21.36l-1 -1.24c-1.4,-2.01 -1.22,-2.7 -3.96,-6.09 -5.54,-6.87 -10.89,-11.58 -18.56,-15.99 -22.41,-12.91 -48.44,-11.59 -70.23,2.04 -4.73,2.97 -2.92,2.13 -6.54,5.25 -4.24,3.66 -10.08,10.65 -12.69,15.91l-2.17 3.74zm2.18 68.95c-7.29,-0.87 -47.08,-0.17 -58.4,-0.28 -9.36,-0.09 -19.23,-1.92 -24.25,4.28 -6.28,7.78 -5.26,13.76 -5.13,26.09 0.09,8.3 -1.82,20.15 5.22,25.48 7.17,5.44 15.16,3.95 25.54,3.95 19.27,0.02 39.02,0.42 58.21,0.02 -1.64,3.57 -4.38,6.57 -7.93,14.78 -8.64,19.99 -10.35,36.9 -9.33,59.74 0.3,6.95 3.81,12.34 7.67,14.74 5.24,3.27 13.12,2.3 19.64,2.27 26.41,-0.14 60.32,-0.6 86.12,0.13 13.45,0.38 23.59,0.64 25.44,-19.33 1.57,-17.06 -1.57,-34.61 -6.58,-50.06 -4.04,-12.47 -10.98,-20.36 -11.99,-22.54 19.32,-0.12 38.83,0.36 58.2,0.3 7.63,-0.03 21.62,1.53 26.97,-2.43 7.15,-5.27 7.5,-11.79 7.54,-23.6 0.03,-11.08 1.66,-19.83 -4.06,-27.33 -6.17,-8.09 -11.32,-6.36 -23.12,-6.43 -19.45,-0.11 -39.79,-0.69 -59.13,-0.24 1.58,-2.86 2.54,-3.33 5.26,-8.71 11.99,-23.69 15,-59.59 4.19,-83.71 -1.58,-3.52 -2.97,-6.03 -4.69,-9.25 -3.56,-6.66 -7.75,-11.07 -12.06,-16.1 -10.6,-12.34 -29.82,-22.31 -48.08,-21.59 -17.98,0.71 -28.81,5.9 -40.35,14.66 -4.9,3.72 -10.02,9.49 -13.72,14.34 -4.42,5.81 -2.09,2.73 -5.74,8.6 -10.12,16.3 -12.9,38.49 -10.41,59.43 3.32,27.92 13.59,38.55 14.97,42.79z"/>
    <path class="fil1" d="M121.66 141.97c5.67,5.37 13.23,8.23 22.89,8.13 8.6,-0.09 17.34,-4.53 22.19,-8.9 2.98,-2.67 11.21,-12.96 10.92,-20.42 -0.2,-4.97 -4.77,-7.27 -9.16,-5.31 -3.32,1.48 -4.02,6.37 -6.12,9.7 -7.01,11.1 -21.71,14.08 -31.42,6.76 -10.8,-8.14 -7.58,-15.22 -14.62,-16.82 -5.31,-1.21 -8.06,1.87 -7.01,7.64 1.49,8.19 8.33,15.44 12.33,19.22z"/>
    <path class="fil1" d="M167.07 93.48c-4.36,0.78 -7.08,3.71 -5.87,9.37 0.86,3.99 4.1,6.91 8.75,5.87 9.74,-2.2 6.3,-16.89 -2.88,-15.24z"/>
    <path class="fil1" d="M114.53 93.93c-8.75,3.93 -5.13,17.84 4.26,14.48 10.03,-3.59 4.29,-18.32 -4.26,-14.48z"/>
   </g>
   <g>
    <path class="fil2" d="M332.69 23.58c0.85,2.74 1.04,5.4 0.63,8.03 -0.44,2.66 -0.9,4.96 -1.41,6.99 -0.46,4.37 -0.86,8.94 -1.17,13.78 -0.31,4.85 -0.57,10.25 -0.82,16.13 -0.23,5.92 -0.4,12.44 -0.56,19.55 -0.1,7.15 -0.24,15.14 -0.32,24 -0.14,8.82 -0.22,18.63 -0.33,29.44 -0.12,10.76 -0.24,22.76 -0.37,35.95 2.31,0 4.87,0 7.69,0 2.85,0 6.42,0 10.7,-0.04 4.31,-0.04 9.63,-0.08 15.98,-0.08 6.34,0 14.24,0 23.69,0 3.78,-0.27 6.72,-0.55 8.88,-0.75 2.13,-0.2 3.81,-0.32 5.05,-0.4 1.19,-0.08 2.02,-0.12 2.48,-0.12 0.47,0 0.8,0 1.05,0 4.67,0 8.74,1.08 12.26,3.22 3.46,2.11 5.98,5.64 7.49,10.53 0.86,2.78 1,5 0.38,6.67 -0.58,1.67 -1.7,2.94 -3.38,3.78 -1.66,0.87 -3.67,1.43 -6.06,1.71 -2.36,0.27 -4.92,0.39 -7.61,0.39l-87.63 0c-1.47,0 -3.14,-0.24 -4.94,-0.75 -1.8,-0.52 -3.56,-1.31 -5.33,-2.42 -1.82,-1.16 -3.44,-2.59 -4.92,-4.38 -1.52,-1.78 -2.67,-4.01 -3.47,-6.63 -0.43,-1.39 -0.77,-2.9 -1.01,-4.49 -0.24,-1.59 -0.36,-3.22 -0.28,-4.85 0.31,-3.77 0.54,-8.06 0.72,-12.79 0.18,-4.73 0.36,-10.13 0.51,-16.17 0.15,-6.04 0.26,-12.91 0.42,-20.54 0.12,-7.67 0.26,-16.33 0.36,-26.06 0.14,-9.78 0.22,-20.66 0.31,-32.78 0.08,-12.12 0.2,-25.63 0.35,-40.52 -0.6,-2.47 -1.03,-4.97 -1.27,-7.51 -0.23,-2.51 -0.06,-4.81 0.62,-6.84 0.62,-2.06 1.83,-3.73 3.62,-5 1.74,-1.31 4.32,-1.95 7.68,-1.95 1.72,0 3.63,0.32 5.67,0.95 2.03,0.6 3.95,1.51 5.79,2.71 1.89,1.23 3.54,2.74 5.08,4.61 1.5,1.86 2.69,4.09 3.47,6.63z"/>
    <path class="fil2" d="M405.29 194.99c0,-1.47 0.2,-2.96 0.65,-4.48 0.42,-1.49 1.25,-3.01 2.43,-4.52 0.83,-1.35 1.95,-3.39 3.41,-6.12 1.43,-2.75 3.06,-5.95 4.89,-9.67 1.8,-3.69 3.75,-7.72 5.83,-12.11 2.08,-4.36 4.19,-8.84 6.35,-13.39 2.15,-4.57 4.28,-9.12 6.41,-13.68 2.13,-4.57 4.16,-8.84 6.07,-12.84 1.9,-4.01 3.65,-7.63 5.21,-10.88 1.58,-3.25 2.88,-5.85 3.96,-7.84 0.15,-1.02 0.45,-2.02 0.88,-3.01 0.45,-1 1.02,-1.9 1.77,-2.73 0.73,-0.81 1.61,-1.44 2.63,-1.94 1.03,-0.48 2.24,-0.71 3.61,-0.71 1.76,0 3.19,0.21 4.29,0.68 1.1,0.45 2,1.09 2.73,1.9 0.7,0.83 1.28,1.75 1.71,2.82 0.45,1.07 0.9,2.2 1.32,3.41 0.41,1.07 0.76,2.06 1.11,3.01 0.35,0.95 0.65,1.68 0.95,2.18 3.28,6.21 6.46,12.47 9.57,18.75 3.11,6.3 6.22,12.7 9.27,19.22 3.06,6.5 6.15,13.08 9.28,19.74 3.13,6.66 6.39,13.44 9.77,20.34l1.4 1.94c0.38,0.53 0.86,1.14 1.38,1.85 0.55,0.71 1.06,1.5 1.51,2.32 0.47,0.83 0.85,1.71 1.17,2.66 0.33,0.92 0.48,1.85 0.48,2.77 0,2.78 -0.83,4.74 -2.48,5.93 -1.68,1.18 -3.71,1.78 -6.11,1.78 -1.31,0 -2.54,-0.19 -3.64,-0.6 -1.1,-0.4 -2.05,-0.92 -2.88,-1.59 -0.85,-0.68 -1.5,-1.46 -1.98,-2.37 -0.5,-0.9 -0.83,-1.87 -0.98,-2.89 -1.35,-2.82 -2.63,-5.47 -3.81,-7.94 -1.17,-2.49 -2.3,-4.88 -3.41,-7.18 -1.1,-2.32 -2.18,-4.57 -3.2,-6.78 -1.03,-2.2 -2.06,-4.41 -3.09,-6.63 -0.77,0 -1.88,0 -3.28,-0.03 -1.43,-0.02 -3.03,-0.09 -4.79,-0.16 -2.78,0 -5.61,-0.03 -8.47,-0.07 -2.88,-0.05 -5.78,-0.1 -8.77,-0.12 -2.98,-0.03 -6.09,-0.03 -9.25,0 -3.18,0.02 -6.51,0.12 -10,0.23 -0.52,0.05 -1.05,0.1 -1.52,0.12 -0.5,0.03 -1.01,0.03 -1.56,0.03 -1.38,3.15 -2.65,6.16 -3.88,9 -1.23,2.85 -2.33,5.48 -3.31,7.87 -0.98,2.42 -1.85,4.55 -2.61,6.43 -0.75,1.87 -1.32,3.38 -1.73,4.55l0 -0.08c-0.3,1.02 -0.62,2.02 -1,2.99 -0.35,0.97 -0.88,1.85 -1.58,2.61 -0.67,0.76 -1.6,1.4 -2.8,1.87 -1.21,0.5 -2.79,0.74 -4.74,0.74 -2.66,0 -4.84,-0.62 -6.57,-1.88 -1.75,-1.25 -2.6,-3.08 -2.6,-5.5zm37.51 -43.72c1.03,0 2.36,0 3.99,0 1.65,0 3.78,0 6.39,0.02 2.63,0.02 5.84,0.05 9.65,0.07 3.83,0.02 8.44,0.07 13.88,0.1 -2.25,-4.63 -4.78,-9.84 -7.64,-15.65 -2.83,-5.8 -6.19,-12.58 -10.05,-20.31 -1.13,2.35 -2.33,4.95 -3.59,7.77 -1.27,2.83 -2.6,5.76 -4.01,8.82 -1.4,3.06 -2.8,6.21 -4.26,9.46 -1.45,3.22 -2.9,6.47 -4.36,9.72z"/>
    <path class="fil2" d="M493.82 148.47c0,-9.48 1.43,-17.78 4.31,-24.86 2.91,-7.09 6.89,-12.99 11.98,-17.71 5.09,-4.71 11.1,-8.25 18.07,-10.61 6.94,-2.38 14.51,-3.54 22.68,-3.54 2.1,0 4.49,0.03 7.12,0.1 2.65,0.07 5.36,0.24 8.12,0.52 2.75,0.28 5.49,0.66 8.19,1.18 2.68,0.5 5.19,1.19 7.47,2.02 1.83,0.64 3.33,1.56 4.56,2.77 1.23,1.21 1.83,2.94 1.83,5.22 0,2.63 -0.7,4.74 -2.08,6.35 -1.4,1.59 -3.03,2.39 -4.89,2.39 -0.4,0 -0.9,-0.05 -1.55,-0.14 -0.63,-0.1 -1.15,-0.26 -1.6,-0.5 -1.91,-0.97 -4.24,-1.75 -6.95,-2.35 -2.7,-0.61 -5.51,-1.09 -8.39,-1.46 -2.91,-0.36 -5.71,-0.62 -8.45,-0.76 -2.75,-0.14 -5.08,-0.22 -7.04,-0.22 -2.71,0 -5.46,0.31 -8.32,0.95 -2.83,0.62 -5.61,1.61 -8.32,2.94 -2.73,1.35 -5.29,3.06 -7.72,5.14 -2.4,2.09 -4.53,4.58 -6.34,7.45 -1.8,2.86 -3.26,6.16 -4.33,9.88 -1.08,3.72 -1.61,7.92 -1.61,12.54 0,5.4 0.65,10.21 2.01,14.36 1.35,4.17 3.21,7.8 5.54,10.88 2.35,3.08 5.11,5.66 8.29,7.77 3.18,2.11 6.64,3.82 10.33,5.1 3.68,1.3 7.54,2.23 11.55,2.77 4.03,0.57 8.04,0.85 12.05,0.85 1.76,0 3.76,-0.04 5.99,-0.11 2.23,-0.08 4.44,-0.29 6.64,-0.67 0,-4.53 -0.02,-8.39 -0.05,-11.59 -0.02,-3.2 -0.05,-6.04 -0.1,-8.53 -0.05,-2.51 -0.1,-4.79 -0.17,-6.87 -0.08,-2.09 -0.18,-4.32 -0.28,-6.69 0,-1.66 -0.1,-3.34 -0.35,-5.02 -0.25,-1.68 -0.37,-3.51 -0.37,-5.45 0,-0.69 0.15,-1.45 0.47,-2.25 0.33,-0.81 0.83,-1.59 1.56,-2.3 0.7,-0.71 1.65,-1.31 2.8,-1.8 1.18,-0.48 2.66,-0.74 4.41,-0.74 2.89,0 5.14,0.64 6.72,1.92 1.6,1.28 2.41,2.99 2.41,5.17 0,0.92 -0.03,1.82 -0.08,2.68 -0.05,0.85 -0.07,1.77 -0.07,2.75 -0.05,1.47 -0.13,3.27 -0.2,5.38 -0.08,2.1 -0.13,4.78 -0.18,8.05 -0.05,3.25 -0.1,7.21 -0.15,11.85 -0.05,4.67 -0.08,10.24 -0.08,16.71 -0.05,2.63 -0.4,4.7 -1.1,6.19 -0.67,1.47 -1.6,2.58 -2.78,3.29 -1.18,0.71 -2.53,1.14 -4.08,1.28 -1.53,0.15 -3.14,0.22 -4.82,0.22 -1.4,0 -2.9,0.07 -4.46,0.21 -1.58,0.14 -3.16,0.28 -4.79,0.47 -1.6,0.19 -3.18,0.36 -4.73,0.5 -1.53,0.14 -2.98,0.22 -4.36,0.22 -10.43,0 -19.65,-1.47 -27.64,-4.39 -8,-2.92 -14.71,-6.85 -20.15,-11.78 -5.44,-4.93 -9.55,-10.64 -12.33,-17.13 -2.81,-6.52 -4.19,-13.37 -4.19,-20.6z"/>
    <path class="fil2" d="M589.03 146.67c0,-8.23 1.23,-15.76 3.71,-22.57 2.46,-6.8 5.97,-12.65 10.5,-17.56 4.51,-4.9 9.98,-8.72 16.37,-11.42 6.39,-2.7 13.48,-4.05 21.25,-4.05 8.22,0 15.49,1.35 21.78,4.05 6.29,2.7 11.58,6.52 15.86,11.42 4.29,4.91 7.52,10.76 9.72,17.56 2.21,6.81 3.31,14.34 3.31,22.57 0,7.82 -1.2,15.14 -3.6,21.92 -2.38,6.78 -5.82,12.66 -10.28,17.66 -4.46,5 -9.85,8.93 -16.14,11.8 -6.31,2.87 -13.41,4.32 -21.23,4.32 -5.18,0 -10.07,-0.65 -14.61,-1.95 -4.56,-1.3 -8.72,-3.15 -12.53,-5.54 -3.78,-2.42 -7.17,-5.31 -10.15,-8.66 -3,-3.36 -5.54,-7.11 -7.62,-11.21 -2.08,-4.12 -3.66,-8.58 -4.73,-13.34 -1.08,-4.76 -1.61,-9.76 -1.61,-15zm16.74 0c0,3.48 0.36,6.92 1.03,10.31 0.68,3.41 1.71,6.66 3.03,9.74 1.36,3.06 3.04,5.92 5.02,8.53 1.98,2.61 4.26,4.88 6.81,6.8 2.59,1.92 5.44,3.44 8.6,4.51 3.16,1.09 6.56,1.63 10.25,1.63 3.86,0 7.39,-0.54 10.55,-1.63 3.18,-1.07 6.06,-2.59 8.6,-4.51 2.55,-1.92 4.76,-4.19 6.64,-6.8 1.9,-2.61 3.46,-5.47 4.71,-8.53 1.25,-3.08 2.18,-6.33 2.78,-9.74 0.63,-3.39 0.93,-6.83 0.93,-10.31 0,-5.55 -0.68,-10.81 -2.06,-15.79 -1.38,-4.97 -3.45,-9.36 -6.29,-13.15 -2.8,-3.79 -6.36,-6.8 -10.65,-9.03 -4.26,-2.23 -9.35,-3.34 -15.21,-3.34 -5.54,0 -10.45,0.99 -14.76,2.98 -4.31,1.99 -7.95,4.79 -10.9,8.42 -2.96,3.6 -5.22,7.94 -6.77,13.01 -1.53,5.07 -2.31,10.71 -2.31,16.9z"/>
    <path class="fil2" d="M669.8 194.99c0,-1.47 0.2,-2.96 0.65,-4.48 0.43,-1.49 1.25,-3.01 2.43,-4.52 0.83,-1.35 1.96,-3.39 3.41,-6.12 1.43,-2.75 3.06,-5.95 4.89,-9.67 1.8,-3.69 3.76,-7.72 5.84,-12.11 2.08,-4.36 4.18,-8.84 6.34,-13.39 2.15,-4.57 4.28,-9.12 6.41,-13.68 2.13,-4.57 4.16,-8.84 6.07,-12.84 1.9,-4.01 3.65,-7.63 5.21,-10.88 1.58,-3.25 2.88,-5.85 3.96,-7.84 0.15,-1.02 0.45,-2.02 0.88,-3.01 0.45,-1 1.02,-1.9 1.78,-2.73 0.72,-0.81 1.6,-1.44 2.63,-1.94 1.02,-0.48 2.23,-0.71 3.61,-0.71 1.75,0 3.18,0.21 4.28,0.68 1.1,0.45 2.01,1.09 2.73,1.9 0.7,0.83 1.28,1.75 1.71,2.82 0.45,1.07 0.9,2.2 1.33,3.41 0.4,1.07 0.75,2.06 1.1,3.01 0.35,0.95 0.65,1.68 0.95,2.18 3.28,6.21 6.47,12.47 9.57,18.75 3.11,6.3 6.22,12.7 9.28,19.22 3.05,6.5 6.14,13.08 9.27,19.74 3.13,6.66 6.39,13.44 9.77,20.34l1.41 1.94c0.37,0.53 0.85,1.14 1.37,1.85 0.56,0.71 1.06,1.5 1.51,2.32 0.47,0.83 0.85,1.71 1.18,2.66 0.32,0.92 0.47,1.85 0.47,2.77 0,2.78 -0.82,4.74 -2.48,5.93 -1.68,1.18 -3.71,1.78 -6.11,1.78 -1.31,0 -2.53,-0.19 -3.64,-0.6 -1.1,-0.4 -2.05,-0.92 -2.88,-1.59 -0.85,-0.68 -1.5,-1.46 -1.98,-2.37 -0.5,-0.9 -0.83,-1.87 -0.98,-2.89 -1.35,-2.82 -2.63,-5.47 -3.81,-7.94 -1.17,-2.49 -2.3,-4.88 -3.41,-7.18 -1.1,-2.32 -2.18,-4.57 -3.2,-6.78 -1.03,-2.2 -2.06,-4.41 -3.08,-6.63 -0.78,0 -1.89,0 -3.29,-0.03 -1.43,-0.02 -3.03,-0.09 -4.79,-0.16 -2.78,0 -5.61,-0.03 -8.46,-0.07 -2.89,-0.05 -5.79,-0.1 -8.78,-0.12 -2.98,-0.03 -6.09,-0.03 -9.24,0 -3.19,0.02 -6.52,0.12 -10,0.23 -0.53,0.05 -1.06,0.1 -1.53,0.12 -0.5,0.03 -1.01,0.03 -1.56,0.03 -1.37,3.15 -2.65,6.16 -3.88,9 -1.23,2.85 -2.33,5.48 -3.31,7.87 -0.98,2.42 -1.85,4.55 -2.6,6.43 -0.76,1.87 -1.33,3.38 -1.73,4.55l0 -0.08c-0.31,1.02 -0.63,2.02 -1.01,2.99 -0.35,0.97 -0.87,1.85 -1.57,2.61 -0.68,0.76 -1.61,1.4 -2.81,1.87 -1.21,0.5 -2.78,0.74 -4.74,0.74 -2.66,0 -4.84,-0.62 -6.56,-1.88 -1.76,-1.25 -2.61,-3.08 -2.61,-5.5zm37.52 -43.72c1.02,0 2.35,0 3.98,0 1.65,0 3.78,0 6.39,0.02 2.63,0.02 5.84,0.05 9.65,0.07 3.83,0.02 8.44,0.07 13.88,0.1 -2.25,-4.63 -4.78,-9.84 -7.64,-15.65 -2.83,-5.8 -6.19,-12.58 -10.05,-20.31 -1.13,2.35 -2.33,4.95 -3.58,7.77 -1.28,2.83 -2.61,5.76 -4.01,8.82 -1.41,3.06 -2.81,6.21 -4.26,9.46 -1.46,3.22 -2.91,6.47 -4.36,9.72z"/>
    <path class="fil2" d="M772.72 175.35c0.25,-3.75 1.07,-6.62 2.45,-8.58 1.41,-1.97 3.86,-2.94 7.39,-2.94 2.21,0 4.09,0.59 5.64,1.77 1.58,1.17 2.36,2.8 2.36,4.89 0,1.21 -0.13,2.42 -0.38,3.6 -0.22,1.21 -0.3,2.46 -0.2,3.77 0.18,1.56 0.93,3.01 2.21,4.29 1.25,1.3 2.88,2.42 4.84,3.36 1.95,0.95 4.18,1.71 6.69,2.23 2.48,0.55 5.03,0.81 7.61,0.81 2.66,0 5.29,-0.22 7.9,-0.67 2.63,-0.45 4.99,-1.25 7.12,-2.46 2.13,-1.21 3.86,-2.85 5.18,-4.93 1.33,-2.09 1.98,-4.79 1.98,-8.13 0,-2.18 -0.55,-4.22 -1.67,-6.14 -1.13,-1.92 -2.59,-3.67 -4.34,-5.28 -1.78,-1.59 -3.71,-3.04 -5.84,-4.34 -2.13,-1.28 -4.18,-2.42 -6.14,-3.39 -2.78,-1.35 -5.64,-2.65 -8.55,-3.93 -2.9,-1.28 -5.76,-2.61 -8.52,-4.03 -2.75,-1.4 -5.38,-2.97 -7.84,-4.65 -2.48,-1.68 -4.64,-3.67 -6.52,-5.95 -1.85,-2.25 -3.33,-4.88 -4.38,-7.87 -1.08,-2.98 -1.63,-6.44 -1.63,-10.38 0,-4.41 1,-8.2 2.98,-11.4 1.98,-3.17 4.59,-5.83 7.82,-7.91 3.23,-2.07 6.94,-3.61 11.13,-4.6 4.18,-1 8.47,-1.5 12.88,-1.5 3.91,0 7.69,0.31 11.38,0.98 3.65,0.64 6.94,1.68 9.82,3.15 2.91,1.44 5.29,3.41 7.22,5.83 1.9,2.44 3.06,5.4 3.43,8.91 0.1,1.3 -0.07,2.46 -0.5,3.46 -0.45,1 -1.05,1.83 -1.85,2.49 -0.78,0.66 -1.66,1.18 -2.66,1.52 -1,0.35 -2.03,0.52 -3.06,0.52 -1.58,0 -2.88,-0.22 -3.96,-0.69 -1.08,-0.45 -1.95,-1.04 -2.65,-1.73 -0.68,-0.69 -1.21,-1.49 -1.53,-2.37 -0.35,-0.88 -0.58,-1.73 -0.68,-2.56 -0.73,-1.11 -1.68,-2.04 -2.86,-2.75 -1.17,-0.71 -2.48,-1.3 -3.93,-1.73 -1.43,-0.45 -2.93,-0.73 -4.51,-0.9 -1.56,-0.17 -3.08,-0.24 -4.54,-0.24 -2.05,0 -4.11,0.19 -6.14,0.62 -2.03,0.43 -3.88,1.09 -5.54,2.01 -1.68,0.93 -3,2.11 -4.03,3.54 -1.03,1.44 -1.56,3.19 -1.56,5.28 0,2.47 0.63,4.62 1.83,6.52 1.23,1.9 2.79,3.6 4.64,5.07 1.86,1.49 3.94,2.82 6.19,4.03 2.28,1.21 4.51,2.32 6.67,3.34 2.58,1.26 5.28,2.58 8.07,3.98 2.78,1.43 5.51,2.94 8.19,4.6 2.66,1.64 5.19,3.44 7.59,5.38 2.39,1.95 4.49,4.1 6.32,6.5 1.81,2.37 3.23,4.97 4.29,7.79 1.05,2.82 1.57,5.95 1.57,9.39 0,3.65 -0.52,6.92 -1.6,9.79 -1.08,2.87 -2.55,5.38 -4.41,7.56 -1.85,2.18 -4.03,4.03 -6.54,5.54 -2.48,1.54 -5.19,2.8 -8.07,3.77 -2.88,0.97 -5.89,1.68 -9,2.11 -3.11,0.45 -6.21,0.67 -9.3,0.67 -2.58,0 -5.36,-0.22 -8.32,-0.64 -2.95,-0.41 -5.88,-1.07 -8.77,-1.97 -2.88,-0.9 -5.64,-2.06 -8.27,-3.46 -2.6,-1.42 -4.91,-3.13 -6.89,-5.15 -1.98,-2.01 -3.53,-4.33 -4.66,-6.94 -1.13,-2.63 -1.65,-5.57 -1.55,-8.86z"/>
   </g>
   <g>
    <path class="fil3" d="M300.1 275.2c0,-0.81 0.04,-1.61 0.11,-2.38 0.06,-0.78 0.1,-1.69 0.1,-2.73 0,-4.71 -0.01,-9.42 -0.04,-14.14 -0.02,-4.72 -0.11,-9.49 -0.25,-14.32 -0.19,-0.37 -0.36,-0.78 -0.52,-1.22 -0.15,-0.43 -0.22,-0.81 -0.22,-1.14 0,-0.76 0.21,-1.39 0.62,-1.92 0.42,-0.52 1.13,-0.78 2.14,-0.78 0.5,0 1.01,0.07 1.51,0.2 0.49,0.13 1.02,0.2 1.59,0.2 1.23,0 2.46,-0.07 3.69,-0.2 1.22,-0.13 2.46,-0.2 3.73,-0.2 2.6,0 4.93,0.25 6.99,0.75 2.05,0.51 3.86,1.21 5.42,2.1 1.56,0.89 2.88,1.95 3.97,3.18 1.11,1.23 2,2.57 2.67,4.03 0.68,1.46 1.18,3.01 1.5,4.64 0.32,1.64 0.48,3.3 0.48,4.97 0,1.5 -0.16,3.11 -0.46,4.81 -0.31,1.71 -0.83,3.4 -1.53,5.07 -0.71,1.67 -1.62,3.27 -2.76,4.8 -1.13,1.53 -2.53,2.88 -4.19,4.04 -1.66,1.17 -3.6,2.1 -5.81,2.8 -2.22,0.7 -4.77,1.05 -7.63,1.05 -0.67,0 -1.33,-0.04 -2,-0.1 -0.67,-0.05 -1.33,-0.13 -2,-0.21 -0.67,-0.08 -1.35,-0.15 -2.03,-0.2 -0.68,-0.07 -1.38,-0.1 -2.08,-0.1 -1.08,0 -1.85,-0.25 -2.31,-0.75 -0.46,-0.49 -0.69,-1.24 -0.69,-2.25zm5.91 -2.73c0.37,0.11 0.83,0.19 1.34,0.25 0.53,0.06 1.05,0.11 1.58,0.15 0.53,0.03 1.03,0.06 1.5,0.07 0.47,0.01 0.83,0.01 1.1,0.01 2.19,0 4.11,-0.28 5.75,-0.83 1.65,-0.54 3.06,-1.25 4.23,-2.14 1.18,-0.89 2.15,-1.89 2.93,-3 0.78,-1.11 1.39,-2.23 1.84,-3.36 0.46,-1.14 0.76,-2.22 0.94,-3.26 0.19,-1.05 0.27,-1.94 0.27,-2.68 0,-2.94 -0.35,-5.39 -1.04,-7.33 -0.71,-1.96 -1.73,-3.52 -3.08,-4.68 -1.36,-1.17 -3.01,-1.99 -4.99,-2.47 -1.97,-0.48 -4.23,-0.72 -6.79,-0.72 -0.35,0 -0.75,0.01 -1.24,0.03 -0.48,0.02 -1,0.04 -1.52,0.06 -0.54,0.01 -1.06,0.04 -1.59,0.08 -0.51,0.02 -0.98,0.05 -1.38,0.07l0.15 29.75zm32.32 -14.66c0,-3.15 0.44,-6.02 1.34,-8.62 0.89,-2.6 2.15,-4.83 3.79,-6.71 1.63,-1.87 3.6,-3.33 5.91,-4.36 2.31,-1.03 4.87,-1.55 7.68,-1.55 2.96,0 5.59,0.52 7.86,1.55 2.27,1.03 4.18,2.49 5.73,4.36 1.55,1.88 2.72,4.11 3.51,6.71 0.8,2.6 1.2,5.47 1.2,8.62 0,2.98 -0.44,5.78 -1.31,8.37 -0.86,2.58 -2.1,4.83 -3.71,6.74 -1.61,1.91 -3.55,3.41 -5.83,4.51 -2.28,1.09 -4.84,1.64 -7.66,1.64 -1.87,0 -3.64,-0.24 -5.28,-0.74 -1.64,-0.5 -3.15,-1.2 -4.52,-2.12 -1.37,-0.92 -2.59,-2.02 -3.67,-3.3 -1.08,-1.28 -2,-2.71 -2.75,-4.28 -0.75,-1.57 -1.32,-3.28 -1.71,-5.1 -0.39,-1.82 -0.58,-3.72 -0.58,-5.72zm6.05 0c0,1.33 0.12,2.64 0.37,3.93 0.24,1.31 0.61,2.54 1.09,3.72 0.49,1.17 1.1,2.26 1.81,3.26 0.72,0.99 1.54,1.86 2.46,2.6 0.94,0.73 1.97,1.31 3.11,1.72 1.14,0.41 2.37,0.62 3.7,0.62 1.39,0 2.67,-0.21 3.81,-0.62 1.15,-0.41 2.19,-0.99 3.1,-1.72 0.93,-0.74 1.72,-1.61 2.4,-2.6 0.69,-1 1.25,-2.09 1.7,-3.26 0.46,-1.18 0.79,-2.41 1.01,-3.72 0.23,-1.29 0.33,-2.6 0.33,-3.93 0,-2.12 -0.24,-4.13 -0.74,-6.03 -0.5,-1.9 -1.25,-3.58 -2.27,-5.02 -1.01,-1.45 -2.3,-2.6 -3.85,-3.45 -1.54,-0.85 -3.37,-1.28 -5.49,-1.28 -2,0 -3.77,0.38 -5.33,1.14 -1.56,0.76 -2.87,1.83 -3.94,3.21 -1.07,1.38 -1.88,3.04 -2.44,4.97 -0.55,1.94 -0.83,4.09 -0.83,6.46zm32.96 18.45c0,-0.56 0.07,-1.13 0.23,-1.71 0.16,-0.57 0.46,-1.15 0.88,-1.73 0.3,-0.52 0.71,-1.3 1.23,-2.34 0.52,-1.04 1.11,-2.27 1.77,-3.69 0.65,-1.41 1.36,-2.95 2.11,-4.62 0.75,-1.67 1.51,-3.38 2.29,-5.12 0.78,-1.74 1.54,-3.48 2.31,-5.22 0.77,-1.74 1.5,-3.37 2.19,-4.9 0.69,-1.53 1.33,-2.92 1.89,-4.16 0.57,-1.24 1.04,-2.23 1.43,-2.99 0.05,-0.39 0.16,-0.77 0.31,-1.15 0.16,-0.38 0.37,-0.73 0.65,-1.04 0.26,-0.31 0.57,-0.56 0.95,-0.75 0.37,-0.18 0.8,-0.27 1.3,-0.27 0.63,0 1.15,0.08 1.55,0.27 0.39,0.17 0.72,0.41 0.98,0.72 0.26,0.32 0.46,0.67 0.62,1.08 0.16,0.4 0.32,0.84 0.48,1.3 0.14,0.41 0.27,0.79 0.4,1.15 0.12,0.36 0.23,0.64 0.34,0.83 1.19,2.37 2.33,4.76 3.46,7.16 1.12,2.41 2.24,4.85 3.35,7.34 1.1,2.48 2.21,5 3.34,7.54 1.14,2.54 2.31,5.13 3.53,7.76l0.51 0.75c0.14,0.2 0.31,0.43 0.5,0.7 0.2,0.27 0.38,0.57 0.54,0.89 0.17,0.32 0.31,0.65 0.43,1.01 0.11,0.36 0.17,0.71 0.17,1.06 0,1.06 -0.3,1.81 -0.9,2.26 -0.6,0.46 -1.34,0.68 -2.21,0.68 -0.47,0 -0.91,-0.07 -1.31,-0.22 -0.4,-0.16 -0.74,-0.36 -1.04,-0.61 -0.31,-0.26 -0.54,-0.56 -0.71,-0.9 -0.18,-0.35 -0.3,-0.72 -0.36,-1.11 -0.49,-1.08 -0.95,-2.09 -1.37,-3.03 -0.43,-0.95 -0.84,-1.87 -1.23,-2.74 -0.4,-0.89 -0.79,-1.75 -1.16,-2.59 -0.37,-0.84 -0.74,-1.68 -1.11,-2.54 -0.29,0 -0.68,0 -1.19,0 -0.52,-0.01 -1.1,-0.04 -1.73,-0.07 -1,0 -2.03,-0.01 -3.06,-0.02 -1.04,-0.02 -2.09,-0.04 -3.17,-0.05 -1.07,-0.01 -2.2,-0.01 -3.33,0 -1.15,0.01 -2.36,0.05 -3.62,0.09 -0.19,0.02 -0.38,0.04 -0.55,0.05 -0.18,0 -0.36,0 -0.56,0 -0.5,1.21 -0.96,2.36 -1.4,3.44 -0.44,1.09 -0.84,2.1 -1.2,3.01 -0.35,0.92 -0.67,1.74 -0.94,2.45 -0.27,0.72 -0.48,1.29 -0.62,1.74l0 -0.03c-0.11,0.39 -0.23,0.77 -0.36,1.14 -0.13,0.37 -0.32,0.71 -0.57,1 -0.25,0.29 -0.58,0.53 -1.02,0.71 -0.43,0.19 -1,0.28 -1.71,0.28 -0.96,0 -1.75,-0.23 -2.37,-0.71 -0.63,-0.48 -0.94,-1.18 -0.94,-2.1zm13.55 -16.7c0.37,0 0.85,0 1.44,0 0.59,0 1.36,0 2.3,0.01 0.95,0.01 2.11,0.02 3.49,0.03 1.38,0.01 3.05,0.02 5.01,0.03 -0.81,-1.76 -1.73,-3.75 -2.76,-5.97 -1.02,-2.22 -2.23,-4.81 -3.63,-7.76 -0.41,0.9 -0.84,1.9 -1.29,2.97 -0.46,1.08 -0.94,2.2 -1.45,3.37 -0.51,1.17 -1.01,2.37 -1.54,3.61 -0.52,1.23 -1.05,2.47 -1.57,3.71zm27.22 -1.3c0,-2.55 0.28,-4.84 0.84,-6.91 0.56,-2.06 1.33,-3.89 2.29,-5.5 0.98,-1.61 2.11,-3 3.42,-4.16 1.32,-1.17 2.73,-2.13 4.25,-2.89 1.52,-0.76 3.1,-1.32 4.76,-1.68 1.65,-0.36 3.29,-0.55 4.94,-0.55 1.5,0 2.98,0.14 4.43,0.41 1.44,0.27 2.88,0.66 4.3,1.15 0.42,0.16 0.85,0.32 1.28,0.47 0.43,0.15 0.82,0.34 1.17,0.57 0.34,0.23 0.62,0.52 0.83,0.87 0.22,0.35 0.32,0.8 0.32,1.36 0,0.63 -0.1,1.16 -0.3,1.57 -0.21,0.42 -0.47,0.75 -0.79,1 -0.32,0.24 -0.67,0.42 -1.05,0.53 -0.38,0.1 -0.74,0.15 -1.09,0.15 -0.25,0 -0.52,-0.03 -0.8,-0.11 -0.28,-0.08 -0.57,-0.18 -0.88,-0.31 -0.3,-0.12 -0.59,-0.26 -0.87,-0.43 -0.29,-0.18 -0.54,-0.34 -0.77,-0.49 -0.64,-0.28 -1.24,-0.47 -1.79,-0.6 -0.56,-0.14 -1.09,-0.24 -1.6,-0.29 -0.52,-0.06 -1.02,-0.1 -1.51,-0.11 -0.5,-0.01 -1,-0.02 -1.49,-0.02 -1.11,0 -2.22,0.14 -3.34,0.39 -1.12,0.26 -2.19,0.65 -3.22,1.2 -1.04,0.53 -2.01,1.21 -2.9,2.02 -0.91,0.82 -1.69,1.79 -2.36,2.91 -0.66,1.12 -1.17,2.4 -1.55,3.83 -0.38,1.43 -0.57,3.03 -0.57,4.79 0,2.95 0.41,5.42 1.26,7.44 0.84,2.03 1.93,3.67 3.28,4.93 1.35,1.25 2.88,2.15 4.57,2.71 1.7,0.55 3.41,0.83 5.15,0.83 0.8,0 1.58,-0.04 2.34,-0.14 0.77,-0.1 1.49,-0.22 2.15,-0.37 0.67,-0.16 1.26,-0.32 1.76,-0.51 0.52,-0.18 0.91,-0.37 1.17,-0.57 0.54,-0.45 1,-0.8 1.41,-1.04 0.4,-0.24 0.87,-0.36 1.41,-0.36 0.4,0 0.78,0.04 1.15,0.13 0.36,0.09 0.67,0.25 0.94,0.47 0.26,0.21 0.48,0.5 0.63,0.86 0.16,0.35 0.25,0.79 0.25,1.33 0,0.74 -0.26,1.41 -0.76,2.02 -0.5,0.61 -1.32,1.18 -2.43,1.71l0 -0.02c-0.37,0.21 -0.92,0.45 -1.63,0.71 -0.71,0.26 -1.52,0.51 -2.42,0.74 -0.88,0.21 -1.82,0.39 -2.82,0.55 -0.99,0.15 -1.95,0.22 -2.91,0.22 -2.18,0 -4.19,-0.26 -6.03,-0.78 -1.85,-0.52 -3.53,-1.24 -5.04,-2.18 -1.51,-0.92 -2.85,-2.03 -4.02,-3.32 -1.17,-1.29 -2.15,-2.7 -2.94,-4.24 -0.8,-1.54 -1.4,-3.18 -1.8,-4.92 -0.41,-1.74 -0.62,-3.54 -0.62,-5.37zm14.32 28.29c0.3,0 0.59,0.05 0.85,0.16 0.26,0.1 0.52,0.22 0.78,0.35 0.26,0.11 0.52,0.23 0.79,0.34 0.26,0.11 0.54,0.15 0.85,0.15 0.7,0 1.25,-0.12 1.63,-0.38 0.39,-0.25 0.59,-0.68 0.59,-1.25 0,-0.43 -0.05,-0.77 -0.14,-1.03 -0.1,-0.25 -0.23,-0.47 -0.37,-0.65 -0.16,-0.17 -0.32,-0.33 -0.48,-0.48 -0.17,-0.13 -0.33,-0.3 -0.48,-0.49 -0.15,-0.18 -0.27,-0.4 -0.37,-0.67 -0.1,-0.27 -0.14,-0.62 -0.12,-1.07 0,-0.13 0.05,-0.31 0.15,-0.52 0.11,-0.22 0.27,-0.42 0.45,-0.62 0.2,-0.19 0.44,-0.36 0.71,-0.49 0.27,-0.15 0.58,-0.22 0.91,-0.22 0.6,0 1.23,0.2 1.88,0.59 0.64,0.39 1.23,0.88 1.75,1.46 0.54,0.6 0.97,1.25 1.31,1.96 0.33,0.7 0.5,1.37 0.5,2.01 0,1.08 -0.2,2.05 -0.62,2.92 -0.42,0.86 -1,1.6 -1.74,2.23 -0.74,0.61 -1.63,1.09 -2.67,1.43 -1.03,0.33 -2.16,0.5 -3.4,0.5 -0.78,0 -1.51,-0.09 -2.19,-0.28 -0.68,-0.19 -1.28,-0.44 -1.8,-0.76 -0.53,-0.31 -0.93,-0.69 -1.23,-1.14 -0.3,-0.43 -0.45,-0.91 -0.45,-1.43 0,-0.51 0.09,-0.93 0.28,-1.26 0.18,-0.35 0.42,-0.61 0.71,-0.82 0.29,-0.2 0.61,-0.34 0.94,-0.42 0.34,-0.08 0.66,-0.12 0.98,-0.12zm20.61 -10.29c0,-0.56 0.07,-1.13 0.23,-1.71 0.16,-0.57 0.46,-1.15 0.88,-1.73 0.3,-0.52 0.71,-1.3 1.23,-2.34 0.52,-1.04 1.11,-2.27 1.77,-3.69 0.65,-1.41 1.35,-2.95 2.11,-4.62 0.75,-1.67 1.51,-3.38 2.29,-5.12 0.77,-1.74 1.54,-3.48 2.31,-5.22 0.77,-1.74 1.5,-3.37 2.19,-4.9 0.69,-1.53 1.32,-2.92 1.88,-4.16 0.57,-1.24 1.05,-2.23 1.43,-2.99 0.06,-0.39 0.17,-0.77 0.32,-1.15 0.16,-0.38 0.37,-0.73 0.64,-1.04 0.27,-0.31 0.58,-0.56 0.95,-0.75 0.37,-0.18 0.81,-0.27 1.31,-0.27 0.63,0 1.15,0.08 1.54,0.27 0.4,0.17 0.73,0.41 0.99,0.72 0.26,0.32 0.46,0.67 0.62,1.08 0.16,0.4 0.32,0.84 0.48,1.3 0.14,0.41 0.27,0.79 0.39,1.15 0.13,0.36 0.24,0.64 0.35,0.83 1.18,2.37 2.33,4.76 3.46,7.16 1.12,2.41 2.24,4.85 3.34,7.34 1.11,2.48 2.22,5 3.35,7.54 1.13,2.54 2.31,5.13 3.53,7.76l0.51 0.75c0.13,0.2 0.31,0.43 0.5,0.7 0.2,0.27 0.38,0.57 0.54,0.89 0.17,0.32 0.31,0.65 0.43,1.01 0.11,0.36 0.17,0.71 0.17,1.06 0,1.06 -0.3,1.81 -0.9,2.26 -0.61,0.46 -1.34,0.68 -2.21,0.68 -0.47,0 -0.91,-0.07 -1.31,-0.22 -0.4,-0.16 -0.74,-0.36 -1.04,-0.61 -0.31,-0.26 -0.54,-0.56 -0.71,-0.9 -0.19,-0.35 -0.3,-0.72 -0.36,-1.11 -0.49,-1.08 -0.95,-2.09 -1.37,-3.03 -0.43,-0.95 -0.84,-1.87 -1.23,-2.74 -0.4,-0.89 -0.79,-1.75 -1.16,-2.59 -0.37,-0.84 -0.74,-1.68 -1.12,-2.54 -0.28,0 -0.68,0 -1.18,0 -0.52,-0.01 -1.1,-0.04 -1.73,-0.07 -1.01,0 -2.03,-0.01 -3.06,-0.02 -1.04,-0.02 -2.09,-0.04 -3.17,-0.05 -1.07,-0.01 -2.2,-0.01 -3.34,0 -1.15,0.01 -2.35,0.05 -3.61,0.09 -0.19,0.02 -0.38,0.04 -0.55,0.05 -0.18,0 -0.36,0 -0.56,0 -0.5,1.21 -0.96,2.36 -1.4,3.44 -0.45,1.09 -0.84,2.1 -1.2,3.01 -0.35,0.92 -0.67,1.74 -0.94,2.45 -0.27,0.72 -0.48,1.29 -0.62,1.74l0 -0.03c-0.11,0.39 -0.23,0.77 -0.37,1.14 -0.12,0.37 -0.31,0.71 -0.57,1 -0.24,0.29 -0.57,0.53 -1.01,0.71 -0.43,0.19 -1,0.28 -1.71,0.28 -0.96,0 -1.75,-0.23 -2.37,-0.71 -0.63,-0.48 -0.94,-1.18 -0.94,-2.1zm13.55 -16.7c0.37,0 0.85,0 1.44,0 0.59,0 1.36,0 2.3,0.01 0.95,0.01 2.11,0.02 3.49,0.03 1.38,0.01 3.05,0.02 5.01,0.03 -0.81,-1.76 -1.73,-3.75 -2.76,-5.97 -1.02,-2.22 -2.23,-4.81 -3.63,-7.76 -0.41,0.9 -0.84,1.9 -1.29,2.97 -0.46,1.08 -0.94,2.2 -1.45,3.37 -0.51,1.17 -1.01,2.37 -1.54,3.61 -0.52,1.23 -1.05,2.47 -1.57,3.71zm-2.43 -25c-0.85,0 -1.51,-0.29 -1.97,-0.88 -0.47,-0.58 -0.71,-1.41 -0.71,-2.46 0,-0.86 0.17,-1.65 0.53,-2.4 0.36,-0.75 0.84,-1.41 1.46,-1.98 0.62,-0.57 1.35,-1.01 2.2,-1.33 0.85,-0.34 1.77,-0.5 2.75,-0.5 0.72,0 1.36,0.09 1.94,0.27 0.59,0.17 1.13,0.4 1.64,0.69 0.5,0.28 0.96,0.59 1.38,0.95 0.43,0.35 0.83,0.69 1.2,1.03 0.53,0.5 0.98,0.92 1.37,1.27 0.39,0.34 0.83,0.51 1.31,0.51 0.4,0 0.78,-0.15 1.11,-0.45 0.33,-0.3 0.55,-0.65 0.63,-1.06 0.06,-0.3 0.14,-0.62 0.25,-0.94 0.1,-0.33 0.26,-0.63 0.47,-0.89 0.22,-0.27 0.5,-0.49 0.85,-0.67 0.35,-0.17 0.81,-0.26 1.38,-0.26 0.39,0 0.75,0.05 1.1,0.17 0.34,0.12 0.65,0.3 0.91,0.56 0.27,0.26 0.48,0.59 0.65,1 0.15,0.4 0.23,0.89 0.23,1.48 0,0.76 -0.14,1.52 -0.42,2.28 -0.29,0.76 -0.72,1.44 -1.29,2.04 -0.58,0.61 -1.31,1.09 -2.2,1.46 -0.9,0.37 -1.95,0.56 -3.17,0.56 -0.33,0 -0.69,-0.03 -1.06,-0.08 -0.37,-0.06 -0.74,-0.13 -1.1,-0.21 -0.36,-0.09 -0.7,-0.19 -1,-0.31 -0.32,-0.12 -0.58,-0.24 -0.82,-0.39 -0.37,-0.21 -0.78,-0.53 -1.21,-0.97 -0.45,-0.42 -0.9,-0.87 -1.34,-1.32 -0.45,-0.45 -0.9,-0.84 -1.33,-1.17 -0.44,-0.34 -0.83,-0.51 -1.21,-0.51 -0.21,0 -0.41,0.06 -0.61,0.18 -0.19,0.13 -0.37,0.29 -0.53,0.48 -0.16,0.2 -0.29,0.42 -0.39,0.65 -0.11,0.24 -0.18,0.46 -0.22,0.68 -0.05,0.32 -0.14,0.62 -0.25,0.92 -0.11,0.3 -0.28,0.57 -0.5,0.82 -0.22,0.23 -0.5,0.42 -0.83,0.57 -0.32,0.13 -0.72,0.21 -1.2,0.21zm30.58 23.25c0,-3.15 0.45,-6.02 1.34,-8.62 0.89,-2.6 2.16,-4.83 3.79,-6.71 1.63,-1.87 3.61,-3.33 5.91,-4.36 2.31,-1.03 4.87,-1.55 7.68,-1.55 2.97,0 5.59,0.52 7.86,1.55 2.27,1.03 4.18,2.49 5.73,4.36 1.55,1.88 2.72,4.11 3.51,6.71 0.8,2.6 1.2,5.47 1.2,8.62 0,2.98 -0.44,5.78 -1.31,8.37 -0.85,2.58 -2.09,4.83 -3.71,6.74 -1.61,1.91 -3.55,3.41 -5.82,4.51 -2.28,1.09 -4.85,1.64 -7.67,1.64 -1.87,0 -3.64,-0.24 -5.28,-0.74 -1.64,-0.5 -3.14,-1.2 -4.52,-2.12 -1.37,-0.92 -2.59,-2.02 -3.67,-3.3 -1.08,-1.28 -2,-2.71 -2.75,-4.28 -0.75,-1.57 -1.32,-3.28 -1.71,-5.1 -0.39,-1.82 -0.58,-3.72 -0.58,-5.72zm6.05 0c0,1.33 0.12,2.64 0.37,3.93 0.24,1.31 0.61,2.54 1.1,3.72 0.48,1.17 1.09,2.26 1.8,3.26 0.72,0.99 1.54,1.86 2.47,2.6 0.93,0.73 1.96,1.31 3.1,1.72 1.14,0.41 2.37,0.62 3.7,0.62 1.4,0 2.67,-0.21 3.81,-0.62 1.15,-0.41 2.19,-0.99 3.11,-1.72 0.92,-0.74 1.72,-1.61 2.39,-2.6 0.69,-1 1.25,-2.09 1.71,-3.26 0.45,-1.18 0.78,-2.41 1,-3.72 0.23,-1.29 0.34,-2.6 0.34,-3.93 0,-2.12 -0.25,-4.13 -0.75,-6.03 -0.49,-1.9 -1.25,-3.58 -2.27,-5.02 -1.01,-1.45 -2.3,-2.6 -3.84,-3.45 -1.54,-0.85 -3.38,-1.28 -5.5,-1.28 -2,0 -3.77,0.38 -5.33,1.14 -1.55,0.76 -2.87,1.83 -3.94,3.21 -1.06,1.38 -1.88,3.04 -2.44,4.97 -0.55,1.94 -0.83,4.09 -0.83,6.46zm56.5 10.97c0.09,-1.43 0.39,-2.52 0.89,-3.27 0.5,-0.75 1.39,-1.13 2.67,-1.13 0.79,0 1.47,0.23 2.03,0.68 0.57,0.45 0.85,1.07 0.85,1.87 0,0.46 -0.04,0.92 -0.13,1.37 -0.08,0.46 -0.11,0.94 -0.07,1.44 0.06,0.6 0.33,1.15 0.79,1.64 0.46,0.5 1.04,0.92 1.75,1.29 0.71,0.36 1.51,0.65 2.41,0.85 0.9,0.2 1.82,0.3 2.76,0.3 0.96,0 1.91,-0.08 2.85,-0.25 0.95,-0.17 1.8,-0.48 2.57,-0.94 0.77,-0.46 1.39,-1.09 1.87,-1.88 0.48,-0.8 0.72,-1.83 0.72,-3.11 0,-0.83 -0.2,-1.61 -0.61,-2.34 -0.41,-0.73 -0.93,-1.4 -1.57,-2.02 -0.64,-0.61 -1.34,-1.16 -2.1,-1.65 -0.77,-0.49 -1.52,-0.93 -2.22,-1.3 -1.01,-0.52 -2.04,-1.01 -3.09,-1.5 -1.05,-0.49 -2.08,-1 -3.07,-1.54 -1,-0.53 -1.95,-1.13 -2.84,-1.77 -0.89,-0.65 -1.67,-1.41 -2.35,-2.28 -0.67,-0.86 -1.2,-1.86 -1.58,-3 -0.39,-1.14 -0.59,-2.46 -0.59,-3.97 0,-1.68 0.36,-3.13 1.07,-4.35 0.72,-1.21 1.66,-2.22 2.83,-3.02 1.16,-0.79 2.5,-1.38 4.02,-1.76 1.51,-0.38 3.05,-0.57 4.65,-0.57 1.41,0 2.78,0.12 4.11,0.37 1.32,0.25 2.5,0.65 3.54,1.21 1.05,0.55 1.91,1.3 2.61,2.22 0.69,0.94 1.1,2.07 1.24,3.41 0.04,0.49 -0.03,0.94 -0.18,1.32 -0.16,0.38 -0.38,0.7 -0.67,0.95 -0.28,0.25 -0.6,0.45 -0.96,0.58 -0.36,0.13 -0.73,0.2 -1.1,0.2 -0.57,0 -1.04,-0.08 -1.43,-0.26 -0.39,-0.18 -0.71,-0.4 -0.96,-0.67 -0.25,-0.26 -0.44,-0.57 -0.55,-0.9 -0.13,-0.34 -0.21,-0.66 -0.25,-0.98 -0.26,-0.42 -0.61,-0.78 -1.03,-1.05 -0.43,-0.27 -0.9,-0.5 -1.42,-0.66 -0.52,-0.17 -1.06,-0.28 -1.63,-0.34 -0.56,-0.07 -1.11,-0.09 -1.64,-0.09 -0.74,0 -1.48,0.07 -2.22,0.23 -0.73,0.16 -1.4,0.42 -2,0.77 -0.6,0.35 -1.08,0.81 -1.45,1.35 -0.37,0.55 -0.57,1.22 -0.57,2.02 0,0.94 0.23,1.76 0.67,2.49 0.44,0.72 1,1.37 1.67,1.93 0.67,0.57 1.42,1.08 2.24,1.54 0.82,0.46 1.62,0.89 2.4,1.28 0.94,0.48 1.91,0.98 2.92,1.52 1,0.54 1.99,1.12 2.96,1.75 0.96,0.63 1.87,1.32 2.74,2.06 0.86,0.74 1.62,1.56 2.28,2.48 0.65,0.9 1.17,1.9 1.55,2.98 0.38,1.07 0.57,2.27 0.57,3.58 0,1.39 -0.19,2.64 -0.58,3.74 -0.39,1.09 -0.93,2.05 -1.59,2.89 -0.67,0.83 -1.46,1.53 -2.37,2.11 -0.89,0.59 -1.87,1.07 -2.91,1.44 -1.04,0.37 -2.13,0.64 -3.25,0.81 -1.12,0.17 -2.24,0.25 -3.36,0.25 -0.93,0 -1.93,-0.08 -3,-0.24 -1.07,-0.16 -2.13,-0.41 -3.17,-0.76 -1.04,-0.34 -2.04,-0.78 -2.99,-1.32 -0.94,-0.54 -1.77,-1.19 -2.49,-1.96 -0.71,-0.77 -1.27,-1.66 -1.68,-2.65 -0.41,-1.01 -0.6,-2.13 -0.56,-3.39zm32.88 -10.97c0,-3.15 0.45,-6.02 1.34,-8.62 0.89,-2.6 2.15,-4.83 3.79,-6.71 1.63,-1.87 3.61,-3.33 5.91,-4.36 2.31,-1.03 4.87,-1.55 7.68,-1.55 2.97,0 5.59,0.52 7.86,1.55 2.27,1.03 4.18,2.49 5.73,4.36 1.55,1.88 2.72,4.11 3.51,6.71 0.8,2.6 1.2,5.47 1.2,8.62 0,2.98 -0.44,5.78 -1.31,8.37 -0.86,2.58 -2.1,4.83 -3.71,6.74 -1.61,1.91 -3.55,3.41 -5.83,4.51 -2.28,1.09 -4.84,1.64 -7.66,1.64 -1.87,0 -3.64,-0.24 -5.28,-0.74 -1.64,-0.5 -3.15,-1.2 -4.52,-2.12 -1.37,-0.92 -2.59,-2.02 -3.67,-3.3 -1.08,-1.28 -2,-2.71 -2.75,-4.28 -0.75,-1.57 -1.32,-3.28 -1.71,-5.1 -0.39,-1.82 -0.58,-3.72 -0.58,-5.72zm6.05 0c0,1.33 0.12,2.64 0.37,3.93 0.24,1.31 0.61,2.54 1.09,3.72 0.49,1.17 1.1,2.26 1.81,3.26 0.72,0.99 1.54,1.86 2.46,2.6 0.94,0.73 1.97,1.31 3.11,1.72 1.14,0.41 2.37,0.62 3.7,0.62 1.39,0 2.67,-0.21 3.81,-0.62 1.15,-0.41 2.19,-0.99 3.11,-1.72 0.92,-0.74 1.71,-1.61 2.39,-2.6 0.69,-1 1.25,-2.09 1.7,-3.26 0.46,-1.18 0.79,-2.41 1.01,-3.72 0.22,-1.29 0.33,-2.6 0.33,-3.93 0,-2.12 -0.24,-4.13 -0.74,-6.03 -0.5,-1.9 -1.25,-3.58 -2.27,-5.02 -1.01,-1.45 -2.3,-2.6 -3.85,-3.45 -1.53,-0.85 -3.37,-1.28 -5.49,-1.28 -2,0 -3.77,0.38 -5.33,1.14 -1.56,0.76 -2.87,1.83 -3.94,3.21 -1.06,1.38 -1.88,3.04 -2.44,4.97 -0.55,1.94 -0.83,4.09 -0.83,6.46z"/>
    <path class="fil3" d="M633.5 275.36c0,-0.51 0.07,-1.02 0.22,-1.53 0.16,-0.49 0.23,-1.03 0.23,-1.6l-0.4 -31.66c0.02,-1.34 0.25,-2.33 0.71,-2.98 0.44,-0.65 1.22,-0.96 2.31,-0.96 0.6,0 1.11,0.04 1.51,0.15 0.41,0.11 0.74,0.29 0.98,0.56 0.26,0.27 0.43,0.61 0.52,1.03 0.1,0.43 0.15,0.96 0.15,1.6l0 3.97c0,1.09 -0.01,2.4 -0.02,3.91 -0.01,1.51 -0.01,3.12 -0.01,4.84 0,1.71 0,3.49 0,5.31 0,1.83 0,3.63 0,5.36 0,1.75 0,3.4 0,4.95 0,1.55 0.01,2.92 0.03,4.08 2.07,0 3.81,0 5.23,-0.01 1.42,-0.01 2.6,-0.03 3.51,-0.07 0.5,-0.03 1,-0.09 1.49,-0.17 0.5,-0.08 1.03,-0.12 1.59,-0.12 1.17,0 2.06,0.27 2.67,0.8 0.61,0.52 0.92,1.3 0.92,2.33 0,0.69 -0.14,1.24 -0.4,1.65 -0.27,0.42 -0.62,0.74 -1.05,0.96 -0.44,0.22 -0.92,0.36 -1.46,0.44 -0.54,0.07 -1.09,0.1 -1.63,0.1l-14.08 0c-0.44,0 -0.85,-0.03 -1.22,-0.11 -0.37,-0.09 -0.69,-0.23 -0.95,-0.45 -0.27,-0.21 -0.47,-0.5 -0.63,-0.88 -0.15,-0.38 -0.22,-0.88 -0.22,-1.5zm28.37 0.83c0,-0.91 0.06,-1.8 0.2,-2.67 0.13,-0.88 0.2,-1.81 0.2,-2.8 0,-4.51 -0.05,-9.04 -0.12,-13.6 -0.08,-4.56 -0.13,-9.24 -0.13,-14.06 0,-0.49 -0.04,-0.98 -0.15,-1.49 -0.11,-0.51 -0.16,-1.05 -0.16,-1.63 0,-0.46 0.06,-0.9 0.19,-1.3 0.11,-0.41 0.33,-0.76 0.63,-1.08 0.3,-0.31 0.72,-0.55 1.25,-0.72 0.52,-0.19 1.19,-0.27 1.98,-0.27 0.8,0 1.43,0.3 1.88,0.9 0.47,0.61 0.7,1.41 0.7,2.42 0,0.3 -0.03,0.59 -0.08,0.88 -0.05,0.29 -0.11,0.6 -0.16,0.92 -0.04,1.52 -0.07,3.15 -0.08,4.9 -0.01,1.75 -0.02,3.76 -0.02,6.02 0,2.02 0.01,4.07 0.02,6.18 0.01,2.1 0.04,4.13 0.08,6.07 0.03,1.95 0.09,3.76 0.14,5.45 0.06,1.69 0.15,3.14 0.23,4.36l0 -0.02c0.03,0.26 0.07,0.51 0.1,0.75 0.02,0.24 0.03,0.48 0.03,0.73 0,0.43 -0.04,0.82 -0.14,1.18 -0.1,0.36 -0.26,0.68 -0.49,0.94 -0.24,0.26 -0.55,0.47 -0.96,0.61 -0.41,0.14 -0.9,0.21 -1.51,0.21 -0.71,0 -1.29,-0.06 -1.77,-0.19 -0.46,-0.11 -0.83,-0.3 -1.11,-0.55 -0.27,-0.24 -0.46,-0.55 -0.58,-0.91 -0.12,-0.36 -0.17,-0.78 -0.17,-1.23zm17.13 -0.99c0,-0.81 0.03,-1.61 0.1,-2.38 0.07,-0.78 0.1,-1.69 0.1,-2.73 0,-4.71 -0.01,-9.42 -0.03,-14.14 -0.03,-4.72 -0.11,-9.49 -0.26,-14.32 -0.19,-0.37 -0.36,-0.78 -0.51,-1.22 -0.16,-0.43 -0.23,-0.81 -0.23,-1.14 0,-0.76 0.21,-1.39 0.63,-1.92 0.41,-0.52 1.12,-0.78 2.13,-0.78 0.51,0 1.02,0.07 1.51,0.2 0.49,0.13 1.03,0.2 1.6,0.2 1.23,0 2.46,-0.07 3.68,-0.2 1.22,-0.13 2.46,-0.2 3.74,-0.2 2.59,0 4.92,0.25 6.98,0.75 2.06,0.51 3.87,1.21 5.43,2.1 1.55,0.89 2.87,1.95 3.97,3.18 1.1,1.23 1.99,2.57 2.67,4.03 0.68,1.46 1.17,3.01 1.49,4.64 0.33,1.64 0.48,3.3 0.48,4.97 0,1.5 -0.15,3.11 -0.46,4.81 -0.31,1.71 -0.82,3.4 -1.53,5.07 -0.71,1.67 -1.62,3.27 -2.75,4.8 -1.13,1.53 -2.54,2.88 -4.19,4.04 -1.67,1.17 -3.6,2.1 -5.82,2.8 -2.22,0.7 -4.76,1.05 -7.63,1.05 -0.67,0 -1.33,-0.04 -2,-0.1 -0.66,-0.05 -1.33,-0.13 -2,-0.21 -0.67,-0.08 -1.35,-0.15 -2.03,-0.2 -0.68,-0.07 -1.37,-0.1 -2.08,-0.1 -1.08,0 -1.85,-0.25 -2.31,-0.75 -0.46,-0.49 -0.68,-1.24 -0.68,-2.25zm5.9 -2.73c0.38,0.11 0.83,0.19 1.34,0.25 0.53,0.06 1.05,0.11 1.58,0.15 0.53,0.03 1.03,0.06 1.5,0.07 0.47,0.01 0.83,0.01 1.11,0.01 2.19,0 4.1,-0.28 5.74,-0.83 1.65,-0.54 3.06,-1.25 4.24,-2.14 1.17,-0.89 2.14,-1.89 2.92,-3 0.78,-1.11 1.39,-2.23 1.85,-3.36 0.45,-1.14 0.76,-2.22 0.94,-3.26 0.18,-1.05 0.26,-1.94 0.26,-2.68 0,-2.94 -0.34,-5.39 -1.04,-7.33 -0.71,-1.96 -1.73,-3.52 -3.08,-4.68 -1.35,-1.17 -3.01,-1.99 -4.98,-2.47 -1.98,-0.48 -4.24,-0.72 -6.8,-0.72 -0.34,0 -0.75,0.01 -1.24,0.03 -0.48,0.02 -1,0.04 -1.52,0.06 -0.53,0.01 -1.06,0.04 -1.58,0.08 -0.52,0.02 -0.98,0.05 -1.39,0.07l0.15 29.75zm29.44 3.79c0,-0.56 0.07,-1.13 0.23,-1.71 0.16,-0.57 0.46,-1.15 0.88,-1.73 0.3,-0.52 0.71,-1.3 1.23,-2.34 0.52,-1.04 1.11,-2.27 1.77,-3.69 0.65,-1.41 1.35,-2.95 2.11,-4.62 0.75,-1.67 1.51,-3.38 2.28,-5.12 0.78,-1.74 1.55,-3.48 2.32,-5.22 0.77,-1.74 1.5,-3.37 2.19,-4.9 0.69,-1.53 1.32,-2.92 1.88,-4.16 0.57,-1.24 1.04,-2.23 1.43,-2.99 0.06,-0.39 0.17,-0.77 0.32,-1.15 0.16,-0.38 0.37,-0.73 0.64,-1.04 0.27,-0.31 0.58,-0.56 0.95,-0.75 0.37,-0.18 0.81,-0.27 1.31,-0.27 0.63,0 1.15,0.08 1.54,0.27 0.4,0.17 0.73,0.41 0.99,0.72 0.25,0.32 0.46,0.67 0.62,1.08 0.16,0.4 0.32,0.84 0.48,1.3 0.14,0.41 0.27,0.79 0.39,1.15 0.13,0.36 0.24,0.64 0.35,0.83 1.18,2.37 2.33,4.76 3.46,7.16 1.12,2.41 2.24,4.85 3.34,7.34 1.11,2.48 2.22,5 3.35,7.54 1.13,2.54 2.31,5.13 3.53,7.76l0.51 0.75c0.13,0.2 0.31,0.43 0.5,0.7 0.2,0.27 0.38,0.57 0.54,0.89 0.17,0.32 0.31,0.65 0.42,1.01 0.12,0.36 0.18,0.71 0.18,1.06 0,1.06 -0.3,1.81 -0.9,2.26 -0.61,0.46 -1.34,0.68 -2.21,0.68 -0.47,0 -0.91,-0.07 -1.31,-0.22 -0.4,-0.16 -0.74,-0.36 -1.04,-0.61 -0.31,-0.26 -0.54,-0.56 -0.72,-0.9 -0.18,-0.35 -0.29,-0.72 -0.35,-1.11 -0.49,-1.08 -0.95,-2.09 -1.37,-3.03 -0.43,-0.95 -0.84,-1.87 -1.23,-2.74 -0.4,-0.89 -0.79,-1.75 -1.16,-2.59 -0.37,-0.84 -0.75,-1.68 -1.12,-2.54 -0.28,0 -0.67,0 -1.18,0 -0.52,-0.01 -1.1,-0.04 -1.73,-0.07 -1,0 -2.03,-0.01 -3.06,-0.02 -1.04,-0.02 -2.09,-0.04 -3.17,-0.05 -1.07,-0.01 -2.2,-0.01 -3.34,0 -1.15,0.01 -2.35,0.05 -3.61,0.09 -0.19,0.02 -0.38,0.04 -0.55,0.05 -0.18,0 -0.36,0 -0.56,0 -0.5,1.21 -0.96,2.36 -1.4,3.44 -0.45,1.09 -0.85,2.1 -1.2,3.01 -0.35,0.92 -0.67,1.74 -0.94,2.45 -0.27,0.72 -0.48,1.29 -0.62,1.74l0 -0.03c-0.11,0.39 -0.23,0.77 -0.37,1.14 -0.12,0.37 -0.31,0.71 -0.57,1 -0.24,0.29 -0.58,0.53 -1.01,0.71 -0.43,0.19 -1,0.28 -1.71,0.28 -0.96,0 -1.75,-0.23 -2.37,-0.71 -0.63,-0.48 -0.94,-1.18 -0.94,-2.1zm13.55 -16.7c0.37,0 0.85,0 1.44,0 0.59,0 1.36,0 2.3,0.01 0.95,0.01 2.11,0.02 3.49,0.03 1.38,0.01 3.05,0.02 5.01,0.03 -0.81,-1.76 -1.73,-3.75 -2.76,-5.97 -1.02,-2.22 -2.23,-4.81 -3.63,-7.76 -0.41,0.9 -0.84,1.9 -1.29,2.97 -0.46,1.08 -0.94,2.2 -1.45,3.37 -0.51,1.17 -1.02,2.37 -1.54,3.61 -0.52,1.23 -1.05,2.47 -1.57,3.71zm6.31 -23.81c-0.89,0 -1.63,-0.27 -2.2,-0.82 -0.56,-0.56 -0.85,-1.33 -0.85,-2.34 0,-0.32 0.08,-0.62 0.25,-0.91 0.15,-0.29 0.34,-0.56 0.57,-0.81 0.21,-0.25 0.44,-0.46 0.68,-0.64 0.22,-0.17 0.4,-0.29 0.55,-0.34 0.32,-0.27 0.64,-0.55 0.97,-0.85 0.32,-0.3 0.65,-0.6 0.97,-0.91 0.31,-0.32 0.61,-0.62 0.9,-0.91 0.28,-0.29 0.53,-0.54 0.74,-0.76 0.56,-0.63 1.09,-1.03 1.56,-1.2 0.48,-0.16 0.89,-0.25 1.25,-0.25 0.37,0 0.72,0.09 1.06,0.25 0.33,0.17 0.63,0.38 0.88,0.63 0.27,0.27 0.47,0.55 0.63,0.86 0.16,0.3 0.24,0.61 0.24,0.91 -0.02,0.53 -0.11,1.01 -0.25,1.45 -0.15,0.43 -0.53,0.88 -1.13,1.36 -0.25,0.19 -0.44,0.36 -0.58,0.49 -0.15,0.14 -0.29,0.28 -0.45,0.44 -0.17,0.16 -0.35,0.34 -0.56,0.56 -0.21,0.21 -0.5,0.49 -0.87,0.82 -0.15,0.12 -0.3,0.27 -0.47,0.46 -0.17,0.19 -0.32,0.36 -0.47,0.49 -0.42,0.5 -0.9,0.96 -1.43,1.39 -0.55,0.41 -1.21,0.63 -1.99,0.63zm23.46 39.61c0,-0.39 0.02,-0.77 0.05,-1.14 0.03,-0.37 0.07,-0.71 0.11,-1.03 0,-2.46 0,-4.72 0,-6.79 0,-2.07 0,-4 0,-5.8 0,-1.79 0,-3.47 0,-5.05 0,-1.57 0,-3.09 0,-4.57 0,-1.47 0,-2.92 0.01,-4.35 0.01,-1.42 0.01,-2.87 0.01,-4.36 -0.09,-0.25 -0.17,-0.59 -0.25,-1.04 -0.07,-0.44 -0.12,-0.85 -0.12,-1.24 0,-0.37 0.06,-0.74 0.17,-1.11 0.12,-0.37 0.29,-0.71 0.54,-0.99 0.23,-0.3 0.53,-0.53 0.88,-0.71 0.36,-0.17 0.77,-0.26 1.23,-0.26 0.74,0 1.49,0.04 2.25,0.12 0.76,0.1 1.61,0.14 2.57,0.14 0.8,0 1.59,-0.04 2.39,-0.12 0.79,-0.08 1.64,-0.12 2.54,-0.14 2.67,0 5.09,0.26 7.25,0.79 2.17,0.53 4.01,1.35 5.54,2.47 1.53,1.11 2.72,2.53 3.54,4.25 0.83,1.73 1.25,3.78 1.25,6.16 0,2.26 -0.32,4.28 -0.94,6.04 -0.63,1.75 -1.43,3.29 -2.41,4.6 -0.99,1.31 -2.08,2.4 -3.29,3.27 -1.22,0.88 -2.39,1.54 -3.54,2 0.16,0.96 0.41,1.86 0.76,2.7 0.34,0.83 0.78,1.57 1.32,2.21 0.54,0.64 1.17,1.14 1.9,1.51 0.72,0.37 1.54,0.56 2.43,0.56 0.67,0 1.29,-0.11 1.85,-0.32 0.55,-0.21 1.04,-0.63 1.44,-1.25 0.25,-0.35 0.55,-0.66 0.9,-0.94 0.36,-0.27 0.81,-0.4 1.35,-0.4 0.96,0 1.7,0.26 2.24,0.78 0.52,0.54 0.79,1.21 0.79,2.02 0,0.76 -0.22,1.49 -0.65,2.17 -0.43,0.69 -1.05,1.3 -1.83,1.82 -0.78,0.53 -1.73,0.94 -2.85,1.25 -1.11,0.31 -2.35,0.46 -3.72,0.46 -1.24,0 -2.39,-0.18 -3.4,-0.54 -1.01,-0.36 -1.93,-0.85 -2.73,-1.46 -0.81,-0.61 -1.51,-1.31 -2.14,-2.1 -0.61,-0.78 -1.15,-1.6 -1.58,-2.46 -0.45,-0.86 -0.81,-1.71 -1.1,-2.56 -0.28,-0.85 -0.49,-1.65 -0.66,-2.39 -0.21,0 -0.5,0 -0.85,0 -0.35,0 -0.71,0 -1.08,0 -0.38,0 -0.74,0 -1.1,-0.01 -0.36,-0.01 -0.66,-0.02 -0.89,-0.02 -0.51,-0.01 -1.15,-0.02 -1.9,-0.03 -0.75,-0.01 -1.44,-0.01 -2.05,-0.01l0 3.86c0.03,0.84 0.14,1.65 0.32,2.43 0.18,0.79 0.27,1.6 0.27,2.43 0,0.51 -0.11,0.94 -0.31,1.3 -0.21,0.35 -0.46,0.65 -0.79,0.88 -0.32,0.25 -0.66,0.42 -1.03,0.52 -0.37,0.11 -0.72,0.16 -1.06,0.16 -0.53,0 -1.01,-0.09 -1.46,-0.28 -0.44,-0.18 -0.82,-0.44 -1.14,-0.77 -0.31,-0.32 -0.57,-0.71 -0.76,-1.16 -0.18,-0.45 -0.27,-0.95 -0.27,-1.5zm6.2 -13.57c0.46,0.02 1,0.03 1.62,0.05 0.62,0.02 1.21,0.04 1.78,0.05 0.57,0.01 1.06,0.03 1.51,0.04 0.44,0.01 0.72,0.01 0.85,0.01 2.39,0 4.34,-0.32 5.87,-0.98 1.53,-0.65 2.73,-1.52 3.59,-2.59 0.87,-1.08 1.46,-2.32 1.8,-3.71 0.32,-1.41 0.48,-2.84 0.48,-4.3 0,-1.3 -0.2,-2.38 -0.61,-3.28 -0.41,-0.89 -0.94,-1.63 -1.61,-2.21 -0.68,-0.59 -1.44,-1.05 -2.28,-1.38 -0.85,-0.34 -1.71,-0.58 -2.59,-0.74 -0.88,-0.16 -1.73,-0.26 -2.57,-0.29 -0.84,-0.04 -1.58,-0.06 -2.22,-0.06 -0.89,0 -1.81,0.02 -2.74,0.05 -0.93,0.01 -1.93,0.04 -3,0.06 -0.04,0.67 -0.07,1.29 -0.08,1.83 -0.01,0.55 -0.02,1.08 -0.02,1.6 -0.01,0.52 -0.01,1.05 -0.01,1.59 0,0.55 0,1.15 0,1.82 0,1.21 0,2.32 0.01,3.35 0,1.04 0.02,2.05 0.04,3.02 0.02,0.99 0.04,1.98 0.06,2.96 0.03,0.99 0.07,2.03 0.12,3.11zm12.44 5.08c-0.02,0 -0.03,0.01 -0.03,0.03l0.03 -0.03zm-0.06 0.03l0.03 0 -0.03 0zm22.14 9.29c0,-0.91 0.06,-1.8 0.2,-2.67 0.13,-0.88 0.2,-1.81 0.2,-2.8 0,-4.51 -0.05,-9.04 -0.12,-13.6 -0.08,-4.56 -0.13,-9.24 -0.13,-14.06 0,-0.49 -0.04,-0.98 -0.15,-1.49 -0.11,-0.51 -0.16,-1.05 -0.16,-1.63 0,-0.46 0.06,-0.9 0.19,-1.3 0.11,-0.41 0.33,-0.76 0.63,-1.08 0.3,-0.31 0.72,-0.55 1.25,-0.72 0.53,-0.19 1.2,-0.27 1.98,-0.27 0.8,0 1.43,0.3 1.88,0.9 0.47,0.61 0.7,1.41 0.7,2.42 0,0.3 -0.03,0.59 -0.08,0.88 -0.05,0.29 -0.11,0.6 -0.16,0.92 -0.04,1.52 -0.07,3.15 -0.08,4.9 -0.01,1.75 -0.02,3.76 -0.02,6.02 0,2.02 0.01,4.07 0.02,6.18 0.01,2.1 0.04,4.13 0.08,6.07 0.03,1.95 0.09,3.76 0.14,5.45 0.07,1.69 0.15,3.14 0.23,4.36l0 -0.02c0.03,0.26 0.07,0.51 0.1,0.75 0.02,0.24 0.03,0.48 0.03,0.73 0,0.43 -0.04,0.82 -0.14,1.18 -0.1,0.36 -0.26,0.68 -0.49,0.94 -0.23,0.26 -0.55,0.47 -0.96,0.61 -0.41,0.14 -0.9,0.21 -1.51,0.21 -0.71,0 -1.29,-0.06 -1.76,-0.19 -0.47,-0.11 -0.84,-0.3 -1.12,-0.55 -0.27,-0.24 -0.46,-0.55 -0.58,-0.91 -0.11,-0.36 -0.17,-0.78 -0.17,-1.23zm11.98 0.07c0,-0.56 0.08,-1.13 0.24,-1.71 0.15,-0.57 0.45,-1.15 0.88,-1.73 0.3,-0.52 0.7,-1.3 1.23,-2.34 0.51,-1.04 1.1,-2.27 1.76,-3.69 0.66,-1.41 1.36,-2.95 2.11,-4.62 0.75,-1.67 1.51,-3.38 2.29,-5.12 0.78,-1.74 1.55,-3.48 2.32,-5.22 0.77,-1.74 1.5,-3.37 2.19,-4.9 0.69,-1.53 1.32,-2.92 1.88,-4.16 0.57,-1.24 1.04,-2.23 1.43,-2.99 0.06,-0.39 0.16,-0.77 0.32,-1.15 0.16,-0.38 0.37,-0.73 0.64,-1.04 0.26,-0.31 0.58,-0.56 0.95,-0.75 0.37,-0.18 0.81,-0.27 1.3,-0.27 0.64,0 1.15,0.08 1.55,0.27 0.4,0.17 0.73,0.41 0.99,0.72 0.25,0.32 0.46,0.67 0.61,1.08 0.17,0.4 0.33,0.84 0.48,1.3 0.15,0.41 0.27,0.79 0.4,1.15 0.13,0.36 0.24,0.64 0.35,0.83 1.18,2.37 2.33,4.76 3.45,7.16 1.12,2.41 2.25,4.85 3.35,7.34 1.11,2.48 2.22,5 3.35,7.54 1.13,2.54 2.31,5.13 3.53,7.76l0.51 0.75c0.13,0.2 0.3,0.43 0.49,0.7 0.2,0.27 0.38,0.57 0.55,0.89 0.17,0.32 0.3,0.65 0.42,1.01 0.12,0.36 0.17,0.71 0.17,1.06 0,1.06 -0.29,1.81 -0.89,2.26 -0.61,0.46 -1.34,0.68 -2.21,0.68 -0.47,0 -0.91,-0.07 -1.31,-0.22 -0.4,-0.16 -0.74,-0.36 -1.04,-0.61 -0.31,-0.26 -0.55,-0.56 -0.72,-0.9 -0.18,-0.35 -0.3,-0.72 -0.35,-1.11 -0.49,-1.08 -0.95,-2.09 -1.38,-3.03 -0.42,-0.95 -0.83,-1.87 -1.23,-2.74 -0.4,-0.89 -0.78,-1.75 -1.16,-2.59 -0.37,-0.84 -0.74,-1.68 -1.11,-2.54 -0.28,0 -0.68,0 -1.18,0 -0.52,-0.01 -1.1,-0.04 -1.73,-0.07 -1.01,0 -2.03,-0.01 -3.06,-0.02 -1.04,-0.02 -2.09,-0.04 -3.17,-0.05 -1.08,-0.01 -2.2,-0.01 -3.34,0 -1.15,0.01 -2.35,0.05 -3.61,0.09 -0.19,0.02 -0.38,0.04 -0.55,0.05 -0.18,0 -0.36,0 -0.56,0 -0.5,1.21 -0.96,2.36 -1.41,3.44 -0.44,1.09 -0.84,2.1 -1.19,3.01 -0.35,0.92 -0.67,1.74 -0.94,2.45 -0.27,0.72 -0.48,1.29 -0.63,1.74l0 -0.03c-0.11,0.39 -0.22,0.77 -0.36,1.14 -0.13,0.37 -0.32,0.71 -0.57,1 -0.24,0.29 -0.58,0.53 -1.01,0.71 -0.44,0.19 -1.01,0.28 -1.71,0.28 -0.96,0 -1.75,-0.23 -2.37,-0.71 -0.64,-0.48 -0.95,-1.18 -0.95,-2.1zm13.55 -16.7c0.37,0 0.85,0 1.44,0 0.6,0 1.37,0 2.31,0.01 0.95,0.01 2.11,0.02 3.48,0.03 1.39,0.01 3.05,0.02 5.02,0.03 -0.82,-1.76 -1.73,-3.75 -2.76,-5.97 -1.02,-2.22 -2.24,-4.81 -3.63,-7.76 -0.41,0.9 -0.84,1.9 -1.3,2.97 -0.46,1.08 -0.94,2.2 -1.44,3.37 -0.51,1.17 -1.02,2.37 -1.54,3.61 -0.53,1.23 -1.05,2.47 -1.58,3.71z"/>
   </g>
   <path class="fil3" d="M234.15 278.28c-1.35,-4.27 -1.69,-8.42 -1.09,-12.5 0.64,-4.14 1.33,-7.73 2.09,-10.88 0.65,-6.8 1.2,-13.91 1.61,-21.46 0.41,-7.54 0.74,-15.95 1.03,-25.1 0.27,-9.22 0.44,-19.36 0.58,-30.43 0.06,-11.13 0.16,-23.56 0.15,-37.35 0.08,-13.73 0.05,-29 0.06,-45.82 0.03,-16.76 0.04,-35.44 0.04,-55.97 -3.59,0 -7.58,0 -11.96,0 -4.45,0 -10.01,0 -16.66,0.07 -6.71,0.06 -15,0.12 -24.87,0.12 -9.87,0 -22.17,0 -36.88,0 -5.88,0.43 -10.45,0.86 -13.81,1.17 -3.31,0.31 -5.93,0.5 -7.85,0.62 -1.86,0.13 -3.15,0.19 -3.86,0.19 -0.72,0 -1.25,0 -1.64,0 -7.26,0 -13.61,-1.67 -19.12,-5.01 -5.42,-3.28 -9.4,-8.78 -11.82,-16.39 -1.37,-4.33 -1.63,-7.79 -0.69,-10.39 0.88,-2.59 2.6,-4.57 5.2,-5.87 2.57,-1.36 5.7,-2.23 9.41,-2.66 3.66,-0.43 7.66,-0.62 11.84,-0.62l136.4 0c2.29,0 4.89,0.37 7.7,1.18 2.8,0.8 5.55,2.04 8.32,3.77 2.86,1.79 5.4,4.02 7.73,6.8 2.39,2.78 4.21,6.25 5.51,10.33 0.69,2.16 1.24,4.51 1.63,6.98 0.4,2.48 0.62,5.01 0.51,7.55 -0.42,5.87 -0.72,12.55 -0.92,19.91 -0.21,7.36 -0.41,15.77 -0.56,25.17 -0.15,9.4 -0.21,20.1 -0.35,31.97 -0.06,11.94 -0.15,25.42 -0.17,40.57 -0.06,15.21 -0.03,32.15 0.02,51.01 0.05,18.86 0.07,39.89 0.06,63.08 0.96,3.83 1.68,7.73 2.09,11.69 0.39,3.89 0.15,7.48 -0.87,10.63 -0.94,3.22 -2.79,5.82 -5.56,7.8 -2.69,2.04 -6.69,3.03 -11.92,3.03 -2.68,0 -5.65,-0.5 -8.84,-1.49 -3.17,-0.93 -6.18,-2.35 -9.05,-4.2 -2.97,-1.92 -5.55,-4.27 -7.98,-7.18 -2.36,-2.9 -4.25,-6.37 -5.51,-10.32z"/>
  </g>
 </g>
</svg>
