<?xml version="1.0" encoding="UTF-8"?>
<!DOCTYPE svg PUBLIC "-//W3C//DTD SVG 1.1//EN" "http://www.w3.org/Graphics/SVG/1.1/DTD/svg11.dtd">
<!-- Creator: CorelDRAW 2023 -->
<svg xmlns="http://www.w3.org/2000/svg" xml:space="preserve" width="628px" height="494px" version="1.1" style="shape-rendering:geometricPrecision; text-rendering:geometricPrecision; image-rendering:optimizeQuality; fill-rule:evenodd; clip-rule:evenodd"
viewBox="0 0 65.52 51.57"
 xmlns:xlink="http://www.w3.org/1999/xlink"
 xmlns:xodm="http://www.corel.com/coreldraw/odm/2003">
 <defs>
  <style type="text/css">
   <![CDATA[
    .fil20 {fill:#FEFEFE;fill-rule:nonzero}
    .fil23 {fill:#A9ABAE;fill-rule:nonzero}
    .fil33 {fill:#340060;fill-rule:nonzero}
    .fil18 {fill:#369995;fill-rule:nonzero}
    .fil25 {fill:#396B72;fill-rule:nonzero}
    .fil12 {fill:#3D2A27;fill-rule:nonzero}
    .fil19 {fill:#3D4E66;fill-rule:nonzero}
    .fil56 {fill:#3F9A9E;fill-rule:nonzero}
    .fil51 {fill:#40A06B;fill-rule:nonzero}
    .fil5 {fill:#4E1C0C;fill-rule:nonzero}
    .fil55 {fill:#4E7DA3;fill-rule:nonzero}
    .fil30 {fill:#50607A;fill-rule:nonzero}
    .fil26 {fill:#5B7592;fill-rule:nonzero}
    .fil21 {fill:#5B9299;fill-rule:nonzero}
    .fil10 {fill:#666666;fill-rule:nonzero}
    .fil9 {fill:#66729E;fill-rule:nonzero}
    .fil31 {fill:#6A00BD;fill-rule:nonzero}
    .fil24 {fill:#6A813F;fill-rule:nonzero}
    .fil44 {fill:#6DA8C5;fill-rule:nonzero}
    .fil1 {fill:#70514C;fill-rule:nonzero}
    .fil39 {fill:#707070;fill-rule:nonzero}
    .fil28 {fill:#722D08;fill-rule:nonzero}
    .fil37 {fill:#7787A0;fill-rule:nonzero}
    .fil50 {fill:#89A5B6;fill-rule:nonzero}
    .fil4 {fill:#8E95B6;fill-rule:nonzero}
    .fil34 {fill:#91919B;fill-rule:nonzero}
    .fil43 {fill:#A0386F;fill-rule:nonzero}
    .fil27 {fill:#A0520D;fill-rule:nonzero}
    .fil11 {fill:#A33611;fill-rule:nonzero}
    .fil48 {fill:#A5D6D3;fill-rule:nonzero}
    .fil14 {fill:#B90D3F;fill-rule:nonzero}
    .fil52 {fill:#BB4A82;fill-rule:nonzero}
    .fil49 {fill:#BFDDA4;fill-rule:nonzero}
    .fil22 {fill:#C2A359;fill-rule:nonzero}
    .fil29 {fill:#CCCCCC;fill-rule:nonzero}
    .fil7 {fill:#D86E58;fill-rule:nonzero}
    .fil42 {fill:#DB678A;fill-rule:nonzero}
    .fil40 {fill:#DB883E;fill-rule:nonzero}
    .fil32 {fill:#E2A826;fill-rule:nonzero}
    .fil0 {fill:#E4C9FF;fill-rule:nonzero}
    .fil17 {fill:#E4EEE7;fill-rule:nonzero}
    .fil8 {fill:#E85C77;fill-rule:nonzero}
    .fil54 {fill:#E96F13;fill-rule:nonzero}
    .fil36 {fill:#E99320;fill-rule:nonzero}
    .fil16 {fill:#EC4C67;fill-rule:nonzero}
    .fil45 {fill:#EEAD5F;fill-rule:nonzero}
    .fil3 {fill:#F6A28C;fill-rule:nonzero}
    .fil47 {fill:#F89925;fill-rule:nonzero}
    .fil38 {fill:#FB9494;fill-rule:nonzero}
    .fil6 {fill:#FF6200;fill-rule:nonzero}
    .fil13 {fill:#FF8C8C;fill-rule:nonzero}
    .fil46 {fill:#FF9191;fill-rule:nonzero}
    .fil53 {fill:#FFC68E;fill-rule:nonzero}
    .fil2 {fill:#FFD08F;fill-rule:nonzero}
    .fil41 {fill:#FFD591;fill-rule:nonzero}
    .fil35 {fill:#FFE448;fill-rule:nonzero}
    .fil15 {fill:white;fill-rule:nonzero}
   ]]>
  </style>
 </defs>
 <g id="Camada_x0020_1">
  <metadata id="CorelCorpID_0Corel-Layer"/>
  <g id="_1761869959008">
   <g>
    <path class="fil0" d="M10.09 50.99c-3.37,-0.39 -6.44,-2.72 -7.73,-5.85 -1.29,-3.14 -0.75,-6.95 1.36,-9.6 1.46,-1.83 3.62,-3.19 4.41,-5.38 0.88,-2.43 -0.18,-5.07 -0.44,-7.64 -0.54,-5.45 2.93,-10.92 7.89,-13.25 4.96,-2.32 11.06,-1.65 15.72,1.23 2.12,1.31 4.05,3.07 6.46,3.67 2.7,0.68 5.53,-0.22 8.08,-1.32 2.55,-1.11 5.07,-2.46 7.84,-2.77 3.52,-0.38 7.2,1.13 9.44,3.87 2.25,2.75 2.99,6.65 1.91,10.03 -1.21,3.8 -4.5,6.81 -5.1,10.75 -0.45,2.9 0.64,5.79 1.06,8.7 0.41,2.9 -0.18,6.4 -2.78,7.76l-48.12 -0.2z"/>
    <path class="fil0" d="M7.75 51.4c-0.77,0.15 -1.61,-0.02 -2.27,-0.46 -0.65,-0.43 -1.12,-1.09 -1.69,-1.62 -1.02,-0.94 -2.41,-1.46 -3.79,-1.42 1.18,-0.94 2.8,-1.27 4.28,-0.97 1.48,0.3 2.81,1.2 3.71,2.41 -1.91,-2.16 -2.67,-5.29 -1.97,-8.09 0.79,1.8 2.3,3.17 3.61,4.63 1.31,1.47 2.51,3.25 2.43,5.22l-4.31 0.3z"/>
    <path class="fil0" d="M56.87 51.28c-0.89,-0.61 -1.12,-2 -0.47,-2.86 0.62,-0.83 1.87,-1.17 2.19,-2.16 0.28,-0.87 -0.3,-1.91 0.16,-2.7 0.55,-0.94 2.1,-0.75 2.77,-1.61 0.28,-0.36 0.35,-0.84 0.58,-1.24 0.28,-0.45 0.76,-0.76 1.26,-0.92 0.51,-0.16 1.05,-0.2 1.58,-0.24 0.17,0.61 -0.2,1.23 -0.58,1.74 -0.39,0.5 -0.83,1.03 -0.84,1.66 -0.01,0.52 0.28,0.99 0.48,1.46 0.21,0.48 0.33,1.06 0.03,1.48 -0.25,0.34 -0.7,0.46 -1.09,0.62 -0.39,0.15 -0.81,0.45 -0.81,0.87 0,0.19 0.08,0.36 0.13,0.54 0.19,0.7 -0.15,1.5 -0.79,1.83 1.16,-0.72 2.54,-1.1 3.9,-1.07 -1.12,1.02 -2.29,2.06 -3.74,2.49 -1.47,0.44 -3.04,0.19 -4.76,0.11z"/>
    <path class="fil0" d="M4.8 51.25c-0.11,-0.24 -0.06,-0.54 0.12,-0.72 0.18,-0.19 0.47,-0.24 0.71,-0.14 -0.21,-0.41 -0.03,-0.98 0.39,-1.19 0.42,-0.21 0.99,-0.01 1.19,0.41 0.06,-0.27 0.12,-0.54 0.29,-0.75 0.16,-0.22 0.45,-0.36 0.7,-0.27 -0.26,-0.27 -0.46,-0.55 -0.64,-0.84 0.24,0.01 0.48,0.02 0.72,0.08 0.23,0.06 0.46,0.19 0.6,0.39 0.14,-0.35 0.33,-0.67 0.58,-0.96 -0.09,0.36 -0.01,0.75 0.21,1.04 0.16,-0.75 0.96,-1.37 1.77,-1.31 0.8,0.06 1.49,0.81 1.49,1.61 0.13,-0.39 0.45,-0.72 0.84,-0.85 0.39,-0.14 0.84,-0.08 1.19,0.15 -0.18,-0.34 -0.36,-0.67 -0.54,-1.01 0.56,0.07 1.07,0.42 1.35,0.9 0.13,-0.29 0.33,-0.55 0.58,-0.76l0.05 0.9c0.23,-0.46 0.62,-0.88 1.1,-1.07 0.49,-0.19 1.06,-0.14 1.61,0.14 1.06,-0.15 2.13,0.87 2.03,1.94 0.49,-0.63 1.32,-0.99 2.12,-0.91 0.79,0.08 1.54,0.59 1.89,1.31 0.95,-0.85 2.65,-0.62 3.34,0.45 0.29,-0.57 1.06,-0.69 1.69,-0.6 0.64,0.1 1.26,0.36 1.9,0.29 0.65,-0.07 1.21,-0.46 1.84,-0.66 1.21,-0.38 2.63,0.09 3.38,1.11 0.64,-1.45 2.54,-2.17 3.98,-1.52 0.63,0.29 1.21,0.8 1.9,0.78 0.55,-0.02 1.03,-0.39 1.54,-0.58 1.07,-0.39 2.37,0.03 3.01,0.97 0.13,-0.48 0.57,-0.86 1.07,-0.91 0.49,-0.04 1,0.24 1.24,0.53 0.25,-0.76 0.98,-1.34 1.78,-1.42 0.79,-0.08 1.62,0.35 2.02,1.04 0.16,-0.36 0.16,-0.79 -0.01,-1.15 0.28,0.23 0.5,0.53 0.62,0.87 0.24,-0.35 0.68,-0.56 1.1,-0.54 -0.07,0.3 -0.2,0.57 -0.35,0.77 0.76,-0.15 1.59,0.1 2.14,0.64 0.11,-0.31 0.26,-0.61 0.44,-0.89 0.18,0.24 0.29,0.54 0.32,0.84 0.16,-0.28 0.46,-0.47 0.78,-0.5 0.01,0.24 -0.04,0.48 -0.18,0.73 0.45,-0.07 0.93,0.13 1.2,0.49 0.16,-0.42 0.67,-0.68 1.11,-0.55 -0.12,0.17 -0.24,0.35 -0.37,0.52 0.22,0.07 0.39,0.27 0.42,0.49 0.04,0.23 -0.06,0.47 -0.24,0.6l-56.02 0.11z"/>
    <path class="fil0" d="M10.06 49.09c0,-0.08 -0.01,-0.15 -0.04,-0.22 -0.01,-0.02 -0.05,-0.04 -0.08,-0.03 -0.02,0.01 -0.03,0.03 -0.04,0.05l0 0c-0.01,0.01 -0.01,0.01 -0.01,0.02 0,0 -0.02,0.02 -0.02,0.02 -0.01,0.01 -0.02,0.02 -0.03,0.03 -0.01,0.03 -0.03,0.05 -0.05,0.07 -0.03,0.05 -0.06,0.1 -0.1,0.15 -0.04,0.07 -0.07,0.14 -0.1,0.2 -0.15,-0.12 -0.32,-0.21 -0.49,-0.28 -0.04,-0.01 -0.08,0.02 -0.09,0.05 -0.01,0.04 0.01,0.07 0.05,0.09 0.19,0.08 0.35,0.22 0.49,0.38 0.04,0.06 0.15,0.03 0.16,-0.04 0.03,-0.11 0.06,-0.22 0.11,-0.32 0.02,-0.04 0.03,-0.07 0.05,-0.11 0.01,0.06 0.01,0.11 0.04,0.17 0.03,0.07 0.12,0.04 0.14,-0.02 0.02,-0.07 0.02,-0.14 0.01,-0.21z"/>
    <path class="fil0" d="M9.16 49.56c-0.02,-0.03 -0.04,-0.06 -0.07,-0.09 -0.01,-0.01 -0.02,-0.02 -0.03,-0.04 -0.02,-0.01 -0.03,-0.02 -0.04,-0.03 -0.01,-0.01 -0.02,-0.01 -0.03,-0.02 -0.01,0 -0.03,-0.01 -0.04,-0.01 -0.03,0 -0.05,0.01 -0.07,0.03 -0.02,0.02 -0.03,0.05 -0.03,0.07 0,0.03 0.01,0.05 0.03,0.07 0.01,0.01 0.02,0.02 0.04,0.03 0.02,0.02 0.04,0.03 0.06,0.05 0.01,0.01 0.02,0.01 0.04,0.02 0.02,0.01 0.04,0.02 0.06,0.03 0.01,0 0.01,0 0.02,0 0.01,0 0.01,0 0.02,0 0.01,0 0.03,-0.01 0.04,-0.03 0.02,-0.02 0.02,-0.05 0,-0.08z"/>
    <path class="fil0" d="M8.92 49.8c-0.02,-0.01 -0.03,-0.03 -0.05,-0.04 -0.01,-0.01 -0.03,-0.02 -0.04,-0.03 -0.02,-0.02 -0.05,-0.03 -0.07,-0.05 -0.02,-0.01 -0.05,-0.01 -0.07,-0.01 -0.02,0.01 -0.04,0.02 -0.05,0.04 -0.01,0.02 -0.01,0.04 0,0.06 0,0.01 0,0.01 0,0.02 0.01,0.01 0.02,0.02 0.03,0.03l0.08 0.05c0.01,0.01 0.02,0.02 0.03,0.03 0.02,0.01 0.03,0.01 0.05,0.02 0.01,0.01 0.03,0.01 0.05,0.01 0.02,-0.01 0.03,-0.02 0.04,-0.03 0.02,-0.03 0.02,-0.07 0,-0.1z"/>
    <path class="fil0" d="M10.49 49.04c0,-0.02 -0.02,-0.03 -0.03,-0.03 -0.02,-0.01 -0.04,-0.01 -0.05,0 -0.02,0.01 -0.03,0.03 -0.03,0.04 -0.01,0.03 -0.01,0.05 -0.01,0.08 -0.01,0.03 -0.01,0.06 -0.01,0.09 0,0.01 0.01,0.03 0.02,0.04 0.01,0.01 0.02,0.01 0.03,0.01 0.03,0.01 0.06,-0.01 0.06,-0.04 0.01,-0.02 0.01,-0.05 0.02,-0.07 0,-0.03 0.01,-0.05 0.01,-0.08 0,0 0,-0.01 0,-0.02 0,-0.01 0,-0.02 -0.01,-0.02z"/>
    <path class="fil0" d="M13.49 48.55c-0.02,-0.07 -0.02,-0.15 -0.04,-0.22 -0.02,-0.06 -0.1,-0.08 -0.14,-0.03 -0.02,0.01 -0.03,0.02 -0.04,0.03 -0.02,0.01 -0.04,0.03 -0.05,0.04 -0.04,0.02 -0.07,0.05 -0.11,0.08 -0.02,0.03 -0.05,0.06 -0.07,0.1 -0.07,-0.08 -0.13,-0.15 -0.21,-0.22 -0.04,-0.03 -0.1,-0.04 -0.14,0 -0.04,0.04 -0.04,0.11 0,0.15 0.1,0.09 0.2,0.2 0.29,0.31 0.03,0.05 0.13,0.04 0.16,-0.02 0.03,-0.07 0.06,-0.14 0.1,-0.2 0.02,-0.02 0.03,-0.04 0.05,-0.06 0,0.02 0,0.04 0.01,0.06 0.01,0.07 0.03,0.2 0.13,0.2 0.05,0 0.09,-0.06 0.09,-0.11 0,-0.04 -0.02,-0.08 -0.03,-0.11z"/>
    <path class="fil0" d="M14 48.46c-0.02,-0.02 -0.04,-0.04 -0.06,-0.04 -0.06,-0.02 -0.12,0.01 -0.13,0.07 -0.02,0.09 -0.05,0.18 -0.05,0.28 0,0.03 0.03,0.07 0.06,0.08 0.04,0.01 0.08,0 0.1,-0.04 0.02,-0.04 0.04,-0.09 0.05,-0.14 0.01,-0.04 0.03,-0.09 0.04,-0.13 0,-0.03 0,-0.05 -0.01,-0.08z"/>
    <path class="fil0" d="M17.29 49.3c0,-0.07 -0.07,-0.11 -0.13,-0.08 -0.09,0.05 -0.18,0.11 -0.23,0.2 -0.02,0.03 -0.03,0.07 -0.04,0.1 -0.04,-0.03 -0.08,-0.06 -0.12,-0.09 -0.07,-0.07 -0.16,-0.14 -0.27,-0.12 -0.1,0.02 -0.13,0.11 -0.15,0.2 0,0.04 0,0.07 -0.01,0.1 -0.03,-0.03 -0.05,-0.06 -0.08,-0.08 -0.1,-0.09 -0.24,0.05 -0.14,0.14 0.07,0.07 0.14,0.15 0.2,0.24 0.06,0.09 0.18,0.04 0.19,-0.06 0.01,-0.08 0.02,-0.16 0.02,-0.24 0.01,-0.04 0.01,-0.08 0.01,-0.12 0,0 0,0 0.01,0 -0.01,0 -0.04,-0.04 0,0 0,0 0,0 0,0 0,-0.01 0,-0.02 0,-0.02 0,0.01 0,0.01 0,0.02 0.01,0.01 0.02,0.01 0.03,0.02 0.01,0.01 0.03,0.03 0.04,0.04 0.03,0.03 0.06,0.05 0.09,0.08 0.06,0.06 0.13,0.12 0.2,0.16 0.06,0.04 0.16,-0.03 0.13,-0.1 0,-0.01 -0.01,-0.01 -0.01,-0.02 0,-0.06 0.01,-0.12 0.05,-0.17 0.01,-0.02 0.02,-0.03 0.03,-0.04 0.01,0.05 0.02,0.1 0.05,0.14 0.03,0.05 0.14,0.06 0.15,-0.02 0.01,-0.09 -0.01,-0.19 -0.02,-0.28z"/>
    <path class="fil0" d="M16.55 49.49c0,0 0,0 0,0 0,0 0,0 0,0 0,0 0,0 0,0z"/>
    <path class="fil0" d="M17.32 47.78c-0.13,0 -0.26,0.02 -0.38,0.06 0,-0.04 0,-0.08 0,-0.12 0,-0.06 -0.06,-0.09 -0.11,-0.07 -0.12,0.06 -0.24,0.13 -0.35,0.22 -0.03,-0.17 -0.05,-0.33 -0.05,-0.51 0.01,-0.1 -0.15,-0.1 -0.15,0 -0.01,0.25 0.01,0.49 0.05,0.73 0.02,0.07 0.12,0.09 0.17,0.04 0.08,-0.09 0.17,-0.19 0.27,-0.27 0,0.04 -0.01,0.07 -0.01,0.11 -0.01,0.08 0.07,0.14 0.14,0.08 0.12,-0.09 0.26,-0.16 0.42,-0.15 0.07,0 0.07,-0.11 0,-0.12z"/>
    <path class="fil0" d="M6.89 50.07c-0.05,-0.09 -0.12,-0.17 -0.2,-0.24 -0.04,-0.03 -0.08,-0.06 -0.12,-0.09 -0.05,-0.02 -0.1,-0.04 -0.14,-0.06 -0.04,-0.02 -0.1,-0.01 -0.12,0.03 -0.03,0.08 -0.07,0.17 -0.11,0.26 -0.04,-0.03 -0.09,-0.07 -0.14,-0.1 -0.04,-0.03 -0.11,-0.01 -0.14,0.04 -0.02,0.05 0,0.11 0.04,0.14 0.08,0.05 0.16,0.11 0.24,0.16 0.06,0.04 0.13,0 0.15,-0.06 0.03,-0.09 0.06,-0.18 0.09,-0.28 0.01,0.01 0.02,0.02 0.04,0.03 0.03,0.02 0.06,0.04 0.1,0.07 0.07,0.06 0.13,0.13 0.18,0.19 0.03,0.03 0.08,0.03 0.11,0.01 0.03,-0.02 0.03,-0.06 0.02,-0.1z"/>
    <path class="fil0" d="M54.27 49.11c-0.04,0.03 -0.09,0.05 -0.14,0.07 -0.04,0.03 -0.08,0.05 -0.12,0.08 -0.05,0.02 -0.09,0.05 -0.13,0.08 -0.02,-0.03 -0.03,-0.07 -0.04,-0.1 -0.03,-0.07 -0.06,-0.18 -0.15,-0.21 -0.09,-0.03 -0.15,0.05 -0.19,0.12 0,0.01 -0.01,0.02 -0.01,0.03l-0.01 -0.02c-0.04,-0.12 -0.24,-0.07 -0.2,0.06 0.03,0.08 0.06,0.16 0.08,0.25 0.03,0.08 0.15,0.11 0.19,0.02 0.03,-0.05 0.05,-0.11 0.08,-0.17 0,-0.01 0.01,-0.02 0.01,-0.03 0.01,0.02 0.03,0.05 0.03,0.07 0.03,0.06 0.04,0.12 0.06,0.18 0.02,0.07 0.12,0.1 0.17,0.04 0.06,-0.07 0.12,-0.14 0.19,-0.2 0.03,-0.02 0.06,-0.04 0.09,-0.06 0,0 0,0.01 0,0.02 -0.02,0.03 -0.03,0.06 -0.04,0.08 -0.02,0.04 -0.04,0.07 -0.05,0.1 -0.01,0.08 0.08,0.14 0.14,0.08 0.05,-0.05 0.07,-0.14 0.1,-0.21 0.02,-0.07 0.05,-0.14 0.05,-0.21 0,-0.06 -0.06,-0.1 -0.11,-0.07z"/>
    <path class="fil0" d="M54.75 49.48c-0.01,-0.02 -0.02,-0.05 -0.04,-0.06 -0.03,-0.01 -0.05,-0.02 -0.08,-0.01 -0.02,0.01 -0.04,0.02 -0.05,0.04 -0.02,0.04 -0.04,0.07 -0.06,0.1 -0.01,0.02 -0.01,0.03 -0.02,0.05 -0.01,0.02 -0.02,0.04 -0.03,0.06l0 0.03c0,0.01 0,0.02 0,0.03 0.01,0.01 0.02,0.03 0.04,0.04 0.01,0 0.02,0.01 0.04,0.01 0.02,0 0.04,-0.01 0.06,-0.03 0.01,-0.01 0.03,-0.03 0.04,-0.05 0.01,-0.02 0.02,-0.03 0.03,-0.05 0.02,-0.03 0.04,-0.06 0.06,-0.09 0.01,-0.02 0.02,-0.05 0.01,-0.07z"/>
    <path class="fil0" d="M58.35 49.6c-0.08,0.04 -0.17,0.07 -0.26,0.12 -0.03,0.02 -0.07,0.05 -0.1,0.07 -0.02,-0.04 -0.03,-0.09 -0.04,-0.13 -0.02,-0.07 -0.04,-0.18 -0.11,-0.21 -0.08,-0.03 -0.13,0.02 -0.17,0.07 -0.03,0.04 -0.05,0.07 -0.08,0.1 -0.08,-0.16 -0.2,-0.31 -0.33,-0.43 -0.09,-0.08 -0.21,0.05 -0.13,0.13 0.08,0.08 0.14,0.16 0.2,0.25 0.05,0.09 0.09,0.19 0.14,0.29 0.03,0.06 0.14,0.06 0.17,0 0.03,-0.06 0.05,-0.12 0.08,-0.18 0.01,-0.02 0.02,-0.03 0.03,-0.05 0.02,0.12 0.05,0.24 0.08,0.35 0.02,0.07 0.11,0.1 0.17,0.04 0.08,-0.08 0.17,-0.16 0.27,-0.22 -0.01,0.04 -0.03,0.08 -0.04,0.13 -0.02,0.06 0.07,0.12 0.12,0.07 0.08,-0.09 0.11,-0.22 0.11,-0.34 -0.01,-0.06 -0.06,-0.09 -0.11,-0.06z"/>
    <path class="fil0" d="M56.41 50.11c-0.06,0 -0.1,0.05 -0.1,0.1 -0.01,0.02 -0.01,0.04 -0.01,0.06 -0.02,-0.02 -0.03,-0.04 -0.04,-0.07 -0.04,-0.06 -0.09,-0.13 -0.18,-0.13 -0.09,0 -0.11,0.08 -0.13,0.16 0,0.05 -0.02,0.1 -0.03,0.15 -0.04,-0.03 -0.09,-0.05 -0.13,-0.07 -0.08,-0.05 -0.17,-0.09 -0.27,-0.11 -0.04,0 -0.1,0.03 -0.08,0.08 0.03,0.08 0.04,0.15 0.06,0.23 0.03,0.07 0.12,0.05 0.13,-0.02 0,-0.03 0,-0.07 -0.01,-0.1 0.03,0.02 0.06,0.03 0.09,0.05 0.07,0.05 0.13,0.11 0.19,0.17 0.06,0.06 0.16,0.01 0.16,-0.07 0.01,-0.07 0,-0.14 0.01,-0.21 0.01,-0.03 0.01,-0.06 0.01,-0.09 0,-0.01 0.01,-0.01 0.01,-0.02 0,0.01 0.01,0.02 0.01,0.03 0.02,0.03 0.03,0.06 0.05,0.09 0.02,0.06 0.05,0.12 0.06,0.18 0.02,0.07 0.12,0.1 0.17,0.05 0.08,-0.1 0.12,-0.24 0.13,-0.36 0.01,-0.05 -0.05,-0.1 -0.1,-0.1z"/>
    <path class="fil0" d="M59.61 50.17c-0.02,-0.03 -0.06,-0.05 -0.09,-0.04 -0.12,0.04 -0.22,0.12 -0.31,0.21 -0.02,0.02 -0.03,0.05 -0.03,0.07 0,0.03 0.01,0.06 0.03,0.07 0.04,0.04 0.11,0.04 0.14,0 0.06,-0.05 0.11,-0.1 0.17,-0.14 -0.01,0 -0.01,0.01 -0.02,0.01 0.04,-0.03 0.07,-0.05 0.1,-0.08 0.02,-0.03 0.03,-0.07 0.01,-0.1z"/>
    <path class="fil0" d="M60.1 50.32c-0.02,-0.03 -0.07,-0.04 -0.1,-0.02 -0.05,0.02 -0.1,0.05 -0.15,0.07 -0.01,0 -0.02,0.01 -0.03,0.01l0.02 -0.01c-0.01,0.01 -0.03,0.02 -0.05,0.02 -0.02,0.01 -0.05,0.03 -0.06,0.05 -0.01,0.02 -0.02,0.05 -0.01,0.08 0.01,0.02 0.02,0.05 0.05,0.06 0.02,0.01 0.05,0.02 0.08,0.01 0.09,-0.03 0.18,-0.08 0.25,-0.16 0.01,-0.02 0.02,-0.04 0.02,-0.06 0,-0.02 -0.01,-0.03 -0.02,-0.05z"/>
    <path class="fil0" d="M8.73 47.79c-0.12,-0.2 -0.26,-0.38 -0.38,-0.57 -0.06,-0.09 -0.11,-0.18 -0.17,-0.27 0.02,-0.01 0.03,-0.03 0.02,-0.05 0,-0.14 0.03,-0.28 0.06,-0.41 0.02,-0.13 0.06,-0.26 0.1,-0.39 0.08,-0.26 0.2,-0.5 0.33,-0.74 0.03,-0.07 -0.06,-0.12 -0.1,-0.06 -0.16,0.23 -0.28,0.49 -0.37,0.75 -0.05,0.13 -0.09,0.26 -0.12,0.4 -0.02,0.09 -0.03,0.18 -0.05,0.28 -0.02,-0.03 -0.04,-0.07 -0.05,-0.1 -0.13,-0.21 -0.25,-0.43 -0.37,-0.65 0.03,0 0.06,-0.03 0.06,-0.06 0.02,-0.23 0.06,-0.46 0.11,-0.69 0.02,-0.12 0.05,-0.23 0.08,-0.34 0.02,-0.11 0.07,-0.22 0.09,-0.34 0.01,-0.07 -0.1,-0.14 -0.14,-0.05 -0.05,0.11 -0.07,0.23 -0.09,0.35 -0.03,0.12 -0.06,0.23 -0.08,0.35 -0.04,0.22 -0.07,0.43 -0.1,0.65 -0.07,-0.13 -0.14,-0.26 -0.2,-0.39 -0.13,-0.26 -0.26,-0.52 -0.38,-0.78 0.01,-0.03 0.01,-0.05 0,-0.07 -0.01,-0.02 -0.03,-0.03 -0.05,-0.04 -0.22,-0.53 -0.42,-1.06 -0.57,-1.62 -0.13,-0.49 -0.22,-0.99 -0.26,-1.5 0,-0.07 -0.11,-0.07 -0.1,0 0.08,1.04 0.33,2.07 0.71,3.04 -0.07,-0.02 -0.14,-0.04 -0.21,-0.06 -0.16,-0.05 -0.31,-0.12 -0.46,-0.2 -0.07,-0.04 -0.12,0.06 -0.06,0.1 0.15,0.08 0.31,0.15 0.47,0.23 0.07,0.03 0.14,0.07 0.22,0.1 0.04,0.02 0.08,0.04 0.13,0.06 0.26,0.64 0.58,1.26 0.94,1.84 0.03,0.06 0.07,0.11 0.1,0.17 -0.14,-0.04 -0.28,-0.06 -0.42,-0.1 -0.24,-0.06 -0.48,-0.13 -0.72,-0.19 -0.08,-0.03 -0.11,0.09 -0.03,0.12 0.24,0.07 0.47,0.13 0.71,0.21 0.21,0.06 0.41,0.14 0.61,0.19 0.06,0.08 0.11,0.17 0.16,0.25 0.14,0.22 0.27,0.45 0.43,0.66 0.07,0.08 0.2,0.01 0.15,-0.08z"/>
    <path class="fil0" d="M5.76 48.89c-0.11,-0.09 -0.24,-0.17 -0.37,-0.25 -0.01,-0.02 -0.04,-0.04 -0.07,-0.04 -0.09,-0.05 -0.18,-0.1 -0.27,-0.14 0.01,-0.02 0.02,-0.04 0.01,-0.06 -0.01,-0.05 -0.04,-0.11 -0.07,-0.16 -0.02,-0.05 -0.05,-0.11 -0.08,-0.16 -0.04,-0.1 -0.09,-0.2 -0.14,-0.3 -0.11,-0.2 -0.23,-0.4 -0.35,-0.59 -0.04,-0.07 -0.14,-0.01 -0.1,0.06 0.12,0.19 0.23,0.39 0.33,0.59 0.05,0.1 0.1,0.2 0.15,0.3 0.02,0.05 0.04,0.1 0.06,0.16 0.01,0.02 0.02,0.05 0.03,0.08 -0.02,-0.01 -0.03,-0.01 -0.05,-0.02 -0.33,-0.16 -0.66,-0.28 -1,-0.39 -0.16,-0.04 -0.31,-0.08 -0.47,-0.12 0,-0.01 -0.01,-0.03 -0.03,-0.04 -0.23,-0.22 -0.42,-0.48 -0.62,-0.73 -0.05,-0.06 -0.13,0.03 -0.09,0.09 0.16,0.2 0.33,0.41 0.47,0.63 -0.45,-0.09 -0.91,-0.15 -1.37,-0.16 -0.41,-0.01 -0.82,0.02 -1.23,0.07 -0.07,0.01 -0.07,0.12 0,0.11 0.8,-0.11 1.6,-0.08 2.38,0.08 -0.01,0.01 -0.02,0.01 -0.03,0.01 -0.11,0.07 -0.24,0.17 -0.31,0.29 -0.03,0.06 0.04,0.1 0.08,0.07 0.1,-0.09 0.19,-0.17 0.3,-0.22 0.1,-0.05 0.2,-0.06 0.31,-0.07 0.47,0.12 0.93,0.28 1.38,0.49 0.15,0.07 0.29,0.14 0.44,0.22 -0.02,0 -0.03,0.01 -0.05,0.01 -0.1,0.04 -0.2,0.08 -0.3,0.13 -0.2,0.08 -0.39,0.18 -0.58,0.29 -0.07,0.04 -0.01,0.14 0.06,0.1 0.19,-0.1 0.38,-0.2 0.58,-0.28 0.1,-0.04 0.2,-0.08 0.3,-0.11 0.05,-0.02 0.1,-0.04 0.15,-0.05 0.15,0.09 0.29,0.18 0.44,0.26 0.09,0.05 0.2,-0.08 0.11,-0.15z"/>
    <path class="fil0" d="M64.58 39.83c-0.7,0.37 -1.36,0.87 -1.8,1.56 -0.21,0.33 -0.36,0.71 -0.42,1.1 -0.06,0.39 0.03,0.82 -0.16,1.18 -0.12,0.24 -0.32,0.41 -0.52,0.58 0,-0.01 0,-0.01 0,-0.02 -0.02,-0.06 -0.05,-0.12 -0.08,-0.17 -0.03,-0.06 -0.06,-0.12 -0.09,-0.18 -0.05,-0.11 -0.1,-0.22 -0.15,-0.34 -0.09,-0.24 -0.14,-0.49 -0.16,-0.75 -0.01,-0.07 -0.13,-0.07 -0.12,0 0.02,0.27 0.07,0.53 0.14,0.79 0.03,0.13 0.07,0.25 0.12,0.37 0.03,0.07 0.06,0.13 0.09,0.19 0.03,0.06 0.05,0.13 0.11,0.18 0.01,0.01 0.02,0.01 0.03,0.01 -0.2,0.17 -0.41,0.34 -0.58,0.55 -0.08,0.11 -0.15,0.22 -0.2,0.35 -0.07,0.17 -0.09,0.35 -0.09,0.53 -0.01,0.22 0.02,0.45 -0.02,0.67 -0.03,0.17 -0.11,0.33 -0.21,0.47 -0.13,0.19 -0.32,0.35 -0.51,0.51 0,-0.01 0,-0.01 0,-0.02 -0.03,-0.08 -0.08,-0.15 -0.11,-0.23 -0.04,-0.08 -0.07,-0.16 -0.1,-0.24 -0.07,-0.18 -0.13,-0.37 -0.19,-0.56 -0.11,-0.37 -0.21,-0.75 -0.3,-1.13 -0.01,-0.08 -0.13,-0.04 -0.11,0.03 0.09,0.4 0.19,0.79 0.29,1.17 0.06,0.19 0.1,0.38 0.16,0.57 0.04,0.15 0.1,0.36 0.22,0.47 0.02,0.01 0.03,0.02 0.05,0.02 -0.43,0.35 -0.85,0.7 -0.85,1.29 0,0.08 0.12,0.08 0.13,0 0.01,-0.29 0.16,-0.53 0.36,-0.74 0,0.04 0.02,0.08 0.07,0.08 0.3,-0.02 0.6,-0.05 0.9,-0.1 0.29,-0.04 0.61,-0.1 0.89,-0.21 0.07,-0.03 0.04,-0.13 -0.04,-0.12 -0.29,0.05 -0.57,0.14 -0.86,0.18 -0.29,0.05 -0.59,0.08 -0.89,0.1 0.04,-0.04 0.08,-0.07 0.12,-0.11 0.27,-0.23 0.58,-0.43 0.82,-0.7 0.11,-0.13 0.21,-0.27 0.28,-0.44 0.07,-0.18 0.08,-0.37 0.07,-0.56 -0.01,-0.21 -0.05,-0.42 -0.03,-0.63 0.01,-0.04 0.02,-0.09 0.03,-0.13 0.02,0.02 0.05,0.03 0.09,0.02 0.38,-0.12 0.76,-0.24 1.14,-0.38 0.19,-0.06 0.38,-0.13 0.56,-0.21 0.19,-0.07 0.38,-0.14 0.55,-0.25 0.07,-0.05 0.02,-0.15 -0.06,-0.13 -0.19,0.04 -0.38,0.12 -0.56,0.2 -0.18,0.07 -0.37,0.14 -0.55,0.21 -0.37,0.14 -0.74,0.27 -1.11,0.39 0.03,-0.06 0.05,-0.1 0.09,-0.15 0.15,-0.23 0.39,-0.4 0.61,-0.56 0.23,-0.18 0.46,-0.35 0.63,-0.59 0.22,-0.29 0.27,-0.62 0.27,-0.98 0,-0.41 0.05,-0.8 0.22,-1.18 0.37,-0.84 1.1,-1.44 1.89,-1.86 0.06,-0.04 0.01,-0.13 -0.06,-0.1z"/>
    <path class="fil0" d="M64.24 49.05c-0.27,-0.01 -0.54,0.07 -0.78,0.21 -0.24,0.15 -0.39,0.4 -0.64,0.53 -0.26,0.15 -0.58,0.07 -0.85,0.19 -0.23,0.1 -0.42,0.3 -0.51,0.54 -0.02,0.07 0.09,0.12 0.12,0.05 0.12,-0.23 0.32,-0.39 0.57,-0.45 0.26,-0.06 0.55,-0.02 0.77,-0.18 0.22,-0.15 0.34,-0.4 0.55,-0.55 0.23,-0.16 0.5,-0.24 0.77,-0.23 0.07,0 0.07,-0.11 0,-0.11z"/>
   </g>
   <g>
    <path class="fil1" d="M6.75 48.19c0.22,0.59 0.44,1.18 0.65,1.74 0.03,0.08 0.09,0.13 0.17,0.15 0.43,0.1 0.83,0.37 1.1,0.77 0.11,0.16 0,0.37 -0.19,0.37 -1.29,0 -2.58,0 -3.84,0 -0.1,0 -0.19,-0.07 -0.22,-0.16 -0.06,-0.21 -0.08,-0.43 -0.04,-0.57 0,-0.02 0,-0.04 0,-0.07 -0.04,-0.75 -0.09,-1.51 -0.16,-2.29 0,-0.04 0.01,-0.08 0.02,-0.12 0.12,-0.24 0.31,-0.44 0.54,-0.59 0.19,-0.13 0.4,-0.22 0.61,-0.31 0.09,-0.04 0.2,-0.02 0.27,0.06 0.29,0.33 0.62,0.63 1.01,0.91 0.04,0.03 0.07,0.07 0.08,0.11z"/>
    <path class="fil1" d="M10.86 48.72c-0.16,0.53 -0.26,1.08 -0.29,1.57 -0.11,0.28 -0.16,0.59 -0.18,0.9 1.72,0.07 3.45,0.08 5.14,0.02 0.19,-0.01 0.3,-0.24 0.17,-0.39 0,0 0,0 0,0 -0.09,-0.11 -0.21,-0.18 -0.33,-0.25 -0.61,-0.38 -1.28,-0.68 -1.95,-0.86 -0.22,-0.43 -0.41,-0.86 -0.54,-1.26 -0.67,-0.12 -1.38,-0.03 -2.02,0.27z"/>
    <path class="fil2" d="M19.16 25.01c-0.05,0.11 -0.11,0.21 -0.18,0.31 -0.18,0.25 -0.48,0.43 -0.79,0.41 -0.31,-0.02 -0.58,-0.23 -0.75,-0.49 -0.17,-0.26 -0.25,-0.57 -0.33,-0.87 -0.4,-1.44 -0.86,-2.87 -1.37,-4.25 -0.1,-0.28 -0.2,-0.55 -0.31,-0.82l0 -0.01c-0.08,-0.22 -0.17,-0.45 -0.26,-0.67 0.25,-0.14 0.49,-0.28 0.74,-0.42 0.46,-0.25 0.92,-0.51 1.37,-0.77 0.07,-0.04 0.14,-0.08 0.22,-0.08 0.08,-0.01 0.19,0.01 0.25,0.17 0.08,0.23 0.16,0.46 0.23,0.7 0.28,0.9 0.52,1.83 0.75,2.75 0.26,1.05 0.53,2.11 0.58,3.1 0.02,0.32 -0.02,0.65 -0.15,0.94z"/>
    <path class="fil2" d="M7.18 18.81c-0.01,0.04 -0.03,0.08 -0.07,0.12 -0.28,0.32 -0.55,0.66 -0.8,1 -0.83,1.11 -1.51,2.31 -1.99,3.52 -0.55,0.47 -1.21,0.81 -1.91,0.97 -0.1,0.02 -0.2,0.04 -0.29,0.03 -0.1,-0.02 -0.2,-0.07 -0.2,-0.12 0.02,-1.37 0.4,-2.72 0.97,-3.97 0.41,-0.88 0.92,-1.72 1.49,-2.54 0.23,-0.33 0.47,-0.65 0.72,-0.98 0.66,0.44 1.28,0.94 1.86,1.49 0.06,0.05 0.11,0.11 0.15,0.17 0.01,0.02 0.03,0.04 0.04,0.06 0.03,0.06 0.06,0.15 0.03,0.25z"/>
    <path class="fil3" d="M7.18 18.81c-0.01,0.04 -0.03,0.08 -0.07,0.12 -0.28,0.32 -0.55,0.66 -0.8,1 -0.77,-0.57 -1.43,-1.29 -1.93,-2.11 0.23,-0.33 0.47,-0.65 0.72,-0.98 0.66,0.44 1.28,0.94 1.86,1.49 0.06,0.05 0.11,0.11 0.15,0.17 0.03,0.1 0.05,0.2 0.07,0.31z"/>
    <path class="fil4" d="M5.08 25.28c-0.82,0.94 -1.05,2.28 -0.93,3.52 0.12,1.24 0.57,2.42 0.97,3.61 0.72,2.16 1.31,4.37 1.75,6.63 -0.68,2.62 -1.36,5.24 -2.06,7.82 -0.02,0.03 -0.04,0.06 -0.06,0.09 -0.14,0.23 -0.11,0.53 0.07,0.72 0.23,0.26 0.54,0.45 0.87,0.54 0.34,0.11 0.7,0.11 1.05,0.01 0.25,-0.07 0.4,-0.33 0.32,-0.58 -0.01,-0.03 -0.03,-0.06 -0.04,-0.1 0.83,-2.36 1.75,-4.7 2.78,-6.97 0.24,-0.53 0.34,-1.11 0.3,-1.69l-0.39 -5.06c-0.1,-1.34 -0.2,-2.67 -0.32,-4 -0.08,-0.84 -0.17,-1.68 -0.44,-2.48 -0.27,-0.8 -0.75,-1.55 -1.46,-2 -0.71,-0.44 -1.84,-0.71 -2.41,-0.06z"/>
    <path class="fil3" d="M17.98 18.22c-0.56,0.81 -1.34,1.48 -2.24,1.9 -0.1,-0.28 -0.2,-0.55 -0.31,-0.82l0 -0.01c0.1,-0.38 0.26,-0.76 0.48,-1.09 0.46,-0.25 0.92,-0.51 1.37,-0.77 0.07,-0.04 0.14,-0.08 0.22,-0.08 0.08,-0.01 0.19,0.01 0.25,0.17 0.08,0.23 0.16,0.46 0.23,0.7z"/>
    <path class="fil4" d="M8.91 31.52c0.47,-0.13 0.94,-0.25 1.44,-0.38 0.35,2.83 0.5,5.68 0.45,8.53 -0.16,2.74 -0.14,5.49 0.03,8.18 -0.11,0.23 -0.19,0.48 -0.21,0.74 -0.02,0.21 0.16,0.38 0.37,0.35 0.6,-0.06 1.2,-0.16 1.81,-0.29 0.31,-0.06 0.47,-0.41 0.3,-0.67 -0.03,-0.06 -0.08,-0.12 -0.13,-0.17 0.21,-2.55 0.41,-5.1 0.63,-7.58 0.75,-4.04 1.09,-8.16 1.04,-12.27 -0.01,-0.8 -0.06,-1.66 -0.38,-2.32 -2.2,-0.16 -4.41,-0.07 -6.54,0.34 -0.55,1.89 -0.13,4.03 1.19,5.54z"/>
    <path class="fil5" d="M20.09 4.68c0.5,-0.01 0.99,0.19 1.33,0.55 0.34,0.35 0.52,0.85 0.49,1.37 -0.39,-0.13 -0.78,-0.25 -1.2,-0.4 0.39,0.37 0.4,1.03 0.13,1.51 -0.27,0.47 -0.74,0.79 -1.22,1.05 -0.48,0.25 -0.99,0.47 -1.43,0.77 0.38,0.81 0.77,1.61 0.99,2.47 0.21,0.87 0.26,1.79 -0.04,2.63 -0.04,-0.36 -0.18,-0.7 -0.4,-1.07 0.17,0.59 -0.18,1.23 -0.68,1.58 -0.5,0.35 -1.12,0.48 -1.72,0.58 -2.24,0.37 -4.53,0.55 -6.78,0.21 -1.2,-0.18 -2.43,-0.53 -3.36,-1.31 -0.94,-0.79 -1.51,-2.09 -1.11,-3.27 -0.36,0.32 -0.67,0.7 -0.92,1.11 0.06,-1.21 0.61,-2.4 1.64,-3.24 0.31,-1.27 0.62,-2.55 1.12,-3.76 0.5,-1.21 1.19,-2.36 2.18,-3.23 1.63,-1.44 3.99,-1.97 6.11,-1.48 2.13,0.48 3.98,1.94 4.87,3.93z"/>
    <path class="fil6" d="M14.88 26.17c-0.03,-1.32 -0.07,-2.63 -0.11,-3.94 0.67,-0.29 1.18,-0.8 1.43,-1.43 0.26,-0.62 0.25,-1.35 -0.02,-1.97 0.8,-0.37 1.48,-0.84 2.08,-1.39 -0.31,-0.37 -0.42,-0.86 -0.56,-1.32 -0.13,-0.47 -0.33,-0.95 -0.72,-1.23 -0.55,-0.38 -1.29,-0.25 -1.94,-0.14 -0.94,0.16 -1.89,0.24 -2.84,0.24 -1.07,-0.15 -2.25,-0.41 -3.41,-0.75 -0.61,-0.19 -1.26,-0.4 -1.88,-0.23 -0.59,0.17 -1.03,0.65 -1.38,1.15 -0.36,0.49 -0.68,1.04 -1.17,1.38 0.66,1.12 1.55,2.11 2.61,2.86 0.12,0.56 0.1,1.16 -0.04,1.68 -0.83,1.4 -1.66,2.79 -2.51,4.25 0.91,0.61 1.96,0.99 3.03,1.21 1.08,0.22 2.18,0.28 3.27,0.31 1.39,0.04 2.85,0.01 4.16,-0.68z"/>
    <path class="fil2" d="M10.57 12.6c-0.03,0.68 -0.12,1.39 -0.41,2 0.37,0.81 0.95,1.45 1.78,1.9 0.58,-0.18 1.1,-0.57 1.43,-1.04 0.03,-0.5 0.13,-1.01 0.29,-1.44 -1,-0.54 -2.03,-1 -3.09,-1.42z"/>
    <path class="fil2" d="M8.7 10.12c-0.53,0.07 -1.08,-0.05 -1.49,-0.39 -0.41,-0.33 -0.64,-0.89 -0.53,-1.41 0.12,-0.51 0.58,-0.92 1.1,-0.98 0.52,-0.06 1.06,0.25 1.21,0.76 0.54,-0.61 0.86,-1.41 0.96,-2.28 1.59,0.18 3.23,-0.01 4.74,-0.55 -0.59,0.42 -1.23,0.77 -1.96,1.03 2.14,0.27 4.36,-0.17 6.25,-1.25 0.36,1.66 0.27,3.41 -0.28,4.94 -0.08,0.71 -0.17,1.42 -0.39,2.09 -0.23,0.67 -0.62,1.31 -1.2,1.72 -0.51,0.35 -1.13,0.5 -1.75,0.56 -1.42,0.14 -2.87,-0.2 -4.09,-0.93 -1.22,-0.74 -2.19,-1.88 -2.57,-3.31z"/>
    <path class="fil2" d="M9.37 22.32c-2.11,0 -4.21,0 -6.32,-0.01 -0.41,0.21 -0.74,0.55 -0.94,0.95 -0.2,0.41 -0.26,0.88 -0.18,1.26 0.06,0.22 0.26,0.37 0.48,0.44 0.21,0.07 0.44,0.07 0.66,0.06 2.1,-0.08 4.16,-0.63 6.16,-1.16 1,0.88 2.49,1.14 3.59,0.72 0.18,-0.64 -0.04,-1.34 -0.44,-1.87 -0.2,-0.28 -0.46,-0.52 -0.73,-0.74 -0.52,-0.42 -1.27,-0.46 -1.82,-0.06 -0.16,0.12 -0.32,0.25 -0.46,0.41z"/>
    <path class="fil7" d="M4.78 22.2c-0.2,-0.05 -0.41,-0.03 -0.61,0 -0.19,0.04 -0.38,0.09 -0.57,0.16 -0.36,0.14 -0.69,0.33 -0.99,0.57 -0.06,0.04 0.02,0.12 0.08,0.08 0.29,-0.22 0.62,-0.4 0.97,-0.51 0.36,-0.12 0.73,-0.19 1.1,-0.16 0.09,0.01 0.1,-0.11 0.02,-0.14z"/>
    <path class="fil8" d="M8.22 14.78c-0.02,-0.06 -0.11,-0.04 -0.09,0.02 0.22,0.58 0.13,1.22 -0.05,1.8 -0.19,0.59 -0.47,1.16 -0.71,1.73 -0.15,0.33 -0.3,0.66 -0.45,0.99 -0.05,0.11 0.11,0.22 0.17,0.1 0.3,-0.58 0.53,-1.2 0.75,-1.81 0.22,-0.59 0.46,-1.19 0.51,-1.82 0.03,-0.34 -0.01,-0.69 -0.13,-1.01z"/>
    <path class="fil8" d="M16.23 17.57c0.05,-0.18 0.09,-0.36 0.14,-0.54 0.03,-0.08 -0.1,-0.12 -0.12,-0.04 -0.05,0.19 -0.1,0.37 -0.16,0.54 -0.05,0.17 -0.12,0.33 -0.16,0.5 -0.04,0.18 0.01,0.33 0.06,0.5 0.05,0.15 0.12,0.3 0.16,0.46 0.18,0.66 0.09,1.37 -0.12,2.01 -0.04,0.09 0.11,0.13 0.14,0.04 0.22,-0.63 0.24,-1.31 0.14,-1.96 -0.02,-0.16 -0.04,-0.33 -0.09,-0.48 -0.02,-0.08 -0.06,-0.16 -0.09,-0.24 -0.02,-0.09 -0.02,-0.19 -0.01,-0.27 0.02,-0.18 0.07,-0.35 0.11,-0.52z"/>
    <path class="fil8" d="M11.94 16.41c-0.39,-0.18 -0.7,-0.44 -0.98,-0.77 -0.14,-0.16 -0.27,-0.32 -0.39,-0.49 -0.06,-0.09 -0.12,-0.18 -0.18,-0.26 -0.07,-0.1 -0.13,-0.19 -0.15,-0.3 -0.01,-0.09 -0.17,-0.07 -0.16,0.02 0.03,0.22 0.18,0.4 0.31,0.57 0.15,0.18 0.29,0.36 0.44,0.53 0.29,0.32 0.64,0.63 1.05,0.81 0.06,0.03 0.13,-0.07 0.06,-0.11z"/>
    <path class="fil7" d="M13.55 14.25c-1.14,-0.16 -2.21,-0.75 -3.1,-1.49 -0.04,-0.03 -0.11,0.03 -0.07,0.07 0.24,0.2 0.47,0.39 0.71,0.57 0.24,0.18 0.49,0.34 0.75,0.49 0.51,0.3 1.1,0.49 1.69,0.55 0.1,0.01 0.13,-0.17 0.02,-0.19z"/>
    <path class="fil7" d="M8.31 8.57c-0.1,-0.12 -0.22,-0.24 -0.35,-0.34 -0.14,-0.09 -0.29,-0.14 -0.45,-0.16 -0.08,-0.01 -0.1,0.13 -0.02,0.15 0.13,0.02 0.25,0.08 0.35,0.16 -0.07,0.06 -0.1,0.15 -0.12,0.23 -0.02,0.12 0,0.24 0.05,0.35 0.04,0.11 0.11,0.21 0.21,0.28 0.07,0.06 0.2,0.16 0.29,0.09 0.02,-0.02 0.02,-0.05 0.01,-0.07 -0.06,-0.1 -0.07,-0.23 -0.01,-0.33 0.02,-0.02 0.03,-0.04 0.05,-0.06 0.02,-0.03 0.05,-0.05 0.07,-0.07 0.05,-0.09 -0.02,-0.17 -0.08,-0.23z"/>
    <path class="fil9" d="M12.6 47.75c-0.13,0.01 -0.25,0.04 -0.38,0.05 -0.12,0.01 -0.25,0.02 -0.38,0.01 -0.18,0 -0.35,-0.02 -0.53,-0.04 0,-2.21 0.02,-4.41 0.02,-6.61 0.01,-2.19 0.08,-4.37 -0.1,-6.55 -0.1,-1.17 -0.23,-2.34 -0.16,-3.52 0.43,-0.29 0.84,-0.6 1.23,-0.93 0.01,-0.01 0.02,-0.02 0.02,-0.03 0.09,-0.05 0.17,-0.11 0.26,-0.16 0.07,-0.04 0,-0.15 -0.06,-0.11 -0.35,0.22 -0.7,0.43 -1.06,0.62 -0.18,0.1 -0.36,0.19 -0.54,0.28 -0.18,0.09 -0.38,0.17 -0.56,0.27 -0.06,0.03 -0.05,0.11 0,0.14 0,0.08 0.01,0.16 0.02,0.24 0,0.05 0.05,0.09 0.1,0.06 0.15,-0.09 0.29,-0.18 0.43,-0.27 -0.05,1.01 0.05,2.02 0.14,3.02 0.1,1.08 0.15,2.16 0.16,3.25 0.01,2.2 -0.01,4.39 -0.02,6.59 -0.01,1.22 -0.01,2.45 -0.02,3.68 -0.03,-0.01 -0.06,-0.01 -0.09,-0.02 -0.08,-0.02 -0.11,0.09 -0.03,0.11 0.02,0 0.04,0.01 0.06,0.01 -0.07,0.16 -0.1,0.32 -0.1,0.49 0,0.17 0.03,0.35 0.1,0.5 0.03,0.06 0.12,0.02 0.1,-0.04 -0.01,-0.07 -0.04,-0.14 -0.04,-0.22 -0.01,-0.08 -0.02,-0.15 -0.01,-0.23 0.01,-0.15 0.05,-0.3 0.11,-0.43 0.01,-0.01 0.01,-0.02 0.01,-0.03 0.18,0.03 0.36,0.05 0.55,0.05 0.13,0 0.26,0 0.39,-0.01 0.13,-0.01 0.27,-0.02 0.39,-0.06 0.06,-0.02 0.05,-0.11 -0.01,-0.11z"/>
    <path class="fil9" d="M7.44 38.82c0.01,-0.01 0.02,-0.03 0.01,-0.04 -0.16,-0.86 -0.4,-1.71 -0.64,-2.55 -0.25,-0.85 -0.5,-1.69 -0.74,-2.53 -0.25,-0.84 -0.5,-1.68 -0.72,-2.53 -0.2,-0.82 -0.39,-1.64 -0.51,-2.48 -0.03,-0.23 -0.05,-0.46 -0.06,-0.69 0.13,-0.06 0.25,-0.15 0.36,-0.24 0.14,-0.1 0.27,-0.22 0.39,-0.34 0.23,-0.25 0.44,-0.52 0.61,-0.82 0.04,-0.06 -0.06,-0.12 -0.1,-0.06 -0.17,0.29 -0.38,0.54 -0.62,0.76 -0.12,0.1 -0.24,0.2 -0.37,0.3 -0.09,0.06 -0.18,0.11 -0.28,0.17 0,-0.59 0.1,-1.18 0.37,-1.72 0.03,-0.06 -0.06,-0.12 -0.1,-0.05 -0.29,0.57 -0.4,1.21 -0.4,1.85 0,0.01 -0.01,0.01 -0.01,0.01 -0.04,0.03 -0.06,0.08 -0.04,0.12 0.01,0.02 0.03,0.04 0.05,0.05 0,0.09 0.01,0.18 0.01,0.26 0.06,0.84 0.26,1.66 0.47,2.48 0.44,1.72 0.99,3.41 1.48,5.12 0.28,0.96 0.51,1.94 0.74,2.92 0,0 0,0 0,0 -0.02,0.01 -0.03,0.02 -0.04,0.04 -0.71,2.14 -1.14,4.36 -1.77,6.52 -0.17,0.57 -0.35,1.13 -0.56,1.68 -0.02,-0.01 -0.04,-0.03 -0.06,-0.04 -0.06,-0.05 -0.14,0.03 -0.09,0.08 0.03,0.03 0.06,0.05 0.09,0.07 0,0.02 -0.01,0.03 -0.02,0.05 0,0.02 -0.01,0.05 -0.02,0.07 -0.01,0.05 -0.03,0.1 -0.03,0.15 -0.01,0.1 -0.01,0.19 0.01,0.29 0.02,0.07 0.13,0.04 0.11,-0.03 -0.02,-0.08 -0.03,-0.17 -0.01,-0.25 0,-0.04 0.01,-0.08 0.03,-0.12 0.01,-0.02 0.01,-0.04 0.02,-0.05 0.01,-0.01 0.01,-0.02 0.02,-0.03 0.21,0.16 0.44,0.28 0.7,0.36 0.32,0.1 0.69,0.16 1.02,0.09 0.08,-0.02 0.07,-0.15 -0.02,-0.14 -0.32,0 -0.63,0.01 -0.95,-0.08 -0.25,-0.07 -0.49,-0.19 -0.7,-0.34 0.78,-2.09 1.21,-4.29 1.82,-6.44 0.17,-0.6 0.36,-1.2 0.57,-1.79 0.01,-0.03 0,-0.06 -0.02,-0.08z"/>
    <path class="fil10" d="M14.37 27.72c-0.05,-0.12 -0.1,-0.23 -0.16,-0.34 -0.11,-0.23 -0.27,-0.42 -0.45,-0.59 -0.07,-0.06 -0.17,0.04 -0.1,0.1 0.17,0.16 0.31,0.35 0.43,0.55 0.06,0.09 0.11,0.2 0.15,0.3 0.03,0.06 0.05,0.11 0.06,0.17 0.02,0.06 0.03,0.12 0.05,0.17 0.03,0.06 0.12,0.06 0.12,-0.01 -0.01,-0.12 -0.06,-0.24 -0.1,-0.35z"/>
    <path class="fil9" d="M10.73 27.21c-0.01,-0.1 -0.16,-0.1 -0.16,0 0,0.34 0.02,0.67 0.02,1 -0.01,0.32 -0.02,0.64 -0.05,0.96 -0.03,0.32 -0.06,0.64 -0.13,0.96 -0.01,0.07 -0.03,0.13 -0.08,0.18 -0.05,0.05 -0.15,0.08 -0.22,0.1 -0.13,0.03 -0.25,0.05 -0.38,0.06 0,-0.54 -0.01,-1.08 -0.02,-1.61 -0.01,-0.57 -0.01,-1.14 -0.02,-1.7 0,-0.07 -0.11,-0.07 -0.11,0 0,0.56 0,1.13 -0.01,1.7 0,0.56 -0.02,1.13 -0.01,1.69 0,0.05 0.04,0.09 0.08,0.09 0.17,-0.02 0.34,-0.06 0.5,-0.11 0.07,-0.03 0.13,-0.06 0.2,-0.08 0.07,-0.03 0.13,-0.03 0.18,-0.1 0.04,-0.05 0.04,-0.11 0.04,-0.18 0.02,-0.08 0.03,-0.17 0.04,-0.26 0.02,-0.18 0.05,-0.35 0.07,-0.53 0.07,-0.71 0.13,-1.45 0.06,-2.17z"/>
    <path class="fil11" d="M18.92 5.03c-0.35,0.21 -0.73,0.38 -1.11,0.55 -0.38,0.16 -0.77,0.3 -1.17,0.4 -0.8,0.21 -1.61,0.33 -2.44,0.34 -0.47,0 -0.93,-0.03 -1.39,-0.09 -0.12,-0.02 -0.17,0.16 -0.05,0.17 1.67,0.25 3.4,0.04 4.96,-0.59 0.45,-0.18 0.87,-0.4 1.28,-0.64 0.09,-0.05 0.01,-0.19 -0.08,-0.14z"/>
    <path class="fil11" d="M14.73 5.22c-0.02,-0.03 -0.06,-0.04 -0.09,-0.02 -0.04,0.02 -0.08,0.03 -0.11,0.05 -0.03,0.01 -0.06,0.03 -0.09,0.05 -0.23,0.1 -0.48,0.16 -0.72,0.23 -0.29,0.07 -0.58,0.13 -0.87,0.18 -0.61,0.09 -1.22,0.14 -1.83,0.11 -0.34,-0.01 -0.68,-0.04 -1.02,-0.08 -0.08,-0.01 -0.1,0.13 -0.02,0.14 1.23,0.18 2.49,0.13 3.69,-0.17 0.3,-0.07 0.59,-0.18 0.86,-0.31 0.01,-0.01 0.02,-0.01 0.02,-0.01 0.03,-0.02 0.05,-0.03 0.07,-0.04 0,0 0.01,0 0.01,0 0.02,-0.01 0.05,-0.03 0.07,-0.04 0.03,-0.02 0.04,-0.06 0.03,-0.09z"/>
    <path class="fil12" d="M7.47 49.98c-0.23,-0.07 -0.49,-0.05 -0.73,-0.02 -0.23,0.02 -0.47,0.08 -0.7,0.14 -0.45,0.13 -0.89,0.31 -1.28,0.58 -0.06,0.04 0,0.14 0.06,0.1 0.37,-0.26 0.79,-0.43 1.23,-0.54 0.21,-0.05 0.43,-0.09 0.65,-0.13 0.25,-0.04 0.49,-0.04 0.74,0 0.08,0.01 0.12,-0.1 0.03,-0.13z"/>
    <path class="fil12" d="M14.28 49.99c-0.09,-0.03 -0.2,-0.01 -0.29,-0.01 -0.1,0.01 -0.19,0.02 -0.29,0.03 -0.2,0.04 -0.39,0.1 -0.58,0.18 -0.37,0.15 -0.7,0.37 -1,0.63 -0.05,0.05 0.03,0.13 0.08,0.08 0.29,-0.25 0.62,-0.44 0.99,-0.56 0.17,-0.06 0.35,-0.11 0.53,-0.14 0.09,-0.02 0.18,-0.04 0.27,-0.05 0.09,-0.01 0.2,-0.01 0.29,-0.03 0.06,-0.02 0.06,-0.12 0,-0.13z"/>
    <path class="fil5" d="M13.46 8.87c-0.09,-0.13 -0.15,-0.28 -0.27,-0.39 -0.12,-0.11 -0.24,-0.22 -0.4,-0.27 -0.29,-0.11 -0.6,0.01 -0.85,0.17 -0.01,-0.01 -0.03,-0.03 -0.04,-0.04 -0.01,-0.02 -0.02,-0.03 -0.03,-0.05 -0.01,-0.02 -0.01,-0.05 -0.02,-0.08 0,0 0,-0.01 0,-0.01 0,-0.06 -0.05,-0.12 -0.11,-0.12 -0.07,0.01 -0.12,0.06 -0.12,0.12 0,0.05 0.01,0.09 0.02,0.14 0.01,0.04 0.03,0.08 0.06,0.12 0.02,0.04 0.05,0.08 0.08,0.12 0.01,0.02 0.03,0.03 0.06,0.05 0.01,0.01 0.02,0.01 0.03,0.02 0.04,0.04 0.1,0.05 0.16,0.01 0.09,-0.07 0.2,-0.12 0.32,-0.14 0.13,-0.01 0.25,0 0.37,0.04 0.11,0.03 0.2,0.08 0.29,0.15 0.1,0.09 0.22,0.17 0.31,0.27 0.07,0.07 0.2,-0.03 0.14,-0.11z"/>
    <path class="fil5" d="M18.39 9.14c-0.01,-0.03 -0.03,-0.06 -0.05,-0.07 -0.06,-0.03 -0.13,-0.02 -0.17,0.04 -0.01,0.02 -0.03,0.05 -0.05,0.07 -0.03,0.04 -0.06,0.08 -0.1,0.11 -0.1,-0.23 -0.33,-0.37 -0.58,-0.39 -0.17,0 -0.33,0.06 -0.48,0.12 -0.16,0.06 -0.31,0.13 -0.45,0.23 -0.06,0.05 -0.09,0.12 -0.05,0.19 0.04,0.06 0.13,0.09 0.19,0.05 0.11,-0.07 0.22,-0.13 0.34,-0.17 0.12,-0.05 0.26,-0.1 0.39,-0.11 0.18,0 0.35,0.14 0.45,0.3 0.02,0.04 0.07,0.06 0.12,0.06 0.01,0 0.01,0.01 0.02,0.01 0.07,0 0.13,-0.04 0.17,-0.08 0.03,-0.02 0.06,-0.05 0.09,-0.08 0.05,-0.05 0.11,-0.12 0.15,-0.19 0.01,-0.03 0.02,-0.06 0.01,-0.09z"/>
    <path class="fil5" d="M18.25 7.39c-0.08,-0.23 -0.3,-0.4 -0.54,-0.43 -0.23,-0.04 -0.43,0.04 -0.62,0.15 -0.03,0.02 -0.05,0.03 -0.08,0.05 -0.01,0.01 -0.02,0.02 -0.03,0.03 -0.01,0.01 -0.02,0.02 -0.03,0.02 -0.06,0.06 0.02,0.17 0.09,0.13 0.01,0.01 0.03,0.01 0.05,0 0.1,-0.04 0.19,-0.09 0.3,-0.11 0.08,-0.02 0.16,-0.01 0.24,0 0.17,0.04 0.33,0.13 0.45,0.26 0.06,0.07 0.2,0 0.17,-0.1z"/>
    <path class="fil13" d="M11.6 8.88c-0.09,-0.08 -0.18,-0.16 -0.28,-0.23 -0.01,-0.01 -0.02,-0.02 -0.04,-0.02 -0.02,0 -0.03,0.01 -0.04,0.02 -0.03,0.02 -0.03,0.06 0,0.09 0.08,0.08 0.17,0.16 0.26,0.24 0.02,0.03 0.07,0.03 0.1,0 0.02,-0.03 0.02,-0.07 0,-0.1z"/>
    <path class="fil13" d="M11.15 8.82c-0.11,-0.1 -0.24,-0.2 -0.38,-0.26 -0.03,0 -0.06,0.01 -0.08,0.03 -0.01,0.03 -0.01,0.06 0.01,0.08 0.06,0.05 0.12,0.09 0.18,0.13 0.01,0.01 0.02,0.01 0.02,0.02 0.01,0 0.01,0 0.01,0.01 0.01,0 0.01,0 0.01,0 0.01,0.01 0.02,0.02 0.04,0.03 0.02,0.02 0.05,0.05 0.08,0.07 0.03,0.03 0.08,0.04 0.11,0 0.03,-0.03 0.03,-0.08 0,-0.11z"/>
    <path class="fil13" d="M10.68 8.71c-0.04,-0.03 -0.07,-0.06 -0.1,-0.08 -0.02,-0.02 -0.04,-0.04 -0.07,-0.05 -0.02,-0.01 -0.03,-0.03 -0.05,-0.04 -0.02,0 -0.03,-0.01 -0.05,0 -0.02,0 -0.04,0 -0.05,0.02 -0.01,0.01 -0.01,0.02 -0.02,0.03 0,0.02 0,0.05 0.01,0.06 0.01,0.01 0.02,0.03 0.03,0.04 0.01,0 0.02,0.01 0.02,0.02 0.02,0.01 0.04,0.03 0.05,0.04l0.11 0.08c0.01,0.02 0.03,0.03 0.06,0.03 0.02,0 0.04,-0.01 0.06,-0.03 0.01,-0.01 0.02,-0.04 0.02,-0.06 0,-0.02 0,-0.05 -0.02,-0.06z"/>
    <path class="fil13" d="M18.47 9.74c-0.01,-0.03 -0.04,-0.04 -0.07,-0.04 -0.06,0.01 -0.12,0.03 -0.17,0.05 -0.06,0.03 -0.11,0.05 -0.17,0.08 -0.03,0.02 -0.04,0.06 -0.02,0.09 0.02,0.03 0.05,0.04 0.08,0.02 0.05,-0.03 0.1,-0.05 0.16,-0.07 0,-0.01 0.01,-0.01 0.01,-0.01 0,0 0.01,0 0.02,-0.01 0.01,0 0.02,-0.01 0.03,-0.01 0.03,-0.01 0.06,-0.02 0.09,-0.03 0.02,-0.01 0.05,-0.04 0.04,-0.07z"/>
    <path class="fil13" d="M18.66 9.89c-0.01,-0.01 -0.03,-0.03 -0.05,-0.03 -0.03,0 -0.06,0.02 -0.08,0.03 -0.03,0.01 -0.05,0.02 -0.08,0.02 -0.05,0.02 -0.1,0.04 -0.15,0.05 -0.03,0.01 -0.05,0.04 -0.04,0.08 0.01,0.03 0.04,0.05 0.08,0.04 0.05,-0.01 0.1,-0.03 0.15,-0.05 0.03,-0.01 0.06,-0.02 0.08,-0.03 0.03,-0.01 0.06,-0.02 0.08,-0.05 0.02,-0.01 0.02,-0.04 0.01,-0.06z"/>
    <path class="fil14" d="M15.98 11.01c-0.09,0.54 -0.33,1.05 -0.69,1.46 -0.06,0.07 -0.12,0.13 -0.19,0.19 -0.19,0.17 -0.42,0.32 -0.67,0.31 -0.31,-0.02 -0.56,-0.27 -0.73,-0.54 -0.15,-0.25 -0.26,-0.52 -0.33,-0.8 -0.08,-0.35 -0.09,-0.71 -0.03,-1.06 0.83,0.3 1.74,0.46 2.64,0.44z"/>
    <path class="fil15" d="M12.29 23.32l-1.51 -3.86c-0.06,-0.16 0.02,-0.35 0.19,-0.42 0.17,-0.06 0.36,0.02 0.42,0.19l1.5 3.86c0.07,0.16 -0.01,0.35 -0.18,0.42 -0.17,0.07 -0.36,-0.02 -0.42,-0.19z"/>
    <path class="fil16" d="M15.29 12.47c-0.06,0.07 -0.12,0.13 -0.19,0.19 -0.19,0.17 -0.42,0.32 -0.67,0.31 -0.31,-0.02 -0.56,-0.27 -0.73,-0.54 -0.15,-0.25 -0.26,-0.52 -0.33,-0.8 0.4,-0.15 0.86,-0.12 1.24,0.08 0.3,0.16 0.54,0.43 0.68,0.76z"/>
    <path class="fil5" d="M13.56 6.96c-0.08,-0.22 -0.26,-0.38 -0.48,-0.45 -0.23,-0.07 -0.47,-0.03 -0.68,0.07 0,0 -0.01,0 -0.01,0 -0.01,0.01 -0.03,0.02 -0.03,0.02 -0.02,0.01 -0.03,0.02 -0.05,0.02 -0.09,0.06 -0.01,0.21 0.09,0.16 0.01,-0.01 0.01,-0.01 0.02,-0.01 0.09,-0.01 0.17,-0.03 0.27,-0.02 0.08,0 0.17,0.01 0.26,0.04 0.17,0.05 0.32,0.14 0.44,0.27 0.07,0.08 0.21,0 0.17,-0.1z"/>
    <path class="fil17" d="M19.19 21.01l-0.01 0.02 -3.54 6.84c-0.03,0.06 -0.09,0.09 -0.15,0.09l-4.92 -0.31c-0.34,-0.02 -0.61,-0.23 -0.76,-0.52 -0.15,-0.28 -0.18,-0.65 -0.02,-0.99l2.4 -5.17c0.17,-0.36 0.52,-0.58 0.88,-0.56l5.98 0.32c0.13,0.01 0.2,0.16 0.14,0.28z"/>
    <path class="fil18" d="M19.18 21.03l-3.54 6.84c-0.03,0.06 -0.09,0.09 -0.15,0.09l-4.92 -0.31c-0.34,-0.02 -0.61,-0.23 -0.76,-0.52 0.01,-0.14 0.04,-0.29 0.11,-0.43l2.51 -5.4c0.18,-0.38 0.54,-0.61 0.92,-0.59l5.83 0.32z"/>
    <path class="fil2" d="M18.66 24.4c0.18,-0.12 0.26,-0.39 0.17,-0.59 -0.05,-0.12 -0.16,-0.21 -0.27,-0.29 -0.21,-0.14 -0.46,-0.24 -0.68,-0.28 -0.55,-0.04 -1.11,0.02 -1.63,0.18 -0.13,0.03 -0.27,0.09 -0.31,0.21 -0.04,0.11 0.02,0.24 0.12,0.31 0.09,0.07 0.21,0.1 0.3,0.15 -0.12,0.03 -0.21,0.13 -0.25,0.24 -0.03,0.11 0,0.24 0.08,0.35 -0.12,0.03 -0.22,0.13 -0.25,0.25 -0.03,0.12 0.01,0.25 0.1,0.35 -0.11,0.04 -0.16,0.19 -0.13,0.3 0.04,0.11 0.13,0.2 0.22,0.28 0.26,0.22 0.56,0.4 0.84,0.54 0.52,0.03 1.05,-0.13 1.43,-0.43 0.04,-0.11 0.04,-0.24 0,-0.36 0.17,-0.11 0.22,-0.38 0.09,-0.56 0.2,-0.15 0.26,-0.44 0.17,-0.65z"/>
    <path class="fil7" d="M17.89 24.12c-0.5,-0.07 -1,-0.11 -1.51,-0.11 -0.09,0 -0.09,0.15 0,0.15 0.49,0 0.98,0.04 1.47,0.1 0.09,0.02 0.13,-0.12 0.04,-0.14z"/>
    <path class="fil7" d="M17.7 24.89c-0.24,-0.04 -0.49,-0.06 -0.73,-0.1 -0.25,-0.04 -0.49,-0.08 -0.73,-0.13 -0.06,-0.01 -0.09,0.08 -0.03,0.09 0.25,0.06 0.49,0.12 0.74,0.17 0.24,0.04 0.49,0.09 0.74,0.1 0.07,0.01 0.09,-0.11 0.01,-0.13z"/>
    <path class="fil7" d="M17.52 25.62c-0.12,-0.03 -0.25,-0.04 -0.37,-0.06 -0.12,-0.02 -0.24,-0.04 -0.36,-0.07 -0.24,-0.06 -0.48,-0.13 -0.71,-0.24 -0.06,-0.02 -0.11,0.07 -0.05,0.1 0.23,0.1 0.47,0.2 0.72,0.26 0.12,0.04 0.24,0.07 0.37,0.09 0.12,0.02 0.26,0.04 0.38,0.03 0.07,0 0.09,-0.1 0.02,-0.11z"/>
    <path class="fil7" d="M18.46 23.39c-0.32,-0.19 -0.69,-0.26 -1.05,-0.25 -0.24,0.01 -0.48,0.05 -0.71,0.09 -0.23,0.05 -0.46,0.1 -0.68,0.19 -0.07,0.02 -0.04,0.14 0.03,0.11 0.17,-0.06 0.35,-0.09 0.53,-0.12 0.2,-0.04 0.39,-0.08 0.59,-0.1 0.35,-0.03 0.71,-0.02 1.04,0.12 0.28,0.12 0.65,0.37 0.52,0.72 -0.03,0.07 -0.08,0.13 -0.12,0.2 -0.04,0.07 -0.02,0.13 0.01,0.19 0.04,0.09 0.03,0.18 -0.01,0.26 -0.04,0.08 -0.11,0.14 -0.15,0.22 -0.05,0.09 0.02,0.14 0.04,0.22 0.02,0.07 -0.04,0.14 -0.07,0.19 -0.04,0.06 -0.08,0.13 -0.09,0.2 0,0.03 -0.01,0.07 0,0.11 0,0.04 0.03,0.11 0,0.14 -0.06,0.06 0.03,0.16 0.1,0.1 0.05,-0.06 0.06,-0.12 0.05,-0.19 0,-0.09 0.01,-0.14 0.05,-0.22 0.07,-0.12 0.14,-0.25 0.09,-0.39 -0.01,-0.05 -0.02,-0.08 0.01,-0.13 0.02,-0.04 0.05,-0.08 0.07,-0.12 0.04,-0.08 0.06,-0.16 0.07,-0.24 0,-0.04 0,-0.08 0,-0.12 -0.01,-0.04 -0.03,-0.09 -0.02,-0.13 0.01,-0.03 0.05,-0.07 0.06,-0.1 0.03,-0.05 0.05,-0.1 0.07,-0.15 0.11,-0.34 -0.16,-0.64 -0.43,-0.8z"/>
   </g>
   <g>
    <path class="fil19" d="M28.06 48.59c0.11,0.22 0.24,0.42 0.3,0.61 0.68,0.4 1.28,0.93 1.76,1.55 0.15,0.19 0.01,0.48 -0.24,0.49 -1.38,0.03 -2.76,-0.04 -4.11,-0.19 -0.09,-0.39 -0.11,-0.78 -0.05,-1.07 -0.03,-0.3 -0.06,-0.59 -0.11,-0.92 0.74,-0.42 1.63,-0.59 2.45,-0.47z"/>
    <path class="fil20" d="M26.28 18.92c1.38,0.36 2.72,0.85 4.08,1.47 1.29,0.36 2.6,0.47 3.92,0.49 -0.16,1.17 -0.58,2.31 -1.19,3.24 0.06,0.43 0.11,0.89 -0.12,1.26 -0.34,0.58 -1.16,0.65 -1.62,1.09 -0.23,0.43 -0.41,0.89 -0.53,1.35 0.26,0.94 0.41,1.9 0.52,2.9 -1.67,0.62 -3.51,0.76 -5.26,0.41 -1.75,-0.35 -3.39,-1.19 -4.7,-2.37 0.71,-1.08 1.6,-2.05 2.53,-2.76 0.61,-1.04 1.04,-2.18 1.29,-3.25 -0.08,-0.69 -0.16,-1.39 -0.08,-2.08 0.07,-0.7 0.37,-1.32 1.16,-1.75z"/>
    <path class="fil3" d="M36.9 29.56c0.32,0.35 0.68,0.67 1.09,0.98 0.28,-0.25 0.69,-0.27 1.06,-0.23 0.37,0.03 0.75,0.11 1.12,0.01 0.13,-0.03 0.26,-0.09 0.4,-0.1 0.14,0 0.3,0.07 0.33,0.2 0.02,0.09 -0.02,0.19 -0.09,0.26 -0.06,0.06 -0.14,0.11 -0.23,0.15 -0.34,0.15 -0.7,0.26 -1.15,0.32 0.62,0.2 1.27,0.32 1.87,0.37 0.5,-0.23 1.01,-0.45 1.51,-0.68 0.08,-0.04 0.17,-0.08 0.26,-0.08 0.08,0 0.18,0.03 0.22,0.11 0.04,0.07 0.02,0.16 -0.02,0.23 -0.04,0.07 -0.1,0.12 -0.17,0.17 -0.8,0.62 -1.72,1.09 -2.69,1.32 -1.24,-0.11 -2.47,-0.36 -3.59,-0.73 -0.64,-0.32 -1.22,-0.75 -1.67,-1.25 0.57,-0.34 1.15,-0.68 1.75,-1.05z"/>
    <path class="fil20" d="M32.52 24.91c-0.07,-1.48 0.26,-2.97 0.95,-4.27 0.25,-0.24 0.65,-0.2 0.92,-0.01 0.27,0.19 0.43,0.5 0.51,0.83 0.08,0.32 0.08,0.65 0.09,0.99 0.05,1.72 0.35,3.44 0.87,5.08 0.29,0.5 0.69,1 1.15,1.43 0.06,0.01 0.14,0.07 0.22,0.14 0.14,0.14 0.14,0.37 -0.01,0.51 -0.63,0.61 -1.4,1.07 -2.23,1.31 -0.18,0.04 -0.37,-0.03 -0.45,-0.19 -0.05,-0.1 -0.08,-0.22 -0.07,-0.34 -0.47,-0.87 -0.95,-1.74 -1.37,-2.46 -0.36,-0.98 -0.53,-2.01 -0.58,-3.02z"/>
    <path class="fil19" d="M22.03 49.65c-0.22,0.43 -0.33,0.92 -0.3,1.47 1.56,0.1 3.11,0.13 4.68,0.13 0.26,0 0.4,-0.31 0.23,-0.5 -0.41,-0.49 -0.95,-0.87 -1.49,-1.07 -0.08,-0.2 -0.2,-0.38 -0.31,-0.51 -0.96,-0.26 -2.38,-0.39 -2.81,0.48z"/>
    <path class="fil2" d="M32.32 20.43c-0.33,0.12 -0.6,0.37 -0.8,0.65 -0.2,0.29 -0.34,0.61 -0.48,0.97 -0.09,0.14 -0.19,0.27 -0.29,0.4 -0.23,0.31 -0.69,0.34 -0.95,0.05 -0.31,-0.34 -0.53,-0.74 -0.64,-1.12 -0.17,-0.58 -0.16,-1.21 0.02,-1.81 0.76,0.28 1.57,0.45 2.39,0.51 0.14,0.01 0.29,0.01 0.43,0.07 0.13,0.05 0.26,0.15 0.32,0.28z"/>
    <path class="fil21" d="M26.05 30.65c0.48,2.54 0.88,5.11 1.22,7.6 0.09,0.59 0.03,1.19 -0.14,1.76 -0.88,2.87 -1.65,5.77 -2.28,8.67 0.13,0.19 0.22,0.41 0.31,0.71 -1.17,-0.19 -2.41,0.02 -3.4,0.56 -0.15,-0.16 -0.12,-0.42 -0.01,-0.6 0.12,-0.18 0.3,-0.31 0.48,-0.4 0.45,-3.12 1.08,-6.21 1.9,-9.22 0.13,-0.47 0.09,-0.97 -0.12,-1.41 -0.89,-1.86 -1.75,-3.74 -2.39,-5.71 -0.23,-0.73 -0.44,-1.48 -0.43,-2.25 0.01,-0.77 0.26,-1.56 0.88,-2.1 1.44,0.53 2.77,1.34 3.98,2.39z"/>
    <path class="fil21" d="M26.15 33.54c0.46,-0.28 0.92,-0.55 1.38,-0.85 -0.82,5.3 -1.52,10.62 -2.09,15.95 -0.12,0.27 -0.1,0.6 0.13,0.84 0.88,-0.37 1.8,-0.65 2.72,-0.81 0.06,-0.26 -0.04,-0.55 -0.19,-0.71 0.63,-3.03 1.26,-6.06 1.87,-8.91 0.66,-1.88 1.12,-3.81 1.38,-5.78 0.12,-0.94 0.17,-1.97 -0.33,-2.65 -1.77,-0.44 -3.65,-0.42 -5.35,0.04 -0.13,1.02 0.02,2.08 0.48,2.88z"/>
    <path class="fil5" d="M35.51 15.49c0.91,-0.34 1.83,-0.72 2.54,-1.39 0.71,-0.67 1.17,-1.69 0.91,-2.63 -0.16,-0.6 -0.59,-1.11 -1.13,-1.43 -0.54,-0.32 -1.17,-0.45 -1.82,-0.46 -0.5,-0.8 -1.34,-1.32 -2.21,-1.68 -1.98,-0.85 -4.31,-1.01 -6.3,-0.17 -1.99,0.85 -3.54,2.79 -3.64,4.95 -0.07,1.53 0.63,3.11 1.92,3.92 0.82,0.51 1.8,0.69 2.76,0.71 1.63,0.04 3.27,-0.36 4.7,-1.15 0.65,-0.36 1.33,-0.81 2.27,-0.67z"/>
    <path class="fil5" d="M27.38 8.32c0.78,-1.07 0.85,-2.6 0.19,-3.74 -0.13,0.47 -0.26,0.95 -0.38,1.43 -0.28,-0.62 -0.96,-0.93 -1.59,-1.16 -0.47,-0.17 -1.01,-0.33 -1.48,-0.12 -0.33,0.14 -0.56,0.46 -0.77,0.76 -0.59,0.84 -1.18,1.68 -1.7,2.57 -0.2,0.34 -0.39,0.7 -0.39,1.09 0,0.53 0.36,1 0.82,1.26 0.45,0.25 1,0.31 1.52,0.28 1.46,-0.07 2.73,-0.91 3.78,-2.37z"/>
    <path class="fil22" d="M26.45 18.95c0.34,0 0.67,0.08 0.98,0.22 0.18,0.08 0.3,0.24 0.33,0.44 0.17,1.13 0.24,2.27 0.22,3.4 1.27,0.43 2.64,0.58 3.99,0.52 0.44,-0.87 0.67,-1.85 0.66,-2.8 0.31,-0.08 0.64,-0.04 0.89,0.14 0.02,0.95 -0.12,1.91 -0.37,2.8 0.17,0.54 0.34,1.14 0.11,1.66 -0.16,0.35 -0.47,0.6 -0.8,0.81 -0.33,0.21 -0.67,0.39 -0.96,0.57 -0.19,0.46 -0.32,0.96 -0.32,1.55 0.75,5.49 0.65,11.09 -0.26,16.57 -2.96,0.65 -6.15,0.23 -8.8,-1.12 -0.03,-0.23 -0.02,-0.47 0.02,-0.64 0.36,-4.82 0.1,-9.68 -0.78,-14.36 0.13,-0.24 0.28,-0.47 0.51,-0.71 0.67,-0.14 1.35,-0.31 1.97,-0.62 0.62,-0.3 1.19,-0.76 1.52,-1.36 0.37,-0.64 0.45,-1.4 0.53,-2.13 0.17,-1.62 0.34,-3.25 0.56,-4.94z"/>
    <path class="fil2" d="M26.92 17.77c-0.43,0.32 -1.02,0.4 -1.5,0.19 -0.49,-0.22 -0.83,-0.73 -0.81,-1.26 0.02,-0.53 0.41,-1.03 0.93,-1.14 0.51,-0.12 1.1,0.18 1.23,0.73 0.43,-0.69 0.51,-1.59 0.23,-2.4 2.74,-0.27 5.39,-1.47 7.4,-3.38 -0.61,0.85 -1.33,1.62 -2.15,2.28 1.33,-0.33 2.54,-1.13 3.43,-2.2 0.95,1.65 1.24,3.68 0.84,5.57 -0.08,0.93 -0.16,1.86 -0.49,2.73 -0.33,0.87 -0.94,1.67 -1.79,2.02 -0.76,0.31 -1.61,0.24 -2.41,0.07 -1.95,-0.4 -3.85,-1.4 -4.91,-3.21z"/>
    <path class="fil2" d="M31.25 28.11c0.38,-0.02 0.75,-0.07 1.1,-0.08 0.51,-0.44 1.05,-0.84 1.61,-1.18 0.75,-0.01 1.51,0.15 2.16,0.47 0.23,0.07 0.45,0.21 0.61,0.4 0.06,0.08 0.11,0.18 0.05,0.26 -0.03,0.05 -0.1,0.07 -0.15,0.06 -0.06,-0.01 -0.12,-0.04 -0.17,-0.06 -0.36,-0.18 -0.76,-0.29 -1.18,-0.28 0.37,0.15 0.75,0.29 1.12,0.44 0.09,0.04 0.19,0.07 0.27,0.14 0.08,0.07 0.13,0.17 0.11,0.27 -0.02,0.1 -0.12,0.19 -0.23,0.17 0.08,0.1 0.06,0.26 -0.04,0.34 -0.1,0.08 -0.25,0.07 -0.38,0.05 -0.26,-0.04 -0.51,-0.08 -0.75,-0.09 0.26,0.1 0.52,0.23 0.77,0.38 0.06,0.04 0.13,0.1 0.11,0.17 -0.03,0.08 -0.13,0.08 -0.21,0.07 -0.47,-0.06 -0.94,-0.12 -1.37,-0.19 -0.53,0.05 -1.02,0.38 -1.55,0.35 -0.24,-0.02 -0.46,-0.1 -0.62,-0.17 -0.61,0.05 -1.21,0.07 -1.82,0.03 0.27,-0.5 0.48,-1.04 0.56,-1.55z"/>
    <path class="fil2" d="M36.81 31.85c0.19,-0.31 0.53,-0.58 0.89,-0.61 0.36,-0.04 0.74,0.11 1,0.42 0.21,-0.25 0.41,-0.51 0.61,-0.76 0.06,-0.07 0.11,-0.14 0.19,-0.18 0.08,-0.04 0.19,-0.04 0.25,0.02 0.07,0.07 0.06,0.19 0.04,0.28 -0.08,0.35 -0.2,0.68 -0.37,0.97 0.26,-0.37 0.52,-0.75 0.78,-1.13 0.07,-0.1 0.18,-0.22 0.3,-0.18 0.12,0.03 0.16,0.18 0.16,0.31 -0.01,0.36 -0.15,0.71 -0.31,0.97 0.43,-0.42 0.77,-0.71 1.23,-1.17 0.06,-0.07 0.15,-0.1 0.24,-0.11 0.09,-0.01 0.2,0.03 0.23,0.11 0.03,0.08 -0.01,0.17 -0.04,0.24 -0.39,0.76 -0.77,1.46 -1.42,1.98 -0.38,0.15 -0.81,0.02 -1.19,-0.1 -0.9,-0.3 -1.81,-0.54 -2.59,-1.06z"/>
    <path class="fil7" d="M26.46 17.32c-0.08,-0.03 -0.17,-0.15 -0.17,-0.24 0.01,-0.07 0.07,-0.14 0.14,-0.14 0.07,0.01 0.13,-0.09 0.09,-0.15 -0.13,-0.16 -0.28,-0.3 -0.47,-0.39 -0.2,-0.08 -0.43,-0.11 -0.64,-0.03 -0.05,0.02 -0.08,0.06 -0.07,0.12 0.01,0.04 0.07,0.08 0.12,0.06 0.09,-0.04 0.18,-0.05 0.28,-0.04 -0.04,0.06 -0.07,0.15 -0.08,0.22 -0.02,0.16 -0.02,0.32 0.04,0.47 0.06,0.14 0.18,0.25 0.32,0.3 0.14,0.06 0.35,0.06 0.47,-0.04 0.06,-0.04 0.02,-0.13 -0.03,-0.14z"/>
    <path class="fil11" d="M35.62 10.55c-0.15,0.23 -0.34,0.43 -0.53,0.62 -0.19,0.2 -0.39,0.37 -0.61,0.53 -0.46,0.33 -0.98,0.59 -1.51,0.8 -0.31,0.12 -0.63,0.22 -0.95,0.31 -0.12,0.04 -0.07,0.24 0.06,0.2 1.12,-0.33 2.24,-0.79 3.09,-1.63 0.23,-0.23 0.4,-0.49 0.57,-0.76 0.05,-0.08 -0.07,-0.15 -0.12,-0.07z"/>
    <path class="fil11" d="M34.29 10.56c-0.21,0.18 -0.44,0.33 -0.66,0.5 -0.21,0.15 -0.41,0.3 -0.62,0.45 -0.42,0.29 -0.85,0.57 -1.29,0.82 -0.46,0.26 -0.94,0.47 -1.43,0.66 -0.5,0.19 -1,0.38 -1.52,0.52 -0.57,0.16 -1.16,0.27 -1.75,0.26 -0.13,0 -0.13,0.2 0,0.21 1.08,0.01 2.13,-0.34 3.13,-0.72 0.51,-0.19 1.01,-0.4 1.49,-0.66 0.46,-0.24 0.91,-0.52 1.33,-0.82 0.5,-0.35 0.97,-0.71 1.43,-1.11 0.07,-0.07 -0.04,-0.18 -0.11,-0.11z"/>
    <path class="fil20" d="M27.63 27.16c1.04,0.39 2.15,0.59 3.26,0.59 0.19,-0.04 0.37,-0.04 0.54,0.01 0.06,0.81 -0.17,1.63 -0.69,2.27 -0.12,-0.01 -0.24,-0.02 -0.37,-0.08 -1.3,0.19 -2.64,0.18 -3.94,-0.02 -0.54,-0.08 -0.99,-0.47 -1.15,-0.99 -0.82,-2.61 -1,-5.39 -1.01,-8.14 0,-0.6 0.04,-1.27 0.48,-1.67 0.28,-0.25 0.66,-0.34 1.03,-0.33 0.21,0.01 0.4,0.04 0.61,0.1 0.31,0.09 0.52,0.37 0.52,0.7 -0.02,2.53 0.21,5.06 0.72,7.56z"/>
    <path class="fil23" d="M31.43 28.16c-0.03,0.26 -0.08,0.51 -0.16,0.75 -0.04,0.12 -0.08,0.23 -0.13,0.35 -0.06,0.12 -0.13,0.23 -0.19,0.35 -0.05,0.11 0.1,0.2 0.17,0.1 0.09,-0.11 0.15,-0.25 0.2,-0.38 0.06,-0.12 0.11,-0.24 0.15,-0.37 0.08,-0.26 0.13,-0.53 0.15,-0.8 0.01,-0.12 -0.18,-0.12 -0.19,0z"/>
    <path class="fil7" d="M36.62 27.96c-0.12,-0.11 -0.29,-0.15 -0.44,-0.2 -0.16,-0.04 -0.33,-0.09 -0.5,-0.12 -0.34,-0.06 -0.68,-0.1 -1.02,-0.11 -0.13,0 -0.13,0.2 0,0.2 0.33,0.01 0.66,-0.01 0.99,0.04 0.15,0.02 0.31,0.04 0.46,0.09 0.15,0.05 0.3,0.14 0.46,0.19 0.05,0.02 0.1,-0.06 0.05,-0.09z"/>
    <path class="fil7" d="M36.62 28.64c-0.3,-0.14 -0.62,-0.23 -0.94,-0.3 -0.15,-0.04 -0.31,-0.07 -0.47,-0.1 -0.16,-0.02 -0.33,-0.06 -0.49,-0.05 -0.11,0 -0.11,0.17 0,0.16 0.16,0 0.32,-0.01 0.48,0.01 0.16,0.02 0.31,0.06 0.47,0.1 0.3,0.09 0.59,0.21 0.9,0.28 0.06,0.02 0.1,-0.07 0.05,-0.1z"/>
    <path class="fil7" d="M35.89 29.01c-0.08,-0.03 -0.17,-0.04 -0.25,-0.06 -0.09,-0.01 -0.18,-0.03 -0.27,-0.05 -0.18,-0.02 -0.36,-0.05 -0.54,-0.07 -0.11,-0.01 -0.11,0.17 0,0.18 0.18,0.02 0.35,0.02 0.53,0.04 0.09,0.01 0.17,0.01 0.26,0.02 0.09,0.01 0.18,0.04 0.26,0.04 0.06,0 0.06,-0.08 0.01,-0.1z"/>
    <path class="fil23" d="M36.99 29.75c-0.23,0.22 -0.48,0.43 -0.75,0.6 -0.27,0.17 -0.56,0.3 -0.86,0.4 -0.12,0.04 -0.07,0.23 0.06,0.19 0.62,-0.2 1.24,-0.55 1.67,-1.06 0.08,-0.09 -0.04,-0.21 -0.12,-0.13z"/>
    <path class="fil14" d="M33.36 17.85c-0.03,0.43 -0.13,0.85 -0.29,1.25 -0.03,0.06 -0.06,0.12 -0.09,0.18 -0.14,0.28 -0.37,0.58 -0.69,0.56 -0.22,-0.01 -0.41,-0.19 -0.54,-0.37 -0.12,-0.17 -0.22,-0.35 -0.3,-0.55 -0.16,-0.4 -0.25,-0.83 -0.33,-1.26 0.74,0.1 1.49,0.16 2.24,0.19z"/>
    <path class="fil16" d="M33.07 19.1c-0.03,0.06 -0.06,0.12 -0.09,0.18 -0.14,0.28 -0.37,0.58 -0.69,0.56 -0.22,-0.01 -0.41,-0.19 -0.54,-0.37 -0.12,-0.17 -0.22,-0.35 -0.3,-0.55 0.15,-0.16 0.35,-0.26 0.57,-0.29 0.32,-0.04 0.65,0.09 0.9,0.3 0.05,0.05 0.1,0.11 0.15,0.17z"/>
    <path class="fil5" d="M30.84 15.56c0,-0.36 0.15,-0.64 0.34,-0.64 0.19,0 0.35,0.28 0.35,0.64 0,0.35 -0.16,0.63 -0.35,0.63 -0.19,0 -0.34,-0.28 -0.34,-0.63z"/>
    <path class="fil5" d="M34.5 15.48c0,-0.35 0.16,-0.63 0.35,-0.63 0.19,0 0.34,0.28 0.34,0.63 0,0.35 -0.15,0.64 -0.34,0.64 -0.19,0 -0.35,-0.29 -0.35,-0.64z"/>
    <path class="fil5" d="M31.45 13.45c-0.02,-0.12 -0.13,-0.13 -0.23,-0.13 -0.2,-0.01 -0.39,0.07 -0.55,0.18 -0.14,0.09 -0.26,0.19 -0.38,0.31 -0.05,0.03 -0.09,0.07 -0.13,0.1 -0.01,0.02 -0.02,0.04 -0.02,0.05 0,0.01 0,0.01 -0.01,0.01 0,0 0,0.01 0,0.01 0,0.03 0.01,0.05 0.04,0.07 0.03,0.03 0.07,0.04 0.11,0.01 0.15,-0.1 0.3,-0.21 0.48,-0.28 0.08,-0.03 0.17,-0.06 0.26,-0.08 0.09,-0.02 0.19,-0.03 0.28,-0.05 0.09,-0.02 0.17,-0.1 0.15,-0.2z"/>
    <path class="fil5" d="M35.39 13.62c-0.02,-0.01 -0.04,-0.03 -0.07,-0.04 -0.03,-0.03 -0.07,-0.06 -0.11,-0.08 -0.11,-0.07 -0.22,-0.14 -0.32,-0.21 -0.08,-0.06 -0.16,-0.12 -0.24,-0.17 -0.08,-0.06 -0.18,-0.1 -0.28,-0.07 -0.15,0.03 -0.25,0.23 -0.13,0.35 0.06,0.06 0.17,0.08 0.25,0.1 0.08,0.02 0.16,0.03 0.25,0.05 0.09,0.02 0.18,0.05 0.27,0.07 0.05,0.01 0.09,0.03 0.13,0.04 0.04,0.02 0.08,0.04 0.12,0.06 0.02,0.01 0.04,0.02 0.06,0.03 0.08,0.05 0.15,-0.08 0.07,-0.13z"/>
    <path class="fil23" d="M31.57 20.87c-0.5,-0.13 -0.99,-0.29 -1.47,-0.48 -0.23,-0.1 -0.46,-0.22 -0.7,-0.33 -0.23,-0.11 -0.46,-0.24 -0.67,-0.39 -0.05,-0.03 -0.1,0.05 -0.05,0.09 0.11,0.07 0.22,0.15 0.33,0.22 -0.01,0.01 -0.02,0.03 -0.02,0.04 -0.06,0.59 0.02,1.19 0.25,1.74 0.18,0.44 0.56,1.17 1.16,0.97 0.09,-0.03 0.05,-0.16 -0.04,-0.15 -0.27,0.05 -0.51,-0.11 -0.67,-0.3 -0.17,-0.21 -0.29,-0.46 -0.39,-0.7 -0.18,-0.49 -0.26,-1.02 -0.21,-1.54 0.08,0.06 0.17,0.11 0.25,0.17 0.22,0.14 0.45,0.25 0.69,0.35 0.47,0.22 0.98,0.39 1.49,0.48 0.11,0.02 0.16,-0.14 0.05,-0.17z"/>
    <path class="fil24" d="M27.15 22.33c-0.02,-0.32 -0.03,-0.64 -0.05,-0.97 -0.01,-0.32 -0.02,-0.64 -0.04,-0.96 -0.01,-0.27 -0.01,-0.55 -0.07,-0.81 -0.04,-0.25 -0.14,-0.5 -0.35,-0.66 -0.06,-0.05 -0.16,0.04 -0.09,0.1 0.18,0.15 0.25,0.37 0.27,0.59 0.04,0.27 0.03,0.54 0.04,0.8 0.03,0.62 0.05,1.24 0.08,1.86 0.02,0.35 0.01,0.71 0.08,1.05 0.01,0.09 0.13,0.05 0.14,-0.02 0.03,-0.32 0,-0.65 -0.01,-0.98z"/>
    <path class="fil23" d="M27.81 27.15c-0.24,-0.14 -0.54,-0.12 -0.81,-0.05 -0.26,0.06 -0.51,0.21 -0.71,0.39 -0.07,0.06 0.03,0.16 0.1,0.1 0.19,-0.17 0.42,-0.26 0.66,-0.31 0.25,-0.05 0.49,-0.02 0.73,-0.02 0.06,0 0.09,-0.08 0.03,-0.11z"/>
    <path class="fil23" d="M26.61 29.89c-0.72,0.01 -1.17,-0.65 -1.39,-1.26 -0.12,-0.35 -0.21,-0.71 -0.29,-1.07 -0.09,-0.39 -0.17,-0.78 -0.23,-1.17 -0.07,-0.44 -0.13,-0.88 -0.16,-1.33 -0.01,-0.09 -0.16,-0.09 -0.15,0 0.07,0.83 0.2,1.65 0.38,2.47 0.09,0.38 0.18,0.77 0.32,1.15 0.12,0.33 0.28,0.66 0.53,0.91 0.27,0.27 0.62,0.45 0.99,0.45 0.1,0 0.1,-0.15 0,-0.15z"/>
    <path class="fil24" d="M33.3 23.58c0,-0.15 0.03,-0.31 0.05,-0.47 0.06,-0.34 0.11,-0.69 0.18,-1.04 0.01,-0.06 -0.09,-0.09 -0.1,-0.02 -0.06,0.29 -0.12,0.58 -0.18,0.87 -0.03,0.14 -0.07,0.29 -0.11,0.43 -0.03,0.14 -0.06,0.26 -0.03,0.4 0.03,0.14 0.07,0.27 0.1,0.41 0.03,0.15 0.04,0.3 0.04,0.45 0,0.26 -0.04,0.53 -0.14,0.77 -0.11,0.26 -0.27,0.48 -0.49,0.65 -0.1,0.09 0.05,0.23 0.15,0.15 0.4,-0.33 0.61,-0.81 0.67,-1.32 0.03,-0.28 0.01,-0.58 -0.06,-0.86 -0.02,-0.13 -0.09,-0.28 -0.08,-0.42z"/>
    <path class="fil7" d="M39.84 30.75c-0.05,-0.11 -0.18,-0.15 -0.29,-0.13 -0.14,0.02 -0.22,0.14 -0.31,0.23 -0.17,0.22 -0.34,0.44 -0.51,0.66 -0.21,-0.19 -0.52,-0.3 -0.8,-0.33 -0.32,-0.03 -0.63,0.07 -0.89,0.26 -0.05,0.04 0,0.12 0.05,0.08 0.24,-0.16 0.53,-0.24 0.82,-0.22 0.29,0.02 0.52,0.17 0.73,0.37 0.03,0.03 0.08,0.03 0.11,0 0.01,0 0.02,-0.01 0.03,-0.02 0.15,-0.21 0.31,-0.42 0.48,-0.63 0.07,-0.09 0.14,-0.18 0.25,-0.23 0.04,-0.02 0.08,-0.03 0.13,-0.03 0.05,0 0.08,0.03 0.11,0.05 0.04,0.03 0.11,-0.01 0.09,-0.06z"/>
    <path class="fil7" d="M40.56 30.67c-0.06,-0.12 -0.22,-0.05 -0.3,0.01 -0.12,0.08 -0.2,0.23 -0.28,0.35 -0.18,0.28 -0.36,0.56 -0.55,0.83 -0.05,0.06 0.06,0.13 0.11,0.06 0.15,-0.23 0.31,-0.45 0.48,-0.67 0.08,-0.11 0.15,-0.22 0.23,-0.32 0.04,-0.05 0.08,-0.09 0.12,-0.14 0.03,-0.03 0.06,-0.06 0.1,-0.04 0.06,0.03 0.12,-0.02 0.09,-0.08z"/>
    <path class="fil7" d="M41.76 30.65c-0.13,-0.03 -0.25,0.07 -0.33,0.15 -0.12,0.12 -0.22,0.24 -0.34,0.36 -0.24,0.23 -0.48,0.47 -0.72,0.71 -0.05,0.05 0.03,0.14 0.09,0.08 0.22,-0.22 0.45,-0.44 0.67,-0.66 0.11,-0.11 0.23,-0.21 0.34,-0.32 0.05,-0.04 0.09,-0.08 0.14,-0.12 0.06,-0.04 0.11,-0.06 0.17,-0.09 0.04,-0.02 0.04,-0.1 -0.02,-0.11z"/>
    <path class="fil7" d="M41.81 31.24c-0.14,0.31 -0.31,0.61 -0.52,0.89 -0.1,0.14 -0.21,0.27 -0.33,0.4 -0.12,0.13 -0.27,0.24 -0.38,0.37 -0.05,0.06 0.01,0.15 0.08,0.11 0.15,-0.09 0.27,-0.23 0.39,-0.35 0.12,-0.13 0.23,-0.27 0.34,-0.42 0.22,-0.29 0.4,-0.6 0.54,-0.93 0.04,-0.08 -0.08,-0.15 -0.12,-0.07z"/>
    <path class="fil25" d="M28.66 45.04c-0.74,0 -1.48,0.02 -2.22,-0.07 -0.73,-0.08 -1.44,-0.27 -2.14,-0.49 -0.39,-0.13 -0.79,-0.26 -1.18,-0.4 -0.07,-0.03 -0.1,0.09 -0.03,0.12 0.69,0.26 1.37,0.55 2.09,0.74 0.72,0.19 1.47,0.28 2.21,0.3 0.42,0.01 0.84,0 1.27,-0.03 0.1,-0.01 0.11,-0.18 0,-0.17z"/>
    <path class="fil25" d="M25.06 49.33c-0.26,-0.09 -0.55,-0.09 -0.83,-0.09 -0.28,0 -0.56,0.08 -0.84,0.13 -0.55,0.1 -1.1,0.21 -1.6,0.47 -0.11,0.06 -0.01,0.23 0.1,0.17 0.47,-0.24 0.99,-0.37 1.51,-0.48 0.27,-0.06 0.53,-0.08 0.8,-0.12 0.29,-0.04 0.55,-0.01 0.83,0.05 0.08,0.02 0.11,-0.1 0.03,-0.13z"/>
    <path class="fil25" d="M28.2 48.64c-0.44,0.09 -0.88,0.18 -1.31,0.3 -0.44,0.12 -0.87,0.27 -1.3,0.43 -0.1,0.03 -0.06,0.2 0.05,0.16 0.42,-0.16 0.85,-0.31 1.29,-0.43 0.44,-0.12 0.88,-0.21 1.31,-0.3 0.11,-0.03 0.06,-0.18 -0.04,-0.16z"/>
    <path class="fil26" d="M26.51 50.41c-0.09,-0.11 -0.21,-0.2 -0.33,-0.29 -0.12,-0.09 -0.25,-0.18 -0.38,-0.26 -0.27,-0.16 -0.55,-0.22 -0.86,-0.2 -0.31,0.02 -0.62,0.08 -0.92,0.17 -0.33,0.11 -0.65,0.25 -0.94,0.43 -0.06,0.03 -0.01,0.13 0.05,0.09 0.47,-0.29 1.01,-0.48 1.56,-0.54 0.28,-0.03 0.57,-0.03 0.84,0.08 0.24,0.11 0.46,0.28 0.66,0.46 0.22,0.19 0.43,0.44 0.31,0.74 -0.03,0.08 0.09,0.12 0.14,0.06 0.15,-0.24 0.04,-0.54 -0.13,-0.74z"/>
    <path class="fil26" d="M29.57 50.07c-0.16,-0.15 -0.4,-0.24 -0.61,-0.31 -0.22,-0.09 -0.44,-0.13 -0.68,-0.14 -0.46,-0.02 -0.93,0.08 -1.35,0.27 -0.07,0.03 -0.01,0.13 0.06,0.1 0.41,-0.18 0.85,-0.23 1.29,-0.18 0.21,0.02 0.43,0.06 0.64,0.12 0.2,0.06 0.38,0.18 0.59,0.25 0.06,0.02 0.1,-0.06 0.06,-0.11z"/>
    <path class="fil11" d="M27.41 7.62c-0.14,0.05 -0.27,0.13 -0.4,0.2 -0.13,0.08 -0.26,0.16 -0.38,0.24 -0.25,0.17 -0.49,0.35 -0.72,0.55 -0.45,0.39 -0.85,0.85 -1.21,1.32 -0.05,0.07 0.07,0.14 0.12,0.07 0.35,-0.47 0.77,-0.87 1.22,-1.24 0.22,-0.19 0.45,-0.36 0.69,-0.52 0.12,-0.08 0.24,-0.16 0.36,-0.23 0.13,-0.07 0.27,-0.14 0.39,-0.23 0.07,-0.05 0.03,-0.2 -0.07,-0.16z"/>
    <path class="fil13" d="M30.41 16.22c-0.07,-0.09 -0.15,-0.17 -0.24,-0.25 -0.02,-0.03 -0.06,-0.03 -0.09,0 -0.02,0.03 -0.03,0.07 0,0.09 0.08,0.08 0.17,0.16 0.25,0.24 0.03,0.02 0.06,0.02 0.08,0 0.02,-0.02 0.02,-0.05 0,-0.08z"/>
    <path class="fil13" d="M30.03 16.14c-0.06,-0.05 -0.12,-0.1 -0.18,-0.14 -0.02,-0.01 -0.04,-0.01 -0.06,-0.01 -0.01,0.01 -0.03,0.02 -0.04,0.03 -0.01,0.02 -0.01,0.04 -0.01,0.06 0.01,0.02 0.02,0.03 0.04,0.04 0.05,0.04 0.11,0.08 0.17,0.11 0.03,0.02 0.06,0.01 0.08,-0.01 0.02,-0.02 0.02,-0.06 0,-0.08z"/>
    <path class="fil13" d="M29.7 16.1c-0.08,-0.06 -0.17,-0.11 -0.26,-0.16 -0.04,-0.02 -0.1,-0.01 -0.12,0.03 -0.02,0.04 -0.01,0.09 0.03,0.12 0.1,0.05 0.19,0.1 0.29,0.14 0.02,0.01 0.05,0 0.06,-0.01 0.01,-0.01 0.02,-0.02 0.03,-0.03 0.01,-0.04 0,-0.07 -0.03,-0.09z"/>
    <path class="fil13" d="M35.71 15.96c-0.01,-0.03 -0.05,-0.04 -0.08,-0.02 -0.1,0.06 -0.2,0.12 -0.3,0.19 -0.03,0.02 -0.04,0.06 -0.02,0.09 0.02,0.03 0.06,0.05 0.09,0.03 0.1,-0.07 0.2,-0.13 0.29,-0.21 0.02,-0.01 0.03,-0.02 0.03,-0.03 0,-0.02 0,-0.04 -0.01,-0.05z"/>
    <path class="fil13" d="M36.01 16.03c-0.02,-0.03 -0.05,-0.04 -0.09,-0.02 -0.03,0.02 -0.06,0.04 -0.1,0.06 -0.03,0.01 -0.06,0.04 -0.1,0.06 -0.03,0.02 -0.04,0.06 -0.02,0.09 0.02,0.04 0.06,0.05 0.1,0.03 0.03,-0.02 0.06,-0.04 0.09,-0.06 0.04,-0.03 0.07,-0.05 0.1,-0.07 0.01,-0.01 0.02,-0.02 0.03,-0.04 0,-0.01 0,-0.03 -0.01,-0.05z"/>
    <path class="fil13" d="M36.32 16.1c0,-0.01 -0.01,-0.02 -0.02,-0.03 -0.01,0 -0.03,-0.01 -0.04,0 -0.04,0.01 -0.08,0.03 -0.12,0.05 -0.01,0 -0.02,0.01 -0.03,0.02 0,0.01 -0.01,0.02 0,0.04 0,0.01 0.01,0.02 0.02,0.02 0.01,0.01 0.02,0.01 0.04,0.01 0.04,-0.02 0.08,-0.03 0.12,-0.05 0.01,-0.01 0.02,-0.01 0.03,-0.02 0,-0.01 0,-0.03 0,-0.04z"/>
    <path class="fil24" d="M30.63 25.15c-0.14,0.06 -0.27,0.16 -0.41,0.25 -0.14,0.08 -0.29,0.16 -0.44,0.23 -0.29,0.15 -0.6,0.27 -0.92,0.37 -0.07,0.03 -0.04,0.14 0.04,0.12 0.32,-0.1 0.63,-0.22 0.94,-0.36 0.16,-0.07 0.31,-0.14 0.46,-0.22 0.15,-0.08 0.31,-0.16 0.43,-0.27 0.07,-0.06 -0.02,-0.16 -0.1,-0.12z"/>
    <path class="fil24" d="M29.19 33.01c-0.13,-0.05 -0.27,-0.07 -0.4,-0.1 -0.13,-0.04 -0.26,-0.07 -0.39,-0.11 -0.27,-0.08 -0.53,-0.16 -0.78,-0.26 -0.52,-0.2 -1.01,-0.46 -1.48,-0.75 -0.07,-0.04 -0.13,0.06 -0.07,0.11 0.48,0.3 0.98,0.57 1.5,0.79 0.26,0.11 0.51,0.21 0.78,0.29 0.13,0.04 0.27,0.08 0.4,0.12 0.14,0.03 0.28,0.08 0.42,0.08 0.1,0 0.11,-0.13 0.02,-0.17z"/>
    <path class="fil24" d="M27.87 33.98c-0.05,-0.01 -0.11,0.01 -0.17,0.01 -0.05,0.01 -0.11,0.01 -0.16,0.01 -0.11,0 -0.22,-0.02 -0.33,-0.05 -0.07,-0.02 -0.1,0.1 -0.03,0.12 0.11,0.03 0.23,0.04 0.35,0.05 0.06,0 0.12,0.01 0.17,0 0.06,0 0.13,0 0.18,-0.03 0.05,-0.02 0.04,-0.1 -0.01,-0.11z"/>
    <path class="fil24" d="M29.29 43.93c-0.31,-0.08 -0.64,-0.11 -0.96,-0.17 -0.31,-0.06 -0.61,-0.12 -0.91,-0.21 -0.63,-0.16 -1.23,-0.38 -1.82,-0.65 -0.06,-0.03 -0.12,0.06 -0.05,0.1 0.58,0.27 1.19,0.5 1.81,0.69 0.31,0.09 0.63,0.17 0.94,0.23 0.32,0.07 0.65,0.14 0.97,0.14 0.08,0 0.1,-0.12 0.02,-0.13z"/>
   </g>
   <g>
    <path class="fil27" d="M57.1 51.17c1.34,0.13 2.69,0.09 3.99,-0.09 0.56,-0.87 0.9,-1.89 0.99,-2.92 0.14,-0.2 0.08,-0.48 -0.08,-0.65 -0.15,-0.18 -0.39,-0.27 -0.61,-0.33 -0.47,-0.13 -0.95,-0.17 -1.37,-0.15 -0.33,0.42 -0.65,0.85 -0.92,1.24 -0.21,0.49 -0.42,0.97 -0.61,1.47 -0.67,0.1 -1.27,0.55 -1.54,1.18 -0.05,0.11 0.03,0.24 0.15,0.25z"/>
    <path class="fil27" d="M53.74 50.43c0.07,0.21 0.06,0.44 -0.02,0.63 -1.91,0.22 -3.84,0.25 -5.68,0.08 -0.11,-0.01 -0.19,-0.13 -0.15,-0.23 0.06,-0.16 0.17,-0.3 0.3,-0.41 0.19,-0.16 0.41,-0.26 0.64,-0.36 1,-0.42 2.06,-0.73 3.14,-0.92 0.63,0.34 1.22,0.73 1.77,1.21z"/>
    <path class="fil28" d="M60.77 50.42c-0.2,-0.31 -0.58,-0.5 -0.93,-0.6 -0.41,-0.13 -0.86,-0.18 -1.3,-0.17 -0.09,0 -0.1,0.15 0,0.15 0.42,0 0.83,0 1.23,0.13 0.17,0.06 0.33,0.14 0.48,0.23 0.15,0.1 0.27,0.22 0.41,0.35 0.05,0.06 0.16,-0.02 0.11,-0.09z"/>
    <path class="fil28" d="M51.33 50.63c-0.17,-0.24 -0.39,-0.44 -0.64,-0.61 -0.13,-0.08 -0.26,-0.15 -0.4,-0.2 -0.13,-0.06 -0.3,-0.12 -0.44,-0.11 -0.09,0 -0.1,0.11 -0.02,0.15 0.06,0.02 0.13,0.03 0.19,0.05 0.07,0.02 0.14,0.04 0.21,0.06 0.13,0.05 0.25,0.11 0.37,0.17 0.25,0.14 0.46,0.33 0.63,0.55 0.05,0.06 0.15,0 0.1,-0.06z"/>
    <path class="fil2" d="M61.15 19.51c0.62,1.54 1.11,3.12 1.48,4.75 -0.66,0.54 -1.53,0.82 -2.4,0.85 -0.62,-1.37 -1.17,-2.77 -1.61,-4.19 0.67,-0.65 1.49,-1.15 2.53,-1.41z"/>
    <path class="fil5" d="M47.32 8.43c1,-0.24 2,-0.49 3,-0.73 0.25,-0.06 0.53,-0.12 0.77,-0.02 0.3,0.13 0.45,0.45 0.59,0.75 0.56,1.29 1.28,2.54 2.27,3.53 1,0.99 2.32,1.72 3.72,1.82 -0.07,-0.25 -0.13,-0.5 -0.2,-0.76 0.39,-0.06 0.76,-0.2 1.09,-0.41 -0.5,-0.16 -0.95,-0.45 -1.28,-0.85 1.46,-1.73 2.59,-3.85 2.64,-6.11 0.02,-0.66 -0.07,-1.34 -0.42,-1.89 -0.35,-0.55 -1.01,-0.94 -1.65,-0.81 0.12,-0.28 0.33,-0.49 0.57,-0.67 -0.59,-0.07 -1.21,0.12 -1.67,0.51 -1.27,-0.87 -2.81,-1.33 -4.31,-1.29 -1.1,-0.91 -2.5,-1.44 -3.92,-1.5 0.1,0.51 0.41,0.97 0.86,1.27 -0.92,0.02 -1.88,0.05 -2.68,0.51 -0.74,0.42 -1.24,1.17 -1.51,1.97 -0.26,0.8 -0.3,1.66 -0.27,2.51 0.31,-0.58 0.76,-1.07 1.43,-1.47 -0.31,0.71 -0.49,1.49 -0.4,2.25 0.08,0.77 0.47,1.52 1.11,1.95 0.09,0.06 0.2,0.12 0.3,0.08 0.1,-0.03 0.13,-0.21 -0.04,-0.64z"/>
    <path class="fil29" d="M47.45 19.29c-0.6,1.45 -1.24,2.88 -1.92,4.21 -0.09,1.09 0.17,2.21 0.76,3.17 0.3,-0.06 0.51,-0.32 0.69,-0.57 1.23,-1.69 2.17,-3.59 2.83,-5.58 -0.79,-0.45 -1.58,-0.9 -2.36,-1.23z"/>
    <path class="fil30" d="M54.92 29.44c0.83,6.05 2.16,12.03 4.03,17.83 -0.13,0.27 -0.2,0.57 -0.18,0.84 0.48,0.43 1.2,0.59 1.82,0.41 0.62,-0.19 1.13,-0.72 1.28,-1.32 -0.06,-0.2 -0.19,-0.38 -0.45,-0.5 -0.39,-3.07 -0.88,-6.13 -1.38,-9.08 -0.44,-2.89 -0.71,-5.81 -0.8,-8.69 -1.4,-0.19 -2.84,-0.06 -4.32,0.51z"/>
    <path class="fil30" d="M56.46 32.54c-0.97,0 -1.93,-0.01 -2.75,0.03 -0.15,2.7 -0.07,5.42 0.31,8.13 0.11,3.04 0.06,6.09 -0.12,9.12 0.18,0.22 0.21,0.55 0.1,0.77 -1.18,-0.25 -2.32,-0.68 -3.41,-1.25 0.09,-0.34 0.3,-0.65 0.64,-0.96 -0.21,-2.84 -0.42,-5.67 -0.63,-8.48 -0.67,-3.53 -1.08,-7.11 -1.19,-10.74 2.1,-0.24 4.22,-0.33 6.34,-0.28 0.35,0.01 0.76,0.05 0.93,0.35 0.12,0.19 0.1,0.43 0.08,0.64 -0.08,0.94 -0.17,1.87 -0.3,2.67z"/>
    <path class="fil31" d="M54.24 15.51c0.64,-0.08 1.3,-0.09 1.92,-0.04 0.57,-0.02 1.12,-0.24 1.68,-0.36 0.57,-0.13 1.2,-0.16 1.68,0.16 0.37,0.25 0.59,0.68 0.79,1.08 0.45,0.92 0.9,1.83 1.43,2.72 -0.83,0.97 -1.97,1.67 -3.19,1.99 0.37,2.75 0.74,5.5 1.14,8.22 -3.46,0.88 -7.11,1.07 -10.62,0.58 -0.14,-2.97 -0.18,-5.95 -0.06,-8.88 -0.84,-0.32 -1.61,-0.79 -2.28,-1.44 0.42,-0.86 0.75,-1.75 0.99,-2.67 0.12,-0.43 0.23,-0.89 0.55,-1.19 0.29,-0.28 0.71,-0.39 1.11,-0.38 0.4,0 0.79,0.09 1.19,0.17 1.13,0.2 2.3,0.23 3.67,0.04z"/>
    <path class="fil2" d="M51.4 14.86c0.23,0.29 0.38,0.64 0.45,0.98 -0.19,0.01 -0.37,0.03 -0.56,0.04 -0.17,0.01 -0.28,0.19 -0.21,0.34 0.21,0.47 0.53,0.89 0.96,1.17 0.52,0.35 1.19,0.48 1.79,0.3 0.45,-0.13 0.85,-0.44 1.14,-0.8 0.23,-0.28 0.4,-0.6 0.53,-0.93 0.06,-0.16 -0.07,-0.33 -0.24,-0.32 -0.15,0 -0.3,0.01 -0.46,0.04 -0.14,-0.51 -0.23,-1.04 -0.25,-1.54 -1.09,0.15 -2.16,0.39 -3.15,0.72z"/>
    <path class="fil2" d="M57.08 12.09c0.33,-0.01 0.66,-0.03 0.97,-0.11 0.32,-0.08 0.62,-0.24 0.83,-0.48 0.32,-0.36 0.4,-0.92 0.2,-1.36 -0.21,-0.44 -0.69,-0.73 -1.18,-0.71 -0.48,0.01 -0.94,0.34 -1.12,0.79 -0.14,-0.54 -0.2,-1.02 -0.27,-1.5 -1.07,-0.56 -1.75,-1.64 -1.83,-2.78 -0.18,0.7 -0.22,1.35 -0.12,1.98 -0.78,-0.45 -1.33,-1.27 -1.47,-2.16 -0.13,0.61 -0.26,1.21 -0.39,1.82 -0.89,-0.74 -1.61,-1.67 -2.11,-2.71 -0.75,0.58 -1.31,1.4 -1.57,2.31 -0.17,-0.65 -0.18,-1.34 -0.04,-2 -0.99,0.57 -1.71,1.58 -1.96,2.65 0.01,0.71 0.02,1.42 0.09,2.16 -0.08,0.6 -0.16,1.19 -0.14,1.79 0.02,0.59 0.16,1.2 0.48,1.7 0.6,0.92 1.72,1.36 2.8,1.51 1.71,0.25 3.49,-0.08 5,-0.91 0.8,-0.44 1.56,-1.07 1.83,-1.99z"/>
    <path class="fil2" d="M56.94 26.91c-0.65,0.66 -1.48,1.13 -2.37,1.35 -0.18,0.09 -0.42,0.09 -0.58,-0.03 -0.23,0.13 -0.53,0.11 -0.72,-0.06 -0.17,0 -0.32,0.12 -0.47,0.2 -0.16,0.07 -0.39,0.09 -0.48,-0.06 -0.1,-0.14 0,-0.32 0.1,-0.46 0.59,-0.81 1.41,-1.4 2.22,-1.98 -0.32,0.03 -0.64,-0.02 -0.92,-0.17 -0.08,-0.04 -0.17,-0.12 -0.14,-0.2 0.02,-0.05 0.08,-0.07 0.13,-0.09 0.48,-0.18 0.98,-0.32 1.48,-0.41 0.25,-0.05 0.51,-0.08 0.76,-0.03 0.25,0.06 0.49,0.22 0.56,0.48 1.8,-0.86 3.61,-1.71 5.44,-2.56 0.31,0.31 0.54,0.71 0.65,1.14 0.13,0.48 -0.1,1 -0.55,1.23 -1.6,0.84 -3.34,1.41 -5.11,1.65z"/>
    <path class="fil2" d="M46.97 25.62c-0.39,-2.72 -0.78,-5.44 -1.19,-8.14 -0.54,-0.24 -1.19,-0.23 -1.7,0.02 -0.12,2.67 0.02,5.36 0.4,7.98 0.08,0.54 0.46,1.01 0.99,1.17l0.01 0c0.33,0.09 0.7,0.08 0.99,-0.09 0.3,-0.17 0.56,-0.52 0.5,-0.94z"/>
    <path class="fil3" d="M42.82 17.01c0.01,0.36 0.04,0.76 0.32,0.98 0.15,0.12 0.35,0.16 0.54,0.17 0.37,0.03 0.74,0 1.09,-0.09 0.13,-0.03 0.27,-0.07 0.37,-0.16 0.19,-0.18 0.18,-0.51 0.03,-0.73 -0.15,-0.21 -0.42,-0.32 -0.68,-0.34 -0.26,-0.03 -0.52,0.02 -0.78,0.06 -0.26,0.05 -0.52,0.09 -0.89,0.11z"/>
    <path class="fil32" d="M42.71 19.92c1.29,-0.03 2.58,-0.06 3.87,-0.05 0.02,0.42 -0.15,0.85 -0.43,1.16 -0.28,0.32 -0.67,0.54 -1.08,0.64 -0.54,0.13 -1.14,0.06 -1.61,-0.24 -0.47,-0.3 -0.79,-0.85 -0.75,-1.51z"/>
    <path class="fil33" d="M49.28 18.54c-0.01,-0.35 -0.01,-0.7 -0.01,-1.04 0,-0.07 -0.11,-0.07 -0.11,0 0,0.61 -0.02,1.22 -0.04,1.84 -0.03,0.61 -0.02,1.23 0,1.84 0.01,0.35 0.01,0.7 0.02,1.05 0,0.08 0.12,0.08 0.12,0 0.05,-1.23 0.05,-2.46 0.02,-3.69z"/>
    <path class="fil34" d="M48.29 20.64c-0.12,-0.07 -0.26,-0.12 -0.4,-0.17 -0.14,-0.06 -0.28,-0.11 -0.43,-0.17 -0.31,-0.12 -0.62,-0.24 -0.93,-0.36 -0.6,-0.23 -1.21,-0.45 -1.82,-0.67 0.02,-0.01 0.04,-0.02 0.05,-0.04 0.03,-0.05 0.01,-0.11 -0.03,-0.14 -0.04,-0.04 -0.09,-0.03 -0.14,-0.04 -0.03,0 -0.06,0 -0.09,0 0.01,0 0.02,-0.01 0.03,-0.02 0.11,-0.09 0.19,-0.22 0.28,-0.33 0.08,-0.12 0.15,-0.25 0.21,-0.38 0.1,-0.27 0.14,-0.56 0.06,-0.84 -0.15,-0.55 -0.77,-0.84 -1.29,-0.61 -0.28,0.12 -0.52,0.4 -0.48,0.72 0.01,0.13 0.21,0.13 0.19,0 -0.03,-0.3 0.25,-0.53 0.53,-0.59 0.28,-0.06 0.58,0.06 0.75,0.3 0.17,0.24 0.17,0.57 0.08,0.85 -0.04,0.14 -0.12,0.28 -0.2,0.41 -0.09,0.12 -0.19,0.23 -0.28,0.35 -0.01,0 -0.01,0 -0.02,0 -0.07,0.02 -0.17,0.07 -0.19,0.15 -0.01,0.07 0.03,0.12 0.09,0.14 -0.06,0.02 -0.1,0.05 -0.13,0.1 -0.01,0.03 -0.02,0.05 -0.02,0.08 -0.5,0.21 -1,0.42 -1.5,0.63 -0.53,0.22 -1.07,0.43 -1.59,0.67 -0.19,0.09 -0.52,0.23 -0.52,0.48 0,0.2 0.22,0.29 0.39,0.32 0.57,0.1 1.14,0 1.7,-0.05 1.17,-0.1 2.35,-0.08 3.52,-0.07 0.3,0.01 0.59,0.01 0.88,0.01 0.29,0 0.58,0.01 0.87,-0.01 0.21,-0.02 0.5,-0.04 0.63,-0.23 0.12,-0.19 -0.03,-0.39 -0.2,-0.49zm-0.36 0.51l0 0c-0.26,0.02 -0.52,0.02 -0.78,0.02 -0.26,0 -0.52,-0.01 -0.79,-0.01 -1.07,-0.01 -2.15,-0.03 -3.23,0.04 -0.53,0.03 -1.06,0.1 -1.59,0.13 -0.11,0.01 -0.23,0.01 -0.35,0.01 -0.11,-0.01 -0.26,-0.01 -0.37,-0.05 -0.07,-0.03 -0.16,-0.09 -0.1,-0.18 0.06,-0.09 0.19,-0.15 0.28,-0.19 0.26,-0.14 0.53,-0.24 0.8,-0.35 0.27,-0.12 0.55,-0.24 0.83,-0.35 0.56,-0.24 1.12,-0.48 1.68,-0.72 0,0 0,0 0,0 0.04,0 0.08,0 0.12,-0.01 0.08,0 0.16,-0.01 0.23,-0.02 1,0.35 2,0.72 2.98,1.12 0.12,0.04 0.24,0.09 0.37,0.14 0.09,0.04 0.19,0.08 0.26,0.14 0.22,0.2 -0.22,0.27 -0.34,0.28z"/>
    <path class="fil2" d="M45.81 16.31c0.22,0.38 0.38,0.79 0.48,1.21 0.03,0.13 0.05,0.3 -0.05,0.4 -0.05,0.05 -0.12,0.07 -0.19,0.09 -0.15,0.04 -0.3,0.09 -0.44,0.13 -0.22,0.06 -0.45,0.13 -0.68,0.09 -0.23,-0.03 -0.45,-0.2 -0.48,-0.42 -0.02,-0.23 0.16,-0.43 0.35,-0.55 0.2,-0.11 0.43,-0.16 0.63,-0.27 0.2,-0.11 0.38,-0.31 0.38,-0.68z"/>
    <path class="fil35" d="M36.06 22.13c0.27,1.06 0.57,2.12 0.9,3.17 0.76,-0.12 1.49,-0.35 2.19,-0.63 -0.28,3.06 -0.43,6.1 -0.47,9.14 2.21,0.77 4.65,0.61 7,0.44 1.45,-0.1 2.94,-0.21 4.27,-0.79 -0.24,-2.93 -0.43,-5.82 -0.62,-8.7 0.57,0.12 1.22,0.21 1.87,0.27 0.38,-1 0.64,-2.04 0.82,-3.1 -1.78,-0.63 -3.55,-1.31 -5.29,-2.06 -0.18,-0.08 -0.39,-0.01 -0.5,0.15 -0.36,0.54 -0.98,0.9 -1.62,0.91 -0.65,0 -1.28,-0.36 -1.64,-0.9 -0.1,-0.16 -0.3,-0.23 -0.48,-0.16 -2.11,0.79 -4.23,1.53 -6.43,2.26z"/>
    <path class="fil2" d="M45.7 15.33c-0.07,-0.12 -0.19,-0.2 -0.32,-0.22 -0.14,-0.03 -0.28,0 -0.36,0.04 -0.27,-0.16 -0.63,-0.15 -0.94,0.04 -0.2,-0.15 -0.51,-0.12 -0.64,0.07 -0.2,-0.08 -0.43,-0.05 -0.57,0.07 -0.19,0.21 -0.3,0.49 -0.36,0.77 -0.02,0.13 -0.04,0.25 -0.05,0.37 -0.03,0.36 0.11,0.72 0.39,0.94 0,0.01 0,0.01 0,0.01 0.17,0.13 0.39,0.21 0.6,0.17 0.1,0.1 0.26,0.13 0.4,0.11 0.14,-0.03 0.27,-0.09 0.41,-0.14 0.26,0.16 0.62,0.14 0.87,-0.06 0.16,0.14 0.43,0.08 0.58,-0.08 0.14,-0.16 0.19,-0.39 0.22,-0.6 0.05,-0.51 0.05,-1.07 -0.23,-1.49z"/>
    <path class="fil7" d="M54.54 14.33c-0.24,0.09 -0.48,0.18 -0.73,0.26 -0.24,0.08 -0.48,0.14 -0.73,0.2 -0.5,0.13 -1.01,0.2 -1.53,0.23 -0.08,0 -0.08,0.13 0,0.13 1.04,-0.03 2.12,-0.2 3.06,-0.66 0.09,-0.04 0.03,-0.19 -0.07,-0.16z"/>
    <path class="fil33" d="M55.46 15.64c-0.16,-0.12 -0.43,-0.07 -0.61,-0.03 -0.08,0.02 -0.05,0.15 0.04,0.13 0.12,-0.03 0.41,-0.07 0.48,0.07 0.07,0.14 -0.08,0.34 -0.15,0.45 -0.17,0.27 -0.33,0.55 -0.54,0.8 -0.22,0.25 -0.47,0.43 -0.78,0.53 -0.36,0.11 -0.75,0.15 -1.12,0.07 -0.39,-0.09 -0.74,-0.33 -1.05,-0.57 -0.05,-0.03 -0.11,0.04 -0.06,0.08 0.32,0.25 0.63,0.51 1.02,0.62 0.21,0.06 0.43,0.08 0.64,0.07 0.22,-0.01 0.44,-0.02 0.65,-0.09 0.35,-0.12 0.64,-0.37 0.88,-0.65 0.12,-0.14 0.23,-0.3 0.33,-0.45 0.11,-0.17 0.22,-0.33 0.3,-0.51 0.08,-0.16 0.14,-0.39 -0.03,-0.52z"/>
    <path class="fil33" d="M59.75 20.51c-0.31,0.16 -0.66,0.26 -1,0.33 -0.31,0.06 -0.64,0.08 -0.95,0.07 -0.16,-1.18 -0.34,-2.36 -0.36,-3.55 -0.01,-0.33 -0.03,-0.68 0.09,-0.99 0.02,-0.06 -0.08,-0.09 -0.1,-0.03 -0.1,0.26 -0.1,0.55 -0.1,0.83 -0.01,0.3 -0.01,0.61 0,0.92 0.02,0.63 0.08,1.25 0.16,1.87 0.04,0.35 0.07,0.7 0.12,1.04 0,0.06 0.04,0.1 0.1,0.11 0.37,0.02 0.73,-0.01 1.09,-0.09 0.35,-0.09 0.68,-0.25 0.99,-0.43 0.05,-0.03 0.01,-0.11 -0.04,-0.08z"/>
    <path class="fil7" d="M61.65 23.66c-0.32,-0.1 -0.66,-0.16 -1,-0.13 -0.17,0.02 -0.32,0.05 -0.48,0.12 -0.16,0.06 -0.32,0.12 -0.46,0.2 -0.07,0.04 -0.01,0.13 0.06,0.1 0.14,-0.07 0.28,-0.14 0.44,-0.17 0.15,-0.03 0.32,-0.06 0.47,-0.08 0.32,-0.03 0.63,-0.02 0.94,0.08 0.08,0.02 0.11,-0.1 0.03,-0.12z"/>
    <path class="fil7" d="M55.4 27.6c-0.22,0.16 -0.45,0.32 -0.69,0.46 -0.18,0.1 -0.46,0.3 -0.67,0.15 0.21,-0.11 0.42,-0.24 0.6,-0.39 0.04,-0.03 -0.01,-0.1 -0.06,-0.07 -0.19,0.13 -0.39,0.26 -0.61,0.35 -0.1,0.05 -0.21,0.1 -0.32,0.12 -0.13,0.02 -0.23,-0.03 -0.33,-0.11l0 0c0,0 0,0 0.01,0 0.17,-0.13 0.34,-0.27 0.51,-0.41 0.17,-0.14 0.37,-0.28 0.52,-0.44 0.05,-0.05 -0.01,-0.14 -0.07,-0.1 -0.16,0.11 -0.3,0.24 -0.44,0.36 -0.16,0.12 -0.32,0.24 -0.48,0.35 -0.15,0.12 -0.29,0.24 -0.44,0.35 -0.15,0.1 -0.37,0.21 -0.54,0.07 -0.05,-0.04 -0.12,0.03 -0.07,0.07 0.28,0.25 0.64,0.01 0.91,-0.18 0,0 0,0.01 0.01,0.01 0.09,0.08 0.19,0.15 0.31,0.17 0.14,0.01 0.27,-0.04 0.39,-0.1 0,0 0,0.01 0.01,0.01 0.2,0.19 0.5,0.09 0.71,-0.03 0.13,-0.08 0.26,-0.18 0.39,-0.27 0.13,-0.1 0.27,-0.19 0.4,-0.29 0.05,-0.03 0,-0.11 -0.05,-0.08z"/>
    <path class="fil7" d="M46.25 17.79c-0.17,0.06 -0.32,0.15 -0.49,0.21 -0.17,0.06 -0.34,0.1 -0.52,0.12 -0.15,0.01 -0.35,0.05 -0.5,-0.01 -0.07,-0.03 -0.13,-0.08 -0.16,-0.15 -0.04,-0.08 -0.02,-0.18 -0.01,-0.27 0,0 0,0 0,0 0.03,0 0.05,0 0.07,0.01 0.11,0.01 0.22,0.01 0.32,-0.01 0.09,-0.02 0.16,-0.07 0.21,-0.13 0.14,0.07 0.35,0.05 0.47,0 0.2,-0.08 0.31,-0.27 0.36,-0.47 0.11,-0.47 0.05,-1 -0.09,-1.46 -0.02,-0.06 -0.12,-0.04 -0.1,0.02 0.12,0.41 0.15,0.85 0.07,1.26 -0.04,0.17 -0.09,0.35 -0.24,0.45 -0.06,0.04 -0.14,0.07 -0.22,0.08 -0.07,0 -0.12,-0.01 -0.17,-0.03 0.01,-0.03 0.01,-0.07 0.02,-0.11 0.01,-0.1 0,-0.21 -0.01,-0.32 0,-0.12 0,-0.23 -0.01,-0.34 -0.02,-0.23 -0.04,-0.45 -0.08,-0.67 -0.01,-0.07 -0.12,-0.04 -0.11,0.03 0.03,0.19 0.06,0.38 0.07,0.57 0.01,0.19 0.03,0.38 0.02,0.56 -0.01,0.14 -0.07,0.33 -0.23,0.36 -0.08,0.02 -0.18,0.01 -0.26,0.01 -0.08,0 -0.17,-0.02 -0.24,-0.02 0,-0.02 0,-0.03 0,-0.04 0.01,-0.11 0,-0.22 -0.01,-0.33 0,-0.13 -0.01,-0.25 -0.02,-0.38 -0.02,-0.25 -0.04,-0.5 -0.07,-0.74 -0.01,-0.07 -0.12,-0.07 -0.11,0 0.05,0.41 0.07,0.82 0.07,1.23 0,0.07 0.02,0.2 -0.04,0.25 -0.07,0.04 -0.16,0.07 -0.24,0.08 -0.08,0.02 -0.16,0.02 -0.25,0.01 -0.06,-0.01 -0.12,-0.04 -0.18,-0.06 0,-0.02 0,-0.03 0.01,-0.05 0.01,-0.11 0,-0.23 0,-0.34 0,-0.13 0.01,-0.25 0.01,-0.37 0,-0.25 0,-0.51 -0.01,-0.76 -0.01,-0.07 -0.11,-0.07 -0.11,0 0.01,0.39 0.01,0.79 -0.03,1.19 -0.01,0.09 0,0.18 -0.03,0.27 -0.02,0.08 -0.12,0.06 -0.19,0.06 -0.18,-0.01 -0.28,-0.11 -0.39,-0.24 -0.04,-0.06 -0.12,0.02 -0.09,0.08 0.1,0.2 0.52,0.44 0.73,0.31 0.14,0.11 0.36,0.13 0.54,0.11 0.09,-0.02 0.19,-0.05 0.27,-0.1 0.03,-0.01 0.05,-0.03 0.06,-0.04 0,0 0,0 0.01,0 0.01,0.01 0.03,0.02 0.04,0.02 0,0.01 0,0.02 0,0.03 -0.03,0.19 0,0.38 0.15,0.5 0.16,0.13 0.35,0.16 0.54,0.14 0.21,-0.03 0.42,-0.08 0.61,-0.15 0.1,-0.03 0.2,-0.07 0.3,-0.11 0.1,-0.05 0.21,-0.09 0.3,-0.15 0.05,-0.04 0.02,-0.13 -0.04,-0.11z"/>
    <path class="fil36" d="M46.24 19.93c-0.24,0.17 -0.48,0.36 -0.71,0.54 -0.11,0.09 -0.22,0.18 -0.33,0.25 -0.13,0.07 -0.27,0.11 -0.42,0.11 -0.47,0.02 -0.97,-0.09 -1.34,-0.39 -0.09,-0.08 -0.18,-0.17 -0.26,-0.27 -0.08,-0.11 -0.17,-0.21 -0.28,-0.29 -0.07,-0.04 -0.13,0.07 -0.06,0.11 0.11,0.07 0.16,0.19 0.24,0.31 0.07,0.1 0.15,0.2 0.25,0.28 0.18,0.15 0.4,0.27 0.63,0.34 0.24,0.08 0.5,0.12 0.75,0.12 0.15,-0.01 0.3,-0.02 0.44,-0.07 0.13,-0.06 0.24,-0.13 0.35,-0.22 0.29,-0.22 0.58,-0.44 0.85,-0.69 0.06,-0.06 -0.03,-0.18 -0.11,-0.13z"/>
    <path class="fil36" d="M39.56 21.83c-0.03,0.95 -0.22,1.88 -0.46,2.8 -0.02,0.09 0.11,0.12 0.13,0.04 0.31,-0.92 0.42,-1.88 0.44,-2.84 0.01,-0.07 -0.11,-0.07 -0.11,0z"/>
    <path class="fil36" d="M49.29 24.42c-0.03,-0.13 -0.05,-0.25 -0.07,-0.37 -0.04,-0.24 -0.08,-0.48 -0.11,-0.73 -0.06,-0.47 -0.09,-0.96 -0.09,-1.44 0,-0.08 -0.12,-0.08 -0.12,0 -0.01,0.49 0,0.98 0.05,1.46 0.02,0.24 0.05,0.47 0.08,0.71 0.02,0.12 0.04,0.23 0.06,0.35 0.02,0.11 0.03,0.26 0.1,0.36 0.03,0.04 0.12,0.04 0.13,-0.02 0.02,-0.11 -0.02,-0.22 -0.03,-0.32z"/>
    <path class="fil37" d="M55.47 32.41c-0.23,-0.03 -0.47,0 -0.71,0 -0.24,0.01 -0.48,0 -0.72,-0.01 -0.48,-0.03 -0.96,-0.07 -1.42,-0.23 -0.06,-0.02 -0.09,0.08 -0.03,0.11 0.01,0 0.01,0 0.02,0 0,0 0,0.01 0.01,0.01 0.16,0.12 0.32,0.23 0.49,0.33 0.08,0.04 0.15,0.08 0.22,0.12 -0.01,0.01 -0.01,0.02 -0.02,0.03 -0.06,1.09 -0.08,2.19 -0.05,3.28 0.03,1.1 0.13,2.19 0.22,3.28 0.16,2.17 0.16,4.35 0.09,6.53 -0.03,1.22 -0.09,2.43 -0.14,3.65 -0.23,-0.12 -0.49,-0.21 -0.73,-0.33 -0.19,-0.1 -0.38,-0.21 -0.57,-0.33 -0.19,-0.13 -0.37,-0.27 -0.55,-0.39 -0.1,-0.06 -0.19,0.09 -0.09,0.15 0.18,0.12 0.37,0.22 0.55,0.32 0.2,0.11 0.39,0.22 0.58,0.32 0.27,0.14 0.56,0.23 0.82,0.38 -0.01,0.1 -0.02,0.21 -0.04,0.31 -0.02,0.13 -0.05,0.26 -0.08,0.38 -0.02,0.06 0.07,0.09 0.09,0.03 0.04,-0.13 0.06,-0.27 0.09,-0.4 0.01,-0.09 0.02,-0.18 0.03,-0.27 0.07,0.04 0.13,0.08 0.19,0.13 0.04,0.04 0.11,-0.03 0.07,-0.07 -0.08,-0.06 -0.16,-0.12 -0.24,-0.17 0,0 0,-0.01 0,-0.02 0,-0.01 -0.01,-0.03 -0.01,-0.03 0.1,-2.18 0.19,-4.37 0.18,-6.55 -0.01,-1.08 -0.04,-2.16 -0.11,-3.24 -0.07,-1.09 -0.18,-2.18 -0.23,-3.28 -0.04,-1.22 -0.03,-2.45 0.05,-3.67 0.07,0.02 0.13,0.04 0.2,0.06 0.04,0.02 0.08,-0.02 0.08,-0.05 0.01,-0.08 0.01,-0.15 0.01,-0.23 0.1,0.02 0.19,0.03 0.29,0.04 0.24,0.01 0.49,0.01 0.74,0.01 0.23,0 0.49,0.02 0.72,-0.03 0.09,-0.02 0.09,-0.16 0,-0.17z"/>
    <path class="fil37" d="M54.56 31.74c0,-0.14 -0.01,-0.29 -0.01,-0.43 -0.01,-0.17 -0.01,-0.33 -0.02,-0.5 0,-0.17 0.02,-0.34 0.01,-0.51 -0.01,-0.09 -0.14,-0.09 -0.14,0 -0.01,0.16 0.02,0.32 0.02,0.48 0.01,0.16 0.01,0.32 0.01,0.48 0,0.15 0,0.3 0,0.45 0,0.01 -0.01,0.17 -0.01,0.22 -0.01,0 -0.02,-0.01 -0.04,-0.01 -0.03,-0.01 -0.07,-0.02 -0.1,-0.03 -0.08,-0.02 -0.15,-0.04 -0.22,-0.06 -0.06,-0.01 -0.15,-0.02 -0.2,-0.06 -0.06,-0.04 -0.05,-0.13 -0.06,-0.19 0,-0.08 -0.01,-0.16 -0.01,-0.24 -0.03,-0.32 -0.04,-0.64 -0.05,-0.96 0,-0.08 -0.13,-0.08 -0.12,0 0,0.29 0.02,0.58 0.03,0.87 0,0.15 0,0.29 0.02,0.43 0,0.12 0.05,0.21 0.16,0.26 0.11,0.05 0.24,0.08 0.37,0.11 0.09,0.03 0.25,0.1 0.34,0.04 0.03,-0.03 0.04,-0.07 0.04,-0.11 0,-0.08 -0.01,-0.16 -0.02,-0.24z"/>
    <path class="fil37" d="M61.23 46.95c0.02,-0.03 0.04,-0.05 0.06,-0.08 0.03,-0.04 -0.04,-0.1 -0.08,-0.06 -0.01,0.02 -0.03,0.03 -0.04,0.05 -0.3,-2.22 -0.7,-4.42 -1.08,-6.62 -0.39,-2.21 -0.75,-4.44 -0.94,-6.68 -0.11,-1.26 -0.16,-2.52 -0.14,-3.78 0.01,-0.06 -0.09,-0.06 -0.09,0 -0.01,0.32 -0.01,0.63 -0.01,0.94 -0.08,-0.04 -0.17,-0.09 -0.25,-0.14 -0.11,-0.06 -0.2,-0.13 -0.3,-0.21 -0.18,-0.16 -0.35,-0.34 -0.51,-0.53 -0.04,-0.05 -0.12,0.02 -0.07,0.08 0.16,0.19 0.33,0.38 0.52,0.56 0.08,0.08 0.18,0.16 0.28,0.23 0.1,0.07 0.21,0.14 0.33,0.17 0.03,1.87 0.2,3.73 0.46,5.58 0.31,2.23 0.74,4.44 1.11,6.65 0.22,1.26 0.43,2.51 0.6,3.77 0,0.01 0,0.02 0.01,0.03 0,0 0,0.01 0,0.02 -0.22,0.18 -0.5,0.27 -0.78,0.33 -0.18,0.04 -0.37,0.06 -0.55,0.06 -0.09,-0.01 -0.19,-0.01 -0.28,-0.03 -0.09,-0.02 -0.18,-0.05 -0.28,-0.08 -0.11,-0.04 -0.16,0.14 -0.04,0.17 0.18,0.05 0.4,0.05 0.6,0.05 0.2,-0.01 0.4,-0.03 0.59,-0.08 0.27,-0.06 0.59,-0.15 0.8,-0.33 0.07,0.1 0.13,0.21 0.18,0.33 0.06,0.15 0.09,0.3 0.12,0.46 0.01,0.05 0.1,0.04 0.09,-0.01 -0.01,-0.3 -0.14,-0.6 -0.31,-0.85z"/>
    <path class="fil7" d="M58.33 9.96c-0.47,0.03 -0.92,0.31 -1.13,0.74 -0.03,0.06 0.02,0.12 0.08,0.11 0.1,-0.02 0.2,0.05 0.22,0.15 0.02,0.11 -0.04,0.23 -0.09,0.33 -0.02,0.04 0,0.11 0.06,0.11 0.19,-0.02 0.37,-0.15 0.48,-0.3 0.11,-0.14 0.11,-0.35 0.09,-0.51 0,-0.09 -0.02,-0.17 -0.06,-0.24 -0.02,-0.04 -0.05,-0.09 -0.1,-0.13 0.14,-0.07 0.29,-0.11 0.45,-0.12 0.09,0 0.09,-0.15 0,-0.14z"/>
    <path class="fil11" d="M52.71 7.49c-0.42,-0.37 -0.81,-0.78 -1.15,-1.23 -0.33,-0.44 -0.61,-0.92 -0.86,-1.42 -0.06,-0.11 -0.24,-0.01 -0.18,0.11 0.26,0.49 0.58,0.96 0.93,1.4 0.36,0.44 0.74,0.86 1.17,1.23 0.06,0.05 0.15,-0.03 0.09,-0.09z"/>
    <path class="fil11" d="M54.51 7.87c-0.07,-0.07 -0.16,-0.13 -0.24,-0.19 -0.08,-0.07 -0.15,-0.14 -0.22,-0.21 -0.15,-0.16 -0.29,-0.32 -0.4,-0.51 -0.22,-0.35 -0.4,-0.75 -0.47,-1.15 -0.02,-0.09 -0.15,-0.06 -0.13,0.03 0.07,0.44 0.21,0.85 0.46,1.22 0.12,0.18 0.25,0.35 0.4,0.5 0.15,0.15 0.33,0.33 0.52,0.41 0.06,0.03 0.13,-0.04 0.08,-0.1z"/>
    <path class="fil11" d="M56.35 8.56c-0.43,-0.31 -0.8,-0.66 -1.08,-1.12 -0.26,-0.44 -0.45,-0.96 -0.51,-1.47 0,-0.09 -0.14,-0.09 -0.13,0 0.05,0.55 0.21,1.07 0.51,1.55 0.28,0.45 0.67,0.89 1.14,1.16 0.08,0.04 0.13,-0.07 0.07,-0.12z"/>
    <path class="fil11" d="M49.08 7.12c-0.15,-0.62 -0.16,-1.27 -0.03,-1.89 0.01,-0.08 -0.09,-0.13 -0.14,-0.07 -0.01,-0.01 -0.03,-0.01 -0.05,0 -0.49,0.35 -0.9,0.77 -1.26,1.26 -0.17,0.24 -0.33,0.49 -0.45,0.76 -0.13,0.26 -0.26,0.55 -0.32,0.84 -0.01,0.05 0.08,0.1 0.1,0.04 0.12,-0.26 0.21,-0.53 0.34,-0.79 0.13,-0.26 0.28,-0.51 0.44,-0.74 0.32,-0.46 0.72,-0.87 1.16,-1.21 -0.11,0.61 -0.09,1.23 0.08,1.84 0.02,0.08 0.14,0.04 0.13,-0.04z"/>
    <path class="fil14" d="M53.13 11.96c-0.13,0.46 -0.36,0.9 -0.68,1.25 -0.1,0.1 -0.21,0.2 -0.33,0.29 -0.51,0.38 -1.19,0.53 -1.78,0.32 -0.12,-0.04 -0.24,-0.1 -0.34,-0.17 -0.42,-0.29 -0.7,-0.79 -0.69,-1.42 0.05,0.01 0.1,0.02 0.14,0.02 1.09,0.15 2.21,0.09 3.29,-0.18 0.13,-0.03 0.26,-0.07 0.39,-0.11z"/>
    <path class="fil16" d="M52.45 13.21c-0.1,0.1 -0.21,0.2 -0.33,0.29 -0.51,0.38 -1.19,0.53 -1.78,0.32 -0.12,-0.04 -0.24,-0.1 -0.34,-0.17 0.13,-0.15 0.31,-0.26 0.49,-0.35 0.37,-0.18 0.78,-0.28 1.19,-0.3 0.2,-0.01 0.42,0.01 0.6,0.09 0.06,0.03 0.12,0.07 0.17,0.12z"/>
    <path class="fil15" d="M52.74 12.07c-0.02,0.09 -0.06,0.17 -0.13,0.23 -0.06,0.05 -0.13,0.07 -0.2,0.09 -0.78,0.21 -1.6,0.26 -2.4,0.2 -0.13,-0.01 -0.27,-0.03 -0.38,-0.09 -0.09,-0.05 -0.16,-0.15 -0.18,-0.25 1.09,0.15 2.21,0.09 3.29,-0.18z"/>
    <path class="fil5" d="M48.33 9.97c0,-0.35 0.16,-0.64 0.36,-0.64 0.2,0 0.37,0.29 0.37,0.64 0,0.35 -0.17,0.63 -0.37,0.63 -0.2,0 -0.36,-0.28 -0.36,-0.63z"/>
    <path class="fil5" d="M52.54 9.97c0,-0.35 0.17,-0.64 0.37,-0.64 0.2,0 0.36,0.29 0.36,0.64 0,0.35 -0.16,0.63 -0.36,0.63 -0.2,0 -0.37,-0.28 -0.37,-0.63z"/>
    <path class="fil5" d="M49.19 7.69c-0.06,-0.06 -0.15,-0.08 -0.23,-0.08 -0.16,-0.01 -0.33,0.05 -0.46,0.13 -0.13,0.07 -0.25,0.17 -0.35,0.28 -0.01,0.01 -0.03,0.01 -0.04,0.02 -0.03,0.02 -0.04,0.05 -0.04,0.07 -0.02,0.05 0.03,0.11 0.08,0.09 0.02,0.01 0.03,0 0.05,-0.01 0.16,-0.08 0.33,-0.14 0.5,-0.18 0.08,-0.02 0.17,-0.03 0.26,-0.04 0.08,0 0.17,0.01 0.24,-0.04 0.09,-0.06 0.07,-0.18 -0.01,-0.24z"/>
    <path class="fil5" d="M53.65 7.81c-0.01,-0.01 -0.01,-0.02 -0.03,-0.02 -0.17,-0.07 -0.34,-0.15 -0.52,-0.19 -0.09,-0.02 -0.18,-0.03 -0.27,-0.05 -0.1,-0.01 -0.19,-0.01 -0.28,0.01 -0.08,0.02 -0.15,0.06 -0.2,0.12 -0.06,0.08 -0.07,0.18 0.03,0.23 0.08,0.03 0.18,0.01 0.26,0 0.1,-0.01 0.2,-0.01 0.29,-0.01 0.11,0 0.21,0 0.32,0.01 0.1,0.01 0.22,0.05 0.33,0.05 0.07,0 0.11,-0.1 0.07,-0.15z"/>
    <path class="fil38" d="M54.52 10.11c-0.19,0.07 -0.37,0.19 -0.52,0.32 -0.03,0.02 -0.02,0.07 0,0.09 0.02,0.02 0.06,0.02 0.08,0 0.07,-0.06 0.15,-0.12 0.23,-0.17 0.08,-0.05 0.16,-0.1 0.24,-0.14 0.05,-0.03 0.02,-0.12 -0.03,-0.1z"/>
    <path class="fil38" d="M54.99 10.09c-0.16,0.06 -0.32,0.14 -0.46,0.24 -0.03,0.02 -0.04,0.06 -0.02,0.09 0.02,0.03 0.06,0.04 0.09,0.02 0.14,-0.09 0.28,-0.18 0.43,-0.26 0.05,-0.02 0.02,-0.11 -0.04,-0.09z"/>
    <path class="fil38" d="M55.53 10.13c-0.01,-0.03 -0.04,-0.04 -0.07,-0.03 -0.05,0.01 -0.1,0.04 -0.16,0.06 -0.05,0.02 -0.09,0.05 -0.14,0.07 -0.03,0.01 -0.04,0.06 -0.03,0.09 0.02,0.03 0.06,0.04 0.09,0.02l0.14 -0.07c0.05,-0.02 0.1,-0.04 0.14,-0.07 0.03,-0.02 0.04,-0.05 0.03,-0.07z"/>
    <path class="fil38" d="M48.13 10.64c-0.05,-0.03 -0.1,-0.06 -0.15,-0.09 -0.05,-0.03 -0.1,-0.06 -0.16,-0.08 -0.05,-0.01 -0.09,0.06 -0.05,0.09 0.04,0.04 0.1,0.08 0.15,0.11 0.05,0.03 0.09,0.06 0.14,0.09 0.03,0.01 0.08,0 0.09,-0.03 0.02,-0.03 0.01,-0.07 -0.02,-0.09z"/>
    <path class="fil39" d="M47.72 10.79c0,0 0,0 0,0 0,0 0,0 0,0 -0.01,0 -0.01,0 0,0z"/>
    <path class="fil38" d="M47.79 10.7c-0.04,-0.03 -0.08,-0.05 -0.12,-0.08 -0.04,-0.02 -0.09,-0.05 -0.14,-0.06 -0.02,0 -0.05,0.01 -0.06,0.03 -0.01,0.03 0,0.06 0.02,0.07 0.04,0.02 0.09,0.04 0.12,0.06 0.02,0.01 0.04,0.02 0.06,0.04 0.01,0 0.02,0.01 0.03,0.02 0,0 0.01,0 0.01,0.01 0.01,0 0.01,0 0.01,0 0.01,0.01 0.02,0.01 0.04,0.02 0.02,0 0.03,-0.01 0.04,-0.03 0.01,-0.01 0.02,-0.02 0.01,-0.04 0,-0.02 -0.01,-0.03 -0.02,-0.04z"/>
    <path class="fil38" d="M47.38 10.69c-0.02,-0.01 -0.05,-0.03 -0.07,-0.04 -0.03,-0.02 -0.06,-0.03 -0.09,-0.04 0,0 -0.01,0 -0.01,0 -0.01,0 -0.02,0 -0.02,0 -0.01,0.01 -0.02,0.01 -0.03,0.02 -0.01,0.03 -0.01,0.05 0.01,0.07 0.02,0.02 0.05,0.04 0.08,0.06 0.02,0.01 0.04,0.03 0.07,0.04 0.01,0.01 0.03,0.01 0.04,0.01 0.02,0 0.03,-0.02 0.04,-0.03 0.02,-0.03 0.01,-0.07 -0.02,-0.09z"/>
   </g>
   <polygon class="fil40" points="39.38,42.85 51.13,42.85 51.13,50.99 39.38,50.99 "/>
   <polygon class="fil41" points="44.37,45.76 43.05,42.85 51.13,42.85 52.45,45.76 "/>
   <path class="fil42" d="M20.95 34.14c-0.36,-0.13 -0.73,-0.26 -1.05,-0.48 -0.32,-0.22 -0.58,-0.55 -0.64,-0.93 -0.05,-0.39 0.1,-0.77 0.31,-1.1 0.38,-0.62 0.93,-1.1 1.47,-1.58 0.44,-0.39 0.89,-0.79 1.42,-1.07 0.52,-0.28 1.14,-0.43 1.72,-0.3 0.46,0.11 0.86,0.38 1.29,0.57 0.65,0.28 1.36,0.38 2.03,0.58 0.68,0.2 1.36,0.53 1.74,1.12 0.28,0.42 0.37,0.96 0.25,1.45 -0.12,0.49 -0.44,0.93 -0.94,1.26 0.31,-0.12 0.62,-0.24 0.96,-0.26 0.33,-0.02 0.68,0.06 0.91,0.3 0.16,0.17 0.25,0.39 0.33,0.61 0.24,0.65 0.48,1.3 0.73,1.94 0.06,0.19 0.13,0.39 0.07,0.57 -0.1,0.3 -0.47,0.39 -0.78,0.42 -0.94,0.11 -1.88,0.12 -2.82,0.12 -2.66,0.03 -5.31,0.05 -7.97,0.07 -0.1,0 -0.22,0 -0.3,-0.07 -0.07,-0.07 -0.09,-0.18 -0.1,-0.28 -0.07,-0.61 -0.14,-1.24 0.05,-1.83 0.18,-0.59 0.69,-1.12 1.32,-1.11z"/>
   <path class="fil43" d="M26.5 33.86c-0.55,-0.39 -1.26,-0.45 -1.93,-0.46 -0.67,-0.01 -1.36,0.01 -1.98,-0.25 -0.27,-0.11 -0.52,-0.28 -0.68,-0.52 -0.21,-0.32 -0.26,-0.72 -0.2,-1.1 0.12,-0.77 0.65,-1.42 1.27,-1.9 0.18,-0.14 0.38,-0.28 0.62,-0.3 0.22,-0.02 0.45,0.07 0.65,0.17 0.47,0.23 0.9,0.55 1.39,0.75 0.56,0.23 1.22,0.33 1.59,0.81 0.32,0.41 0.31,1.02 0.11,1.51 -0.2,0.49 -0.56,0.89 -0.84,1.29z"/>
   <path class="fil44" d="M31.26 38.83c1.88,-0.28 3.77,-0.56 5.68,-0.64 1.11,-0.04 2.23,-0.02 3.35,0.08 -0.37,-1.53 -0.5,-3.12 -0.4,-4.69 0.52,0.11 1.11,0.19 1.71,0.28 0.15,-0.72 0.34,-1.35 0.56,-1.96 -1.68,-0.49 -3.33,-0.93 -4.98,-1.36 -0.83,0.61 -2.1,0.65 -3,0.07 -1.69,0.58 -3.37,1.24 -5.03,1.92 0.33,0.85 0.62,1.71 0.84,2.65 0.54,-0.25 1.1,-0.45 1.65,-0.57 0.02,1.4 -0.09,2.8 -0.38,4.22z"/>
   <polygon class="fil45" points="18.39,36.17 43.52,36.17 43.52,50.99 18.39,50.99 "/>
   <path class="fil46" d="M27.94 36.32c0.06,-0.27 0.24,-0.5 0.46,-0.68 0.22,-0.17 0.48,-0.29 0.74,-0.4 0.86,-0.39 1.72,-0.79 2.58,-1.18 0.38,-0.17 0.77,-0.34 1.18,-0.32 0.69,0.03 1.23,0.59 1.87,0.83 0.45,0.16 0.96,0.18 1.34,0.46 0.45,0.33 0.6,0.98 0.36,1.47 -0.17,0.33 -0.49,0.56 -0.83,0.69 -0.35,0.13 -0.72,0.16 -1.09,0.17 -1.73,0.03 -3.44,-0.49 -5.17,-0.41 -0.28,0.01 -0.56,0.04 -0.83,-0.01 -0.28,-0.06 -0.69,-0.22 -0.61,-0.62z"/>
   <path class="fil47" d="M35.07 35.45c1.09,-0.72 2.28,-1.28 3.52,-1.67 0.31,-0.1 0.67,-0.18 0.94,-0.01 0.29,0.18 0.38,0.59 0.67,0.77 0.26,0.16 0.58,0.1 0.87,0.1 0.49,0.01 0.97,0.2 1.33,0.53 0.27,0.24 0.47,0.59 0.41,0.95 -0.07,0.44 -0.51,0.72 -0.94,0.84 -0.54,0.16 -1.12,0.17 -1.68,0.17 -1.05,0.01 -2.09,0.01 -3.13,0.02 -0.46,0 -0.94,0 -1.37,-0.19 -0.42,-0.19 -0.76,-0.63 -0.62,-1.51z"/>
   <polygon class="fil41" points="29.07,40.02 26.24,36.17 43.52,36.17 46.35,40.02 "/>
   <polygon class="fil40" points="18.39,36.17 26.24,36.17 26.24,50.99 18.39,50.99 "/>
   <polygon class="fil41" points="16.03,40.02 18.39,36.17 26.24,36.17 23.88,40.02 "/>
   <path class="fil48" d="M42.29 41.57c-0.23,0.4 -0.78,0.52 -1.24,0.43 -0.19,-0.04 -0.38,-0.11 -0.56,-0.19 -0.25,-0.1 -0.49,-0.23 -0.74,-0.33 -0.47,-0.19 -0.96,-0.3 -1.46,-0.31 -0.1,-0.01 -0.2,-0.01 -0.3,0 -0.49,0.02 -1.06,0.1 -1.42,-0.24 -0.35,-0.33 -0.31,-0.88 -0.28,-1.37 0,-0.14 0.01,-0.27 0.01,-0.41 -0.01,-0.85 -0.15,-1.69 -0.41,-2.48 -0.06,-0.17 -0.11,-0.37 -0.25,-0.47 -0.05,-0.03 -0.17,-0.02 -0.43,-0.03 0.82,-0.56 2.05,-0.75 3.21,-0.71 0.3,0.01 0.61,0.02 0.86,0.19 0.24,0.17 0.37,0.46 0.42,0.75 0.06,0.29 0.05,0.59 0.09,0.88 0.09,0.78 0.47,1.51 1.06,2.02 0.31,0.27 0.68,0.47 0.98,0.75 0.06,0.05 0.12,0.11 0.18,0.17 0.33,0.36 0.53,0.92 0.28,1.35z"/>
   <path class="fil49" d="M29.46 36.17c-0.12,0 -0.21,0.02 -0.3,0.07 -0.12,0.06 -0.21,0.16 -0.28,0.27 -0.12,0.19 -0.18,0.4 -0.23,0.62 0,0 0,0.01 -0.01,0.02 -0.09,0.37 -0.16,0.74 -0.23,1.11 -0.07,0.42 -0.13,0.83 -0.17,1.25 -0.06,0.62 -0.09,1.24 -0.09,1.86 0,0.41 0.01,0.82 0.04,1.23l0 0c0.02,0.25 0.04,0.51 0.02,0.75 -0.04,0.29 -0.29,0.5 -0.58,0.5 -0.91,0 -1.84,0 -2.77,0 -0.33,-0.01 -0.59,-0.28 -0.58,-0.61 0.01,-0.22 0.03,-0.45 0.04,-0.67 0.02,-0.46 0.05,-0.92 0.09,-1.38 0.04,-0.49 0.09,-0.98 0.14,-1.46 0.06,-0.52 0.13,-1.02 0.2,-1.53 0.05,-0.33 0.11,-0.66 0.17,-0.99 0.02,-0.1 0.04,-0.21 0.06,-0.31 0.08,-0.33 0.19,-0.65 0.42,-0.87l0 0c0.03,-0.03 0.06,-0.06 0.1,-0.09 0.31,-0.25 0.75,-0.29 1.15,-0.3 0.59,-0.02 1.17,-0.01 1.76,0.03 0.4,0.03 0.88,0.13 1.05,0.5z"/>
   <path class="fil50" d="M38.29 41.17c-0.1,-0.01 -0.2,-0.01 -0.3,0 -0.49,0.02 -1.06,0.1 -1.42,-0.24 -0.35,-0.33 -0.31,-0.88 -0.28,-1.37 0,-0.14 0.01,-0.27 0.01,-0.41 0.9,0.38 1.64,1.14 1.99,2.02z"/>
   <path class="fil50" d="M42.29 41.57c-0.23,0.4 -0.78,0.52 -1.24,0.43 -0.19,-0.04 -0.38,-0.11 -0.56,-0.19 0.25,-0.55 0.52,-1.12 0.98,-1.52 0.11,-0.09 0.23,-0.18 0.36,-0.24 0.06,0.05 0.12,0.11 0.18,0.17 0.33,0.36 0.53,0.92 0.28,1.35z"/>
   <path class="fil51" d="M28.15 41.37c0,0.41 0.01,0.82 0.04,1.23l0 0c-1.28,-0.22 -2.59,-0.23 -3.87,-0.03 0.02,-0.46 0.05,-0.92 0.09,-1.38 1.22,-0.21 2.49,-0.04 3.74,0.18z"/>
   <path class="fil51" d="M28.41 38.26c-0.07,0.42 -0.13,0.83 -0.17,1.25 -0.54,-0.14 -1.11,-0.19 -1.67,-0.16 -0.69,0.03 -1.36,0.17 -2.02,0.38 0.06,-0.52 0.13,-1.02 0.2,-1.53 1.22,-0.14 2.45,-0.12 3.66,0.06z"/>
   <path class="fil51" d="M29.16 36.24c-0.12,0.06 -0.21,0.16 -0.28,0.27 -0.12,0.19 -0.18,0.4 -0.23,0.62 0,0 0,0.01 -0.01,0.02 -1.19,-0.31 -2.43,-0.4 -3.66,-0.25 0.08,-0.33 0.19,-0.65 0.42,-0.87l0 0c1.26,-0.1 2.53,-0.04 3.76,0.21z"/>
   <path class="fil51" d="M24.68 43.67c-0.05,-0.01 -0.12,0.02 -0.13,0.08 -0.03,0.18 -0.06,0.36 -0.06,0.54 0,0.19 0.01,0.37 0.04,0.55 0.01,0.07 0.13,0.05 0.13,-0.02 0,-0.34 0.02,-0.68 0.09,-1.02 0.01,-0.05 -0.02,-0.11 -0.07,-0.13z"/>
   <path class="fil51" d="M25 43.81c0,0.36 -0.02,0.72 -0.01,1.08 0,0.09 0.13,0.11 0.15,0.02 0.06,-0.36 0.06,-0.73 0.06,-1.1 0,-0.13 -0.2,-0.13 -0.2,0z"/>
   <path class="fil51" d="M25.83 44.32c0,-0.18 0,-0.37 0,-0.55 0,-0.13 -0.2,-0.13 -0.2,0 0,0.19 0,0.37 0,0.56 0,0.18 0,0.37 0.03,0.55 0,0.04 0.06,0.07 0.1,0.07 0.04,-0.01 0.07,-0.05 0.07,-0.09 0.02,-0.18 0,-0.36 0,-0.54z"/>
   <path class="fil51" d="M26.49 43.77c0.01,-0.05 -0.05,-0.1 -0.1,-0.1 -0.06,0 -0.1,0.05 -0.1,0.1 -0.03,0.37 -0.03,0.75 0.05,1.11 0.01,0.09 0.16,0.07 0.16,-0.02 -0.01,-0.36 -0.03,-0.72 -0.01,-1.09z"/>
   <path class="fil51" d="M27.24 43.81c0,-0.13 -0.2,-0.13 -0.2,0 0.01,0.38 0.01,0.76 0.05,1.14 0.01,0.1 0.17,0.11 0.17,0 0.02,-0.38 0,-0.76 -0.02,-1.14z"/>
   <path class="fil51" d="M27.76 43.72c-0.01,0.34 -0.03,0.69 0.01,1.03 0.01,0.11 0.16,0.11 0.17,0 0.02,-0.34 0.01,-0.69 0.02,-1.03 0.01,-0.13 -0.19,-0.13 -0.2,0z"/>
   <path class="fil52" d="M24.68 34.23c-0.62,-0.12 -1.25,-0.21 -1.88,-0.25 -0.32,-0.01 -0.63,-0.01 -0.95,0.01 -0.31,0.03 -0.61,0.09 -0.92,0.07 -0.1,-0.01 -0.11,0.14 -0.02,0.17 0.15,0.03 0.3,0 0.44,-0.04 0.15,-0.04 0.31,-0.06 0.47,-0.08 0.31,-0.03 0.62,-0.02 0.93,0 0.64,0.04 1.25,0.2 1.88,0.32 0.13,0.02 0.18,-0.17 0.05,-0.2z"/>
   <path class="fil52" d="M26.93 34.93c-0.04,-0.14 -0.05,-0.28 -0.07,-0.41 -0.02,-0.14 -0.05,-0.27 -0.09,-0.4 -0.03,-0.1 -0.07,-0.21 -0.15,-0.29 -0.15,-0.16 -0.4,-0.2 -0.6,-0.26 -0.27,-0.08 -0.53,-0.16 -0.79,-0.24 -0.07,-0.03 -0.1,0.08 -0.03,0.1 0.24,0.08 0.47,0.17 0.71,0.26 0.11,0.05 0.22,0.09 0.33,0.14 0.09,0.03 0.18,0.07 0.24,0.14 0.07,0.08 0.09,0.18 0.12,0.28 0.03,0.12 0.05,0.24 0.1,0.36 0.05,0.12 0.09,0.24 0.11,0.37 0.02,0.12 0.02,0.25 0.09,0.37 0.03,0.06 0.12,0.03 0.12,-0.04 0.01,-0.13 -0.06,-0.25 -0.09,-0.38z"/>
   <path class="fil52" d="M28.65 33.56c-0.17,0.08 -0.36,0.12 -0.53,0.19 -0.18,0.08 -0.36,0.16 -0.51,0.29 -0.03,0.02 -0.02,0.08 0,0.1 0.03,0.03 0.08,0.03 0.11,0 0.14,-0.11 0.33,-0.16 0.5,-0.22 0.18,-0.06 0.36,-0.15 0.5,-0.27 0.05,-0.05 -0.02,-0.12 -0.07,-0.09z"/>
   <path class="fil52" d="M24.25 29.41c-0.21,-0.11 -0.42,-0.2 -0.66,-0.21 -0.23,-0.01 -0.41,0.09 -0.57,0.25 -0.32,0.3 -0.6,0.68 -0.86,1.04 -0.26,0.35 -0.49,0.72 -0.55,1.16 -0.05,0.38 0,0.78 0.23,1.09 0.14,0.18 0.31,0.32 0.51,0.42 0.22,0.12 0.45,0.17 0.69,0.2 0.09,0.02 0.13,-0.11 0.04,-0.14 -0.18,-0.06 -0.36,-0.12 -0.53,-0.18 -0.18,-0.06 -0.35,-0.15 -0.47,-0.29 -0.23,-0.25 -0.31,-0.63 -0.28,-0.96 0.01,-0.18 0.05,-0.36 0.12,-0.53 0.06,-0.18 0.15,-0.37 0.25,-0.54 0.2,-0.33 0.44,-0.67 0.73,-0.94 0.15,-0.15 0.35,-0.33 0.56,-0.37 0.12,-0.03 0.24,-0.01 0.36,0.02 0.12,0.02 0.24,0.06 0.35,0.11 0.09,0.05 0.17,-0.08 0.08,-0.13z"/>
   <path class="fil45" d="M23.85 39.88c-0.23,-0.01 -0.46,0 -0.68,0 -0.23,0.01 -0.45,0.01 -0.67,0.01 -0.45,0.01 -0.89,0.01 -1.34,0.02 -0.9,0.01 -1.79,0.01 -2.69,0.02 -0.51,0.01 -1.01,0.04 -1.52,0.03 -0.07,0 -0.07,0.11 0,0.11 0.45,0.01 0.91,0.04 1.36,0.05 0.44,0.01 0.89,0.01 1.33,0.01 0.9,-0.01 1.8,-0.02 2.69,-0.03 0.26,-0.01 0.51,-0.01 0.76,-0.01 0.26,-0.01 0.51,0 0.76,-0.02 0.13,-0.01 0.13,-0.18 0,-0.19z"/>
   <path class="fil40" d="M36.12 39.91c-0.91,-0.01 -1.83,-0.01 -2.74,-0.01 -0.91,0 -1.81,0.03 -2.71,0.03 -0.52,0 -1.04,0.01 -1.56,0.01 -0.13,0 -0.13,0.2 0,0.2 0.92,-0.01 1.83,-0.02 2.75,-0.03 0.9,0 1.81,-0.01 2.71,-0.04 0.52,-0.01 1.04,-0.02 1.55,-0.03 0.09,0 0.09,-0.13 0,-0.13z"/>
   <path class="fil40" d="M46.14 39.88c-0.68,-0.04 -1.36,-0.01 -2.04,0.01 -0.68,0.03 -1.36,0.04 -2.04,0.06 -0.13,0.01 -0.13,0.21 0,0.2 0.68,-0.02 1.36,-0.06 2.04,-0.08 0.68,-0.02 1.36,-0.04 2.04,-0.04 0.1,0 0.1,-0.14 0,-0.15z"/>
   <path class="fil45" d="M52.11 45.63c-1.01,-0.03 -2.01,-0.02 -3.01,-0.01 -1.01,0.01 -2.01,0.03 -3.02,0.04 -0.27,0 -0.55,0.01 -0.83,0.02 -0.14,0 -0.29,0.01 -0.43,0.01 -0.13,0.01 -0.26,-0.01 -0.39,-0.01 -0.09,-0.16 -0.19,-0.33 -0.28,-0.51 -0.03,-0.07 -0.14,-0.01 -0.1,0.06 0.08,0.19 0.16,0.38 0.24,0.58 0.01,0.04 0.04,0.06 0.09,0.07 0.12,0 0.24,-0.02 0.36,-0.02 0.14,0 0.27,0 0.4,0 0.26,0 0.51,0 0.76,0 0.5,0 0.99,-0.01 1.49,-0.01 1,-0.02 2.01,-0.03 3.01,-0.04 0.57,-0.01 1.14,-0.03 1.71,-0.06 0.07,-0.01 0.07,-0.12 0,-0.12z"/>
   <path class="fil53" d="M43.62 47.51c0,-1.02 0,-2.04 0,-3.06 0,-0.58 -0.02,-1.15 -0.02,-1.73 0,-0.09 -0.14,-0.09 -0.14,0 -0.01,2.04 -0.02,4.08 -0.02,6.11 0,0.58 -0.01,1.15 0.01,1.73 0,0.1 0.16,0.1 0.16,0 0.02,-0.51 0.01,-1.02 0.01,-1.53 0,-0.5 0,-1.01 0,-1.52z"/>
   <path class="fil53" d="M26.29 46.01c0,-0.08 -0.12,-0.08 -0.12,0 0,0.76 -0.04,1.52 -0.03,2.29 0.01,0.38 0.02,0.75 0.02,1.13 0,0.39 -0.03,0.78 -0.01,1.16 0.01,0.09 0.15,0.09 0.15,0 0.02,-0.38 -0.01,-0.77 -0.01,-1.16 0,-0.38 0.02,-0.75 0.02,-1.13 0.01,-0.77 -0.02,-1.53 -0.02,-2.29z"/>
   <path class="fil45" d="M24.85 35.98c-0.39,-0.01 -0.77,0.01 -1.16,0.02 -0.38,0.01 -0.76,0.02 -1.14,0.02 -0.77,0.02 -1.54,0.02 -2.3,0.02 -0.44,0 -0.87,0.02 -1.31,0.02 -0.09,0 -0.09,0.14 0,0.14 0.39,0.01 0.77,0.04 1.16,0.04 0.38,0 0.76,0 1.14,0 0.77,0 1.54,-0.01 2.31,-0.03 0.43,-0.01 0.87,0 1.3,-0.04 0.12,-0.01 0.13,-0.19 0,-0.19z"/>
   <path class="fil45" d="M35.44 36.1c-0.19,-0.04 -0.39,-0.04 -0.58,-0.04 -0.2,0 -0.4,-0.01 -0.6,-0.01 -0.39,0 -0.78,-0.01 -1.17,-0.01 -0.79,0 -1.58,0.01 -2.37,-0.01 -0.45,-0.01 -0.89,-0.01 -1.34,-0.01 -0.13,0 -0.13,0.2 0,0.2 0.79,0 1.58,-0.02 2.37,-0.02 0.79,0.01 1.58,0.03 2.37,0.04 0.21,0.01 0.43,0.01 0.65,0.02 0.22,0 0.45,0.02 0.67,-0.02 0.07,-0.01 0.07,-0.12 0,-0.14z"/>
   <path class="fil45" d="M43.19 36.16c-0.13,-0.04 -0.28,-0.02 -0.41,-0.02 -0.14,0 -0.29,0 -0.43,-0.01 -0.29,0 -0.57,-0.01 -0.86,-0.02 -0.57,-0.02 -1.14,-0.05 -1.71,-0.1 -0.12,-0.01 -0.12,0.17 0,0.18 0.57,0.06 1.14,0.1 1.71,0.13 0.29,0.01 0.57,0.01 0.86,0.02 0.14,0 0.27,0 0.41,0 0.14,0 0.3,0.01 0.43,-0.03 0.07,-0.03 0.08,-0.13 0,-0.15z"/>
   <path class="fil8" d="M34.01 34.83c-0.49,0.02 -0.97,0.1 -1.44,0.23 -0.22,0.06 -0.46,0.12 -0.67,0.23 -0.22,0.11 -0.43,0.26 -0.67,0.34 -0.11,0.03 -0.23,0.05 -0.34,0.05 -0.06,0 -0.16,0 -0.2,-0.06 -0.03,-0.06 0.01,-0.14 0.04,-0.19 0.11,-0.18 0.34,-0.28 0.53,-0.36 0.41,-0.17 0.86,-0.22 1.3,-0.28 0.24,-0.04 0.48,-0.06 0.72,-0.11 0.24,-0.05 0.48,-0.14 0.7,-0.25 0.12,-0.06 0.01,-0.24 -0.1,-0.18 -0.43,0.23 -0.92,0.33 -1.39,0.41 -0.46,0.08 -0.93,0.15 -1.36,0.34 -0.19,0.09 -0.41,0.2 -0.51,0.4 -0.03,0.07 -0.06,0.16 -0.04,0.23 0.02,0.11 0.12,0.13 0.21,0.14 0.25,0.04 0.5,-0.05 0.73,-0.14 0.23,-0.1 0.47,-0.2 0.7,-0.3 0.56,-0.26 1.18,-0.38 1.79,-0.4 0.06,0 0.06,-0.1 0,-0.1z"/>
   <path class="fil8" d="M34.52 35.26c-0.35,0.03 -0.7,0.08 -1.04,0.15 -0.07,0.02 -0.04,0.14 0.03,0.12 0.34,-0.07 0.67,-0.13 1.01,-0.17 0.06,-0.01 0.07,-0.11 0,-0.1z"/>
   <path class="fil54" d="M40.64 34.98c-0.23,-0.05 -0.46,-0.1 -0.7,-0.13 -0.03,-0.02 -0.06,-0.04 -0.09,-0.06 -0.32,-0.17 -0.66,-0.29 -1.02,-0.33 -0.37,-0.04 -0.74,-0.03 -1.11,0.02 -0.41,0.05 -0.82,0.15 -1.23,0.26 -0.07,0.01 -0.04,0.12 0.03,0.1 0.81,-0.2 1.67,-0.43 2.5,-0.19 0.39,0.11 0.76,0.31 1.1,0.51 0.16,0.1 0.33,0.21 0.52,0.23 0.13,0.02 0.31,-0.01 0.36,-0.16 0.06,-0.2 -0.24,-0.22 -0.36,-0.25zm0.16 0.28l0 0c-0.18,0.05 -0.37,-0.1 -0.51,-0.19 -0.02,-0.02 -0.04,-0.03 -0.06,-0.05 0.08,0.02 0.16,0.04 0.23,0.05 0.09,0.02 0.18,0.04 0.27,0.06 0.03,0.01 0.09,0.01 0.12,0.02 0.07,0.05 0,0.1 -0.05,0.11z"/>
   <path class="fil55" d="M37.09 30.55c-0.11,0.05 -0.21,0.11 -0.32,0.15 -0.11,0.05 -0.22,0.08 -0.33,0.1 -0.24,0.06 -0.48,0.11 -0.73,0.12 -0.51,0.03 -1.01,-0.16 -1.47,-0.37 -0.1,-0.04 -0.19,0.1 -0.09,0.15 0.5,0.23 1.02,0.43 1.58,0.39 0.26,-0.02 0.52,-0.07 0.77,-0.13 0.23,-0.05 0.5,-0.13 0.68,-0.29 0.07,-0.06 -0.02,-0.16 -0.09,-0.12z"/>
   <path class="fil55" d="M39.94 31.87c0,-0.07 -0.11,-0.07 -0.1,0 0.03,0.27 0.03,0.55 0.02,0.82 -0.01,0.14 -0.01,0.27 -0.02,0.41 0,0.06 -0.01,0.13 -0.01,0.19 -0.01,0.08 -0.03,0.16 -0.02,0.23 0.01,0.07 0.1,0.08 0.12,0.02 0.05,-0.12 0.05,-0.28 0.06,-0.41 0.01,-0.14 0.02,-0.28 0.02,-0.42 -0.01,-0.28 -0.03,-0.57 -0.07,-0.84z"/>
   <path class="fil55" d="M32.17 33.54c-0.02,-0.09 -0.03,-0.18 -0.04,-0.26 -0.04,-0.17 -0.06,-0.34 -0.09,-0.51 0,-0.04 -0.03,-0.07 -0.07,-0.07 -0.03,0 -0.08,0.04 -0.07,0.07 0.02,0.18 0.04,0.35 0.05,0.52 0.01,0.09 0.01,0.17 0.02,0.26 0.02,0.09 0.02,0.17 0.07,0.25 0.03,0.05 0.11,0.04 0.12,-0.01 0.03,-0.09 0.02,-0.17 0.01,-0.25z"/>
   <path class="fil56" d="M4.11 51.28c0,-0.16 0.13,-0.29 0.29,-0.29l56.49 0c0.16,0 0.29,0.13 0.29,0.29 0,0.16 -0.13,0.29 -0.29,0.29l-56.49 0c-0.16,0 -0.29,-0.13 -0.29,-0.29z"/>
  </g>
 </g>
</svg>
