<?xml version="1.0" encoding="UTF-8"?>
<!DOCTYPE svg PUBLIC "-//W3C//DTD SVG 1.1//EN" "http://www.w3.org/Graphics/SVG/1.1/DTD/svg11.dtd">
<!-- Creator: CorelDRAW 2023 -->
<svg xmlns="http://www.w3.org/2000/svg" xml:space="preserve" width="365px" height="412px" version="1.1" style="shape-rendering:geometricPrecision; text-rendering:geometricPrecision; image-rendering:optimizeQuality; fill-rule:evenodd; clip-rule:evenodd"
viewBox="0 0 30.29 34.13"
 xmlns:xlink="http://www.w3.org/1999/xlink"
 xmlns:xodm="http://www.corel.com/coreldraw/odm/2003">
 <defs>
  <style type="text/css">
   <![CDATA[
    .fil10 {fill:#132F5D;fill-rule:nonzero}
    .fil9 {fill:#234B6E;fill-rule:nonzero}
    .fil5 {fill:#31005B;fill-rule:nonzero}
    .fil4 {fill:#6C0DBA;fill-rule:nonzero}
    .fil6 {fill:#9617FF;fill-rule:nonzero}
    .fil19 {fill:#DD7C62;fill-rule:nonzero}
    .fil23 {fill:#E43446;fill-rule:nonzero}
    .fil18 {fill:#E99575;fill-rule:nonzero}
    .fil12 {fill:#ED601A;fill-rule:nonzero}
    .fil11 {fill:#EF7E33;fill-rule:nonzero}
    .fil16 {fill:#F2B8A0;fill-rule:nonzero}
    .fil22 {fill:#F6424B;fill-rule:nonzero}
    .fil14 {fill:#F6D43D;fill-rule:nonzero}
    .fil20 {fill:#F9E2D3;fill-rule:nonzero}
    .fil13 {fill:#FFAC1C;fill-rule:nonzero}
    .fil21 {fill:#FFF2EB;fill-rule:nonzero}
    .fil3 {fill:#132F5D;fill-rule:nonzero;fill-opacity:0.101961}
    .fil7 {fill:#42A37B;fill-rule:nonzero;fill-opacity:0.301961}
    .fil8 {fill:#60CCA8;fill-rule:nonzero;fill-opacity:0.301961}
    .fil15 {fill:#FFAC1C;fill-rule:nonzero;fill-opacity:0.400000}
    .fil17 {fill:#E99575;fill-rule:nonzero;fill-opacity:0.501961}
    .fil2 {fill:#B5C2DD;fill-rule:nonzero;fill-opacity:0.600000}
    .fil0 {fill:#B7C2DE;fill-rule:nonzero;fill-opacity:0.600000}
    .fil1 {fill:#BCC4E0;fill-rule:nonzero;fill-opacity:0.600000}
   ]]>
  </style>
 </defs>
 <g id="Camada_x0020_1">
  <metadata id="CorelCorpID_0Corel-Layer"/>
  <g id="_1761704718624">
   <g>
    <g>
     <g>
      <path class="fil0" d="M10.85 20.96c0.45,-3.17 0.08,-6.44 -1.59,-9.16 -0.35,-0.6 -1.3,-2.16 -2.23,-1.7 -0.76,0.32 -0.65,1.84 -0.64,2.48 -1.32,-1.35 -3.6,-3.4 -5.63,-2.15 -2.02,1.26 0.51,3.65 1.59,4.52 0.78,0.6 1.68,1.16 2.55,1.7 -0.99,0.26 -2.44,0.67 -1.53,1.88 0.8,0.99 2.23,1.38 3.37,1.57 -0.39,0.13 -1.53,0.37 -1.55,0.96 -0.05,0.62 0.99,0.92 1.42,1.03 1.21,0.28 2.49,0.11 3.59,-0.48l0.65 -0.65z"/>
     </g>
     <g>
      <path class="fil1" d="M19.08 13.82c0.79,-0.24 1.48,-0.6 2.11,-1.12 0.45,-0.39 1.42,-1.21 1.28,-1.94 -0.21,-1.03 -2.31,0.01 -1.24,-1.39 0.43,-0.56 2.66,-2.69 1.01,-2.99 -0.33,-0.06 -1.04,0.05 -1.28,-0.28 -0.27,-0.4 0.2,-1.08 0.35,-1.42 0.56,-1.34 0.6,-2.88 -0.66,-3.11 -1.26,-0.23 -1.77,1.22 -1.73,2.66 0.01,0.38 0.21,1.18 -0.18,1.45 -0.35,0.23 -0.96,-0.13 -1.3,-0.19 -1.65,-0.31 -0.33,2.48 -0.13,3.15 0.49,1.7 -1.09,-0.03 -1.65,0.86 -0.39,0.62 0.22,1.75 0.5,2.27 0.39,0.71 0.91,1.29 1.57,1.8l1.35 0.25z"/>
     </g>
     <g>
      <path class="fil2" d="M21.37 17.06c-0.99,-2.14 -1.73,-4.5 -1.54,-6.9 0.03,-0.49 0.07,-1.85 0.8,-1.92 0.6,-0.07 1.08,0.87 1.29,1.3 0.39,0.8 0.63,1.66 0.86,2.52 -0.44,-2.1 -0.79,-4.37 -0.23,-6.51 0.13,-0.48 0.42,-1.51 1.05,-1.51 0.65,-0.02 0.95,0.83 1.11,1.3 0.32,1 0.33,2.1 0.37,3.13 0.3,-1.38 0.62,-2.82 1.42,-4.03 0.54,-0.84 1.47,-1.89 2.54,-2.05 2.26,-0.39 -0.94,3.77 -1.31,4.21 -0.62,0.77 -1.24,1.55 -1.84,2.36 0.59,-0.57 1.23,-0.99 1.99,-1.25 0.48,-0.16 1.88,-0.63 2.34,-0.12 0.8,0.85 -5.26,3.98 -5.8,4.54 1.1,-0.54 2.29,-1.12 3.59,-1.1 0.8,0.03 1.68,0.44 1.03,1.31 -0.83,1.06 -6.59,4.41 -7.67,4.72z"/>
     </g>
     <g>
      <path class="fil0" d="M23.09 22.73c-0.89,-2.39 -1.17,-4.98 -0.34,-7.38 0.16,-0.53 0.64,-1.9 1.43,-1.7 0.65,0.12 0.82,1.31 0.93,1.81 0.79,-1.28 2.2,-3.26 3.99,-2.63 1.79,0.62 0.24,2.92 -0.45,3.77 -0.5,0.6 -1.11,1.19 -1.69,1.76 0.82,0.03 2.01,0.1 1.51,1.2 -0.45,0.91 -1.49,1.45 -2.34,1.8 0.32,0.03 1.25,0.02 1.37,0.47 0.14,0.48 -0.62,0.89 -0.93,1.05 -0.89,0.42 -1.91,0.51 -2.87,0.24l-0.61 -0.39z"/>
     </g>
     <g>
      <path class="fil1" d="M10.67 15.46c0.8,-0.72 1.41,-1.49 1.84,-2.38 0.3,-0.65 0.96,-2.07 0.35,-2.7 -0.88,-0.92 -2.75,1.39 -2.33,-0.66 0.16,-0.81 1.53,-4.28 -0.62,-3.59 -0.44,0.13 -1.21,0.67 -1.7,0.48 -0.57,-0.24 -0.41,-1.19 -0.45,-1.63 -0.15,-1.67 -1.04,-3.23 -2.69,-2.71 -1.64,0.52 -1.37,2.28 -0.44,3.7 0.25,0.37 0.98,1.05 0.67,1.56 -0.27,0.43 -1.23,0.44 -1.66,0.58 -2.16,0.67 1.12,2.67 1.76,3.23 1.63,1.4 -1.32,0.62 -1.44,1.85 -0.09,0.86 1.33,1.61 1.98,1.97 0.9,0.47 1.88,0.74 2.97,0.86l1.76 -0.56z"/>
     </g>
     <g>
      <path class="fil2" d="M13.5 14.5c-1.8,-0.98 -3.54,-2.24 -4.65,-4.02 -0.24,-0.35 -0.91,-1.32 -0.44,-1.75 0.37,-0.36 1.2,0.05 1.57,0.24 0.69,0.36 1.3,0.83 1.91,1.31 -1.4,-1.23 -2.82,-2.64 -3.54,-4.42 -0.16,-0.41 -0.49,-1.28 -0.05,-1.6 0.44,-0.35 1.09,0.08 1.45,0.33 0.74,0.53 1.32,1.29 1.88,1.99 -0.51,-1.11 -1.03,-2.29 -1.1,-3.55 -0.06,-0.86 0.04,-2.08 0.71,-2.75 1.37,-1.44 1.3,3.12 1.27,3.62 -0.03,0.86 -0.06,1.72 -0.05,2.6 0.11,-0.7 0.34,-1.32 0.73,-1.9 0.25,-0.36 0.99,-1.41 1.57,-1.29 1,0.17 -1.6,5.5 -1.69,6.17 0.49,-0.95 1.02,-1.97 1.93,-2.63 0.58,-0.39 1.41,-0.56 1.4,0.38 -0.02,1.17 -2.31,6.5 -2.9,7.27z"/>
     </g>
    </g>
   </g>
   <g>
    <path class="fil3" d="M24.56 21.4c-0.15,-0.02 -0.26,0.04 -0.36,0.14 0,0 0,0 0,0 0,0 0,0 0,0 -0.32,0.36 -0.38,1.25 -0.44,1.7 0,0.01 0,0.01 0,0.01 0,0.01 0,0.03 -0.01,0.05 0,0 0,0.01 0,0.01 0,0.01 0,0.02 -0.01,0.04 0,0 0,0 0,0.01 0,0.01 0,0.03 -0.01,0.04 -0.02,0.11 -0.07,0.25 -0.12,0.38l0.32 -4.8 4.81 -1.09 -4.11 -2.9 2.03 -2.76 0.38 -0.24c0,0 0,0 0,0 0,0 0,-0.01 0,-0.01 0,0 0,0 -0.01,-0.01 0,0 0,0 0,-0.01 0,0 -0.01,-0.01 -0.01,-0.01 0,0 0,-0.01 -0.01,-0.02 0,0 0,-0.01 -0.01,-0.02 0,-0.01 -0.01,-0.02 -0.01,-0.03 -0.01,-0.01 -0.01,-0.01 -0.01,-0.02 -0.01,-0.01 -0.01,-0.02 -0.02,-0.03 0,0 0,0 0,0l0.73 -1 -1.39 -0.17c0,-0.01 0,-0.01 -0.01,-0.02 0,0 0,0 0,-0.01 -0.06,-0.1 -0.13,-0.2 -0.19,-0.3 0,0 0,0 0,0 -0.02,-0.03 -0.04,-0.06 -0.06,-0.1 -0.01,0 -0.01,-0.01 -0.01,-0.01 -0.09,-0.13 -0.18,-0.27 -0.28,-0.4 0,-0.01 0,-0.01 -0.01,-0.02 -0.02,-0.03 -0.04,-0.06 -0.06,-0.09 -0.01,0 -0.01,-0.01 -0.02,-0.02 -0.23,-0.32 -0.49,-0.63 -0.75,-0.89 0,0 -1.01,0.78 -2.01,0.22 -1,-0.56 -0.81,-1.8 -0.81,-1.8 -1.52,-0.38 -3.9,-0.19 -3.9,-0.19l-0.13 2.51 1.06 0.05 -0.09 0.15 -0.28 -0.03 -1.07 2.26 -0.52 0.86c0.3,-0.95 0.42,-1.82 0.02,-2.4 -0.58,-0.89 -0.98,-1.37 -0.72,-2.58 0.33,-1.47 1.27,-2.66 2.31,-3.74l-0.14 0c0.21,-0.31 0.4,-0.63 0.69,-0.88 0.05,-0.04 -0.03,-0.11 -0.08,-0.07 -0.3,0.26 -0.51,0.61 -0.73,0.94l-0.07 0 0 0 -0.21 0c0.21,-0.33 0.41,-0.66 0.7,-0.91 0.05,-0.05 -0.02,-0.12 -0.07,-0.08 -0.31,0.28 -0.53,0.63 -0.75,0.99l-0.19 -0.01c0.19,-0.32 0.38,-0.64 0.61,-0.93 0.04,-0.05 -0.03,-0.12 -0.07,-0.07 -0.25,0.31 -0.46,0.66 -0.66,1l-0.24 0c0.19,-0.32 0.38,-0.64 0.64,-0.9 0.05,-0.05 -0.03,-0.12 -0.08,-0.07 -0.27,0.28 -0.47,0.63 -0.68,0.96l-0.39 0c0.21,-0.37 0.48,-0.71 0.79,-0.97 0.05,-0.05 -0.02,-0.12 -0.07,-0.08 -0.34,0.29 -0.62,0.65 -0.83,1.04l-0.19 0c0.17,-0.35 0.36,-0.7 0.63,-0.97 0.05,-0.05 -0.03,-0.12 -0.07,-0.07 -0.29,0.29 -0.49,0.66 -0.67,1.04l-0.26 -0.01c0.16,-0.35 0.36,-0.68 0.62,-0.95 0.05,-0.05 -0.03,-0.12 -0.07,-0.08 -0.28,0.3 -0.5,0.66 -0.67,1.03l-0.3 -0.01c0.19,-0.33 0.44,-0.64 0.66,-0.95 0.04,-0.06 -0.05,-0.11 -0.09,-0.06 -0.23,0.34 -0.49,0.66 -0.69,1.01l-0.03 0c-0.99,1.12 -1.88,2.35 -2.14,3.83 -0.06,0.34 -0.07,0.62 -0.04,0.87 -0.11,-0.06 -0.22,-0.12 -0.33,-0.18 -0.02,0 -0.03,-0.01 -0.04,-0.01 -0.03,-0.02 -0.06,-0.04 -0.1,-0.05 -0.01,-0.01 -0.02,-0.02 -0.03,-0.02 -0.04,-0.02 -0.07,-0.04 -0.11,-0.05 -0.01,-0.01 -0.02,-0.02 -0.04,-0.02 -0.03,-0.02 -0.07,-0.04 -0.1,-0.06 -0.01,0 -0.02,-0.01 -0.03,-0.01 -0.17,-0.09 -0.35,-0.17 -0.54,-0.26 -0.01,0 -0.02,-0.01 -0.03,-0.01 -0.04,-0.02 -0.08,-0.04 -0.12,-0.06 -0.01,0 -0.02,-0.01 -0.04,-0.02 -0.04,-0.02 -0.08,-0.03 -0.12,-0.05 -0.01,-0.01 -0.03,-0.01 -0.04,-0.02 -0.04,-0.02 -0.08,-0.04 -0.13,-0.06 -0.01,0 -0.02,0 -0.03,-0.01 -0.19,-0.08 -0.4,-0.17 -0.6,-0.25 -0.01,0 -0.02,-0.01 -0.03,-0.01 -0.05,-0.02 -0.09,-0.04 -0.14,-0.05 -0.01,-0.01 -0.02,-0.01 -0.04,-0.02 -0.04,-0.02 -0.09,-0.03 -0.13,-0.05 -0.02,-0.01 -0.03,-0.01 -0.04,-0.02 -0.05,-0.01 -0.1,-0.03 -0.14,-0.05 -0.01,0 -0.02,0 -0.04,-0.01 -0.21,-0.07 -0.42,-0.15 -0.64,-0.21 -0.01,-0.01 -0.02,-0.01 -0.03,-0.01 -0.05,-0.02 -0.09,-0.03 -0.14,-0.04 -0.01,-0.01 -0.03,-0.01 -0.05,-0.02 -0.04,-0.01 -0.09,-0.02 -0.13,-0.04 -0.02,0 -0.03,-0.01 -0.05,-0.01 -0.05,-0.01 -0.09,-0.03 -0.14,-0.04 -0.01,0 -0.02,-0.01 -0.04,-0.01 -0.21,-0.05 -0.43,-0.1 -0.64,-0.15 -0.01,0 -0.03,0 -0.04,0 -0.04,-0.01 -0.09,-0.02 -0.13,-0.03 -0.02,0 -0.04,0 -0.06,-0.01 -0.04,-0.01 -0.08,-0.01 -0.13,-0.02 -0.01,0 -0.03,0 -0.05,-0.01 -0.04,0 -0.09,-0.01 -0.13,-0.02 -0.02,0 -0.03,0 -0.05,0 -0.04,-0.01 -0.09,-0.01 -0.13,-0.02 -0.01,0 -0.01,0 -0.02,0 -0.15,-0.02 -0.31,-0.03 -0.46,-0.04 -0.02,0 -0.03,0 -0.05,0 -0.04,0 -0.08,0 -0.12,0 -0.02,0 -0.04,0 -0.06,0 -0.04,0 -0.07,0 -0.11,0 -0.02,0 -0.04,0 -0.06,0 -0.04,0 -0.08,0 -0.12,0 -0.02,0 -0.04,0.01 -0.06,0.01 -0.03,0 -0.07,0 -0.11,0 -0.01,0 -0.03,0.01 -0.04,0.01 -0.09,0 -0.19,0.02 -0.28,0.03 0,0 0,0 0,0 -0.56,0.08 -1.07,0.27 -1.5,0.59 0,0 0.57,1.09 -0.17,1.91 -0.74,0.82 -1.92,0.41 -1.92,0.41 -1.47,2.54 1.49,6.77 2.84,8.48l-0.03 0.15 0.18 0.05c0.28,0.34 0.46,0.55 0.46,0.55 0,0 0.02,-0.01 0.04,-0.01l0 0.2 0 4.76c-0.06,-0.16 -0.12,-0.32 -0.15,-0.46 -0.01,-0.01 -0.01,-0.03 -0.01,-0.04 0,-0.01 0,-0.01 0,-0.01 -0.01,-0.02 -0.01,-0.03 -0.01,-0.04 0,0 0,-0.01 0,-0.01 0,-0.02 -0.01,-0.03 -0.01,-0.05 0,0 0,0 0,-0.01 -0.06,-0.45 -0.12,-1.34 -0.44,-1.7 0,0 0,0 0,0 0,0 0,0 0,0 -0.1,-0.1 -0.21,-0.16 -0.36,-0.14 -0.66,0.06 -0.08,3.39 0.38,4.24 0.57,1.04 1.84,2.64 2.14,2.73 1.43,0.48 3.67,1.38 3.77,2.07 0.1,0.69 -0.71,3.69 -0.71,3.69l3.06 0 0.59 0c0,0 -0.08,-0.7 -0.15,-1.5 0.28,0.34 0.57,0.68 0.81,0.99 -0.03,0.31 -0.05,0.51 -0.05,0.51l0.59 0 3.06 0c0,0 -0.81,-3 -0.71,-3.69 0.1,-0.69 2.34,-1.59 3.77,-2.07 0.3,-0.09 1.57,-1.69 2.14,-2.73 0.46,-0.85 1.04,-4.18 0.38,-4.24zm-15.53 -12.38l0 0c0,0 1.5,0.32 3.3,0.97l-1.95 0.16 -1.35 -1.13zm5.38 1.83l0 0c0.08,-0.07 0.14,-0.16 0.2,-0.26 0.16,0.28 0.22,0.59 0.21,0.92l-0.41 -0.66zm-9.22 2.44l0 0 0.49 0.44 0.79 1.26 -0.16 0.79c-0.71,-1.39 -1.12,-2.49 -1.12,-2.49zm9.23 16.47l0 0c-0.03,-0.4 -0.09,-0.86 -0.24,-1.29l0.51 0.12 1.22 -0.25c-0.28,0.74 -0.29,1.55 -0.29,2.09 0,0.03 0,0.06 0,0.09 0,0 0,0 0,0 0,0.04 -0.01,0.08 -0.01,0.11 0,0.07 0,0.15 0,0.22 -0.25,-0.34 -0.72,-0.9 -1.19,-1.09z"/>
   </g>
   <g>
    <g>
     <g>
      <g>
       <polygon class="fil4" points="5.96,14.5 3.26,10.08 13.29,9.27 16.05,13.82 18.24,9.09 27.18,10.25 23.64,15.17 14.39,17.23 "/>
       <polygon class="fil5" points="5.96,14.5 14.39,17.23 23.64,15.17 24.12,14.5 16.05,13.82 "/>
       <polygon class="fil6" points="5.96,26.36 14.17,28.45 22.9,26.62 23.67,14.67 14.39,16.08 5.96,14.5 "/>
       <polygon class="fil7" points="14.34,16.07 5.96,14.5 5.96,18.72 14.01,21.31 "/>
       <polygon class="fil6" points="23.67,14.67 14.39,16.08 14.17,28.45 22.9,26.62 "/>
       <polygon class="fil8" points="23.38,19.26 23.67,14.67 14.43,16.07 14.96,21.31 "/>
       <polygon class="fil6" points="14.39,16.08 17.09,20.07 28.22,17.48 24.12,14.5 "/>
       <polygon class="fil6" points="13.88,20.23 14.39,16.08 5.96,14.5 5.27,17.91 "/>
      </g>
      <g>
       <g>
        <path class="fil9" d="M6.78 14.66l-2.1 -1.89c0,0 0.99,2.73 2.57,5.08 -0.38,0.52 -1.33,0.67 -1.33,0.67 0,0 -5.33,-6.14 -3.45,-9.45 0,0 1.18,0.42 1.92,-0.43 0.74,-0.84 0.16,-1.96 0.16,-1.96 3.05,-2.29 9.83,2.19 9.83,2.19 0,0 -0.02,0.96 -0.49,1.4 -2.54,-1.26 -5.37,-1.88 -5.37,-1.88l4.73 4.05 -2.57 2.94 -3.9 -0.72z"/>
        <path class="fil10" d="M14.38 8.87c0,0 -4.99,-3.3 -8.33,-2.79 1.32,2.78 2.62,5.85 2.81,8.96l1.82 0.34 2.57 -2.94 -4.73 -4.05c0,0 2.83,0.62 5.37,1.88 0.47,-0.44 0.49,-1.4 0.49,-1.4z"/>
       </g>
       <g>
        <path class="fil11" d="M22.2 14.81l1.59 -2.85 0.58 0.88 2.16 -1.41c0,0 -1.03,-2.15 -2.13,-3.27 0,0 -1.01,0.81 -2.01,0.23 -1,-0.57 -0.81,-1.85 -0.81,-1.85 -1.52,-0.39 -3.9,-0.19 -3.9,-0.19l-0.13 2.57 1.06 0.05 -3.17 5.37 2.13 1.22 4.63 -0.75z"/>
        <path class="fil12" d="M25.08 8.99c-2.11,2.84 -5.49,4.88 -8.95,5.75l1.44 0.82 4.63 -0.75 1.59 -2.85 0.58 0.88 2.16 -1.41c0,0 -0.64,-1.33 -1.45,-2.44z"/>
       </g>
       <g>
        <g>
         <path class="fil13" d="M16.02 2.26c-0.28,0.42 -0.61,0.81 -0.82,1.28 -0.02,0.06 0.07,0.11 0.09,0.05 0.21,-0.47 0.54,-0.86 0.82,-1.27 0.04,-0.06 -0.05,-0.11 -0.09,-0.06z"/>
         <path class="fil13" d="M16.42 2.25c-0.41,0.44 -0.67,1 -0.87,1.56 -0.03,0.06 0.07,0.09 0.1,0.02 0.19,-0.53 0.45,-1.08 0.84,-1.5 0.05,-0.05 -0.03,-0.13 -0.07,-0.08z"/>
         <path class="fil13" d="M16.79 2.24c-0.4,0.42 -0.62,1.01 -0.88,1.53 -0.03,0.06 0.06,0.11 0.09,0.05 0.25,-0.51 0.47,-1.09 0.87,-1.5 0.05,-0.05 -0.03,-0.12 -0.08,-0.08z"/>
         <path class="fil13" d="M17.33 2.33c0.05,-0.05 -0.03,-0.12 -0.08,-0.08 -0.47,0.41 -0.84,1 -1.06,1.58 -0.03,0.06 0.07,0.09 0.1,0.02 0.22,-0.56 0.58,-1.12 1.04,-1.52z"/>
         <path class="fil13" d="M17.61 2.34c-0.42,0.45 -0.67,1.03 -1.04,1.52 -0.04,0.06 0.05,0.11 0.09,0.06 0.37,-0.49 0.61,-1.07 1.03,-1.51 0.04,-0.05 -0.03,-0.12 -0.08,-0.07z"/>
         <path class="fil13" d="M17.95 2.31c-0.38,0.48 -0.65,1.03 -0.97,1.55 -0.04,0.06 0.05,0.11 0.09,0.05 0.31,-0.51 0.58,-1.05 0.95,-1.53 0.04,-0.05 -0.03,-0.12 -0.07,-0.07z"/>
         <path class="fil13" d="M18.42 2.41c0.05,-0.05 -0.02,-0.12 -0.07,-0.08 -0.45,0.41 -0.7,0.98 -1.04,1.46 -0.03,0.06 0.06,0.11 0.1,0.06 0.32,-0.48 0.58,-1.05 1.01,-1.44z"/>
         <path class="fil13" d="M18.73 2.38c-0.44,0.39 -0.66,0.96 -1.05,1.38 -0.05,0.05 0.03,0.13 0.07,0.08 0.39,-0.43 0.62,-1 1.05,-1.39 0.05,-0.04 -0.02,-0.11 -0.07,-0.07z"/>
        </g>
        <g>
         <path class="fil14" d="M15.27 15.94c0.62,-2.03 2.29,-4.78 1.4,-6.11 -0.59,-0.91 -0.99,-1.4 -0.72,-2.65 0.32,-1.5 1.27,-2.72 2.31,-3.82l-2.96 -0.07c-1,1.15 -1.89,2.41 -2.15,3.93 -0.21,1.25 0.21,1.72 0.84,2.61 0.96,1.32 -0.45,3.39 -1.31,5.93l1.71 0.32 0.88 -0.14z"/>
        </g>
        <g>
         <path class="fil15" d="M15.27 15.94c0.62,-2.03 2.29,-4.78 1.4,-6.11 -0.59,-0.91 -0.99,-1.4 -0.72,-2.65 0.32,-1.5 1.27,-2.72 2.31,-3.82l-0.33 -0.01c-0.87,1.09 -1.73,2.2 -2.45,3.41 -0.44,0.78 -1.17,2.06 -0.98,2.99 0.15,0.89 1.13,1.23 1.08,2.21 0,0.98 -0.73,2.16 -1.18,3.09 -0.14,0.32 -0.29,0.63 -0.45,0.94l0.44 0.09 0.88 -0.14z"/>
        </g>
       </g>
      </g>
     </g>
     <g>
      <g>
       <path class="fil16" d="M14.82 34.13c0,0 0.26,-2.52 0.28,-3.58 0.02,-1.07 -0.14,-3.75 2.68,-4.19 2.29,-0.37 2.98,-1.21 3.37,-1.52 0.38,-0.3 1.03,-0.58 1.56,-0.48 0,0 0.41,-0.76 0.51,-1.23 0.1,-0.46 0.11,-2.13 0.83,-2.05 0.66,0.06 0.07,3.48 -0.39,4.35 -0.56,1.07 -1.84,2.7 -2.13,2.8 -1.43,0.48 -3.67,1.41 -3.77,2.11 -0.1,0.71 0.71,3.79 0.71,3.79l-3.65 0z"/>
       <path class="fil17" d="M15.6 31.19c-0.03,-0.6 -0.11,-1.18 -0.12,-1.77 -0.03,-0.48 -0.04,-0.97 0.01,-1.44 -0.42,0.92 -0.38,1.98 -0.39,2.57 -0.02,1.06 -0.28,3.58 -0.28,3.58l0.59 0c0.04,-0.26 0.07,-0.51 0.09,-0.78 0.06,-0.72 0.13,-1.43 0.1,-2.16z"/>
       <path class="fil18" d="M23.19 24.76c0.12,0.36 -0.62,0.79 -1.23,1.56 -0.36,0.46 -1.53,0.74 -2.55,1.82 0,0 1.95,-1.3 2.53,-1.51 0.16,-0.05 0.59,-0.68 0.94,-1.02 0.35,-0.33 0.66,-0.73 0.4,-1.12 -0.25,-0.39 0.03,-0.53 0.1,-1.3 0.04,-0.57 0.09,-1.41 0.31,-1.96 -0.37,0.41 -0.39,1.53 -0.47,1.9 -0.1,0.47 -0.51,1.23 -0.51,1.23 0,0 0.35,0.05 0.48,0.4z"/>
       <path class="fil19" d="M23.13 24.78c0.07,0.19 -0.19,0.44 -0.51,0.76 -0.22,0.21 -0.47,0.45 -0.71,0.75 -0.14,0.18 -0.42,0.33 -0.77,0.53 -0.52,0.28 -1.17,0.64 -1.77,1.28 -0.02,0.02 -0.02,0.06 0,0.08 0.01,0.01 0.02,0.02 0.04,0.02 0.01,0 0.03,-0.01 0.04,-0.02 0.59,-0.63 1.23,-0.98 1.74,-1.27 0.37,-0.2 0.66,-0.36 0.81,-0.55 0.23,-0.29 0.48,-0.53 0.69,-0.74 0.37,-0.36 0.64,-0.62 0.55,-0.88 -0.12,-0.33 -0.42,-0.41 -0.5,-0.43 -0.02,0.03 -0.03,0.05 -0.03,0.05 0,0 0.31,0.11 0.42,0.42z"/>
       <path class="fil20" d="M21.94 24.91c0.02,0.2 0.42,0.67 0.61,0.63 0.19,-0.05 0.61,-0.49 0.65,-0.69 0.04,-0.2 -0.36,-0.58 -0.75,-0.42 -0.4,0.16 -0.52,0.37 -0.51,0.48z"/>
       <path class="fil21" d="M22.75 24.4c-0.09,-0.02 -0.2,-0.02 -0.3,0.03 -0.4,0.16 -0.52,0.37 -0.51,0.48 0.01,0.16 0.27,0.49 0.47,0.6 -0.04,-0.36 0.12,-0.78 0.34,-1.11z"/>
      </g>
      <g>
       <path class="fil16" d="M14.21 34.13c0,0 -0.27,-2.52 -0.29,-3.58 -0.02,-1.07 0.14,-3.75 -2.68,-4.19 -2.29,-0.37 -2.98,-1.21 -3.36,-1.52 -0.38,-0.3 -1.03,-0.58 -1.57,-0.48 0,0 -0.41,-0.76 -0.51,-1.23 -0.1,-0.46 -0.11,-2.13 -0.82,-2.05 -0.67,0.06 -0.08,3.48 0.38,4.35 0.57,1.07 1.84,2.7 2.14,2.8 1.43,0.48 3.66,1.41 3.76,2.11 0.1,0.71 -0.7,3.79 -0.7,3.79l3.65 0z"/>
       <path class="fil17" d="M13.42 31.19c0.03,-0.6 0.11,-1.18 0.13,-1.77 0.02,-0.48 0.03,-0.97 -0.02,-1.44 0.42,0.92 0.38,1.98 0.39,2.57 0.02,1.06 0.29,3.58 0.29,3.58l-0.59 0c-0.04,-0.26 -0.08,-0.51 -0.1,-0.78 -0.06,-0.72 -0.13,-1.43 -0.1,-2.16z"/>
       <path class="fil18" d="M5.84 24.76c-0.13,0.36 0.61,0.79 1.23,1.56 0.36,0.46 1.53,0.74 2.55,1.82 0,0 -1.95,-1.3 -2.54,-1.51 -0.15,-0.05 -0.59,-0.68 -0.94,-1.02 -0.34,-0.33 -0.65,-0.73 -0.4,-1.12 0.25,-0.39 -0.03,-0.53 -0.09,-1.3 -0.05,-0.57 -0.1,-1.41 -0.31,-1.96 0.36,0.41 0.38,1.53 0.46,1.9 0.1,0.47 0.51,1.23 0.51,1.23 0,0 -0.35,0.05 -0.47,0.4z"/>
       <path class="fil19" d="M5.89 24.78c-0.07,0.19 0.19,0.44 0.52,0.76 0.22,0.21 0.47,0.45 0.7,0.75 0.14,0.18 0.42,0.33 0.78,0.53 0.52,0.28 1.16,0.64 1.77,1.28 0.02,0.02 0.02,0.06 0,0.08 -0.02,0.01 -0.03,0.02 -0.04,0.02 -0.02,0 -0.03,-0.01 -0.04,-0.02 -0.6,-0.63 -1.23,-0.98 -1.75,-1.27 -0.36,-0.2 -0.65,-0.36 -0.81,-0.55 -0.23,-0.29 -0.47,-0.53 -0.69,-0.74 -0.37,-0.36 -0.64,-0.62 -0.55,-0.88 0.13,-0.33 0.43,-0.41 0.51,-0.43 0.01,0.03 0.02,0.05 0.02,0.05 0,0 -0.31,0.11 -0.42,0.42z"/>
       <path class="fil20" d="M7.08 24.91c-0.01,0.2 -0.41,0.67 -0.6,0.63 -0.2,-0.05 -0.62,-0.49 -0.66,-0.69 -0.03,-0.2 0.36,-0.58 0.76,-0.42 0.39,0.16 0.51,0.37 0.5,0.48z"/>
       <path class="fil21" d="M6.27 24.4c0.1,-0.02 0.2,-0.02 0.31,0.03 0.39,0.16 0.51,0.37 0.5,0.48 -0.01,0.16 -0.27,0.49 -0.47,0.6 0.04,-0.36 -0.11,-0.78 -0.34,-1.11z"/>
      </g>
     </g>
    </g>
    <g>
     <g>
      <path class="fil22" d="M15.14 33.98c-0.79,-1.17 -2.7,-2.97 -2.13,-3.99 0.63,-1.09 1.76,0.3 2.13,0.86 0.37,-0.56 1.51,-1.95 2.14,-0.86 0.57,1.02 -1.34,2.82 -2.14,3.99z"/>
     </g>
     <g>
      <path class="fil23" d="M17.28 29.99c-0.08,-0.14 -0.17,-0.23 -0.26,-0.3 -0.95,1.25 -1.5,2.71 -1.83,4.23 0.82,-1.17 2.65,-2.93 2.09,-3.93z"/>
     </g>
    </g>
   </g>
  </g>
 </g>
</svg>
